<?xml version="1.0" standalone="no"?>
<!DOCTYPE svg PUBLIC "-//W3C//DTD SVG 1.1//EN" "http://www.w3.org/Graphics/SVG/1.1/DTD/svg11.dtd" >
<svg xmlns="http://www.w3.org/2000/svg" xmlns:xlink="http://www.w3.org/1999/xlink" version="1.1">
<metadata>
Created by FontForge 20170731 at Wed Oct 12 15:27:42 2016
 By Aleksey,,,
Copyright (c) Olivier Gourvat - Mostardesign Type Foundry, 2016. All rights reserved.
</metadata>
<defs>
<font id="SofiaPro-Bold" horiz-adv-x="610" >
  <font-face 
    font-family="Sofia Pro"
    font-weight="700"
    font-stretch="normal"
    units-per-em="1000"
    panose-1="0 0 5 0 0 0 0 0 0 0"
    ascent="800"
    descent="-200"
    x-height="466"
    cap-height="689"
    bbox="-468 -259.014 1545 1121"
    underline-thickness="50"
    underline-position="-350"
    unicode-range="U+0020-FB04"
  />
<missing-glyph horiz-adv-x="635" 
d="M80 0v665h475v-665h-475zM268 222h62v33q0 49 47 62q37 11 61 43.5t24 80.5q0 60 -41.5 97.5t-99.5 37.5q-57 0 -96.5 -40t-39.5 -105h62q0 37 21 60t53 23t56 -20.5t24 -52.5q0 -49 -57 -71q-41 -12 -58.5 -36.5t-17.5 -73.5v-38zM300 88q18 0 31.5 12.5t13.5 30.5
t-13.5 30.5t-31.5 12.5q-19 0 -32.5 -12.5t-13.5 -30.5t13.5 -30.5t32.5 -12.5z" />
    <glyph glyph-name="f_f" unicode="ff" horiz-adv-x="731" 
d="M710 593q-98 0 -100 -97v-30h102v-101h-102v-365h-131v365h-236v-365h-131v365h-88v101h88v29q0 106 53 163t152 57h56v-122h-30q-98 0 -100 -97v-30h236v29q0 106 53 163t152 57h56v-122h-30z" />
    <glyph glyph-name="fi" unicode="fi" horiz-adv-x="630" 
d="M564 466v-466h-131v365h-190v-365h-131v365h-88v101h88v29q0 106 53 163t152 57h44v-122h-18q-98 0 -100 -97v-30h321zM498 549q-34 0 -58.5 23t-24.5 56t24.5 55.5t58.5 22.5q35 0 59 -22.5t24 -55.5t-24 -56t-59 -23z" />
    <glyph glyph-name="fl" unicode="fl" horiz-adv-x="631" 
d="M565 715v-715h-132v593h-90q-98 0 -100 -97v-30h102v-101h-102v-365h-131v365h-88v101h88v29q0 106 53 163t152 57h248z" />
    <glyph glyph-name="f_f_i" unicode="ffi" horiz-adv-x="997" 
d="M931 466v-466h-131v365h-190v-365h-131v365h-236v-365h-131v365h-88v101h88v29q0 106 53 163t152 57h56v-122h-30q-98 0 -100 -97v-30h236v29q0 106 53 163t152 57h30v-122h-14q-90 0 -90 -88v-39h321zM865 549q-34 0 -58.5 23t-24.5 56t24.5 55.5t58.5 22.5
q35 0 59 -22.5t24 -55.5t-24 -56t-59 -23z" />
    <glyph glyph-name="f_f_l" unicode="ffl" horiz-adv-x="998" 
d="M932 715v-715h-131v593h-91q-98 0 -100 -97v-30h102v-101h-102v-365h-131v365h-236v-365h-131v365h-88v101h88v29q0 106 53 163t152 57h56v-122h-30q-98 0 -100 -97v-30h236v29q0 106 53 163t152 57h248z" />
    <glyph glyph-name=".notdef" horiz-adv-x="635" 
d="M80 0v665h475v-665h-475zM268 222h62v33q0 49 47 62q37 11 61 43.5t24 80.5q0 60 -41.5 97.5t-99.5 37.5q-57 0 -96.5 -40t-39.5 -105h62q0 37 21 60t53 23t56 -20.5t24 -52.5q0 -49 -57 -71q-41 -12 -58.5 -36.5t-17.5 -73.5v-38zM300 88q18 0 31.5 12.5t13.5 30.5
t-13.5 30.5t-31.5 12.5q-19 0 -32.5 -12.5t-13.5 -30.5t13.5 -30.5t32.5 -12.5z" />
    <glyph glyph-name=".null" horiz-adv-x="0" 
 />
    <glyph glyph-name="nonmarkingreturn" horiz-adv-x="333" 
 />
    <glyph glyph-name="space" unicode=" " horiz-adv-x="238" 
 />
    <glyph glyph-name="exclam" unicode="!" horiz-adv-x="284" 
d="M91 231l-18 458h138l-18 -458h-102zM141 -9q-34 0 -58.5 23t-24.5 58q0 34 24.5 57t58.5 23q35 0 59.5 -23t24.5 -57q0 -35 -24.5 -58t-59.5 -23z" />
    <glyph glyph-name="quotedbl" unicode="&#x22;" horiz-adv-x="399" 
d="M73 393l-18 296h117l-19 -296h-80zM246 393l-19 296h117l-18 -296h-80z" />
    <glyph glyph-name="numbersign" unicode="#" horiz-adv-x="704" 
d="M91 0l52 164h-113l26 91h112l50 169h-111l26 91h112l51 174h101l-52 -174h116l52 174h100l-52 -174h114l-26 -91h-114l-51 -169h114l-27 -91h-113l-52 -164h-99l50 164h-116l-51 -164h-99zM267 255h116l51 169h-116z" />
    <glyph glyph-name="dollar" unicode="$" horiz-adv-x="535" 
d="M497 205q0 -81 -56.5 -131t-141.5 -58v-93l-71 1v93q-86 10 -137.5 64t-51.5 130h138q0 -37 25.5 -60t70.5 -23q40 0 62.5 19.5t22.5 50.5q0 49 -74 71l-75 22q-165 45 -165 178q0 73 51.5 123t132.5 61v93h71v-93q82 -10 131 -62t48 -130h-138q1 35 -20 57t-57 22
t-58 -19.5t-22 -49.5q0 -45 65 -62l69 -20q180 -51 180 -184z" />
    <glyph glyph-name="percent" unicode="%" horiz-adv-x="639" 
d="M165 404q-56 0 -94.5 38.5t-38.5 94.5t38.5 95t94.5 39q55 0 94.5 -39.5t39.5 -94.5q0 -56 -39 -94.5t-95 -38.5zM119 0l324 655h74l-325 -655h-73zM165 477q25 0 43 17t18 43q0 25 -18 43t-43 18q-26 0 -43 -18t-17 -43q0 -26 17 -43t43 -17zM472 -9q-56 0 -94.5 38.5
t-38.5 94.5t38.5 95t94.5 39t95 -39t39 -95t-39 -94.5t-95 -38.5zM472 64q26 0 43.5 17t17.5 43q0 25 -18 43t-43 18t-42.5 -18t-17.5 -43q0 -26 17 -43t43 -17z" />
    <glyph glyph-name="ampersand" unicode="&#x26;" horiz-adv-x="666" 
d="M604 112h31v-116h-35q-115 2 -157 74q-26 -39 -73.5 -59.5t-104.5 -20.5q-100 0 -161 58.5t-61 147.5q0 61 33.5 106.5t82.5 66.5q-37 17 -60 55.5t-23 88.5q0 76 60 130t152 54q115 0 182 -89l-103 -79q-24 37 -75 37q-35 0 -56.5 -21t-21.5 -47q0 -82 97 -82h93v75h123
v-79h83v-100h-83v-94q0 -49 19.5 -77.5t57.5 -28.5zM283 121q45 0 83 28.5t38 88.5v74h-98q-65 0 -96 -29t-29 -70q1 -41 30 -66.5t72 -25.5z" />
    <glyph glyph-name="quotesingle" unicode="'" horiz-adv-x="227" 
d="M73 393l-18 296h117l-19 -296h-80z" />
    <glyph glyph-name="parenleft" unicode="(" horiz-adv-x="374" 
d="M351 -184q-139 0 -224 125t-85 324q0 198 85 324t224 126v-97q-75 0 -134.5 -90.5t-59.5 -262.5q0 -173 59 -263t135 -90v-96z" />
    <glyph glyph-name="parenright" unicode=")" horiz-adv-x="374" 
d="M23 -184v96q76 0 135 90t59 263q0 172 -59.5 262.5t-134.5 90.5v97q138 0 223.5 -126t85.5 -324q0 -199 -85 -324t-224 -125z" />
    <glyph glyph-name="asterisk" unicode="*" horiz-adv-x="454" 
d="M418 525l-127 -28l84 -98l-68 -53l-80 113l-81 -113l-67 53l84 98l-127 28l22 83l132 -42l-6 138h86l-6 -138l131 42z" />
    <glyph glyph-name="plus" unicode="+" horiz-adv-x="486" 
d="M449 295v-100h-156v-156h-100v156h-155v100h155v155h100v-155h156z" />
    <glyph glyph-name="comma" unicode="," horiz-adv-x="254" 
d="M63 -163l-75 32q46 64 65 123t15 138h124q3 -89 -34 -165t-95 -128z" />
    <glyph glyph-name="hyphen" unicode="-" horiz-adv-x="474" 
d="M61 181v116h352v-116h-352z" />
    <glyph glyph-name="period" unicode="." horiz-adv-x="264" 
d="M131 -9q-34 0 -58.5 23t-24.5 58q0 34 24.5 57t58.5 23q35 0 60 -23t25 -57q0 -35 -25 -58t-60 -23z" />
    <glyph glyph-name="slash" unicode="/" horiz-adv-x="484" 
d="M24 0l332 689h105l-332 -689h-105z" />
    <glyph glyph-name="zero" unicode="0" horiz-adv-x="590" 
d="M296 -9q-244 0 -244 335q0 75 11.5 133t38.5 106t76 73.5t118 25.5t117.5 -25.5t75 -73.5t38 -106t11.5 -133q0 -74 -11.5 -131.5t-38 -105t-75 -73t-117.5 -25.5zM296 113q109 0 109 213q0 216 -109 216q-111 0 -111 -216q0 -213 111 -213z" />
    <glyph glyph-name="one" unicode="1" horiz-adv-x="393" 
d="M298 664h11v-664h-132v486l-151 -58v123z" />
    <glyph glyph-name="two" unicode="2" horiz-adv-x="539" 
d="M255 123h232v-123h-441v71l256 307q45 55 45 89q0 33 -24.5 54t-62.5 21q-42 0 -67.5 -25.5t-31.5 -69.5l-119 20q12 90 69.5 143.5t153.5 53.5q98 0 157 -54.5t59 -143.5q0 -85 -72 -166z" />
    <glyph glyph-name="three" unicode="3" horiz-adv-x="529" 
d="M367 353q54 -20 85 -63t31 -100q0 -88 -67.5 -143.5t-174.5 -55.5q-143 0 -215 115l92 71q49 -66 117 -66q52 0 83 24.5t31 64.5q0 41 -31.5 67t-81.5 26h-63v101h37q52 0 81.5 24t27.5 60q-1 30 -24.5 47.5t-59.5 17.5q-31 0 -61.5 -14.5t-49.5 -38.5l-72 82
q78 92 198 92q88 0 146 -49.5t57 -131.5q0 -41 -23 -75.5t-63 -54.5z" />
    <glyph glyph-name="four" unicode="4" horiz-adv-x="598" 
d="M559 242v-117h-100v-125h-133v125h-316v39l371 491h78v-413h100zM197 242h129v173z" />
    <glyph glyph-name="five" unicode="5" horiz-adv-x="573" 
d="M315 444q95 0 155 -62t60 -157q0 -106 -74 -170t-180 -64q-73 0 -140 37.5t-98 96.5l102 68q16 -34 53.5 -57t76.5 -23q56 0 91.5 31.5t35.5 81.5q0 48 -34 79t-86 31q-77 0 -144 -59l-78 49l58 330h372v-122h-264l-25 -126q49 36 119 36z" />
    <glyph glyph-name="six" unicode="6" horiz-adv-x="592" 
d="M324 421q97 0 158.5 -61t61.5 -149q0 -95 -66.5 -157.5t-175.5 -62.5q-116 0 -184.5 84t-68.5 230q0 154 72.5 256.5t204.5 102.5q67 0 124 -33t86 -97l-106 -59q-30 67 -103 67q-62 0 -102 -49.5t-43 -128.5q54 57 142 57zM302 113q48 0 79 28t31 71t-29.5 70t-76.5 28
q-49 0 -80.5 -27t-33.5 -69q0 -43 31 -71.5t79 -29.5z" />
    <glyph glyph-name="seven" unicode="7" horiz-adv-x="520" 
d="M37 655h474v-13l-293 -642h-152l245 533h-274v122z" />
    <glyph glyph-name="eight" unicode="8" horiz-adv-x="594" 
d="M429 368q54 -17 88 -64t34 -108q0 -91 -73 -148t-181 -57t-181.5 57t-73.5 148q0 61 34.5 108t88.5 64q-31 15 -52 49.5t-21 78.5q0 75 58.5 121.5t146.5 46.5t146.5 -46.5t58.5 -121.5q0 -44 -21 -78.5t-52 -49.5zM297 551q-33 0 -55.5 -20.5t-22.5 -49.5t22.5 -49
t55.5 -20t55.5 20t22.5 49t-22.5 49.5t-55.5 20.5zM297 108q52 0 85.5 28.5t33.5 71.5q0 45 -34 73.5t-85 28.5t-85 -29t-34 -72q0 -44 33.5 -72.5t85.5 -28.5z" />
    <glyph glyph-name="nine" unicode="9" horiz-adv-x="593" 
d="M290 664q114 0 184 -87t70 -227q0 -154 -72.5 -256.5t-204.5 -102.5q-68 0 -125 33t-86 97l106 58q32 -66 104 -66q61 0 101 49t44 126q-55 -55 -142 -55q-97 0 -159 61.5t-62 149.5q0 95 67 157.5t175 62.5zM287 344q49 0 80.5 27t32.5 70q0 44 -30.5 72t-78.5 29
q-49 0 -79.5 -27.5t-30.5 -71.5q0 -43 29.5 -70.5t76.5 -28.5z" />
    <glyph glyph-name="colon" unicode=":" horiz-adv-x="283" 
d="M142 316q-35 0 -59.5 22.5t-24.5 57.5t24.5 58t59.5 23q34 0 58.5 -23t24.5 -58t-24.5 -57.5t-58.5 -22.5zM142 -9q-35 0 -59.5 23t-24.5 58q0 34 24.5 57t59.5 23q34 0 58.5 -23t24.5 -57q0 -35 -24.5 -58t-58.5 -23z" />
    <glyph glyph-name="semicolon" unicode=";" horiz-adv-x="284" 
d="M143 477q34 0 59 -23t25 -58t-24.5 -57.5t-59.5 -22.5q-34 0 -58.5 22.5t-24.5 57.5t24.5 58t58.5 23zM79 -163l-75 32q46 63 65.5 122.5t15.5 138.5h123q3 -89 -34 -165t-95 -128z" />
    <glyph glyph-name="less" unicode="&#x3c;" horiz-adv-x="601" 
d="M537 542v-108l-365 -139l365 -138v-108l-503 193v108z" />
    <glyph glyph-name="equal" unicode="=" horiz-adv-x="588" 
d="M64 344v96h460v-96h-460zM64 144v96h460v-96h-460z" />
    <glyph glyph-name="greater" unicode="&#x3e;" horiz-adv-x="601" 
d="M64 542l503 -192v-108l-503 -193v108l365 139l-365 138v108z" />
    <glyph glyph-name="question" unicode="?" horiz-adv-x="484" 
d="M141 231v20q-6 61 14 99t80 62l36 14q52 22 52 71q0 36 -22.5 56t-58.5 20q-34 0 -59.5 -24t-26.5 -63h-122q0 100 58.5 156t150.5 56q91 0 148.5 -53t57.5 -142q0 -70 -37 -119t-98 -70q-24 -8 -35 -13.5t-20.5 -18.5t-9.5 -32l-1 -19h-107zM194 -9q-34 0 -58.5 23
t-24.5 58t24.5 57.5t58.5 22.5q35 0 60 -22.5t25 -57.5t-25 -58t-60 -23z" />
    <glyph glyph-name="at" unicode="@" horiz-adv-x="965" 
d="M471 -172q-182 0 -307 126t-125 309t125.5 311.5t306.5 128.5q121 0 224 -54.5t165 -152t62 -215.5q0 -48 -10.5 -96.5t-32 -93.5t-61 -73.5t-90.5 -28.5q-64 0 -106.5 36.5t-42.5 116.5v126q0 50 -34.5 84.5t-83.5 34.5q-48 0 -83 -34.5t-35 -84.5q0 -48 35 -82.5
t83 -34.5q44 0 82 28v-93q-37 -21 -82 -21q-85 0 -144.5 59.5t-59.5 143.5q0 86 59.5 145t144.5 59q83 0 142.5 -56.5t62.5 -137.5v-142q0 -34 18 -48.5t44 -14.5q31 0 53.5 21t33 55t15 66.5t4.5 65.5q0 143 -106.5 239t-256.5 96q-145 0 -245.5 -103.5t-100.5 -249.5
t100 -247t246 -101h46v-87h-46z" />
    <glyph glyph-name="A" unicode="A" horiz-adv-x="653" 
d="M512 0l-56 165h-258l-55 -165h-148l257 689h150l256 -689h-146zM239 286h175l-88 259z" />
    <glyph glyph-name="B" unicode="B" horiz-adv-x="638" 
d="M464 368q63 -11 97 -59.5t34 -111.5q0 -80 -55.5 -138.5t-161.5 -58.5h-294v689h273q91 0 146.5 -49.5t55.5 -128.5q0 -46 -22 -86.5t-73 -56.5zM349 566h-126v-151h126q33 0 52 20.5t19 55.5q0 33 -18 54t-53 21zM358 123q46 0 71.5 25.5t25.5 62.5q0 36 -24.5 62
t-70.5 26h-137v-176h135z" />
    <glyph glyph-name="C" unicode="C" horiz-adv-x="700" 
d="M392 -9q-146 0 -248 103.5t-102 250.5q0 146 102 249t248 103q86 0 160 -38.5t121 -104.5l-106 -77q-63 89 -170 89q-93 0 -154.5 -64t-61.5 -157t61 -158t154 -65q108 0 171 90l106 -78q-48 -66 -121.5 -104.5t-159.5 -38.5z" />
    <glyph glyph-name="D" unicode="D" horiz-adv-x="712" 
d="M84 0v689h270q145 0 229 -97.5t84 -248.5q0 -150 -84 -246.5t-229 -96.5h-270zM223 123h131q83 0 128.5 63t45.5 157t-46 158.5t-128 64.5h-131v-443z" />
    <glyph glyph-name="E" unicode="E" horiz-adv-x="574" 
d="M223 123h302v-123h-441v689h432v-123h-293v-164h257v-125h-257v-154z" />
    <glyph glyph-name="F" unicode="F" horiz-adv-x="542" 
d="M510 566h-287v-166h228v-122h-228v-278h-139v689h426v-123z" />
    <glyph glyph-name="G" unicode="G" horiz-adv-x="755" 
d="M394 -9q-148 0 -250 103t-102 250q0 148 102 251t250 103q156 0 255 -110l-101 -87q-63 68 -154 68q-89 0 -151 -66t-62 -159t62 -161t151 -68q68 0 117 31t62 84q2 5 4 17h-195v113h347q0 -185 -90 -277t-245 -92z" />
    <glyph glyph-name="H" unicode="H" horiz-adv-x="703" 
d="M480 689h139v-689h-139v280h-257v-280h-139v689h139v-284h257v284z" />
    <glyph glyph-name="I" unicode="I" horiz-adv-x="307" 
d="M84 0v689h139v-689h-139z" />
    <glyph glyph-name="J" unicode="J" horiz-adv-x="315" 
d="M7 -235q-46 0 -97 15l12 127q30 -11 85 -11q43 0 64 28t21 73v692h139v-692q0 -103 -54.5 -167.5t-169.5 -64.5z" />
    <glyph glyph-name="K" unicode="K" 
d="M627 0h-189l-215 242v-242h-139v689h139v-235l171 235h173l-261 -343z" />
    <glyph glyph-name="L" unicode="L" horiz-adv-x="504" 
d="M84 0v689h139v-566h261v-123h-400z" />
    <glyph glyph-name="M" unicode="M" horiz-adv-x="925" 
d="M878 0h-142l-50 427l-168 -349h-109l-170 349l-50 -427h-142l85 689h118l213 -452l211 452h120z" />
    <glyph glyph-name="N" unicode="N" horiz-adv-x="682" 
d="M459 689h139v-689h-125l-250 432v-432h-139v689h129l246 -427v427z" />
    <glyph glyph-name="O" unicode="O" horiz-adv-x="785" 
d="M392 -9q-147 0 -248.5 103t-101.5 250t101.5 250.5t248.5 103.5q146 0 248.5 -103.5t102.5 -250.5q0 -146 -102.5 -249.5t-248.5 -103.5zM392 121q91 0 151 64.5t60 158.5t-60 158.5t-151 64.5q-92 0 -151.5 -64.5t-59.5 -158.5t59.5 -158.5t151.5 -64.5z" />
    <glyph glyph-name="P" unicode="P" horiz-adv-x="618" 
d="M365 689q110 0 167.5 -66t57.5 -159t-57.5 -158t-167.5 -65h-142v-241h-139v689h281zM358 363q47 0 69.5 29.5t22.5 71.5t-22.5 72t-67.5 30h-137v-203h135z" />
    <glyph glyph-name="Q" unicode="Q" horiz-adv-x="785" 
d="M743 344q0 -89 -40.5 -165.5t-109.5 -125.5l67 -110l-99 -60l-73 120q-50 -13 -96 -13q-146 0 -248 103.5t-102 250.5t101.5 250t248.5 103q146 0 248.5 -103.5t102.5 -249.5zM392 121q16 0 23 1l-59 98l98 60l69 -113q80 64 80 177q0 93 -60 157.5t-151 64.5
q-92 0 -151.5 -64t-59.5 -158t59.5 -158.5t151.5 -64.5z" />
    <glyph glyph-name="R" unicode="R" horiz-adv-x="636" 
d="M434 0l-164 247h-47v-247h-139v689h275q111 0 168.5 -66t57.5 -159q0 -78 -42 -135.5t-125 -74.5l179 -254h-163zM223 566v-207h111q55 0 83 29t28 73t-26.5 74.5t-73.5 30.5h-122z" />
    <glyph glyph-name="S" unicode="S" horiz-adv-x="582" 
d="M293 -9q-109 0 -178.5 60t-69.5 152h139q1 -38 33.5 -64.5t79.5 -26.5t75 22t28 59q0 56 -87 83l-84 24q-178 47 -178 193q0 91 68.5 148t169.5 57q100 0 165 -57t65 -153h-139q0 38 -25 62.5t-69 24.5q-41 0 -68 -22.5t-27 -56.5q0 -52 77 -73l77 -22q195 -54 195 -201
q0 -98 -72 -153.5t-175 -55.5z" />
    <glyph glyph-name="T" unicode="T" horiz-adv-x="559" 
d="M539 689v-123h-190v-566h-139v566h-190v123h519z" />
    <glyph glyph-name="U" unicode="U" horiz-adv-x="680" 
d="M340 -9q-109 0 -186 70t-77 185v443h139v-435q0 -65 35.5 -98t88.5 -33t89 32.5t36 98.5v435h139v-443q0 -115 -77 -185t-187 -70z" />
    <glyph glyph-name="V" unicode="V" horiz-adv-x="579" 
d="M416 689h145l-209 -689h-125l-209 689h144l127 -465z" />
    <glyph glyph-name="W" unicode="W" horiz-adv-x="904" 
d="M745 689h151l-234 -689h-111l-100 374l-98 -374h-111l-233 689h150l140 -449l97 352h113l95 -352z" />
    <glyph glyph-name="X" unicode="X" horiz-adv-x="650" 
d="M647 0h-165l-157 257l-158 -257h-163l238 368l-217 321h168l132 -211l133 211h166l-217 -321z" />
    <glyph glyph-name="Y" unicode="Y" horiz-adv-x="670" 
d="M507 689h165l-268 -378v-311h-139v313l-267 376h166l170 -262z" />
    <glyph glyph-name="Z" unicode="Z" horiz-adv-x="588" 
d="M542 689v-107l-325 -459h325v-123h-502v107l321 459h-308v123h489z" />
    <glyph glyph-name="bracketleft" unicode="[" horiz-adv-x="332" 
d="M305 618h-113v-703h113v-99h-227v899h227v-97z" />
    <glyph glyph-name="backslash" unicode="\" horiz-adv-x="484" 
d="M355 0l-332 689h106l332 -689h-106z" />
    <glyph glyph-name="bracketright" unicode="]" horiz-adv-x="332" 
d="M27 715h227v-899h-227v99h113v703h-113v97z" />
    <glyph glyph-name="asciicircum" unicode="^" horiz-adv-x="528" 
d="M492 287h-135l-93 255l-93 -255h-135l164 402h128z" />
    <glyph glyph-name="underscore" unicode="_" horiz-adv-x="716" 
d="M51 -129v97h614v-97h-614z" />
    <glyph glyph-name="grave" unicode="`" horiz-adv-x="534" 
d="M260 551l-131 166h133l95 -166h-97z" />
    <glyph glyph-name="a" unicode="a" horiz-adv-x="614" 
d="M417 466h131v-466h-131v58q-23 -33 -65.5 -50t-84.5 -17q-94 0 -161.5 67t-67.5 176t67.5 176t161.5 67q44 0 85.5 -17t64.5 -50v56zM292 113q49 0 85 34.5t36 86.5t-36.5 86t-84.5 34q-50 0 -85.5 -34.5t-35.5 -85.5t35.5 -86t85.5 -35z" />
    <glyph glyph-name="b" unicode="b" horiz-adv-x="613" 
d="M347 477q94 0 161.5 -67t67.5 -176t-67.5 -176t-161.5 -67q-43 0 -85 17t-65 50v-58h-131v715h131v-305q23 33 65 50t85 17zM322 113q50 0 85 35t35 86t-35 85.5t-85 34.5q-48 0 -84.5 -34t-36.5 -86t36 -86.5t85 -34.5z" />
    <glyph glyph-name="c" unicode="c" horiz-adv-x="518" 
d="M293 -9q-105 0 -180.5 68t-75.5 176t75 175.5t181 67.5q124 0 197 -100l-98 -69q-34 47 -98 47q-55 0 -89.5 -34.5t-34.5 -86.5t34.5 -87t89.5 -35q64 0 98 47l98 -69q-72 -100 -197 -100z" />
    <glyph glyph-name="d" unicode="d" horiz-adv-x="614" 
d="M417 715h131v-715h-131v58q-23 -33 -65.5 -50t-84.5 -17q-94 0 -161.5 67t-67.5 176t67.5 176t161.5 67q44 0 85.5 -17t64.5 -50v305zM292 113q49 0 85 34.5t36 86.5t-36.5 86t-84.5 34q-50 0 -85.5 -34.5t-35.5 -85.5t35.5 -86t85.5 -35z" />
    <glyph glyph-name="e" unicode="e" horiz-adv-x="563" 
d="M528 241q0 -8 -2 -50h-352q22 -84 121 -84q78 0 122 52l77 -77q-32 -43 -88.5 -67t-119.5 -24q-108 0 -178 67.5t-70 174.5q0 110 72 177.5t176 67.5q102 0 172 -66t70 -171zM174 276h223q-3 40 -33.5 64t-75.5 24q-94 0 -114 -88z" />
    <glyph glyph-name="f" unicode="f" horiz-adv-x="364" 
d="M343 593q-98 0 -100 -97v-30h102v-101h-102v-365h-131v365h-88v101h88v29q0 106 53 163t152 57h56v-122h-30z" />
    <glyph glyph-name="g" unicode="g" horiz-adv-x="614" 
d="M417 466h131v-402q0 -149 -70.5 -224t-197.5 -75q-75 0 -136 38.5t-91 103.5l109 47q15 -32 48 -52t70 -20q137 0 137 168v7q-24 -32 -66 -49t-84 -17q-94 0 -161.5 67t-67.5 176t67.5 176t161.5 67q43 0 84.5 -17t65.5 -49v55zM292 113q49 0 85 34.5t36 86.5t-36.5 86
t-84.5 34q-50 0 -85.5 -34.5t-35.5 -85.5t35.5 -86t85.5 -35z" />
    <glyph glyph-name="h" unicode="h" horiz-adv-x="582" 
d="M337 478q91 0 138.5 -58t46.5 -164v-256h-131v242q0 52 -26 79.5t-63 27.5q-42 0 -73.5 -26t-31.5 -84v-239h-131v715h131v-322q14 40 57 62.5t83 22.5z" />
    <glyph glyph-name="i" unicode="i" horiz-adv-x="263" 
d="M131 549q-34 0 -58.5 23t-24.5 56t24.5 55.5t58.5 22.5q35 0 59 -22.5t24 -55.5t-24 -56t-59 -23zM66 0v466h131v-466h-131z" />
    <glyph glyph-name="j" unicode="j" horiz-adv-x="271" 
d="M140 549q-34 0 -59 23t-25 56t25 55.5t59 22.5q35 0 58.5 -22.5t23.5 -55.5t-24 -56t-58 -23zM-57 -229v122h57q37 0 55.5 26.5t18.5 69.5v477h131v-478q0 -104 -51.5 -160.5t-149.5 -56.5h-61z" />
    <glyph glyph-name="k" unicode="k" horiz-adv-x="514" 
d="M524 0h-163l-164 202v-202h-131v715h131v-391l118 142h168l-182 -205z" />
    <glyph glyph-name="l" unicode="l" horiz-adv-x="263" 
d="M66 0v715h131v-715h-131z" />
    <glyph glyph-name="m" unicode="m" horiz-adv-x="872" 
d="M635 478q87 0 132.5 -58t45.5 -164v-256h-132v246q0 52 -23.5 77.5t-60.5 25.5q-40 1 -65 -25t-27 -77v-247h-131v247q0 52 -23 77t-59 25q-95 0 -95 -106v-243h-131v466h131v-83q10 45 49.5 70t82.5 25q107 0 150 -90q25 46 69 68t87 22z" />
    <glyph glyph-name="n" unicode="n" horiz-adv-x="582" 
d="M337 478q91 0 138.5 -58t46.5 -164v-256h-131v242q0 52 -26 79.5t-63 27.5q-42 0 -73.5 -26t-31.5 -84v-239h-131v466h131v-78q14 43 56.5 66.5t83.5 23.5z" />
    <glyph glyph-name="o" unicode="o" horiz-adv-x="576" 
d="M288 -9q-103 0 -177 68t-74 175q0 108 74 176t177 68t177 -68t74 -176q0 -107 -74 -175t-177 -68zM288 113q50 0 84 34t34 87q0 54 -34 88t-84 34t-84 -34t-34 -88q0 -53 34 -87t84 -34z" />
    <glyph glyph-name="p" unicode="p" horiz-adv-x="614" 
d="M347 478q94 0 161.5 -67.5t67.5 -176.5t-67.5 -176t-161.5 -67q-43 0 -85 17t-65 50v-287h-131v695h131v-56q23 33 65 50.5t85 17.5zM322 114q50 0 85 34.5t35 85.5t-35 86t-85 35q-49 0 -85 -34.5t-36 -86.5t36.5 -86t84.5 -34z" />
    <glyph glyph-name="q" unicode="q" horiz-adv-x="614" 
d="M417 466h131v-695h-131v288q-23 -33 -64.5 -50.5t-85.5 -17.5q-94 0 -161.5 67t-67.5 176t67.5 176.5t161.5 67.5q43 0 85 -17.5t65 -50.5v56zM292 114q48 0 84.5 34t36.5 86t-36 86.5t-85 34.5q-50 0 -85.5 -35t-35.5 -86t35.5 -85.5t85.5 -34.5z" />
    <glyph glyph-name="r" unicode="r" horiz-adv-x="412" 
d="M333 478q45 0 74 -15l-30 -125q-32 17 -67 17q-52 0 -82.5 -49t-30.5 -146v-160h-131v466h130v-99q37 111 137 111z" />
    <glyph glyph-name="s" unicode="s" horiz-adv-x="465" 
d="M231 -9q-78 0 -135.5 42.5t-58.5 116.5h123q0 -22 18.5 -39t50.5 -17q29 0 48 11.5t19 31.5q0 26 -51 39l-62 15q-136 36 -136 148q0 56 52 97.5t131 41.5q73 0 129 -38t55 -114h-125q0 22 -16.5 35t-40.5 13q-23 0 -38.5 -10.5t-15.5 -28.5q0 -28 46 -40l77 -20
q126 -34 126 -138q0 -69 -58.5 -107.5t-137.5 -38.5z" />
    <glyph glyph-name="t" unicode="t" horiz-adv-x="360" 
d="M341 466v-101h-99v-365h-131v365h-85v101h85v171h131v-171h99z" />
    <glyph glyph-name="u" unicode="u" horiz-adv-x="582" 
d="M385 466h131v-466h-131v76q-14 -42 -56.5 -64.5t-83.5 -22.5q-91 0 -138.5 57.5t-46.5 163.5v256h131v-242q0 -52 26 -79t63 -27q42 0 73.5 26t31.5 83v239z" />
    <glyph glyph-name="v" unicode="v" horiz-adv-x="519" 
d="M372 466h143l-197 -466h-117l-197 466h142l114 -298z" />
    <glyph glyph-name="w" unicode="w" horiz-adv-x="760" 
d="M611 466h142l-165 -466h-112l-96 303l-93 -303h-112l-170 466h142l88 -284l89 284h110l89 -284z" />
    <glyph glyph-name="x" unicode="x" horiz-adv-x="520" 
d="M517 0h-153l-103 149l-105 -149h-154l185 253l-154 213h155l74 -107l72 107h154l-154 -213z" />
    <glyph glyph-name="y" unicode="y" horiz-adv-x="512" 
d="M367 466h141l-288 -695h-140l110 273l-184 422h144l110 -269z" />
    <glyph glyph-name="z" unicode="z" horiz-adv-x="506" 
d="M460 466v-100l-233 -244h233v-122h-420v99l228 245h-214v122h406z" />
    <glyph glyph-name="braceleft" unicode="{" horiz-adv-x="387" 
d="M203 370q0 -35 -15.5 -63.5t-40.5 -41.5q25 -12 40.5 -40.5t15.5 -63.5v-141q0 -48 27 -78.5t88 -30.5h46v-95h-72q-86 0 -144.5 55t-57.5 144v155q0 26 -18.5 40.5t-42.5 14.5v81q24 0 42.5 14.5t18.5 39.5v156q-1 89 57.5 144t144.5 55h72v-96h-46q-61 0 -88 -30
t-27 -78v-141z" />
    <glyph glyph-name="bar" unicode="|" horiz-adv-x="228" 
d="M78 -123v924h71v-924h-71z" />
    <glyph glyph-name="braceright" unicode="}" horiz-adv-x="387" 
d="M296 360q0 -25 18.5 -39.5t42.5 -14.5v-81q-24 0 -42.5 -15t-18.5 -40v-155q1 -89 -57 -144t-144 -55h-72v95h46q61 0 88 30.5t27 78.5v141q0 35 15.5 63.5t40.5 40.5q-25 13 -40.5 41.5t-15.5 63.5v141q0 48 -27 78t-88 30h-46v96h72q85 0 143.5 -55t57.5 -144v-156z
" />
    <glyph glyph-name="asciitilde" unicode="~" horiz-adv-x="664" 
d="M611 285q-26 -42 -69 -68.5t-91 -26.5q-19 0 -39.5 4.5t-29.5 7.5t-32 13.5t-24 10.5q-3 1 -27.5 12.5t-42.5 16.5t-40 5q-57 0 -112 -63l-49 64q29 40 71.5 66t91.5 26q19 0 39 -4.5t29 -7.5t30.5 -13t23.5 -11q3 -1 27.5 -12.5t42.5 -16.5t39 -5q55 0 108 63z" />
    <glyph glyph-name="exclamdown" unicode="&#xa1;" horiz-adv-x="270" 
d="M133 478q35 0 60 -23t25 -58t-25 -58t-60 -23q-34 0 -58 23t-24 58t24 58t58 23zM84 229h102l18 -458h-138z" />
    <glyph glyph-name="cent" unicode="&#xa2;" horiz-adv-x="529" 
d="M298 113q64 0 98 47l98 -69q-63 -87 -169 -99v-115h-71v117q-91 14 -152 79.5t-61 161.5t61 161t152 79v116h71v-114q105 -12 169 -99l-98 -69q-34 47 -98 47q-55 0 -89.5 -34.5t-34.5 -86.5t34.5 -87t89.5 -35z" />
    <glyph glyph-name="sterling" unicode="&#xa3;" horiz-adv-x="657" 
d="M489 203h131v-72q0 -55 -35.5 -93t-86.5 -38h-459v115h98v137h-69v63h69v127q0 103 59 161t152 58q98 0 160 -55.5t62 -172.5h-131q0 54 -24 80.5t-65 26.5q-36 0 -58.5 -27.5t-22.5 -72.5v-125h120v-63h-120v-137h191q29 0 29 37v51z" />
    <glyph glyph-name="currency" unicode="&#xa4;" horiz-adv-x="590" 
d="M53 518l64 64l72 -72q50 31 106 31q60 0 107 -31l71 72l64 -64l-72 -72q32 -51 32 -110t-31 -103l71 -72l-64 -64l-71 72q-47 -31 -107 -31t-107 31l-71 -72l-64 64l71 72q-30 47 -30 105q0 61 31 108zM295 239q42 0 71.5 29.5t29.5 70.5q0 42 -29.5 71.5t-71.5 29.5
q-41 0 -70.5 -29.5t-29.5 -71.5q0 -41 29.5 -70.5t70.5 -29.5z" />
    <glyph glyph-name="yen" unicode="&#xa5;" horiz-adv-x="722" 
d="M290 0v97h-159v68h159v90h-159v68h151l-257 366h165l170 -261l173 261h165l-258 -366h151v-68h-159v-90h159v-68h-159v-97h-142z" />
    <glyph glyph-name="brokenbar" unicode="&#xa6;" horiz-adv-x="233" 
d="M81 418v383h71v-383h-71zM81 -123v384h71v-384h-71z" />
    <glyph glyph-name="section" unicode="&#xa7;" horiz-adv-x="535" 
d="M265 90q-88 0 -149 57.5t-61 150.5v187q0 93 61 150.5t149 57.5q73 0 132 -41.5t76 -119.5l-113 -33q-22 76 -95 76q-38 0 -65 -25t-27 -65v-187q0 -42 28.5 -65.5t69.5 -23.5q24 0 45 5v-118q-25 -6 -51 -6zM269 -173q-72 0 -131.5 42t-75.5 119l112 33q12 -39 38 -57.5
t57 -18.5q39 0 65.5 25t26.5 65v187q0 43 -27.5 66t-69.5 23q-24 0 -45 -5v118q24 6 50 6q89 0 150 -57.5t61 -150.5v-187q0 -93 -61 -150.5t-150 -57.5z" />
    <glyph glyph-name="dieresis" unicode="&#xa8;" horiz-adv-x="588" 
d="M191 569q-30 0 -50.5 19.5t-20.5 48.5q0 28 21 47.5t50 19.5t49.5 -19.5t20.5 -47.5q0 -29 -20.5 -48.5t-49.5 -19.5zM399 569q-30 0 -51 19.5t-21 48.5q0 28 21 47.5t51 19.5q29 0 49 -19.5t20 -47.5q0 -29 -20 -48.5t-49 -19.5z" />
    <glyph glyph-name="copyright" unicode="&#xa9;" horiz-adv-x="783" 
d="M391 -10q-146 0 -247.5 103t-101.5 250t101.5 250.5t247.5 103.5t248 -103.5t102 -250.5t-102 -250t-248 -103zM391 52q120 0 204 85.5t84 205.5q0 121 -84 206.5t-204 85.5t-204 -85.5t-84 -206.5q0 -120 84 -205.5t204 -85.5zM391 161q-74 0 -124.5 52.5t-50.5 125.5
q0 75 50.5 126.5t124.5 51.5q85 0 143 -74l-58 -46q-41 46 -85 46q-42 0 -69.5 -30t-27.5 -74q0 -43 27.5 -73t69.5 -30q47 0 86 47l59 -47q-57 -75 -145 -75z" />
    <glyph glyph-name="ordfeminine" unicode="&#xaa;" horiz-adv-x="533" 
d="M357 711h104v-373h-104v48q-19 -28 -53 -42t-69 -14q-75 0 -129 54.5t-54 140.5q0 87 54 141t129 54q35 0 69 -14t53 -41v46zM255 428q40 0 69.5 28t29.5 69q0 42 -29.5 69.5t-69.5 27.5t-68.5 -28t-28.5 -69q0 -40 29 -68.5t68 -28.5zM81 200v74h368v-74h-368z" />
    <glyph glyph-name="guillemotleft" unicode="&#xab;" horiz-adv-x="507" 
d="M174 26l-138 207l138 207h106l-138 -207l138 -207h-106zM362 26l-138 207l138 207h106l-138 -207l138 -207h-106z" />
    <glyph glyph-name="logicalnot" unicode="&#xac;" horiz-adv-x="616" 
d="M60 371h486v-265h-117v149h-369v116z" />
    <glyph glyph-name="uni00AD" unicode="&#xad;" horiz-adv-x="474" 
d="M61 181v116h352v-116h-352z" />
    <glyph glyph-name="registered" unicode="&#xae;" horiz-adv-x="783" 
d="M391 697q146 0 248 -103.5t102 -250.5t-102 -250t-248 -103t-247.5 103t-101.5 250t101.5 250.5t247.5 103.5zM391 52q120 0 204 85.5t84 205.5q0 121 -84 206.5t-204 85.5t-204 -85.5t-84 -206.5q0 -120 84 -205.5t204 -85.5zM526 400q0 -94 -79 -111l85 -118h-85
l-81 114h-18v-114h-77v341h139q56 0 86 -32.5t30 -79.5zM348 443v-97h50q25 0 37.5 15.5t12.5 34.5q0 17 -12 32t-36 15h-52z" />
    <glyph glyph-name="macron" unicode="&#xaf;" horiz-adv-x="514" 
d="M120 586v85h274v-85h-274z" />
    <glyph glyph-name="degree" unicode="&#xb0;" horiz-adv-x="356" 
d="M178 404q-57 0 -98 40.5t-41 98.5t41 98.5t98 40.5q58 0 98.5 -40.5t40.5 -98.5t-40.5 -98.5t-98.5 -40.5zM178 473q29 0 49.5 20.5t20.5 49.5t-20.5 49.5t-49.5 20.5t-49 -20.5t-20 -49.5t20 -49.5t49 -20.5z" />
    <glyph glyph-name="plusminus" unicode="&#xb1;" horiz-adv-x="525" 
d="M312 390h155v-100h-155v-143h-100v143h-155v100h155v141h100v-141zM57 -1v100h410v-100h-410z" />
    <glyph glyph-name="uni00B2" unicode="&#xb2;" horiz-adv-x="316" 
d="M161 601h120v-75h-247l1 42l133 161q27 32 27 53q0 14 -12 23.5t-31 9.5q-23 0 -35.5 -14t-13.5 -37l-72 13q5 51 37 81.5t87 30.5t88 -30.5t33 -80.5q0 -46 -41 -92z" />
    <glyph glyph-name="uni00B3" unicode="&#xb3;" horiz-adv-x="304" 
d="M210 718q60 -23 60 -86q0 -49 -36 -80t-94 -31q-83 0 -120 60l57 43q23 -30 59 -30q24 0 38.5 11.5t14.5 30.5q0 21 -16 34t-43 13h-27v59h14q27 0 42.5 12.5t14.5 32.5q0 14 -12.5 23.5t-28.5 9.5q-33 0 -55 -25l-42 48q37 46 108 46q49 0 79.5 -27t30.5 -73
q0 -48 -44 -71z" />
    <glyph glyph-name="acute" unicode="&#xb4;" horiz-adv-x="534" 
d="M129 551l95 166h133l-131 -166h-97z" />
    <glyph glyph-name="uni00B5" unicode="&#xb5;" horiz-adv-x="598" 
d="M76 466h131v-253q0 -47 23.5 -71t58.5 -24q40 0 70.5 24.5t30.5 75.5v248h131v-466h-131v67q-14 -37 -54 -57.5t-77 -20.5q-41 0 -66 15v-180h-117v642z" />
    <glyph glyph-name="paragraph" unicode="&#xb6;" horiz-adv-x="704" 
d="M241 -50v305q-86 5 -146.5 68t-60.5 149q0 90 63 153.5t154 63.5h91v-739h-101zM240 -203v89h123q21 0 33 14t12 35v754h130q57 0 97 -41t40 -96v-86h-92v78q0 20 -13.5 33t-32.5 13h-32v-656q0 -54 -35.5 -95t-92.5 -42h-137z" />
    <glyph glyph-name="periodcentered" unicode="&#xb7;" horiz-adv-x="277" 
d="M138 171q-34 0 -58.5 22.5t-24.5 57.5q0 34 24.5 57t58.5 23t59 -23t25 -57q0 -35 -24.5 -57.5t-59.5 -22.5z" />
    <glyph glyph-name="cedilla" unicode="&#xb8;" horiz-adv-x="529" 
d="M267 -211q-47 0 -78 30.5t-31 86.5h69q0 -51 38 -51q15 0 25 10.5t10 27.5q0 12 -4 21l-49 113h68l44 -88q10 -20 10 -47q0 -44 -29.5 -73.5t-72.5 -29.5z" />
    <glyph glyph-name="uni00B9" unicode="&#xb9;" horiz-adv-x="237" 
d="M179 889h5v-363h-79v255l-80 -30v74z" />
    <glyph glyph-name="ordmasculine" unicode="&#xba;" horiz-adv-x="514" 
d="M257 331q-83 0 -142 54.5t-59 140.5t59 140t142 54q82 0 141.5 -54t59.5 -140t-59.5 -140.5t-141.5 -54.5zM257 427q40 0 67.5 28t27.5 71t-27.5 70.5t-67.5 27.5t-67.5 -27.5t-27.5 -70.5t27.5 -71t67.5 -28zM73 274h368v-74h-368v74z" />
    <glyph glyph-name="guillemotright" unicode="&#xbb;" horiz-adv-x="507" 
d="M39 26l138 207l-138 207h106l138 -207l-138 -207h-106zM227 26l138 207l-138 207h106l138 -207l-138 -207h-106z" />
    <glyph glyph-name="onequarter" unicode="&#xbc;" horiz-adv-x="722" 
d="M509 668h83l-451 -677h-84zM105 297v255l-80 -30v74l154 64h5v-363h-79zM694 134v-67h-53v-67h-79v67h-171v22l213 269h37v-224h53zM499 134h63v83z" />
    <glyph glyph-name="onehalf" unicode="&#xbd;" horiz-adv-x="733" 
d="M509 668h83l-451 -677h-84zM105 297v255l-80 -30v74l154 64h5v-363h-79zM578 75h119v-75h-246l1 42l132 160q28 35 28 54q0 14 -12.5 23.5t-31.5 9.5q-23 0 -35.5 -14t-13.5 -37l-71 13q5 51 37 81.5t86 30.5q55 0 88 -30.5t33 -80.5q0 -45 -40 -92z" />
    <glyph glyph-name="threequarters" unicode="&#xbe;" horiz-adv-x="789" 
d="M576 668h83l-451 -677h-84zM270 403q0 -49 -36 -80t-94 -31q-83 0 -120 60l57 42q23 -29 59 -29q24 0 38.5 11.5t14.5 30.5q0 21 -16 34t-43 13h-27v59h14q27 0 42.5 12.5t14.5 32.5q0 14 -12 23t-29 9q-34 0 -55 -24l-42 48q37 46 108 46q49 0 79.5 -27t30.5 -73
q0 -49 -44 -71q60 -23 60 -86zM761 134v-67h-53v-67h-79v67h-171v22l213 269h37v-224h53zM566 134h63v83z" />
    <glyph glyph-name="questiondown" unicode="&#xbf;" horiz-adv-x="473" 
d="M283 478q35 0 59.5 -23t24.5 -58t-24.5 -58t-59.5 -23q-34 0 -59 23t-25 58t25 58t59 23zM335 237l2 -26q6 -61 -14.5 -98.5t-80.5 -62.5l-35 -14q-52 -21 -52 -71q0 -36 22.5 -56t58.5 -20q34 0 59.5 24t26.5 64h122q0 -100 -59 -156t-151 -56q-90 0 -147.5 52.5
t-57.5 141.5q0 70 37 119t98 70q24 8 35 13.5t20.5 18.5t9.5 32l1 25h105z" />
    <glyph glyph-name="Agrave" unicode="&#xc0;" horiz-adv-x="653" 
d="M378 767h-97l-131 166h133zM512 0l-56 165h-258l-55 -165h-148l257 689h150l256 -689h-146zM239 286h175l-88 259z" />
    <glyph glyph-name="Aacute" unicode="&#xc1;" horiz-adv-x="653" 
d="M508 933l-131 -166h-97l95 166h133zM512 0l-56 165h-258l-55 -165h-148l257 689h150l256 -689h-146zM239 286h175l-88 259z" />
    <glyph glyph-name="Acircumflex" unicode="&#xc2;" horiz-adv-x="653" 
d="M326 855l-78 -88h-97l109 166h132l110 -166h-98zM512 0l-56 165h-258l-55 -165h-148l257 689h150l256 -689h-146zM239 286h175l-88 259z" />
    <glyph glyph-name="Atilde" unicode="&#xc3;" horiz-adv-x="653" 
d="M283 828q-8 0 -16.5 -11t-9.5 -33h-70q3 65 31.5 95t64.5 30q24 0 51.5 -20.5t36.5 -20.5q8 0 17 10t10 31h69q-3 -64 -31.5 -93t-64.5 -29q-23 0 -50.5 20.5t-37.5 20.5zM512 0l-56 165h-258l-55 -165h-148l257 689h150l256 -689h-146zM239 286h175l-88 259z" />
    <glyph glyph-name="Adieresis" unicode="&#xc4;" horiz-adv-x="653" 
d="M223 782q-30 0 -50.5 19.5t-20.5 48.5q0 28 21 47.5t50 19.5t49.5 -19.5t20.5 -47.5q0 -29 -20.5 -48.5t-49.5 -19.5zM431 782q-30 0 -51 19.5t-21 48.5q0 28 21 47.5t51 19.5q29 0 49 -19.5t20 -47.5q0 -29 -20 -48.5t-49 -19.5zM512 0l-56 165h-258l-55 -165h-148
l257 689h150l256 -689h-146zM239 286h175l-88 259z" />
    <glyph glyph-name="Aring" unicode="&#xc5;" horiz-adv-x="653" 
d="M326 757q-50 0 -85 34.5t-35 83.5q0 50 35 85t85 35t85.5 -35t35.5 -85q0 -49 -35.5 -83.5t-85.5 -34.5zM326 937q-25 0 -43 -18t-18 -44q0 -25 18 -42.5t43 -17.5q26 0 44.5 17.5t18.5 42.5q0 26 -18.5 44t-44.5 18zM512 0l-56 165h-258l-55 -165h-148l257 689h150
l256 -689h-146zM239 286h175l-88 259z" />
    <glyph glyph-name="AE" unicode="&#xc6;" horiz-adv-x="928" 
d="M577 123h302v-123h-440v160h-215l-82 -160h-165l371 689h522v-123h-293v-166h257v-120h-257v-157zM287 283h151v282h-7z" />
    <glyph glyph-name="Ccedilla" unicode="&#xc7;" horiz-adv-x="700" 
d="M396 122q108 0 171 90l106 -78q-43 -60 -107.5 -97t-140.5 -44l27 -54q10 -20 10 -47q0 -44 -29.5 -73.5t-72.5 -29.5q-47 0 -78 30.5t-31 86.5h69q0 -51 38 -51q15 0 25 10.5t10 27.5q0 12 -4 21l-34 79q-133 14 -223 114.5t-90 237.5q0 146 102 249t248 103
q86 0 160 -38.5t121 -104.5l-106 -77q-63 89 -170 89q-93 0 -154.5 -64t-61.5 -157t61 -158t154 -65z" />
    <glyph glyph-name="Egrave" unicode="&#xc8;" horiz-adv-x="574" 
d="M339 767h-97l-131 166h133zM223 123h302v-123h-441v689h432v-123h-293v-164h257v-125h-257v-154z" />
    <glyph glyph-name="Eacute" unicode="&#xc9;" horiz-adv-x="574" 
d="M469 933l-131 -166h-97l95 166h133zM223 123h302v-123h-441v689h432v-123h-293v-164h257v-125h-257v-154z" />
    <glyph glyph-name="Ecircumflex" unicode="&#xca;" horiz-adv-x="574" 
d="M287 855l-78 -88h-97l109 166h132l110 -166h-98zM223 123h302v-123h-441v689h432v-123h-293v-164h257v-125h-257v-154z" />
    <glyph glyph-name="Edieresis" unicode="&#xcb;" horiz-adv-x="574" 
d="M184 782q-30 0 -50.5 19.5t-20.5 48.5q0 28 21 47.5t50 19.5t49.5 -19.5t20.5 -47.5q0 -29 -20.5 -48.5t-49.5 -19.5zM392 782q-30 0 -51 19.5t-21 48.5q0 28 21 47.5t51 19.5q29 0 49 -19.5t20 -47.5q0 -29 -20 -48.5t-49 -19.5zM223 123h302v-123h-441v689h432v-123
h-293v-164h257v-125h-257v-154z" />
    <glyph glyph-name="Igrave" unicode="&#xcc;" horiz-adv-x="307" 
d="M108 767l-131 166h133l95 -166h-97zM84 0v689h139v-689h-139z" />
    <glyph glyph-name="Iacute" unicode="&#xcd;" horiz-adv-x="307" 
d="M107 767l95 166h133l-131 -166h-97zM84 0v689h139v-689h-139z" />
    <glyph glyph-name="Icircumflex" unicode="&#xce;" horiz-adv-x="307" 
d="M-22 767l109 166h132l110 -166h-98l-78 88l-78 -88h-97zM84 0v689h139v-689h-139z" />
    <glyph glyph-name="Idieresis" unicode="&#xcf;" horiz-adv-x="307" 
d="M50 782q-30 0 -50.5 19.5t-20.5 48.5q0 28 21 47.5t50 19.5t49.5 -19.5t20.5 -47.5q0 -29 -20.5 -48.5t-49.5 -19.5zM258 782q-30 0 -51 19.5t-21 48.5q0 28 21 47.5t51 19.5q29 0 49 -19.5t20 -47.5q0 -29 -20 -48.5t-49 -19.5zM84 0v689h139v-689h-139z" />
    <glyph glyph-name="Eth" unicode="&#xd0;" horiz-adv-x="722" 
d="M364 689q144 0 228 -97.5t84 -248.5q0 -150 -84 -246.5t-228 -96.5h-271v291h-75v102h75v296h271zM364 123q82 0 127.5 63t45.5 157t-45.5 158.5t-127.5 64.5h-132v-173h128v-102h-128v-168h132z" />
    <glyph glyph-name="Ntilde" unicode="&#xd1;" horiz-adv-x="682" 
d="M297 828q-8 0 -16.5 -11t-9.5 -33h-70q3 65 31.5 95t64.5 30q24 0 51.5 -20.5t36.5 -20.5q8 0 17 10t10 31h69q-3 -64 -31.5 -93t-64.5 -29q-23 0 -50.5 20.5t-37.5 20.5zM459 689h139v-689h-125l-250 432v-432h-139v689h129l246 -427v427z" />
    <glyph glyph-name="Ograve" unicode="&#xd2;" horiz-adv-x="785" 
d="M347 767l-131 166h133l95 -166h-97zM392 -9q-147 0 -248.5 103t-101.5 250t101.5 250.5t248.5 103.5q146 0 248.5 -103.5t102.5 -250.5q0 -146 -102.5 -249.5t-248.5 -103.5zM392 121q91 0 151 64.5t60 158.5t-60 158.5t-151 64.5q-92 0 -151.5 -64.5t-59.5 -158.5
t59.5 -158.5t151.5 -64.5z" />
    <glyph glyph-name="Oacute" unicode="&#xd3;" horiz-adv-x="785" 
d="M346 767l95 166h133l-131 -166h-97zM392 -9q-147 0 -248.5 103t-101.5 250t101.5 250.5t248.5 103.5q146 0 248.5 -103.5t102.5 -250.5q0 -146 -102.5 -249.5t-248.5 -103.5zM392 121q91 0 151 64.5t60 158.5t-60 158.5t-151 64.5q-92 0 -151.5 -64.5t-59.5 -158.5
t59.5 -158.5t151.5 -64.5z" />
    <glyph glyph-name="Ocircumflex" unicode="&#xd4;" horiz-adv-x="785" 
d="M217 767l109 166h132l110 -166h-98l-78 88l-78 -88h-97zM392 -9q-147 0 -248.5 103t-101.5 250t101.5 250.5t248.5 103.5q146 0 248.5 -103.5t102.5 -250.5q0 -146 -102.5 -249.5t-248.5 -103.5zM392 121q91 0 151 64.5t60 158.5t-60 158.5t-151 64.5q-92 0 -151.5 -64.5
t-59.5 -158.5t59.5 -158.5t151.5 -64.5z" />
    <glyph glyph-name="Otilde" unicode="&#xd5;" horiz-adv-x="785" 
d="M253 784q3 65 31.5 95t64.5 30q24 0 51.5 -20.5t36.5 -20.5q8 0 17 10t10 31h69q-3 -64 -31.5 -93t-64.5 -29q-23 0 -50.5 20.5t-37.5 20.5q-8 0 -16.5 -11t-9.5 -33h-70zM392 -9q-147 0 -248.5 103t-101.5 250t101.5 250.5t248.5 103.5q146 0 248.5 -103.5t102.5 -250.5
q0 -146 -102.5 -249.5t-248.5 -103.5zM392 121q91 0 151 64.5t60 158.5t-60 158.5t-151 64.5q-92 0 -151.5 -64.5t-59.5 -158.5t59.5 -158.5t151.5 -64.5z" />
    <glyph glyph-name="Odieresis" unicode="&#xd6;" horiz-adv-x="785" 
d="M289 782q-30 0 -50.5 19.5t-20.5 48.5q0 28 21 47.5t50 19.5t49.5 -19.5t20.5 -47.5q0 -29 -20.5 -48.5t-49.5 -19.5zM497 782q-30 0 -51 19.5t-21 48.5q0 28 21 47.5t51 19.5q29 0 49 -19.5t20 -47.5q0 -29 -20 -48.5t-49 -19.5zM392 -9q-147 0 -248.5 103t-101.5 250
t101.5 250.5t248.5 103.5q146 0 248.5 -103.5t102.5 -250.5q0 -146 -102.5 -249.5t-248.5 -103.5zM392 121q91 0 151 64.5t60 158.5t-60 158.5t-151 64.5q-92 0 -151.5 -64.5t-59.5 -158.5t59.5 -158.5t151.5 -64.5z" />
    <glyph glyph-name="multiply" unicode="&#xd7;" horiz-adv-x="473" 
d="M425 379l-118 -118l118 -117l-70 -72l-119 119l-116 -116l-71 71l116 116l-116 116l70 70l117 -116l119 118z" />
    <glyph glyph-name="Oslash" unicode="&#xd8;" horiz-adv-x="788" 
d="M662 573q83 -99 83 -229q0 -146 -102.5 -249.5t-248.5 -103.5q-125 0 -221 78l-79 -81l-47 47l79 81q-82 96 -82 228q0 148 101.5 251t248.5 103q126 0 221 -79l80 82l47 -46zM183 344q0 -72 38 -131l301 310q-55 44 -129 44q-91 0 -150.5 -64.5t-59.5 -158.5zM393 121
q92 0 152 64.5t60 158.5q0 72 -38 131l-302 -311q56 -43 128 -43z" />
    <glyph glyph-name="Ugrave" unicode="&#xd9;" horiz-adv-x="680" 
d="M294 767l-131 166h133l95 -166h-97zM340 -9q-109 0 -186 70t-77 185v443h139v-435q0 -65 35.5 -98t88.5 -33t89 32.5t36 98.5v435h139v-443q0 -115 -77 -185t-187 -70z" />
    <glyph glyph-name="Uacute" unicode="&#xda;" horiz-adv-x="680" 
d="M293 767l95 166h133l-131 -166h-97zM340 -9q-109 0 -186 70t-77 185v443h139v-435q0 -65 35.5 -98t88.5 -33t89 32.5t36 98.5v435h139v-443q0 -115 -77 -185t-187 -70z" />
    <glyph glyph-name="Ucircumflex" unicode="&#xdb;" horiz-adv-x="680" 
d="M164 767l109 166h132l110 -166h-98l-78 88l-78 -88h-97zM340 -9q-109 0 -186 70t-77 185v443h139v-435q0 -65 35.5 -98t88.5 -33t89 32.5t36 98.5v435h139v-443q0 -115 -77 -185t-187 -70z" />
    <glyph glyph-name="Udieresis" unicode="&#xdc;" horiz-adv-x="680" 
d="M236 782q-30 0 -50.5 19.5t-20.5 48.5q0 28 21 47.5t50 19.5t49.5 -19.5t20.5 -47.5q0 -29 -20.5 -48.5t-49.5 -19.5zM444 782q-30 0 -51 19.5t-21 48.5q0 28 21 47.5t51 19.5q29 0 49 -19.5t20 -47.5q0 -29 -20 -48.5t-49 -19.5zM340 -9q-109 0 -186 70t-77 185v443h139
v-435q0 -65 35.5 -98t88.5 -33t89 32.5t36 98.5v435h139v-443q0 -115 -77 -185t-187 -70z" />
    <glyph glyph-name="Yacute" unicode="&#xdd;" horiz-adv-x="670" 
d="M516 933l-131 -166h-97l95 166h133zM507 689h165l-268 -378v-311h-139v313l-267 376h166l170 -262z" />
    <glyph glyph-name="Thorn" unicode="&#xde;" horiz-adv-x="612" 
d="M350 569q97 0 161 -61t64 -161q0 -101 -64.5 -163.5t-160.5 -62.5h-127v-121h-139v689h139v-120h127zM341 244q41 0 68 28.5t27 72.5q0 46 -27.5 73.5t-70.5 27.5h-115v-202h118z" />
    <glyph glyph-name="germandbls" unicode="&#xdf;" horiz-adv-x="593" 
d="M410 406q67 -18 106.5 -70t39.5 -128q0 -97 -67.5 -157t-176.5 -60q-36 -2 -77 11l29 114q23 -8 53 -8q46 0 76 33t30 81t-32 77.5t-83 29.5h-37v116h23q31 0 50 22.5t19 57.5q0 34 -21.5 53t-57.5 19q-40 0 -63.5 -29.5t-23.5 -85.5v-482h-131v482q0 111 60.5 175
t160.5 64q94 0 151.5 -49.5t57.5 -130.5q0 -45 -24 -82t-62 -53z" />
    <glyph glyph-name="agrave" unicode="&#xe0;" horiz-adv-x="614" 
d="M356 544h-97l-131 166h133zM417 466h131v-466h-131v58q-23 -33 -65.5 -50t-84.5 -17q-94 0 -161.5 67t-67.5 176t67.5 176t161.5 67q44 0 85.5 -17t64.5 -50v56zM292 113q49 0 85 34.5t36 86.5t-36.5 86t-84.5 34q-50 0 -85.5 -34.5t-35.5 -85.5t35.5 -86t85.5 -35z" />
    <glyph glyph-name="aacute" unicode="&#xe1;" horiz-adv-x="614" 
d="M486 710l-131 -166h-97l95 166h133zM417 466h131v-466h-131v58q-23 -33 -65.5 -50t-84.5 -17q-94 0 -161.5 67t-67.5 176t67.5 176t161.5 67q44 0 85.5 -17t64.5 -50v56zM292 113q49 0 85 34.5t36 86.5t-36.5 86t-84.5 34q-50 0 -85.5 -34.5t-35.5 -85.5t35.5 -86
t85.5 -35z" />
    <glyph glyph-name="acircumflex" unicode="&#xe2;" horiz-adv-x="614" 
d="M304 632l-78 -88h-97l109 166h132l110 -166h-98zM417 466h131v-466h-131v58q-23 -33 -65.5 -50t-84.5 -17q-94 0 -161.5 67t-67.5 176t67.5 176t161.5 67q44 0 85.5 -17t64.5 -50v56zM292 113q49 0 85 34.5t36 86.5t-36.5 86t-84.5 34q-50 0 -85.5 -34.5t-35.5 -85.5
t35.5 -86t85.5 -35z" />
    <glyph glyph-name="atilde" unicode="&#xe3;" horiz-adv-x="614" 
d="M261 605q-8 0 -16.5 -11t-9.5 -33h-70q3 65 31.5 95t64.5 30q24 0 51.5 -20.5t36.5 -20.5q8 0 17 10t10 31h69q-3 -64 -31.5 -93t-64.5 -29q-23 0 -50.5 20.5t-37.5 20.5zM417 466h131v-466h-131v58q-23 -33 -65.5 -50t-84.5 -17q-94 0 -161.5 67t-67.5 176t67.5 176
t161.5 67q44 0 85.5 -17t64.5 -50v56zM292 113q49 0 85 34.5t36 86.5t-36.5 86t-84.5 34q-50 0 -85.5 -34.5t-35.5 -85.5t35.5 -86t85.5 -35z" />
    <glyph glyph-name="adieresis" unicode="&#xe4;" horiz-adv-x="614" 
d="M201 559q-30 0 -50.5 19.5t-20.5 48.5q0 28 21 47.5t50 19.5t49.5 -19.5t20.5 -47.5q0 -29 -20.5 -48.5t-49.5 -19.5zM409 559q-30 0 -51 19.5t-21 48.5q0 28 21 47.5t51 19.5q29 0 49 -19.5t20 -47.5q0 -29 -20 -48.5t-49 -19.5zM417 466h131v-466h-131v58
q-23 -33 -65.5 -50t-84.5 -17q-94 0 -161.5 67t-67.5 176t67.5 176t161.5 67q44 0 85.5 -17t64.5 -50v56zM292 113q49 0 85 34.5t36 86.5t-36.5 86t-84.5 34q-50 0 -85.5 -34.5t-35.5 -85.5t35.5 -86t85.5 -35z" />
    <glyph glyph-name="aring" unicode="&#xe5;" horiz-adv-x="614" 
d="M304 534q-50 0 -85 34.5t-35 83.5q0 50 35 85t85 35t85.5 -35t35.5 -85q0 -49 -35.5 -83.5t-85.5 -34.5zM304 714q-25 0 -43 -18t-18 -44q0 -25 18 -42.5t43 -17.5q26 0 44.5 17.5t18.5 42.5q0 26 -18.5 44t-44.5 18zM417 466h131v-466h-131v58q-23 -33 -65.5 -50
t-84.5 -17q-94 0 -161.5 67t-67.5 176t67.5 176t161.5 67q44 0 85.5 -17t64.5 -50v56zM292 113q49 0 85 34.5t36 86.5t-36.5 86t-84.5 34q-50 0 -85.5 -34.5t-35.5 -85.5t35.5 -86t85.5 -35z" />
    <glyph glyph-name="ae" unicode="&#xe6;" horiz-adv-x="877" 
d="M842 241q0 -19 -3 -50h-349q11 -38 43 -61t76 -23q76 0 122 52l77 -77q-33 -43 -89 -67t-119 -24q-121 0 -183 76q-79 -76 -197 -76q-83 0 -135.5 39.5t-52.5 105.5q0 67 53 105.5t132 38.5t134 -31v24q0 40 -27.5 64t-69.5 24q-73 0 -119 -48l-73 72q72 93 207 93
q107 0 165 -59q67 59 166 59q102 0 172 -66t70 -171zM490 276h221q-4 41 -34 64.5t-75 23.5q-90 0 -112 -88zM229 93q32 0 73.5 18t60.5 45l-5 11q-46 29 -116 29q-43 0 -61 -16.5t-18 -37.5q0 -22 17.5 -35.5t48.5 -13.5z" />
    <glyph glyph-name="ccedilla" unicode="&#xe7;" horiz-adv-x="518" 
d="M294 113q64 0 98 47l98 -69q-57 -80 -152 -96l28 -56q10 -20 10 -47q0 -44 -29.5 -73.5t-72.5 -29.5q-47 0 -78 30.5t-31 86.5h69q0 -51 38 -51q15 0 25 10.5t10 27.5q0 12 -4 21l-34 78q-98 8 -165 75t-67 168q0 108 75 175.5t181 67.5q124 0 197 -100l-98 -69
q-34 47 -98 47q-55 0 -89.5 -34.5t-34.5 -86.5t34.5 -87t89.5 -35z" />
    <glyph glyph-name="egrave" unicode="&#xe8;" horiz-adv-x="563" 
d="M331 544h-97l-131 166h133zM528 241q0 -8 -2 -50h-352q22 -84 121 -84q78 0 122 52l77 -77q-32 -43 -88.5 -67t-119.5 -24q-108 0 -178 67.5t-70 174.5q0 110 72 177.5t176 67.5q102 0 172 -66t70 -171zM174 276h223q-3 40 -33.5 64t-75.5 24q-94 0 -114 -88z" />
    <glyph glyph-name="eacute" unicode="&#xe9;" horiz-adv-x="563" 
d="M461 710l-131 -166h-97l95 166h133zM528 241q0 -8 -2 -50h-352q22 -84 121 -84q78 0 122 52l77 -77q-32 -43 -88.5 -67t-119.5 -24q-108 0 -178 67.5t-70 174.5q0 110 72 177.5t176 67.5q102 0 172 -66t70 -171zM174 276h223q-3 40 -33.5 64t-75.5 24q-94 0 -114 -88z
" />
    <glyph glyph-name="ecircumflex" unicode="&#xea;" horiz-adv-x="563" 
d="M279 632l-78 -88h-97l109 166h132l110 -166h-98zM528 241q0 -8 -2 -50h-352q22 -84 121 -84q78 0 122 52l77 -77q-32 -43 -88.5 -67t-119.5 -24q-108 0 -178 67.5t-70 174.5q0 110 72 177.5t176 67.5q102 0 172 -66t70 -171zM174 276h223q-3 40 -33.5 64t-75.5 24
q-94 0 -114 -88z" />
    <glyph glyph-name="edieresis" unicode="&#xeb;" horiz-adv-x="563" 
d="M176 559q-30 0 -50.5 19.5t-20.5 48.5q0 28 21 47.5t50 19.5t49.5 -19.5t20.5 -47.5q0 -29 -20.5 -48.5t-49.5 -19.5zM384 559q-30 0 -51 19.5t-21 48.5q0 28 21 47.5t51 19.5q29 0 49 -19.5t20 -47.5q0 -29 -20 -48.5t-49 -19.5zM528 241q0 -8 -2 -50h-352
q22 -84 121 -84q78 0 122 52l77 -77q-32 -43 -88.5 -67t-119.5 -24q-108 0 -178 67.5t-70 174.5q0 110 72 177.5t176 67.5q102 0 172 -66t70 -171zM174 276h223q-3 40 -33.5 64t-75.5 24q-94 0 -114 -88z" />
    <glyph glyph-name="igrave" unicode="&#xec;" horiz-adv-x="263" 
d="M94 551l-131 166h133l95 -166h-97zM66 0v466h131v-466h-131z" />
    <glyph glyph-name="iacute" unicode="&#xed;" horiz-adv-x="263" 
d="M66 551l95 166h133l-131 -166h-97zM66 0v466h131v-466h-131z" />
    <glyph glyph-name="icircumflex" unicode="&#xee;" horiz-adv-x="263" 
d="M-44 551l109 166h132l110 -166h-98l-78 88l-78 -88h-97zM66 0v466h131v-466h-131z" />
    <glyph glyph-name="idieresis" unicode="&#xef;" horiz-adv-x="263" 
d="M28 569q-30 0 -50.5 19.5t-20.5 48.5q0 28 21 47.5t50 19.5t49.5 -19.5t20.5 -47.5q0 -29 -20.5 -48.5t-49.5 -19.5zM236 569q-30 0 -51 19.5t-21 48.5q0 28 21 47.5t51 19.5q29 0 49 -19.5t20 -47.5q0 -29 -20 -48.5t-49 -19.5zM66 0v466h131v-466h-131z" />
    <glyph glyph-name="eth" unicode="&#xf0;" horiz-adv-x="569" 
d="M484 383q47 -63 47 -149q0 -108 -72.5 -175.5t-174.5 -67.5t-174.5 67.5t-72.5 175.5q0 102 71 165.5t173 63.5q9 0 13 -1l-64 92l-116 -47l-21 53l103 42l-79 113h135l49 -71l86 35l21 -53l-73 -30zM284 113q47 0 80.5 34.5t33.5 86.5q0 50 -33.5 82.5t-80.5 32.5
q-46 0 -80 -32.5t-34 -82.5q0 -52 34 -86.5t80 -34.5z" />
    <glyph glyph-name="ntilde" unicode="&#xf1;" horiz-adv-x="582" 
d="M247 605q-8 0 -16.5 -11t-9.5 -33h-70q3 65 31.5 95t64.5 30q24 0 51.5 -20.5t36.5 -20.5q8 0 17 10t10 31h69q-3 -64 -31.5 -93t-64.5 -29q-23 0 -50.5 20.5t-37.5 20.5zM337 478q91 0 138.5 -58t46.5 -164v-256h-131v242q0 52 -26 79.5t-63 27.5q-42 0 -73.5 -26
t-31.5 -84v-239h-131v466h131v-78q14 43 56.5 66.5t83.5 23.5z" />
    <glyph glyph-name="ograve" unicode="&#xf2;" horiz-adv-x="576" 
d="M244 544l-131 166h133l95 -166h-97zM288 -9q-103 0 -177 68t-74 175q0 108 74 176t177 68t177 -68t74 -176q0 -107 -74 -175t-177 -68zM288 113q50 0 84 34t34 87q0 54 -34 88t-84 34t-84 -34t-34 -88q0 -53 34 -87t84 -34z" />
    <glyph glyph-name="oacute" unicode="&#xf3;" horiz-adv-x="576" 
d="M243 544l95 166h133l-131 -166h-97zM288 -9q-103 0 -177 68t-74 175q0 108 74 176t177 68t177 -68t74 -176q0 -107 -74 -175t-177 -68zM288 113q50 0 84 34t34 87q0 54 -34 88t-84 34t-84 -34t-34 -88q0 -53 34 -87t84 -34z" />
    <glyph glyph-name="ocircumflex" unicode="&#xf4;" horiz-adv-x="576" 
d="M114 544l109 166h132l110 -166h-98l-78 88l-78 -88h-97zM288 -9q-103 0 -177 68t-74 175q0 108 74 176t177 68t177 -68t74 -176q0 -107 -74 -175t-177 -68zM288 113q50 0 84 34t34 87q0 54 -34 88t-84 34t-84 -34t-34 -88q0 -53 34 -87t84 -34z" />
    <glyph glyph-name="otilde" unicode="&#xf5;" horiz-adv-x="576" 
d="M150 561q3 65 31.5 95t64.5 30q24 0 51.5 -20.5t36.5 -20.5q8 0 17 10t10 31h69q-3 -64 -31.5 -93t-64.5 -29q-23 0 -50.5 20.5t-37.5 20.5q-8 0 -16.5 -11t-9.5 -33h-70zM288 -9q-103 0 -177 68t-74 175q0 108 74 176t177 68t177 -68t74 -176q0 -107 -74 -175t-177 -68z
M288 113q50 0 84 34t34 87q0 54 -34 88t-84 34t-84 -34t-34 -88q0 -53 34 -87t84 -34z" />
    <glyph glyph-name="odieresis" unicode="&#xf6;" horiz-adv-x="576" 
d="M186 559q-30 0 -50.5 19.5t-20.5 48.5q0 28 21 47.5t50 19.5t49.5 -19.5t20.5 -47.5q0 -29 -20.5 -48.5t-49.5 -19.5zM394 559q-30 0 -51 19.5t-21 48.5q0 28 21 47.5t51 19.5q29 0 49 -19.5t20 -47.5q0 -29 -20 -48.5t-49 -19.5zM288 -9q-103 0 -177 68t-74 175
q0 108 74 176t177 68t177 -68t74 -176q0 -107 -74 -175t-177 -68zM288 113q50 0 84 34t34 87q0 54 -34 88t-84 34t-84 -34t-34 -88q0 -53 34 -87t84 -34z" />
    <glyph glyph-name="divide" unicode="&#xf7;" horiz-adv-x="563" 
d="M280 372q-32 0 -54 21t-22 53q0 31 22 52t54 21t54.5 -21t22.5 -52q0 -32 -22.5 -53t-54.5 -21zM42 216v95h479v-95h-479zM280 5q-32 0 -54 21.5t-22 53.5t22 52.5t54 20.5t54.5 -20.5t22.5 -52.5t-22.5 -53.5t-54.5 -21.5z" />
    <glyph glyph-name="oslash" unicode="&#xf8;" horiz-adv-x="578" 
d="M486 389q54 -65 54 -155q0 -107 -74 -175t-177 -68q-83 0 -148 45l-55 -57l-43 43l53 54q-58 66 -58 158q0 108 74 176t177 68q85 0 152 -48l50 51l43 -42zM171 234q0 -35 16 -64l165 169q-28 17 -63 17q-50 0 -84 -34t-34 -88zM289 113q50 0 84 34t34 87q0 34 -14 60
l-162 -166q25 -15 58 -15z" />
    <glyph glyph-name="ugrave" unicode="&#xf9;" horiz-adv-x="582" 
d="M341 544h-97l-131 166h133zM385 466h131v-466h-131v76q-14 -42 -56.5 -64.5t-83.5 -22.5q-91 0 -138.5 57.5t-46.5 163.5v256h131v-242q0 -52 26 -79t63 -27q42 0 73.5 26t31.5 83v239z" />
    <glyph glyph-name="uacute" unicode="&#xfa;" horiz-adv-x="582" 
d="M471 710l-131 -166h-97l95 166h133zM385 466h131v-466h-131v76q-14 -42 -56.5 -64.5t-83.5 -22.5q-91 0 -138.5 57.5t-46.5 163.5v256h131v-242q0 -52 26 -79t63 -27q42 0 73.5 26t31.5 83v239z" />
    <glyph glyph-name="ucircumflex" unicode="&#xfb;" horiz-adv-x="582" 
d="M289 632l-78 -88h-97l109 166h132l110 -166h-98zM385 466h131v-466h-131v76q-14 -42 -56.5 -64.5t-83.5 -22.5q-91 0 -138.5 57.5t-46.5 163.5v256h131v-242q0 -52 26 -79t63 -27q42 0 73.5 26t31.5 83v239z" />
    <glyph glyph-name="udieresis" unicode="&#xfc;" horiz-adv-x="582" 
d="M186 559q-30 0 -50.5 19.5t-20.5 48.5q0 28 21 47.5t50 19.5t49.5 -19.5t20.5 -47.5q0 -29 -20.5 -48.5t-49.5 -19.5zM394 559q-30 0 -51 19.5t-21 48.5q0 28 21 47.5t51 19.5q29 0 49 -19.5t20 -47.5q0 -29 -20 -48.5t-49 -19.5zM385 466h131v-466h-131v76
q-14 -42 -56.5 -64.5t-83.5 -22.5q-91 0 -138.5 57.5t-46.5 163.5v256h131v-242q0 -52 26 -79t63 -27q42 0 73.5 26t31.5 83v239z" />
    <glyph glyph-name="yacute" unicode="&#xfd;" horiz-adv-x="512" 
d="M440 710l-131 -166h-97l95 166h133zM367 466h141l-288 -695h-140l110 273l-184 422h144l110 -269z" />
    <glyph glyph-name="thorn" unicode="&#xfe;" horiz-adv-x="613" 
d="M347 477q94 0 161.5 -67t67.5 -176t-67.5 -176t-161.5 -67q-43 0 -85 17t-65 50v-287h-131v944h131v-305q23 33 65 50t85 17zM322 113q50 0 85 35t35 86t-35 85.5t-85 34.5q-48 0 -84.5 -34t-36.5 -86t36 -86.5t85 -34.5z" />
    <glyph glyph-name="ydieresis" unicode="&#xff;" horiz-adv-x="512" 
d="M155 559q-30 0 -50.5 19.5t-20.5 48.5q0 28 21 47.5t50 19.5t49.5 -19.5t20.5 -47.5q0 -29 -20.5 -48.5t-49.5 -19.5zM363 559q-30 0 -51 19.5t-21 48.5q0 28 21 47.5t51 19.5q29 0 49 -19.5t20 -47.5q0 -29 -20 -48.5t-49 -19.5zM367 466h141l-288 -695h-140l110 273
l-184 422h144l110 -269z" />
    <glyph glyph-name="Amacron" unicode="&#x100;" horiz-adv-x="653" 
d="M464 889v-84h-274v84h274zM512 0l-56 165h-258l-55 -165h-148l257 689h150l256 -689h-146zM239 286h175l-88 259z" />
    <glyph glyph-name="amacron" unicode="&#x101;" horiz-adv-x="614" 
d="M442 666v-84h-274v84h274zM417 466h131v-466h-131v58q-23 -33 -65.5 -50t-84.5 -17q-94 0 -161.5 67t-67.5 176t67.5 176t161.5 67q44 0 85.5 -17t64.5 -50v56zM292 113q49 0 85 34.5t36 86.5t-36.5 86t-84.5 34q-50 0 -85.5 -34.5t-35.5 -85.5t35.5 -86t85.5 -35z" />
    <glyph glyph-name="Abreve" unicode="&#x102;" horiz-adv-x="653" 
d="M326 782q-65 0 -99 38t-34 92h83q0 -53 50 -53q25 0 37 15t12 38h85q0 -59 -37 -94.5t-97 -35.5zM512 0l-56 165h-258l-55 -165h-148l257 689h150l256 -689h-146zM239 286h175l-88 259z" />
    <glyph glyph-name="abreve" unicode="&#x103;" horiz-adv-x="614" 
d="M304 559q-65 0 -99 38t-34 92h83q0 -53 50 -53q25 0 37 15t12 38h85q0 -59 -37 -94.5t-97 -35.5zM417 466h131v-466h-131v58q-23 -33 -65.5 -50t-84.5 -17q-94 0 -161.5 67t-67.5 176t67.5 176t161.5 67q44 0 85.5 -17t64.5 -50v56zM292 113q49 0 85 34.5t36 86.5
t-36.5 86t-84.5 34q-50 0 -85.5 -34.5t-35.5 -85.5t35.5 -86t85.5 -35z" />
    <glyph glyph-name="Aogonek" unicode="&#x104;" horiz-adv-x="653" 
d="M594 -94h69q0 -56 -31.5 -86.5t-78.5 -30.5q-43 0 -72.5 29.5t-29.5 73.5q0 27 11 47l42 84l-48 142h-258l-55 -165h-148l257 689h150l256 -689h-96l-38 -86q-3 -10 -3 -21q0 -17 9.5 -27.5t24.5 -10.5q39 0 39 51zM239 286h175l-88 259z" />
    <glyph glyph-name="aogonek" unicode="&#x105;" horiz-adv-x="614" 
d="M465 -211q-43 0 -72.5 29.5t-29.5 73.5q0 27 11 47l43 86v33q-24 -33 -65.5 -50t-84.5 -17q-94 0 -161.5 67t-67.5 176t67.5 176t161.5 67q43 0 84.5 -17t65.5 -50v56h131v-466h-74l-38 -86q-4 -9 -4 -21q0 -17 10 -27.5t25 -10.5q39 0 39 51h69q0 -56 -31.5 -86.5
t-78.5 -30.5zM292 113q49 0 85 34.5t36 86.5t-36.5 86t-84.5 34q-50 0 -85.5 -34.5t-35.5 -85.5t35.5 -86t85.5 -35z" />
    <glyph glyph-name="Cacute" unicode="&#x106;" horiz-adv-x="700" 
d="M302 767l95 166h133l-131 -166h-97zM392 -9q-146 0 -248 103.5t-102 250.5q0 146 102 249t248 103q86 0 160 -38.5t121 -104.5l-106 -77q-63 89 -170 89q-93 0 -154.5 -64t-61.5 -157t61 -158t154 -65q108 0 171 90l106 -78q-48 -66 -121.5 -104.5t-159.5 -38.5z" />
    <glyph glyph-name="cacute" unicode="&#x107;" horiz-adv-x="518" 
d="M216 544l95 166h133l-131 -166h-97zM293 -9q-105 0 -180.5 68t-75.5 176t75 175.5t181 67.5q124 0 197 -100l-98 -69q-34 47 -98 47q-55 0 -89.5 -34.5t-34.5 -86.5t34.5 -87t89.5 -35q64 0 98 47l98 -69q-72 -100 -197 -100z" />
    <glyph glyph-name="Cdotaccent" unicode="&#x10a;" horiz-adv-x="700" 
d="M389 775q-32 0 -54 20.5t-22 52.5q0 31 22 51.5t54 20.5q31 0 53 -21t22 -51q0 -32 -22 -52.5t-53 -20.5zM392 -9q-146 0 -248 103.5t-102 250.5q0 146 102 249t248 103q86 0 160 -38.5t121 -104.5l-106 -77q-63 89 -170 89q-93 0 -154.5 -64t-61.5 -157t61 -158t154 -65
q108 0 171 90l106 -78q-48 -66 -121.5 -104.5t-159.5 -38.5z" />
    <glyph glyph-name="cdotaccent" unicode="&#x10b;" horiz-adv-x="518" 
d="M283 552q-32 0 -54 20.5t-22 52.5q0 31 22 51.5t54 20.5q31 0 53 -21t22 -51q0 -32 -22 -52.5t-53 -20.5zM293 -9q-105 0 -180.5 68t-75.5 176t75 175.5t181 67.5q124 0 197 -100l-98 -69q-34 47 -98 47q-55 0 -89.5 -34.5t-34.5 -86.5t34.5 -87t89.5 -35q64 0 98 47
l98 -69q-72 -100 -197 -100z" />
    <glyph glyph-name="Ccaron" unicode="&#x10c;" horiz-adv-x="700" 
d="M318 767l-109 166h97l78 -89l78 89h98l-110 -166h-132zM392 -9q-146 0 -248 103.5t-102 250.5q0 146 102 249t248 103q86 0 160 -38.5t121 -104.5l-106 -77q-63 89 -170 89q-93 0 -154.5 -64t-61.5 -157t61 -158t154 -65q108 0 171 90l106 -78q-48 -66 -121.5 -104.5
t-159.5 -38.5z" />
    <glyph glyph-name="ccaron" unicode="&#x10d;" horiz-adv-x="518" 
d="M213 544l-109 166h97l78 -89l78 89h98l-110 -166h-132zM293 -9q-105 0 -180.5 68t-75.5 176t75 175.5t181 67.5q124 0 197 -100l-98 -69q-34 47 -98 47q-55 0 -89.5 -34.5t-34.5 -86.5t34.5 -87t89.5 -35q64 0 98 47l98 -69q-72 -100 -197 -100z" />
    <glyph glyph-name="Dcaron" unicode="&#x10e;" horiz-adv-x="712" 
d="M254 767l-109 166h97l78 -89l78 89h98l-110 -166h-132zM84 0v689h270q145 0 229 -97.5t84 -248.5q0 -150 -84 -246.5t-229 -96.5h-270zM223 123h131q83 0 128.5 63t45.5 157t-46 158.5t-128 64.5h-131v-443z" />
    <glyph glyph-name="dcaron" unicode="&#x10f;" horiz-adv-x="654" 
d="M417 410v305h131v-715h-131v58q-23 -33 -65.5 -50t-84.5 -17q-94 0 -161.5 67t-67.5 176t67.5 176t161.5 67q44 0 85.5 -17t64.5 -50zM638 689h114q-11 -149 -104 -226l-66 33q33 45 45 86t11 107zM292 113q49 0 85 34.5t36 86.5t-36.5 86t-84.5 34q-50 0 -85.5 -34.5
t-35.5 -85.5t35.5 -86t85.5 -35z" />
    <glyph glyph-name="Dcroat" unicode="&#x110;" horiz-adv-x="722" 
d="M364 689q144 0 228 -97.5t84 -248.5q0 -150 -84 -246.5t-228 -96.5h-271v291h-75v102h75v296h271zM364 123q82 0 127.5 63t45.5 157t-45.5 158.5t-127.5 64.5h-132v-173h128v-102h-128v-168h132z" />
    <glyph glyph-name="dcroat" unicode="&#x111;" horiz-adv-x="614" 
d="M618 622v-73h-70v-549h-131v58q-23 -33 -65.5 -50t-84.5 -17q-94 0 -161.5 67t-67.5 176t67.5 176t161.5 67q44 0 85.5 -17t64.5 -50v139h-140v73h140v93h131v-93h70zM292 113q49 0 85 34.5t36 86.5t-36.5 86t-84.5 34q-50 0 -85.5 -34.5t-35.5 -85.5t35.5 -86t85.5 -35z
" />
    <glyph glyph-name="Emacron" unicode="&#x112;" horiz-adv-x="574" 
d="M425 889v-84h-274v84h274zM223 123h302v-123h-441v689h432v-123h-293v-164h257v-125h-257v-154z" />
    <glyph glyph-name="emacron" unicode="&#x113;" horiz-adv-x="563" 
d="M417 666v-84h-274v84h274zM528 241q0 -8 -2 -50h-352q22 -84 121 -84q78 0 122 52l77 -77q-32 -43 -88.5 -67t-119.5 -24q-108 0 -178 67.5t-70 174.5q0 110 72 177.5t176 67.5q102 0 172 -66t70 -171zM174 276h223q-3 40 -33.5 64t-75.5 24q-94 0 -114 -88z" />
    <glyph glyph-name="Edotaccent" unicode="&#x116;" horiz-adv-x="574" 
d="M288 775q-32 0 -54 20.5t-22 52.5q0 31 22 51.5t54 20.5q31 0 53 -21t22 -51q0 -32 -22 -52.5t-53 -20.5zM223 123h302v-123h-441v689h432v-123h-293v-164h257v-125h-257v-154z" />
    <glyph glyph-name="edotaccent" unicode="&#x117;" horiz-adv-x="563" 
d="M280 552q-32 0 -54 20.5t-22 52.5q0 31 22 51.5t54 20.5q31 0 53 -21t22 -51q0 -32 -22 -52.5t-53 -20.5zM528 241q0 -8 -2 -50h-352q22 -84 121 -84q78 0 122 52l77 -77q-32 -43 -88.5 -67t-119.5 -24q-108 0 -178 67.5t-70 174.5q0 110 72 177.5t176 67.5
q102 0 172 -66t70 -171zM174 276h223q-3 40 -33.5 64t-75.5 24q-94 0 -114 -88z" />
    <glyph glyph-name="Eogonek" unicode="&#x118;" horiz-adv-x="574" 
d="M417 0l-38 -86q-4 -9 -4 -21q0 -17 10 -27.5t25 -10.5q38 0 38 51h70q0 -56 -31.5 -86.5t-78.5 -30.5q-43 0 -72.5 29.5t-29.5 73.5q0 27 10 47l31 61h-263v689h432v-123h-293v-164h257v-125h-257v-154h302v-123h-108z" />
    <glyph glyph-name="eogonek" unicode="&#x119;" horiz-adv-x="563" 
d="M528 241q0 -8 -2 -50h-352q22 -84 121 -84q78 0 122 52l77 -77q-30 -42 -87 -66l-45 -102q-3 -10 -3 -21q0 -17 9.5 -27.5t24.5 -10.5q39 0 39 51h69q0 -56 -31.5 -86.5t-78.5 -30.5q-43 0 -72.5 29.5t-29.5 73.5q0 27 11 47l27 55q-19 -3 -41 -3q-108 0 -178 67.5
t-70 174.5q0 110 72 177.5t176 67.5q102 0 172 -66t70 -171zM174 276h223q-3 40 -33.5 64t-75.5 24q-94 0 -114 -88z" />
    <glyph glyph-name="Ecaron" unicode="&#x11a;" horiz-adv-x="574" 
d="M353 767h-132l-109 166h97l78 -89l78 89h98zM223 123h302v-123h-441v689h432v-123h-293v-164h257v-125h-257v-154z" />
    <glyph glyph-name="ecaron" unicode="&#x11b;" horiz-adv-x="563" 
d="M345 544h-132l-109 166h97l78 -89l78 89h98zM528 241q0 -8 -2 -50h-352q22 -84 121 -84q78 0 122 52l77 -77q-32 -43 -88.5 -67t-119.5 -24q-108 0 -178 67.5t-70 174.5q0 110 72 177.5t176 67.5q102 0 172 -66t70 -171zM174 276h223q-3 40 -33.5 64t-75.5 24
q-94 0 -114 -88z" />
    <glyph glyph-name="Gbreve" unicode="&#x11e;" horiz-adv-x="755" 
d="M376 782q-65 0 -99 38t-34 92h83q0 -53 50 -53q25 0 37 15t12 38h85q0 -59 -37 -94.5t-97 -35.5zM394 -9q-148 0 -250 103t-102 250q0 148 102 251t250 103q156 0 255 -110l-101 -87q-63 68 -154 68q-89 0 -151 -66t-62 -159t62 -161t151 -68q68 0 117 31t62 84q2 5 4 17
h-195v113h347q0 -185 -90 -277t-245 -92z" />
    <glyph glyph-name="gbreve" unicode="&#x11f;" horiz-adv-x="614" 
d="M304 559q-65 0 -99 38t-34 92h83q0 -53 50 -53q25 0 37 15t12 38h85q0 -59 -37 -94.5t-97 -35.5zM417 466h131v-402q0 -149 -70.5 -224t-197.5 -75q-75 0 -136 38.5t-91 103.5l109 47q15 -32 48 -52t70 -20q137 0 137 168v7q-24 -32 -66 -49t-84 -17q-94 0 -161.5 67
t-67.5 176t67.5 176t161.5 67q43 0 84.5 -17t65.5 -49v55zM292 113q49 0 85 34.5t36 86.5t-36.5 86t-84.5 34q-50 0 -85.5 -34.5t-35.5 -85.5t35.5 -86t85.5 -35z" />
    <glyph glyph-name="Gdotaccent" unicode="&#x120;" horiz-adv-x="755" 
d="M377 775q-32 0 -54 20.5t-22 52.5q0 31 22 51.5t54 20.5q31 0 53 -21t22 -51q0 -32 -22 -52.5t-53 -20.5zM394 -9q-148 0 -250 103t-102 250q0 148 102 251t250 103q156 0 255 -110l-101 -87q-63 68 -154 68q-89 0 -151 -66t-62 -159t62 -161t151 -68q68 0 117 31t62 84
q2 5 4 17h-195v113h347q0 -185 -90 -277t-245 -92z" />
    <glyph glyph-name="gdotaccent" unicode="&#x121;" horiz-adv-x="614" 
d="M305 552q-32 0 -54 20.5t-22 52.5q0 31 22 51.5t54 20.5q31 0 53 -21t22 -51q0 -32 -22 -52.5t-53 -20.5zM417 466h131v-402q0 -149 -70.5 -224t-197.5 -75q-75 0 -136 38.5t-91 103.5l109 47q15 -32 48 -52t70 -20q137 0 137 168v7q-24 -32 -66 -49t-84 -17
q-94 0 -161.5 67t-67.5 176t67.5 176t161.5 67q43 0 84.5 -17t65.5 -49v55zM292 113q49 0 85 34.5t36 86.5t-36.5 86t-84.5 34q-50 0 -85.5 -34.5t-35.5 -85.5t35.5 -86t85.5 -35z" />
    <glyph glyph-name="Gcommaaccent" unicode="&#x122;" horiz-adv-x="755" 
d="M394 -9q-148 0 -250 103t-102 250q0 148 102 251t250 103q156 0 255 -110l-101 -87q-63 68 -154 68q-89 0 -151 -66t-62 -159t62 -161t151 -68q68 0 117 31t62 84q2 5 4 17h-195v113h347q0 -185 -90 -277t-245 -92zM337 -237l-67 33q51 60 45 164h124q0 -60 -29.5 -112
t-72.5 -85z" />
    <glyph glyph-name="gcommaaccent" unicode="&#x123;" horiz-adv-x="614" 
d="M350 551h-123q-1 60 28.5 112t73.5 85l66 -33q-50 -60 -45 -164zM417 466h131v-402q0 -149 -70.5 -224t-197.5 -75q-75 0 -136 38.5t-91 103.5l109 47q15 -32 48 -52t70 -20q137 0 137 168v7q-24 -32 -66 -49t-84 -17q-94 0 -161.5 67t-67.5 176t67.5 176t161.5 67
q43 0 84.5 -17t65.5 -49v55zM292 113q49 0 85 34.5t36 86.5t-36.5 86t-84.5 34q-50 0 -85.5 -34.5t-35.5 -85.5t35.5 -86t85.5 -35z" />
    <glyph glyph-name="Hbar" unicode="&#x126;" horiz-adv-x="718" 
d="M699 580v-73h-73v-507h-139v280h-257v-280h-139v507h-72v73h72v109h139v-109h257v109h139v-109h73zM487 405v102h-257v-102h257z" />
    <glyph glyph-name="hbar" unicode="&#x127;" horiz-adv-x="582" 
d="M337 478q91 0 138.5 -58t46.5 -164v-256h-131v242q0 52 -26 79.5t-63 27.5q-42 0 -73.5 -26t-31.5 -84v-239h-131v532h-50v73h50v110h131v-110h159v-73h-159v-139q14 40 57 62.5t83 22.5z" />
    <glyph glyph-name="Itilde" unicode="&#x128;" horiz-adv-x="307" 
d="M14 784q3 65 31.5 95t64.5 30q24 0 51.5 -20.5t36.5 -20.5q8 0 17 10t10 31h69q-3 -64 -31.5 -93t-64.5 -29q-23 0 -50.5 20.5t-37.5 20.5q-8 0 -16.5 -11t-9.5 -33h-70zM84 0v689h139v-689h-139z" />
    <glyph glyph-name="itilde" unicode="&#x129;" horiz-adv-x="263" 
d="M-8 561q3 65 31.5 95t64.5 30q24 0 51.5 -20.5t36.5 -20.5q8 0 17 10t10 31h69q-3 -64 -31.5 -93t-64.5 -29q-23 0 -50.5 20.5t-37.5 20.5q-8 0 -16.5 -11t-9.5 -33h-70zM66 0v466h131v-466h-131z" />
    <glyph glyph-name="Imacron" unicode="&#x12a;" horiz-adv-x="307" 
d="M17 805v84h274v-84h-274zM84 0v689h139v-689h-139z" />
    <glyph glyph-name="imacron" unicode="&#x12b;" horiz-adv-x="263" 
d="M-5 582v84h274v-84h-274zM66 0v466h131v-466h-131z" />
    <glyph glyph-name="Iogonek" unicode="&#x12e;" horiz-adv-x="307" 
d="M181 -94h69q0 -56 -31 -86.5t-78 -30.5q-43 0 -73 29.5t-30 73.5q0 27 11 47l35 69v681h139v-689h-73l-39 -86q-3 -10 -3 -21q0 -17 9.5 -27.5t24.5 -10.5q39 0 39 51z" />
    <glyph glyph-name="iogonek" unicode="&#x12f;" horiz-adv-x="264" 
d="M132 549q-34 0 -58.5 23t-24.5 56t24.5 55.5t58.5 22.5q35 0 59 -22.5t24 -55.5t-24 -56t-59 -23zM117 -211q-43 0 -72.5 29.5t-29.5 73.5q0 27 10 47l42 83v444h131v-466h-72l-38 -86q-4 -9 -4 -21q0 -17 10 -27.5t25 -10.5q38 0 38 51h70q0 -56 -31.5 -86.5
t-78.5 -30.5z" />
    <glyph glyph-name="Idotaccent" unicode="&#x130;" horiz-adv-x="307" 
d="M154 775q-32 0 -54 20.5t-22 52.5q0 31 22 51.5t54 20.5q31 0 53 -21t22 -51q0 -32 -22 -52.5t-53 -20.5zM84 0v689h139v-689h-139z" />
    <glyph glyph-name="dotlessi" unicode="&#x131;" horiz-adv-x="263" 
d="M66 0v466h131v-466h-131z" />
    <glyph glyph-name="IJ" unicode="&#x132;" horiz-adv-x="622" 
d="M84 0v689h139v-689h-139zM314 -235q-46 0 -97 15l12 127q30 -11 85 -11q43 0 64 28t21 73v692h139v-692q0 -103 -54.5 -167.5t-169.5 -64.5z" />
    <glyph glyph-name="ij" unicode="&#x133;" horiz-adv-x="534" 
d="M131 549q-34 0 -58.5 23t-24.5 56t24.5 55.5t58.5 22.5q35 0 59 -22.5t24 -55.5t-24 -56t-59 -23zM403 549q-34 0 -59 23t-25 56t25 55.5t59 22.5q35 0 58.5 -22.5t23.5 -55.5t-24 -56t-58 -23zM66 0v466h131v-466h-131zM206 -229v122h57q37 0 55.5 26.5t18.5 69.5v477
h131v-478q0 -104 -51.5 -160.5t-149.5 -56.5h-61z" />
    <glyph glyph-name="Jcircumflex" unicode="&#x134;" horiz-adv-x="315" 
d="M-14 767l109 166h132l110 -166h-98l-78 88l-78 -88h-97zM7 -235q-46 0 -97 15l12 127q30 -11 85 -11q43 0 64 28t21 73v692h139v-692q0 -103 -54.5 -167.5t-169.5 -64.5z" />
    <glyph glyph-name="jcircumflex" unicode="&#x135;" horiz-adv-x="271" 
d="M-36 551l109 166h132l110 -166h-98l-78 88l-78 -88h-97zM74 466h131v-478q0 -104 -51.5 -160.5t-149.5 -56.5h-61v122h57q37 0 55.5 26.5t18.5 69.5v477z" />
    <glyph glyph-name="Kcommaaccent" unicode="&#x136;" 
d="M306 346l321 -346h-189l-215 242v-242h-139v689h139v-235l171 235h173zM200 -204q51 60 45 164h124q0 -60 -29.5 -112t-72.5 -85z" />
    <glyph glyph-name="kcommaaccent" unicode="&#x137;" horiz-adv-x="514" 
d="M301 261l223 -261h-163l-164 202v-202h-131v715h131v-391l118 142h168zM153 -204q51 60 45 164h124q0 -60 -29.5 -112t-72.5 -85z" />
    <glyph glyph-name="kgreenlandic" unicode="&#x138;" horiz-adv-x="490" 
d="M496 0h-173l-127 167v-167h-130v467h130v-156l113 156h157l-174 -231z" />
    <glyph glyph-name="Lacute" unicode="&#x139;" horiz-adv-x="504" 
d="M88 767l95 166h133l-131 -166h-97zM84 0v689h139v-566h261v-123h-400z" />
    <glyph glyph-name="lacute" unicode="&#x13a;" horiz-adv-x="263" 
d="M69 767l95 166h133l-131 -166h-97zM66 0v715h131v-715h-131z" />
    <glyph glyph-name="Lcommaaccent" unicode="&#x13b;" horiz-adv-x="504" 
d="M84 0v689h139v-566h261v-123h-400zM214 -237l-67 33q51 60 45 164h124q0 -60 -29.5 -112t-72.5 -85z" />
    <glyph glyph-name="lcommaaccent" unicode="&#x13c;" horiz-adv-x="263" 
d="M66 0v715h131v-715h-131zM92 -237l-67 33q51 60 45 164h124q0 -60 -29.5 -112t-72.5 -85z" />
    <glyph glyph-name="Lcaron" unicode="&#x13d;" horiz-adv-x="518" 
d="M84 0v689h139v-566h261v-123h-400zM365 465l-61 31q32 46 45 87t12 106h106q-9 -148 -102 -224z" />
    <glyph glyph-name="lcaron" unicode="&#x13e;" horiz-adv-x="303" 
d="M66 0v715h131v-715h-131zM298 463l-66 33q32 45 44.5 86.5t11.5 106.5h113q-9 -147 -103 -226z" />
    <glyph glyph-name="Lslash" unicode="&#x141;" horiz-adv-x="516" 
d="M235 123h260v-123h-399v250l-72 -45v85l72 45v354h139v-267l100 62v-85l-100 -62v-214z" />
    <glyph glyph-name="lslash" unicode="&#x142;" horiz-adv-x="346" 
d="M321 481v-84l-86 -52v-345h-131v265l-70 -42v85l70 42v365h131v-286z" />
    <glyph glyph-name="Nacute" unicode="&#x143;" horiz-adv-x="682" 
d="M522 933l-131 -166h-97l95 166h133zM459 689h139v-689h-125l-250 432v-432h-139v689h129l246 -427v427z" />
    <glyph glyph-name="nacute" unicode="&#x144;" horiz-adv-x="582" 
d="M472 710l-131 -166h-97l95 166h133zM337 478q91 0 138.5 -58t46.5 -164v-256h-131v242q0 52 -26 79.5t-63 27.5q-42 0 -73.5 -26t-31.5 -84v-239h-131v466h131v-78q14 43 56.5 66.5t83.5 23.5z" />
    <glyph glyph-name="Ncommaaccent" unicode="&#x145;" horiz-adv-x="682" 
d="M459 689h139v-689h-125l-250 432v-432h-139v689h129l246 -427v427zM234 -204q51 60 45 164h124q0 -60 -29.5 -112t-72.5 -85z" />
    <glyph glyph-name="ncommaaccent" unicode="&#x146;" horiz-adv-x="582" 
d="M337 478q91 0 138.5 -58t46.5 -164v-256h-131v242q0 52 -26 79.5t-63 27.5q-42 0 -73.5 -26t-31.5 -84v-239h-131v466h131v-78q14 43 56.5 66.5t83.5 23.5zM184 -204q51 60 45 164h124q0 -60 -29.5 -112t-72.5 -85z" />
    <glyph glyph-name="Ncaron" unicode="&#x147;" horiz-adv-x="682" 
d="M406 767h-132l-109 166h97l78 -89l78 89h98zM459 689h139v-689h-125l-250 432v-432h-139v689h129l246 -427v427z" />
    <glyph glyph-name="ncaron" unicode="&#x148;" horiz-adv-x="582" 
d="M356 544h-132l-109 166h97l78 -89l78 89h98zM337 478q91 0 138.5 -58t46.5 -164v-256h-131v242q0 52 -26 79.5t-63 27.5q-42 0 -73.5 -26t-31.5 -84v-239h-131v466h131v-78q14 43 56.5 66.5t83.5 23.5z" />
    <glyph glyph-name="napostrophe" unicode="&#x149;" horiz-adv-x="691" 
d="M4 496q33 45 45.5 86.5t11.5 106.5h113q-11 -148 -103 -226zM446 478q91 0 138.5 -58t47.5 -164v-256h-132v242q0 52 -26 79.5t-63 27.5q-42 0 -73.5 -26t-31.5 -84v-239h-131v466h131v-78q14 43 56.5 66.5t83.5 23.5z" />
    <glyph glyph-name="Eng" unicode="&#x14a;" horiz-adv-x="682" 
d="M459 689h139v-690q0 -102 -54.5 -167t-169.5 -65q-48 0 -97 16l12 126q30 -10 85 -10q43 0 64 27.5t21 72.5v26l-236 406v-431h-139v689h129l246 -426v426z" />
    <glyph glyph-name="eng" unicode="&#x14b;" horiz-adv-x="582" 
d="M337 478q91 0 138.5 -58t46.5 -164v-268q0 -104 -51 -160.5t-150 -56.5h-61v122h58q37 0 55 26.5t18 69.5v253q0 52 -26 79.5t-63 27.5q-42 0 -73.5 -26t-31.5 -84v-239h-131v466h131v-78q14 43 56.5 66.5t83.5 23.5z" />
    <glyph glyph-name="Omacron" unicode="&#x14c;" horiz-adv-x="785" 
d="M256 805v84h274v-84h-274zM392 -9q-147 0 -248.5 103t-101.5 250t101.5 250.5t248.5 103.5q146 0 248.5 -103.5t102.5 -250.5q0 -146 -102.5 -249.5t-248.5 -103.5zM392 121q91 0 151 64.5t60 158.5t-60 158.5t-151 64.5q-92 0 -151.5 -64.5t-59.5 -158.5t59.5 -158.5
t151.5 -64.5z" />
    <glyph glyph-name="omacron" unicode="&#x14d;" horiz-adv-x="576" 
d="M153 582v84h274v-84h-274zM288 -9q-103 0 -177 68t-74 175q0 108 74 176t177 68t177 -68t74 -176q0 -107 -74 -175t-177 -68zM288 113q50 0 84 34t34 87q0 54 -34 88t-84 34t-84 -34t-34 -88q0 -53 34 -87t84 -34z" />
    <glyph glyph-name="Ohungarumlaut" unicode="&#x150;" horiz-adv-x="785" 
d="M286 767l88 166h98l-99 -166h-87zM427 767l100 166h101l-111 -166h-90zM392 -9q-147 0 -248.5 103t-101.5 250t101.5 250.5t248.5 103.5q146 0 248.5 -103.5t102.5 -250.5q0 -146 -102.5 -249.5t-248.5 -103.5zM392 121q91 0 151 64.5t60 158.5t-60 158.5t-151 64.5
q-92 0 -151.5 -64.5t-59.5 -158.5t59.5 -158.5t151.5 -64.5z" />
    <glyph glyph-name="ohungarumlaut" unicode="&#x151;" horiz-adv-x="576" 
d="M183 544l88 166h98l-99 -166h-87zM324 544l100 166h101l-111 -166h-90zM288 -9q-103 0 -177 68t-74 175q0 108 74 176t177 68t177 -68t74 -176q0 -107 -74 -175t-177 -68zM288 113q50 0 84 34t34 87q0 54 -34 88t-84 34t-84 -34t-34 -88q0 -53 34 -87t84 -34z" />
    <glyph glyph-name="OE" unicode="&#x152;" horiz-adv-x="1095" 
d="M743 123h302v-123h-440v73q-82 -82 -213 -82q-147 0 -248.5 103t-101.5 250t101.5 250.5t248.5 103.5q128 0 213 -82v73h431v-123h-293v-164h257v-125h-257v-154zM392 121q91 0 151 64.5t60 158.5t-60 158.5t-151 64.5q-92 0 -151.5 -64.5t-59.5 -158.5t59.5 -158.5
t151.5 -64.5z" />
    <glyph glyph-name="oe" unicode="&#x153;" horiz-adv-x="931" 
d="M897 241q0 -19 -3 -50h-352q23 -84 121 -84q78 0 122 52l77 -77q-32 -43 -88 -67t-119 -24q-116 0 -185 74q-72 -74 -182 -74q-103 0 -177 68t-74 175q0 108 74 176t177 68q111 0 184 -75q72 75 182 75q103 0 173 -66t70 -171zM542 276h223q-3 40 -33.5 64t-75.5 24
q-93 0 -114 -88zM288 113q50 0 84 34t34 87q0 54 -34 88t-84 34t-84 -34t-34 -88q0 -53 34 -87t84 -34z" />
    <glyph glyph-name="Racute" unicode="&#x154;" horiz-adv-x="636" 
d="M498 933l-131 -166h-97l95 166h133zM434 0l-164 247h-47v-247h-139v689h275q111 0 168.5 -66t57.5 -159q0 -78 -42 -135.5t-125 -74.5l179 -254h-163zM223 566v-207h111q55 0 83 29t28 73t-26.5 74.5t-73.5 30.5h-122z" />
    <glyph glyph-name="racute" unicode="&#x155;" horiz-adv-x="412" 
d="M388 710l-131 -166h-97l95 166h133zM333 478q45 0 74 -15l-30 -125q-32 17 -67 17q-52 0 -82.5 -49t-30.5 -146v-160h-131v466h130v-99q37 111 137 111z" />
    <glyph glyph-name="Rcommaaccent" unicode="&#x156;" horiz-adv-x="636" 
d="M418 254l179 -254h-163l-164 247h-47v-247h-139v689h275q111 0 168.5 -66t57.5 -159q0 -78 -42 -135.5t-125 -74.5zM223 566v-207h111q55 0 83 29t28 73t-26.5 74.5t-73.5 30.5h-122zM210 -204q51 60 45 164h124q0 -60 -29.5 -112t-72.5 -85z" />
    <glyph glyph-name="rcommaaccent" unicode="&#x157;" horiz-adv-x="412" 
d="M333 478q45 0 74 -15l-30 -125q-32 17 -67 17q-52 0 -82.5 -49t-30.5 -146v-160h-131v466h130v-99q37 111 137 111zM70 -40h123q1 -60 -28.5 -112t-73.5 -85l-66 33q50 60 45 164z" />
    <glyph glyph-name="Rcaron" unicode="&#x158;" horiz-adv-x="636" 
d="M382 767h-132l-109 166h97l78 -89l78 89h98zM434 0l-164 247h-47v-247h-139v689h275q111 0 168.5 -66t57.5 -159q0 -78 -42 -135.5t-125 -74.5l179 -254h-163zM223 566v-207h111q55 0 83 29t28 73t-26.5 74.5t-73.5 30.5h-122z" />
    <glyph glyph-name="rcaron" unicode="&#x159;" horiz-adv-x="412" 
d="M272 544h-132l-109 166h97l78 -89l78 89h98zM333 478q45 0 74 -15l-30 -125q-32 17 -67 17q-52 0 -82.5 -49t-30.5 -146v-160h-131v466h130v-99q37 111 137 111z" />
    <glyph glyph-name="Sacute" unicode="&#x15a;" horiz-adv-x="582" 
d="M245 767l95 166h133l-131 -166h-97zM293 -9q-109 0 -178.5 60t-69.5 152h139q1 -38 33.5 -64.5t79.5 -26.5t75 22t28 59q0 56 -87 83l-84 24q-178 47 -178 193q0 91 68.5 148t169.5 57q100 0 165 -57t65 -153h-139q0 38 -25 62.5t-69 24.5q-41 0 -68 -22.5t-27 -56.5
q0 -52 77 -73l77 -22q195 -54 195 -201q0 -98 -72 -153.5t-175 -55.5z" />
    <glyph glyph-name="sacute" unicode="&#x15b;" horiz-adv-x="465" 
d="M185 544l95 166h133l-131 -166h-97zM231 -9q-78 0 -135.5 42.5t-58.5 116.5h123q0 -22 18.5 -39t50.5 -17q29 0 48 11.5t19 31.5q0 26 -51 39l-62 15q-136 36 -136 148q0 56 52 97.5t131 41.5q73 0 129 -38t55 -114h-125q0 22 -16.5 35t-40.5 13q-23 0 -38.5 -10.5
t-15.5 -28.5q0 -28 46 -40l77 -20q126 -34 126 -138q0 -69 -58.5 -107.5t-137.5 -38.5z" />
    <glyph glyph-name="Scedilla" unicode="&#x15e;" horiz-adv-x="582" 
d="M540 200q0 -87 -58.5 -141.5t-147.5 -65.5l27 -54q10 -20 10 -47q0 -44 -29.5 -73.5t-72.5 -29.5q-47 0 -78 30.5t-31 86.5h69q0 -51 38 -51q15 0 25 10.5t10 27.5q0 12 -4 21l-34 78q-98 8 -158.5 66.5t-60.5 144.5h139q1 -38 33.5 -64.5t79.5 -26.5t75 22t28 59
q0 56 -87 83l-84 24q-178 47 -178 193q0 91 68.5 148t169.5 57q100 0 165 -57t65 -153h-139q0 38 -25 62.5t-69 24.5q-41 0 -68 -22.5t-27 -56.5q0 -52 77 -73l77 -22q195 -54 195 -201z" />
    <glyph glyph-name="scedilla" unicode="&#x15f;" horiz-adv-x="465" 
d="M427 137q0 -58 -42.5 -94.5t-106.5 -47.5l28 -56q10 -20 10 -47q0 -44 -29.5 -73.5t-72.5 -29.5q-47 0 -78 30.5t-31 86.5h69q0 -51 38 -51q15 0 25 10.5t10 27.5q0 12 -4 21l-34 78q-72 6 -121.5 48t-50.5 110h123q0 -22 18.5 -39t50.5 -17q29 0 48 11.5t19 31.5
q0 26 -51 39l-62 15q-136 36 -136 148q0 56 52 97.5t131 41.5q73 0 129 -38t55 -114h-125q0 22 -16.5 35t-40.5 13q-23 0 -38.5 -10.5t-15.5 -28.5q0 -28 46 -40l77 -20q126 -34 126 -138z" />
    <glyph glyph-name="Scaron" unicode="&#x160;" horiz-adv-x="582" 
d="M225 767l-109 166h97l78 -89l78 89h98l-110 -166h-132zM293 -9q-109 0 -178.5 60t-69.5 152h139q1 -38 33.5 -64.5t79.5 -26.5t75 22t28 59q0 56 -87 83l-84 24q-178 47 -178 193q0 91 68.5 148t169.5 57q100 0 165 -57t65 -153h-139q0 38 -25 62.5t-69 24.5
q-41 0 -68 -22.5t-27 -56.5q0 -52 77 -73l77 -22q195 -54 195 -201q0 -98 -72 -153.5t-175 -55.5z" />
    <glyph glyph-name="scaron" unicode="&#x161;" horiz-adv-x="465" 
d="M165 544l-109 166h97l78 -89l78 89h98l-110 -166h-132zM231 -9q-78 0 -135.5 42.5t-58.5 116.5h123q0 -22 18.5 -39t50.5 -17q29 0 48 11.5t19 31.5q0 26 -51 39l-62 15q-136 36 -136 148q0 56 52 97.5t131 41.5q73 0 129 -38t55 -114h-125q0 22 -16.5 35t-40.5 13
q-23 0 -38.5 -10.5t-15.5 -28.5q0 -28 46 -40l77 -20q126 -34 126 -138q0 -69 -58.5 -107.5t-137.5 -38.5z" />
    <glyph glyph-name="uni0162" unicode="&#x162;" horiz-adv-x="559" 
d="M539 566h-190v-551l38 -76q11 -20 11 -47q0 -44 -29.5 -73.5t-72.5 -29.5q-47 0 -78.5 30.5t-31.5 86.5h69q0 -51 39 -51q15 0 24.5 10.5t9.5 27.5q0 11 -3 21l-38 86h-77v566h-190v123h519v-123z" />
    <glyph glyph-name="uni0163" unicode="&#x163;" horiz-adv-x="360" 
d="M341 365h-99v-350l39 -76q10 -20 10 -47q0 -44 -29.5 -73.5t-72.5 -29.5q-47 0 -78.5 30.5t-31.5 86.5h70q0 -51 38 -51q15 0 25 10.5t10 27.5q0 12 -4 21l-38 86h-69v365h-85v101h85v171h131v-171h99v-101z" />
    <glyph glyph-name="Tcaron" unicode="&#x164;" horiz-adv-x="559" 
d="M345 767h-132l-109 166h97l78 -89l78 89h98zM539 689v-123h-190v-566h-139v566h-190v123h519z" />
    <glyph glyph-name="tcaron" unicode="&#x165;" horiz-adv-x="360" 
d="M372 726h114q-11 -148 -103 -226l-67 33q33 45 45 86t11 107zM242 637v-171h99v-101h-99v-365h-131v365h-85v101h85v171h131z" />
    <glyph glyph-name="Tbar" unicode="&#x166;" horiz-adv-x="573" 
d="M546 566h-190v-200h109v-73h-109v-293h-139v293h-109v73h109v200h-190v123h519v-123z" />
    <glyph glyph-name="tbar" unicode="&#x167;" horiz-adv-x="361" 
d="M341 365h-99v-109h59v-71h-59v-185h-131v185h-55v71h55v109h-85v101h85v171h131v-171h99v-101z" />
    <glyph glyph-name="Umacron" unicode="&#x16a;" horiz-adv-x="680" 
d="M203 805v84h274v-84h-274zM340 -9q-109 0 -186 70t-77 185v443h139v-435q0 -65 35.5 -98t88.5 -33t89 32.5t36 98.5v435h139v-443q0 -115 -77 -185t-187 -70z" />
    <glyph glyph-name="umacron" unicode="&#x16b;" horiz-adv-x="582" 
d="M427 666v-84h-274v84h274zM385 466h131v-466h-131v76q-14 -42 -56.5 -64.5t-83.5 -22.5q-91 0 -138.5 57.5t-46.5 163.5v256h131v-242q0 -52 26 -79t63 -27q42 0 73.5 26t31.5 83v239z" />
    <glyph glyph-name="Uring" unicode="&#x16e;" horiz-adv-x="680" 
d="M339 757q-50 0 -85 34.5t-35 83.5q0 50 35 85t85 35t85.5 -35t35.5 -85q0 -49 -35.5 -83.5t-85.5 -34.5zM339 815q26 0 44.5 17.5t18.5 42.5q0 26 -18.5 44t-44.5 18q-25 0 -43 -18t-18 -44q0 -25 18 -42.5t43 -17.5zM340 -9q-109 0 -186 70t-77 185v443h139v-435
q0 -65 35.5 -98t88.5 -33t89 32.5t36 98.5v435h139v-443q0 -115 -77 -185t-187 -70z" />
    <glyph glyph-name="uring" unicode="&#x16f;" horiz-adv-x="582" 
d="M289 534q-50 0 -85 34.5t-35 83.5q0 50 35 85t85 35t85.5 -35t35.5 -85q0 -49 -35.5 -83.5t-85.5 -34.5zM289 714q-25 0 -43 -18t-18 -44q0 -25 18 -42.5t43 -17.5q26 0 44.5 17.5t18.5 42.5q0 26 -18.5 44t-44.5 18zM385 466h131v-466h-131v76q-14 -42 -56.5 -64.5
t-83.5 -22.5q-91 0 -138.5 57.5t-46.5 163.5v256h131v-242q0 -52 26 -79t63 -27q42 0 73.5 26t31.5 83v239z" />
    <glyph glyph-name="Uhungarumlaut" unicode="&#x170;" horiz-adv-x="680" 
d="M233 767l88 166h98l-99 -166h-87zM374 767l100 166h101l-111 -166h-90zM340 -9q-109 0 -186 70t-77 185v443h139v-435q0 -65 35.5 -98t88.5 -33t89 32.5t36 98.5v435h139v-443q0 -115 -77 -185t-187 -70z" />
    <glyph glyph-name="uhungarumlaut" unicode="&#x171;" horiz-adv-x="582" 
d="M369 710l-99 -166h-87l88 166h98zM414 544h-90l100 166h101zM385 227v239h131v-466h-131v76q-14 -42 -56.5 -64.5t-83.5 -22.5q-91 0 -138.5 57.5t-46.5 163.5v256h131v-242q0 -52 26 -79t63 -27q42 0 73.5 26t31.5 83z" />
    <glyph glyph-name="Uogonek" unicode="&#x172;" horiz-adv-x="680" 
d="M465 689h139v-443q0 -106 -65 -173.5t-164 -79.5l-35 -79q-4 -9 -4 -21q0 -17 10 -27.5t25 -10.5q38 0 38 51h70q0 -56 -31.5 -86.5t-78.5 -30.5q-43 0 -72.5 29.5t-29.5 73.5q0 27 10 47l27 54q-97 12 -162 80t-65 173v443h139v-435q0 -65 35.5 -98t88.5 -33t89 32.5
t36 98.5v435z" />
    <glyph glyph-name="uogonek" unicode="&#x173;" horiz-adv-x="582" 
d="M476 -94h69q0 -56 -31.5 -86.5t-78.5 -30.5q-43 0 -72.5 29.5t-29.5 73.5q0 27 11 47l41 82v55q-14 -42 -56.5 -64.5t-83.5 -22.5q-91 0 -138.5 57.5t-46.5 163.5v256h131v-242q0 -52 26 -79t63 -27q42 0 73.5 26t31.5 83v239h131v-466h-72l-38 -86q-4 -9 -4 -21
q0 -17 10 -27.5t25 -10.5q39 0 39 51z" />
    <glyph glyph-name="Wcircumflex" unicode="&#x174;" horiz-adv-x="904" 
d="M452 855l-78 -88h-97l109 166h132l110 -166h-98zM745 689h151l-234 -689h-111l-100 374l-98 -374h-111l-233 689h150l140 -449l97 352h113l95 -352z" />
    <glyph glyph-name="wcircumflex" unicode="&#x175;" horiz-adv-x="760" 
d="M379 632l-78 -88h-97l109 166h132l110 -166h-98zM611 466h142l-165 -466h-112l-96 303l-93 -303h-112l-170 466h142l88 -284l89 284h110l89 -284z" />
    <glyph glyph-name="Ycircumflex" unicode="&#x176;" horiz-adv-x="670" 
d="M334 855l-78 -88h-97l109 166h132l110 -166h-98zM507 689h165l-268 -378v-311h-139v313l-267 376h166l170 -262z" />
    <glyph glyph-name="ycircumflex" unicode="&#x177;" horiz-adv-x="512" 
d="M258 632l-78 -88h-97l109 166h132l110 -166h-98zM367 466h141l-288 -695h-140l110 273l-184 422h144l110 -269z" />
    <glyph glyph-name="Ydieresis" unicode="&#x178;" horiz-adv-x="670" 
d="M231 782q-30 0 -50.5 19.5t-20.5 48.5q0 28 21 47.5t50 19.5t49.5 -19.5t20.5 -47.5q0 -29 -20.5 -48.5t-49.5 -19.5zM439 782q-30 0 -51 19.5t-21 48.5q0 28 21 47.5t51 19.5q29 0 49 -19.5t20 -47.5q0 -29 -20 -48.5t-49 -19.5zM507 689h165l-268 -378v-311h-139v313
l-267 376h166l170 -262z" />
    <glyph glyph-name="Zacute" unicode="&#x179;" horiz-adv-x="588" 
d="M475 933l-131 -166h-97l95 166h133zM542 689v-107l-325 -459h325v-123h-502v107l321 459h-308v123h489z" />
    <glyph glyph-name="zacute" unicode="&#x17a;" horiz-adv-x="506" 
d="M434 710l-131 -166h-97l95 166h133zM460 466v-100l-233 -244h233v-122h-420v99l228 245h-214v122h406z" />
    <glyph glyph-name="Zdotaccent" unicode="&#x17b;" horiz-adv-x="588" 
d="M294 775q-32 0 -54 20.5t-22 52.5q0 31 22 51.5t54 20.5q31 0 53 -21t22 -51q0 -32 -22 -52.5t-53 -20.5zM542 689v-107l-325 -459h325v-123h-502v107l321 459h-308v123h489z" />
    <glyph glyph-name="zdotaccent" unicode="&#x17c;" horiz-adv-x="506" 
d="M253 552q-32 0 -54 20.5t-22 52.5q0 31 22 51.5t54 20.5q31 0 53 -21t22 -51q0 -32 -22 -52.5t-53 -20.5zM460 466v-100l-233 -244h233v-122h-420v99l228 245h-214v122h406z" />
    <glyph glyph-name="Zcaron" unicode="&#x17d;" horiz-adv-x="588" 
d="M359 767h-132l-109 166h97l78 -89l78 89h98zM542 689v-107l-325 -459h325v-123h-502v107l321 459h-308v123h489z" />
    <glyph glyph-name="zcaron" unicode="&#x17e;" horiz-adv-x="506" 
d="M318 544h-132l-109 166h97l78 -89l78 89h98zM460 466v-100l-233 -244h233v-122h-420v99l228 245h-214v122h406z" />
    <glyph glyph-name="longs" unicode="&#x17f;" horiz-adv-x="309" 
d="M317 715h56v-122h-30q-98 0 -100 -97v-496h-131v365h-88v101h88v29q0 106 53 163t152 57z" />
    <glyph glyph-name="florin" unicode="&#x192;" horiz-adv-x="574" 
d="M498 655h63l-24 -122h-41q-51 0 -72.5 -24t-31.5 -73l-6 -32h94v-104h-115l-35 -178q-18 -92 -72.5 -146t-140.5 -54l-86 1l25 116h52q72 0 91 94l33 167h-68v104h89l7 34q20 107 74 162t164 55z" />
    <glyph glyph-name="uni01CD" unicode="&#x1cd;" horiz-adv-x="653" 
d="M392 767h-132l-109 166h97l78 -89l78 89h98zM512 0l-56 165h-258l-55 -165h-148l257 689h150l256 -689h-146zM239 286h175l-88 259z" />
    <glyph glyph-name="uni01CE" unicode="&#x1ce;" horiz-adv-x="614" 
d="M370 544h-132l-109 166h97l78 -89l78 89h98zM417 466h131v-466h-131v58q-23 -33 -65.5 -50t-84.5 -17q-94 0 -161.5 67t-67.5 176t67.5 176t161.5 67q44 0 85.5 -17t64.5 -50v56zM292 113q49 0 85 34.5t36 86.5t-36.5 86t-84.5 34q-50 0 -85.5 -34.5t-35.5 -85.5
t35.5 -86t85.5 -35z" />
    <glyph glyph-name="uni01CF" unicode="&#x1cf;" horiz-adv-x="307" 
d="M87 767l-109 166h97l78 -89l78 89h98l-110 -166h-132zM84 0v689h139v-689h-139z" />
    <glyph glyph-name="uni01D0" unicode="&#x1d0;" horiz-adv-x="263" 
d="M65 544l-109 166h97l78 -89l78 89h98l-110 -166h-132zM66 0v466h131v-466h-131z" />
    <glyph glyph-name="uni01D1" unicode="&#x1d1;" horiz-adv-x="785" 
d="M326 767l-109 166h97l78 -89l78 89h98l-110 -166h-132zM392 -9q-147 0 -248.5 103t-101.5 250t101.5 250.5t248.5 103.5q146 0 248.5 -103.5t102.5 -250.5q0 -146 -102.5 -249.5t-248.5 -103.5zM392 121q91 0 151 64.5t60 158.5t-60 158.5t-151 64.5q-92 0 -151.5 -64.5
t-59.5 -158.5t59.5 -158.5t151.5 -64.5z" />
    <glyph glyph-name="uni01D2" unicode="&#x1d2;" horiz-adv-x="576" 
d="M223 544l-109 166h97l78 -89l78 89h98l-110 -166h-132zM288 -9q-103 0 -177 68t-74 175q0 108 74 176t177 68t177 -68t74 -176q0 -107 -74 -175t-177 -68zM288 113q50 0 84 34t34 87q0 54 -34 88t-84 34t-84 -34t-34 -88q0 -53 34 -87t84 -34z" />
    <glyph glyph-name="uni01D3" unicode="&#x1d3;" horiz-adv-x="680" 
d="M273 767l-109 166h97l78 -89l78 89h98l-110 -166h-132zM340 -9q-109 0 -186 70t-77 185v443h139v-435q0 -65 35.5 -98t88.5 -33t89 32.5t36 98.5v435h139v-443q0 -115 -77 -185t-187 -70z" />
    <glyph glyph-name="uni01D4" unicode="&#x1d4;" horiz-adv-x="582" 
d="M355 544h-132l-109 166h97l78 -89l78 89h98zM385 466h131v-466h-131v76q-14 -42 -56.5 -64.5t-83.5 -22.5q-91 0 -138.5 57.5t-46.5 163.5v256h131v-242q0 -52 26 -79t63 -27q42 0 73.5 26t31.5 83v239z" />
    <glyph glyph-name="uni01D5" unicode="&#x1d5;" horiz-adv-x="680" 
d="M203 986v84h274v-84h-274zM236 782q-30 0 -50.5 19.5t-20.5 48.5q0 28 21 47.5t50 19.5t49.5 -19.5t20.5 -47.5q0 -29 -20.5 -48.5t-49.5 -19.5zM444 782q-30 0 -51 19.5t-21 48.5q0 28 21 47.5t51 19.5q29 0 49 -19.5t20 -47.5q0 -29 -20 -48.5t-49 -19.5zM340 -9
q-109 0 -186 70t-77 185v443h139v-435q0 -65 35.5 -98t88.5 -33t89 32.5t36 98.5v435h139v-443q0 -115 -77 -185t-187 -70z" />
    <glyph glyph-name="uni01D6" unicode="&#x1d6;" horiz-adv-x="582" 
d="M427 860v-84h-274v84h274zM186 559q-30 0 -50.5 19.5t-20.5 48.5q0 28 21 47.5t50 19.5t49.5 -19.5t20.5 -47.5q0 -29 -20.5 -48.5t-49.5 -19.5zM322 627q0 28 21 47.5t51 19.5q29 0 49 -19.5t20 -47.5q0 -29 -20 -48.5t-49 -19.5q-30 0 -51 19.5t-21 48.5zM385 466h131
v-466h-131v76q-14 -42 -56.5 -64.5t-83.5 -22.5q-91 0 -138.5 57.5t-46.5 163.5v256h131v-242q0 -52 26 -79t63 -27q42 0 73.5 26t31.5 83v239z" />
    <glyph glyph-name="uni01D7" unicode="&#x1d7;" horiz-adv-x="680" 
d="M294 955l95 166h133l-131 -166h-97zM236 782q-30 0 -50.5 19.5t-20.5 48.5q0 28 21 47.5t50 19.5t49.5 -19.5t20.5 -47.5q0 -29 -20.5 -48.5t-49.5 -19.5zM444 782q-30 0 -51 19.5t-21 48.5q0 28 21 47.5t51 19.5q29 0 49 -19.5t20 -47.5q0 -29 -20 -48.5t-49 -19.5z
M340 -9q-109 0 -186 70t-77 185v443h139v-435q0 -65 35.5 -98t88.5 -33t89 32.5t36 98.5v435h139v-443q0 -115 -77 -185t-187 -70z" />
    <glyph glyph-name="uni01D8" unicode="&#x1d8;" horiz-adv-x="582" 
d="M472 912l-131 -166h-97l95 166h133zM186 559q-30 0 -50.5 19.5t-20.5 48.5q0 28 21 47.5t50 19.5t49.5 -19.5t20.5 -47.5q0 -29 -20.5 -48.5t-49.5 -19.5zM322 627q0 28 21 47.5t51 19.5q29 0 49 -19.5t20 -47.5q0 -29 -20 -48.5t-49 -19.5q-30 0 -51 19.5t-21 48.5z
M385 466h131v-466h-131v76q-14 -42 -56.5 -64.5t-83.5 -22.5q-91 0 -138.5 57.5t-46.5 163.5v256h131v-242q0 -52 26 -79t63 -27q42 0 73.5 26t31.5 83v239z" />
    <glyph glyph-name="uni01D9" unicode="&#x1d9;" horiz-adv-x="680" 
d="M273 955l-109 166h97l78 -89l78 89h98l-110 -166h-132zM236 782q-30 0 -50.5 19.5t-20.5 48.5q0 28 21 47.5t50 19.5t49.5 -19.5t20.5 -47.5q0 -29 -20.5 -48.5t-49.5 -19.5zM444 782q-30 0 -51 19.5t-21 48.5q0 28 21 47.5t51 19.5q29 0 49 -19.5t20 -47.5
q0 -29 -20 -48.5t-49 -19.5zM340 -9q-109 0 -186 70t-77 185v443h139v-435q0 -65 35.5 -98t88.5 -33t89 32.5t36 98.5v435h139v-443q0 -115 -77 -185t-187 -70z" />
    <glyph glyph-name="uni01DA" unicode="&#x1da;" horiz-adv-x="582" 
d="M355 746h-132l-109 166h97l78 -89l78 89h98zM115 627q0 28 21 47.5t50 19.5t49.5 -19.5t20.5 -47.5q0 -29 -20.5 -48.5t-49.5 -19.5q-30 0 -50.5 19.5t-20.5 48.5zM322 627q0 28 21 47.5t51 19.5q29 0 49 -19.5t20 -47.5q0 -29 -20 -48.5t-49 -19.5q-30 0 -51 19.5
t-21 48.5zM385 466h131v-466h-131v76q-14 -42 -56.5 -64.5t-83.5 -22.5q-91 0 -138.5 57.5t-46.5 163.5v256h131v-242q0 -52 26 -79t63 -27q42 0 73.5 26t31.5 83v239z" />
    <glyph glyph-name="uni01DB" unicode="&#x1db;" horiz-adv-x="680" 
d="M294 954l-131 166h133l95 -166h-97zM236 782q-30 0 -50.5 19.5t-20.5 48.5q0 28 21 47.5t50 19.5t49.5 -19.5t20.5 -47.5q0 -29 -20.5 -48.5t-49.5 -19.5zM444 782q-30 0 -51 19.5t-21 48.5q0 28 21 47.5t51 19.5q29 0 49 -19.5t20 -47.5q0 -29 -20 -48.5t-49 -19.5z
M340 -9q-109 0 -186 70t-77 185v443h139v-435q0 -65 35.5 -98t88.5 -33t89 32.5t36 98.5v435h139v-443q0 -115 -77 -185t-187 -70z" />
    <glyph glyph-name="uni01DC" unicode="&#x1dc;" horiz-adv-x="582" 
d="M341 746h-97l-131 166h133zM186 694q29 0 49.5 -19.5t20.5 -47.5q0 -29 -20.5 -48.5t-49.5 -19.5q-30 0 -50.5 19.5t-20.5 48.5q0 28 21 47.5t50 19.5zM322 627q0 28 21 47.5t51 19.5q29 0 49 -19.5t20 -47.5q0 -29 -20 -48.5t-49 -19.5q-30 0 -51 19.5t-21 48.5z
M385 466h131v-466h-131v76q-14 -42 -56.5 -64.5t-83.5 -22.5q-91 0 -138.5 57.5t-46.5 163.5v256h131v-242q0 -52 26 -79t63 -27q42 0 73.5 26t31.5 83v239z" />
    <glyph glyph-name="uni01E3" unicode="&#x1e3;" horiz-adv-x="877" 
d="M574 666v-84h-274v84h274zM842 241q0 -19 -3 -50h-349q11 -38 43 -61t76 -23q76 0 122 52l77 -77q-33 -43 -89 -67t-119 -24q-121 0 -183 76q-79 -76 -197 -76q-83 0 -135.5 39.5t-52.5 105.5q0 67 53 105.5t132 38.5t134 -31v24q0 40 -27.5 64t-69.5 24q-73 0 -119 -48
l-73 72q72 93 207 93q107 0 165 -59q67 59 166 59q102 0 172 -66t70 -171zM490 276h221q-4 41 -34 64.5t-75 23.5q-90 0 -112 -88zM229 93q32 0 73.5 18t60.5 45l-5 11q-46 29 -116 29q-43 0 -61 -16.5t-18 -37.5q0 -22 17.5 -35.5t48.5 -13.5z" />
    <glyph glyph-name="Aringacute" unicode="&#x1fa;" horiz-adv-x="653" 
d="M326 756q-50 0 -85 34.5t-35 83.5q0 38 20 67.5t53 43.5l51 90h133l-81 -94q30 -15 47.5 -43.5t17.5 -63.5q0 -49 -35.5 -83.5t-85.5 -34.5zM326 815q26 0 44.5 17t18.5 42q0 26 -18.5 44.5t-44.5 18.5q-25 0 -43 -18.5t-18 -44.5q0 -25 18 -42t43 -17zM512 0l-56 165
h-258l-55 -165h-148l257 689h150l256 -689h-146zM239 286h175l-88 259z" />
    <glyph glyph-name="aringacute" unicode="&#x1fb;" horiz-adv-x="614" 
d="M303 534q-49 0 -84 34.5t-35 83.5q0 43 27 76t67 41l48 84h133l-88 -101q54 -34 54 -100q0 -49 -35.5 -83.5t-86.5 -34.5zM303 714q-24 0 -42 -18t-18 -44q0 -25 18 -42.5t42 -17.5q26 0 45 17.5t19 42.5q0 26 -19 44t-45 18zM417 466h131v-466h-131v58
q-23 -33 -65.5 -50t-84.5 -17q-94 0 -161.5 67t-67.5 176t67.5 176t161.5 67q44 0 85.5 -17t64.5 -50v56zM292 113q49 0 85 34.5t36 86.5t-36.5 86t-84.5 34q-50 0 -85.5 -34.5t-35.5 -85.5t35.5 -86t85.5 -35z" />
    <glyph glyph-name="AEacute" unicode="&#x1fc;" horiz-adv-x="928" 
d="M643 933l-131 -166h-97l95 166h133zM577 123h302v-123h-440v160h-215l-82 -160h-165l371 689h522v-123h-293v-166h257v-120h-257v-157zM287 283h151v282h-7z" />
    <glyph glyph-name="aeacute" unicode="&#x1fd;" horiz-adv-x="877" 
d="M618 710l-131 -166h-97l95 166h133zM842 241q0 -19 -3 -50h-349q11 -38 43 -61t76 -23q76 0 122 52l77 -77q-33 -43 -89 -67t-119 -24q-121 0 -183 76q-79 -76 -197 -76q-83 0 -135.5 39.5t-52.5 105.5q0 67 53 105.5t132 38.5t134 -31v24q0 40 -27.5 64t-69.5 24
q-73 0 -119 -48l-73 72q72 93 207 93q107 0 165 -59q67 59 166 59q102 0 172 -66t70 -171zM490 276h221q-4 41 -34 64.5t-75 23.5q-90 0 -112 -88zM229 93q32 0 73.5 18t60.5 45l-5 11q-46 29 -116 29q-43 0 -61 -16.5t-18 -37.5q0 -22 17.5 -35.5t48.5 -13.5z" />
    <glyph glyph-name="Oslashacute" unicode="&#x1fe;" horiz-adv-x="788" 
d="M575 933l-131 -166h-97l95 166h133zM662 573q83 -99 83 -229q0 -146 -102.5 -249.5t-248.5 -103.5q-125 0 -221 78l-79 -81l-47 47l79 81q-82 96 -82 228q0 148 101.5 251t248.5 103q126 0 221 -79l80 82l47 -46zM183 344q0 -72 38 -131l301 310q-55 44 -129 44
q-91 0 -150.5 -64.5t-59.5 -158.5zM393 121q92 0 152 64.5t60 158.5q0 72 -38 131l-302 -311q56 -43 128 -43z" />
    <glyph glyph-name="oslashacute" unicode="&#x1ff;" horiz-adv-x="578" 
d="M471 710l-131 -166h-97l95 166h133zM486 389q54 -65 54 -155q0 -107 -74 -175t-177 -68q-83 0 -148 45l-55 -57l-43 43l53 54q-58 66 -58 158q0 108 74 176t177 68q85 0 152 -48l50 51l43 -42zM171 234q0 -35 16 -64l165 169q-28 17 -63 17q-50 0 -84 -34t-34 -88z
M289 113q50 0 84 34t34 87q0 34 -14 60l-162 -166q25 -15 58 -15z" />
    <glyph glyph-name="Scommaaccent" unicode="&#x218;" horiz-adv-x="582" 
d="M293 -9q-109 0 -178.5 60t-69.5 152h139q1 -38 33.5 -64.5t79.5 -26.5t75 22t28 59q0 56 -87 83l-84 24q-178 47 -178 193q0 91 68.5 148t169.5 57q100 0 165 -57t65 -153h-139q0 38 -25 62.5t-69 24.5q-41 0 -68 -22.5t-27 -56.5q0 -52 77 -73l77 -22q195 -54 195 -201
q0 -98 -72 -153.5t-175 -55.5zM252 -237l-67 33q51 60 45 164h124q0 -60 -29.5 -112t-72.5 -85z" />
    <glyph glyph-name="scommaaccent" unicode="&#x219;" horiz-adv-x="465" 
d="M231 -9q-78 0 -135.5 42.5t-58.5 116.5h123q0 -22 18.5 -39t50.5 -17q29 0 48 11.5t19 31.5q0 26 -51 39l-62 15q-136 36 -136 148q0 56 52 97.5t131 41.5q73 0 129 -38t55 -114h-125q0 22 -16.5 35t-40.5 13q-23 0 -38.5 -10.5t-15.5 -28.5q0 -28 46 -40l77 -20
q126 -34 126 -138q0 -69 -58.5 -107.5t-137.5 -38.5zM192 -237l-67 33q51 60 45 164h124q0 -60 -29.5 -112t-72.5 -85z" />
    <glyph glyph-name="uni021A" unicode="&#x21a;" horiz-adv-x="559" 
d="M539 689v-123h-190v-566h-139v566h-190v123h519zM173 -204q51 60 45 164h124q0 -60 -29.5 -112t-72.5 -85z" />
    <glyph glyph-name="uni021B" unicode="&#x21b;" horiz-adv-x="360" 
d="M242 466h99v-101h-99v-365h-131v365h-85v101h85v171h131v-171zM76 -204q51 60 45 164h124q0 -60 -29.5 -112t-72.5 -85z" />
    <glyph glyph-name="circumflex" unicode="&#x2c6;" horiz-adv-x="561" 
d="M105 551l109 166h132l110 -166h-98l-78 88l-78 -88h-97z" />
    <glyph glyph-name="caron" unicode="&#x2c7;" horiz-adv-x="561" 
d="M214 551l-109 166h97l78 -89l78 89h98l-110 -166h-132z" />
    <glyph glyph-name="breve" unicode="&#x2d8;" horiz-adv-x="505" 
d="M252 565q-65 0 -99 38.5t-34 92.5h83q0 -54 50 -54q25 0 37 15.5t12 38.5h85q0 -59 -37 -95t-97 -36z" />
    <glyph glyph-name="dotaccent" unicode="&#x2d9;" horiz-adv-x="405" 
d="M203 562q-32 0 -54 20.5t-22 52.5q0 31 22 51.5t54 20.5q31 0 53 -21t22 -51q0 -32 -22 -52.5t-53 -20.5z" />
    <glyph glyph-name="ring" unicode="&#x2da;" horiz-adv-x="558" 
d="M278 534q-50 0 -85 34.5t-35 83.5q0 50 35 85t85 35t85.5 -35t35.5 -85q0 -49 -35.5 -83.5t-85.5 -34.5zM278 592q26 0 44.5 17.5t18.5 42.5q0 26 -18.5 44t-44.5 18q-25 0 -43 -18t-18 -44q0 -25 18 -42.5t43 -17.5z" />
    <glyph glyph-name="ogonek" unicode="&#x2db;" horiz-adv-x="529" 
d="M261 -211q-43 0 -72.5 29.5t-29.5 73.5q0 27 10 47l44 88h69l-50 -113q-4 -9 -4 -21q0 -17 10 -27.5t25 -10.5q38 0 38 51h70q0 -56 -31.5 -86.5t-78.5 -30.5z" />
    <glyph glyph-name="tilde" unicode="&#x2dc;" horiz-adv-x="440" 
d="M80 568q3 65 31.5 95t64.5 30q24 0 51.5 -20.5t36.5 -20.5q8 0 17 10t10 31h69q-3 -64 -31.5 -93t-64.5 -29q-23 0 -50.5 20.5t-37.5 20.5q-8 0 -16.5 -11t-9.5 -33h-70z" />
    <glyph glyph-name="hungarumlaut" unicode="&#x2dd;" horiz-adv-x="535" 
d="M80 551l88 166h98l-99 -166h-87zM221 551l100 166h101l-111 -166h-90z" />
    <glyph glyph-name="gravecomb" unicode="&#x300;" horiz-adv-x="0" 
d="M-274 544l-131 166h133l95 -166h-97z" />
    <glyph glyph-name="acutecomb" unicode="&#x301;" horiz-adv-x="0" 
d="M-405 544l95 166h133l-131 -166h-97z" />
    <glyph glyph-name="uni0302" unicode="&#x302;" horiz-adv-x="0" 
d="M-456 544l109 166h132l110 -166h-98l-78 88l-78 -88h-97z" />
    <glyph glyph-name="tildecomb" unicode="&#x303;" horiz-adv-x="0" 
d="M-360 561q3 65 31.5 95t64.5 30q24 0 51.5 -20.5t36.5 -20.5q8 0 17 10t10 31h69q-3 -64 -31.5 -93t-64.5 -29q-23 0 -50.5 20.5t-37.5 20.5q-8 0 -16.5 -11t-9.5 -33h-70z" />
    <glyph glyph-name="uni0304" unicode="&#x304;" horiz-adv-x="0" 
d="M-394 582v84h274v-84h-274z" />
    <glyph glyph-name="uni0306" unicode="&#x306;" horiz-adv-x="0" 
d="M-253 559q-65 0 -99 38t-34 92h83q0 -53 50 -53q25 0 37 15t12 38h85q0 -59 -37 -94.5t-97 -35.5z" />
    <glyph glyph-name="uni0307" unicode="&#x307;" horiz-adv-x="0" 
d="M-202 552q-32 0 -54 20.5t-22 52.5q0 31 22 51.5t54 20.5q31 0 53 -21t22 -51q0 -32 -22 -52.5t-53 -20.5z" />
    <glyph glyph-name="uni0308" unicode="&#x308;" horiz-adv-x="0" 
d="M-397 559q-30 0 -50.5 19.5t-20.5 48.5q0 28 21 47.5t50 19.5t49.5 -19.5t20.5 -47.5q0 -29 -20.5 -48.5t-49.5 -19.5zM-189 559q-30 0 -51 19.5t-21 48.5q0 28 21 47.5t51 19.5q29 0 49 -19.5t20 -47.5q0 -29 -20 -48.5t-49 -19.5z" />
    <glyph glyph-name="uni030A" unicode="&#x30a;" horiz-adv-x="0" 
d="M-280 534q-50 0 -85 34.5t-35 83.5q0 50 35 85t85 35t85.5 -35t35.5 -85q0 -49 -35.5 -83.5t-85.5 -34.5zM-280 592q26 0 44.5 17.5t18.5 42.5q0 26 -18.5 44t-44.5 18q-25 0 -43 -18t-18 -44q0 -25 18 -42.5t43 -17.5z" />
    <glyph glyph-name="uni030B" unicode="&#x30b;" horiz-adv-x="0" 
d="M-455 544l88 166h98l-99 -166h-87zM-314 544l100 166h101l-111 -166h-90z" />
    <glyph glyph-name="uni030C" unicode="&#x30c;" horiz-adv-x="0" 
d="M-347 544l-109 166h97l78 -89l78 89h98l-110 -166h-132z" />
    <glyph glyph-name="uni0326" unicode="&#x326;" horiz-adv-x="0" 
d="M-162 -237l-67 33q51 60 45 164h124q0 -60 -29.5 -112t-72.5 -85z" />
    <glyph glyph-name="uni0327" unicode="&#x327;" horiz-adv-x="0" 
d="M-262 -211q-47 0 -78 30.5t-31 86.5h69q0 -51 38 -51q15 0 25 10.5t10 27.5q0 12 -4 21l-49 113h68l44 -88q10 -20 10 -47q0 -44 -29.5 -73.5t-72.5 -29.5z" />
    <glyph glyph-name="uni0328" unicode="&#x328;" horiz-adv-x="0" 
d="M-268 -211q-43 0 -72.5 29.5t-29.5 73.5q0 27 10 47l44 88h69l-50 -113q-4 -9 -4 -21q0 -17 10 -27.5t25 -10.5q38 0 38 51h70q0 -56 -31.5 -86.5t-78.5 -30.5z" />
    <glyph glyph-name="uni0394" unicode="&#x394;" horiz-adv-x="667" 
d="M409 689l256 -689h-664l257 689h151zM191 121h286l-144 424z" />
    <glyph glyph-name="uni03A9" unicode="&#x3a9;" horiz-adv-x="833" 
d="M655 125h118v-125h-306v111q66 21 113 87.5t47 150.5q0 94 -59.5 156t-151.5 62t-151.5 -62t-59.5 -156q0 -83 47.5 -150t113.5 -88v-111h-307v125h119q-48 30 -80 95t-32 138q0 145 101 242.5t249 97.5q149 0 250 -97t101 -243q0 -73 -32 -138t-80 -95z" />
    <glyph glyph-name="pi" unicode="&#x3c0;" horiz-adv-x="612" 
d="M570 344h-75v-167q0 -41 14.5 -58t48.5 -17v-111h-17q-27 0 -54 6t-56.5 21.5t-48 47.5t-18.5 77v201h-120v-344h-132v344h-79v122h537v-122z" />
    <glyph glyph-name="uni0401" unicode="&#x401;" horiz-adv-x="574" 
d="M184 782q-30 0 -50.5 19.5t-20.5 48.5q0 28 21 47.5t50 19.5t49.5 -19.5t20.5 -47.5q0 -29 -20.5 -48.5t-49.5 -19.5zM392 782q-30 0 -51 19.5t-21 48.5q0 28 21 47.5t51 19.5q29 0 49 -19.5t20 -47.5q0 -29 -20 -48.5t-49 -19.5zM223 123h302v-123h-441v689h432v-123
h-293v-164h257v-125h-257v-154z" />
    <glyph glyph-name="uni0410" unicode="&#x410;" horiz-adv-x="653" 
d="M512 0l-56 165h-258l-55 -165h-148l257 689h150l256 -689h-146zM239 286h175l-88 259z" />
    <glyph glyph-name="uni0411" unicode="&#x411;" horiz-adv-x="619" 
d="M351 442q116 0 175 -62t59 -155t-57.5 -159t-168.5 -66h-275v689h421v-123h-282v-124h128zM345 123q47 0 73.5 28.5t26.5 71.5q0 44 -28 73t-83 29h-111v-202h122z" />
    <glyph glyph-name="uni0412" unicode="&#x412;" horiz-adv-x="638" 
d="M464 368q63 -11 97 -59.5t34 -111.5q0 -80 -55.5 -138.5t-161.5 -58.5h-294v689h273q91 0 146.5 -49.5t55.5 -128.5q0 -46 -22 -86.5t-73 -56.5zM349 566h-126v-151h126q33 0 52 20.5t19 55.5q0 33 -18 54t-53 21zM358 123q46 0 71.5 25.5t25.5 62.5q0 36 -24.5 62
t-70.5 26h-137v-176h135z" />
    <glyph glyph-name="uni0413" unicode="&#x413;" horiz-adv-x="483" 
d="M84 689h379v-123h-240v-566h-139v689z" />
    <glyph glyph-name="uni0414" unicode="&#x414;" horiz-adv-x="715" 
d="M613 87h60v-230h-139v143h-377v-143h-139v251h10q121 0 121 228v353h464v-602zM288 307q0 -132 -59 -184h246v443h-187v-259z" />
    <glyph glyph-name="uni0415" unicode="&#x415;" horiz-adv-x="574" 
d="M223 123h302v-123h-441v689h432v-123h-293v-164h257v-125h-257v-154z" />
    <glyph glyph-name="uni0416" unicode="&#x416;" horiz-adv-x="915" 
d="M931 0h-189l-215 245v-245h-139v246l-216 -246h-189l322 346l-262 343h173l172 -240v240h139v-241l172 241h172l-261 -343z" />
    <glyph glyph-name="uni0417" unicode="&#x417;" horiz-adv-x="577" 
d="M408 372q60 -20 92.5 -65.5t32.5 -106.5q0 -94 -73 -151.5t-194 -57.5q-163 0 -246 120l107 78q57 -70 135 -70q59 0 95 25t36 66q0 43 -36 68.5t-94 25.5h-81v115h50q61 0 93.5 20.5t32.5 57.5q0 31 -27.5 51.5t-69.5 20.5q-35 0 -70.5 -15.5t-56.5 -40.5l-85 88
q92 97 227 97q101 0 162 -51.5t61 -139.5q0 -94 -91 -135z" />
    <glyph glyph-name="uni0418" unicode="&#x418;" horiz-adv-x="682" 
d="M469 689h129v-689h-139v432l-250 -432h-125v689h139v-427z" />
    <glyph glyph-name="uni0419" unicode="&#x419;" horiz-adv-x="682" 
d="M342 782q-60 0 -97 35.5t-37 94.5h85q0 -23 12 -38t37 -15q50 0 50 53h83q0 -54 -34 -92t-99 -38zM469 689h129v-689h-139v432l-250 -432h-125v689h139v-427z" />
    <glyph glyph-name="uni041A" unicode="&#x41a;" 
d="M627 0h-189l-215 242v-242h-139v689h139v-235l171 235h173l-261 -343z" />
    <glyph glyph-name="uni041B" unicode="&#x41b;" horiz-adv-x="698" 
d="M150 689h464v-689h-138v566h-187v-285q0 -135 -59 -208t-159 -73h-52v123h17q56 0 85 35.5t29 126.5v404z" />
    <glyph glyph-name="uni041C" unicode="&#x41c;" horiz-adv-x="925" 
d="M878 0h-142l-50 427l-168 -349h-109l-170 349l-50 -427h-142l85 689h118l213 -452l211 452h120z" />
    <glyph glyph-name="uni041D" unicode="&#x41d;" horiz-adv-x="703" 
d="M480 689h139v-689h-139v280h-257v-280h-139v689h139v-284h257v284z" />
    <glyph glyph-name="uni041E" unicode="&#x41e;" horiz-adv-x="785" 
d="M392 -9q-147 0 -248.5 103t-101.5 250t101.5 250.5t248.5 103.5q146 0 248.5 -103.5t102.5 -250.5q0 -146 -102.5 -249.5t-248.5 -103.5zM392 121q91 0 151 64.5t60 158.5t-60 158.5t-151 64.5q-92 0 -151.5 -64.5t-59.5 -158.5t59.5 -158.5t151.5 -64.5z" />
    <glyph glyph-name="uni041F" unicode="&#x41f;" horiz-adv-x="688" 
d="M84 689h520v-689h-139v565h-242v-565h-139v689z" />
    <glyph glyph-name="uni0420" unicode="&#x420;" horiz-adv-x="618" 
d="M365 689q110 0 167.5 -66t57.5 -159t-57.5 -158t-167.5 -65h-142v-241h-139v689h281zM358 363q47 0 69.5 29.5t22.5 71.5t-22.5 72t-67.5 30h-137v-203h135z" />
    <glyph glyph-name="uni0421" unicode="&#x421;" horiz-adv-x="700" 
d="M392 -9q-146 0 -248 103.5t-102 250.5q0 146 102 249t248 103q86 0 160 -38.5t121 -104.5l-106 -77q-63 89 -170 89q-93 0 -154.5 -64t-61.5 -157t61 -158t154 -65q108 0 171 90l106 -78q-48 -66 -121.5 -104.5t-159.5 -38.5z" />
    <glyph glyph-name="uni0422" unicode="&#x422;" horiz-adv-x="559" 
d="M539 689v-123h-190v-566h-139v566h-190v123h519z" />
    <glyph glyph-name="uni0423" unicode="&#x423;" horiz-adv-x="641" 
d="M496 689h155l-357 -689h-153l115 218l-263 471h154l183 -340z" />
    <glyph glyph-name="uni0424" unicode="&#x424;" horiz-adv-x="870" 
d="M830 343q0 -119 -80.5 -193.5t-248.5 -87.5v-62h-132v62q-167 12 -248.5 86.5t-81.5 194.5t81 195t249 87v64h132v-64q168 -13 248.5 -87.5t80.5 -194.5zM179 343q0 -60 46.5 -99.5t143.5 -49.5v299q-97 -10 -143.5 -49.5t-46.5 -100.5zM690 343q1 61 -45.5 100.5
t-143.5 49.5v-299q96 10 142.5 49.5t46.5 99.5z" />
    <glyph glyph-name="uni0425" unicode="&#x425;" horiz-adv-x="650" 
d="M647 0h-165l-157 257l-158 -257h-163l238 368l-217 321h168l132 -211l133 211h166l-217 -321z" />
    <glyph glyph-name="uni0426" unicode="&#x426;" horiz-adv-x="711" 
d="M609 87h60v-230h-139v143h-446v689h139v-565h247v565h139v-602z" />
    <glyph glyph-name="uni0427" unicode="&#x427;" horiz-adv-x="648" 
d="M425 689h139v-689h-139v237q-75 -12 -152 -12q-116 0 -172 64.5t-56 201.5v198h139v-194q0 -80 30 -111.5t94 -31.5q56 0 117 11v326z" />
    <glyph glyph-name="uni0428" unicode="&#x428;" horiz-adv-x="979" 
d="M756 689h139v-689h-811v689h139v-565h197v565h139v-565h197v565z" />
    <glyph glyph-name="uni0429" unicode="&#x429;" horiz-adv-x="996" 
d="M895 87h60v-230h-140v143h-731v689h139v-565h197v565h139v-565h197v565h139v-602z" />
    <glyph glyph-name="uni042A" unicode="&#x42a;" horiz-adv-x="676" 
d="M414 442q116 0 175 -62t59 -155t-57.5 -159t-167.5 -66h-276v566h-129v123h268v-247h128zM408 123q48 0 74.5 28.5t26.5 71.5q0 44 -28 73t-83 29h-112v-202h122z" />
    <glyph glyph-name="uni042B" unicode="&#x42b;" horiz-adv-x="907" 
d="M351 442q116 0 175 -62t59 -155t-57.5 -159t-168.5 -66h-275v689h139v-247h128zM684 689h139v-689h-139v689zM345 123q47 0 73.5 28.5t26.5 71.5q0 44 -28 73t-83 29h-111v-202h122z" />
    <glyph glyph-name="uni042C" unicode="&#x42c;" horiz-adv-x="613" 
d="M351 442q116 0 175 -62t59 -155t-57.5 -159t-168.5 -66h-275v689h139v-247h128zM345 123q47 0 73.5 28.5t26.5 71.5q0 44 -28 73t-83 29h-111v-202h122z" />
    <glyph glyph-name="uni042D" unicode="&#x42d;" horiz-adv-x="706" 
d="M314 697q145 0 247.5 -103t102.5 -249q0 -147 -102.5 -250.5t-247.5 -103.5q-86 0 -159.5 38.5t-121.5 104.5l106 78q63 -90 171 -90q74 0 129 43t75 112h-293v125h296q-18 72 -74.5 118t-133.5 46q-107 0 -170 -89l-106 77q47 66 121 104.5t160 38.5z" />
    <glyph glyph-name="uni042E" unicode="&#x42e;" horiz-adv-x="1056" 
d="M664 698q146 0 248.5 -103.5t102.5 -250.5q0 -146 -102.5 -249.5t-248.5 -103.5q-130 0 -226.5 82.5t-118.5 206.5h-96v-280h-139v689h139v-284h95q21 126 118 209.5t228 83.5zM663 121q92 0 152 64.5t60 158.5t-60 158.5t-152 64.5q-91 0 -150.5 -64.5t-59.5 -158.5
t59.5 -158.5t150.5 -64.5z" />
    <glyph glyph-name="uni042F" unicode="&#x42f;" horiz-adv-x="636" 
d="M277 689h275v-689h-139v247h-47l-164 -247h-163l179 254q-83 17 -125 74.5t-42 135.5q0 93 57.5 159t168.5 66zM302 359h111v207h-122q-47 0 -73.5 -30.5t-26.5 -74.5t28 -73t83 -29z" />
    <glyph glyph-name="uni0430" unicode="&#x430;" horiz-adv-x="614" 
d="M417 466h131v-466h-131v58q-23 -33 -65.5 -50t-84.5 -17q-94 0 -161.5 67t-67.5 176t67.5 176t161.5 67q44 0 85.5 -17t64.5 -50v56zM292 113q49 0 85 34.5t36 86.5t-36.5 86t-84.5 34q-50 0 -85.5 -34.5t-35.5 -85.5t35.5 -86t85.5 -35z" />
    <glyph glyph-name="uni0431" unicode="&#x431;" horiz-adv-x="588" 
d="M329 459q89 0 154.5 -64.5t65.5 -167.5q0 -106 -70.5 -171t-180.5 -65q-112 0 -181.5 79.5t-69.5 222.5q0 68 13.5 126t42.5 110.5t81.5 89.5t125.5 51q61 14 81 49l101 -62q-7 -28 -37 -52t-80 -37q-98 -20 -140 -64t-51 -109q22 28 63 46t82 18zM298 108q51 0 84.5 33
t33.5 86t-33.5 86t-84.5 33t-84.5 -33t-33.5 -86t33.5 -86t84.5 -33z" />
    <glyph glyph-name="uni0432" unicode="&#x432;" horiz-adv-x="553" 
d="M421 249q41 -7 68 -39t27 -75q0 -55 -40 -95t-128 -40h-282v466h276q69 0 108.5 -33.5t39.5 -83.5q0 -82 -69 -100zM322 351h-125v-66h126q37 0 37 32q0 34 -38 34zM332 118q50 0 50 37q0 17 -13 28t-37 11h-135v-76h135z" />
    <glyph glyph-name="uni0433" unicode="&#x433;" horiz-adv-x="412" 
d="M66 466h325v-122h-194v-344h-131v466z" />
    <glyph glyph-name="uni0434" unicode="&#x434;" horiz-adv-x="565" 
d="M483 71h44v-187h-132v116h-243v-116h-131v213h7q89 0 89 172v197h366v-395zM248 235q0 -83 -42 -120h146v229h-104v-109z" />
    <glyph glyph-name="uni0435" unicode="&#x435;" horiz-adv-x="563" 
d="M528 241q0 -8 -2 -50h-352q22 -84 121 -84q78 0 122 52l77 -77q-32 -43 -88.5 -67t-119.5 -24q-108 0 -178 67.5t-70 174.5q0 110 72 177.5t176 67.5q102 0 172 -66t70 -171zM174 276h223q-3 40 -33.5 64t-75.5 24q-94 0 -114 -88z" />
    <glyph glyph-name="uni0436" unicode="&#x436;" horiz-adv-x="719" 
d="M729 0h-181l-128 149v-149h-121v153l-128 -153h-180l239 240l-192 226h165l96 -136v136h121v-133l96 133h165l-192 -225z" />
    <glyph glyph-name="uni0437" unicode="&#x437;" horiz-adv-x="454" 
d="M330 254q43 -15 65 -46t22 -70q0 -64 -58.5 -105.5t-152.5 -41.5q-121 0 -184 78l83 65q40 -37 99 -37q37 0 58.5 16.5t21.5 37.5q0 23 -21 37.5t-56 14.5h-64v82h47q35 0 52.5 12.5t17.5 31.5q0 18 -17.5 29.5t-46.5 11.5q-56 0 -92 -33l-67 76q79 65 179 65
q76 0 126.5 -37t50.5 -99q-2 -60 -63 -88z" />
    <glyph glyph-name="uni0438" unicode="&#x438;" horiz-adv-x="560" 
d="M378 466h116v-466h-131v256l-186 -256h-111v466h131v-247z" />
    <glyph glyph-name="uni0439" unicode="&#x439;" horiz-adv-x="560" 
d="M261 562q-65 0 -99 38t-34 92h83q0 -53 50 -53q25 0 37 15t12 38h85q0 -59 -37 -94.5t-97 -35.5zM378 466h116v-466h-131v256l-186 -256h-111v466h131v-247z" />
    <glyph glyph-name="uni043A" unicode="&#x43a;" horiz-adv-x="484" 
d="M494 0h-171l-130 152v-152h-127v466h127v-150l99 150h154l-165 -224z" />
    <glyph glyph-name="uni043B" unicode="&#x43b;" horiz-adv-x="561" 
d="M120 466h376v-466h-132v344h-113v-124q0 -105 -45 -162.5t-121 -57.5h-61v114h17q40 0 59.5 21.5t19.5 88.5v242z" />
    <glyph glyph-name="uni043C" unicode="&#x43c;" horiz-adv-x="697" 
d="M657 0h-136l-29 241l-95 -184h-97l-95 184l-30 -241h-136l63 466h104l142 -274l140 274h106z" />
    <glyph glyph-name="uni043D" unicode="&#x43d;" horiz-adv-x="571" 
d="M374 466h131v-466h-131v173h-177v-173h-131v466h131v-176h177v176z" />
    <glyph glyph-name="uni043E" unicode="&#x43e;" horiz-adv-x="576" 
d="M288 -9q-103 0 -177 68t-74 175q0 108 74 176t177 68t177 -68t74 -176q0 -107 -74 -175t-177 -68zM288 113q50 0 84 34t34 87q0 54 -34 88t-84 34t-84 -34t-34 -88q0 -53 34 -87t84 -34z" />
    <glyph glyph-name="uni043F" unicode="&#x43f;" horiz-adv-x="558" 
d="M66 466h426v-466h-131v344h-164v-344h-131v466z" />
    <glyph glyph-name="uni0440" unicode="&#x440;" horiz-adv-x="614" 
d="M347 478q94 0 161.5 -67.5t67.5 -176.5t-67.5 -176t-161.5 -67q-43 0 -85 17t-65 50v-287h-131v695h131v-56q23 33 65 50.5t85 17.5zM322 114q50 0 85 34.5t35 85.5t-35 86t-85 35q-49 0 -85 -34.5t-36 -86.5t36.5 -86t84.5 -34z" />
    <glyph glyph-name="uni0441" unicode="&#x441;" horiz-adv-x="518" 
d="M293 -9q-105 0 -180.5 68t-75.5 176t75 175.5t181 67.5q124 0 197 -100l-98 -69q-34 47 -98 47q-55 0 -89.5 -34.5t-34.5 -86.5t34.5 -87t89.5 -35q64 0 98 47l98 -69q-72 -100 -197 -100z" />
    <glyph glyph-name="uni0442" unicode="&#x442;" horiz-adv-x="448" 
d="M426 466v-122h-136v-344h-131v344h-137v122h404z" />
    <glyph glyph-name="uni0443" unicode="&#x443;" horiz-adv-x="512" 
d="M367 466h141l-288 -695h-140l110 273l-184 422h144l110 -269z" />
    <glyph glyph-name="uni0444" unicode="&#x444;" horiz-adv-x="706" 
d="M413 474q126 -13 191 -78t64 -165q0 -99 -64.5 -162.5t-190.5 -75.5v-213h-121v213q-126 12 -190.5 75.5t-64.5 162.5q0 100 65 165t190 78v241h121v-241zM535 231q1 47 -30 78t-92 41v-234q122 21 122 115zM170 231q0 -94 122 -115v234q-60 -10 -91 -41t-31 -78z" />
    <glyph glyph-name="uni0445" unicode="&#x445;" horiz-adv-x="520" 
d="M517 0h-153l-103 149l-105 -149h-154l185 253l-154 213h155l74 -107l72 107h154l-154 -213z" />
    <glyph glyph-name="uni0446" unicode="&#x446;" horiz-adv-x="570" 
d="M464 122h65v-238h-125v116h-338v466h131v-344h136v344h131v-344z" />
    <glyph glyph-name="uni0447" unicode="&#x447;" horiz-adv-x="526" 
d="M329 466h131v-466h-131v147q-56 -8 -128 -8q-83 0 -124 47t-41 146v134h132v-131q0 -45 20 -61t57 -16q36 0 84 5v203z" />
    <glyph glyph-name="uni0448" unicode="&#x448;" horiz-adv-x="728" 
d="M531 466h132v-466h-597v466h131v-344h105v344h125v-344h104v344z" />
    <glyph glyph-name="uni0449" unicode="&#x449;" horiz-adv-x="765" 
d="M663 122h60v-238h-124v116h-533v466h131v-344h102v344h131v-344h101v344h132v-344z" />
    <glyph glyph-name="uni044A" unicode="&#x44a;" horiz-adv-x="544" 
d="M345 313q82 0 128 -42.5t46 -110.5q0 -70 -46 -115t-126 -45h-230v352h-92v114h223v-153h97zM334 116q53 0 53 41q0 43 -53 43h-86v-84h86z" />
    <glyph glyph-name="uni044B" unicode="&#x44b;" horiz-adv-x="723" 
d="M294 313q82 0 128 -42.5t46 -110.5q0 -70 -45.5 -115t-125.5 -45h-231v466h131v-153h97zM526 466h131v-466h-131v466zM283 116q53 0 53 41q0 43 -53 43h-86v-84h86z" />
    <glyph glyph-name="uni044C" unicode="&#x44c;" horiz-adv-x="493" 
d="M294 313q82 0 128 -42.5t46 -110.5q0 -70 -45.5 -115t-125.5 -45h-231v466h131v-153h97zM283 116q53 0 53 41q0 43 -53 43h-86v-84h86z" />
    <glyph glyph-name="uni044D" unicode="&#x44d;" horiz-adv-x="520" 
d="M229 478q110 0 182 -70t72 -173q0 -104 -72 -174t-182 -70q-59 0 -112.5 21.5t-87.5 58.5l73 84q50 -48 120 -48q43 0 74.5 21t45.5 56h-178v96h180q-13 37 -45.5 59t-76.5 22q-70 0 -120 -48l-73 84q35 38 88.5 59.5t111.5 21.5z" />
    <glyph glyph-name="uni044E" unicode="&#x44e;" horiz-adv-x="788" 
d="M499 478q103 0 177.5 -68t74.5 -176q0 -107 -74.5 -175t-177.5 -68q-87 0 -153.5 49.5t-86.5 132.5h-62v-173h-131v466h131v-176h61q18 86 85.5 137t155.5 51zM499 113q50 0 84 34t34 87q0 54 -34 88t-84 34q-49 0 -83 -34t-34 -88q0 -53 34 -87t83 -34z" />
    <glyph glyph-name="uni044F" unicode="&#x44f;" horiz-adv-x="502" 
d="M223 466h214v-466h-132v159h-12l-109 -159h-152l127 166q-58 14 -86 52t-28 91q0 65 46.5 111t131.5 46zM239 250h66v96h-69q-30 0 -44 -13.5t-14 -33.5q0 -21 14.5 -35t46.5 -14z" />
    <glyph glyph-name="uni0451" unicode="&#x451;" horiz-adv-x="563" 
d="M176 559q-30 0 -50.5 19.5t-20.5 48.5q0 28 21 47.5t50 19.5t49.5 -19.5t20.5 -47.5q0 -29 -20.5 -48.5t-49.5 -19.5zM384 559q-30 0 -51 19.5t-21 48.5q0 28 21 47.5t51 19.5q29 0 49 -19.5t20 -47.5q0 -29 -20 -48.5t-49 -19.5zM528 241q0 -8 -2 -50h-352
q22 -84 121 -84q78 0 122 52l77 -77q-32 -43 -88.5 -67t-119.5 -24q-108 0 -178 67.5t-70 174.5q0 110 72 177.5t176 67.5q102 0 172 -66t70 -171zM174 276h223q-3 40 -33.5 64t-75.5 24q-94 0 -114 -88z" />
    <glyph glyph-name="Wgrave" unicode="&#x1e80;" horiz-adv-x="904" 
d="M504 767h-97l-131 166h133zM745 689h151l-234 -689h-111l-100 374l-98 -374h-111l-233 689h150l140 -449l97 352h113l95 -352z" />
    <glyph glyph-name="wgrave" unicode="&#x1e81;" horiz-adv-x="760" 
d="M431 544h-97l-131 166h133zM611 466h142l-165 -466h-112l-96 303l-93 -303h-112l-170 466h142l88 -284l89 284h110l89 -284z" />
    <glyph glyph-name="Wacute" unicode="&#x1e82;" horiz-adv-x="904" 
d="M634 933l-131 -166h-97l95 166h133zM745 689h151l-234 -689h-111l-100 374l-98 -374h-111l-233 689h150l140 -449l97 352h113l95 -352z" />
    <glyph glyph-name="wacute" unicode="&#x1e83;" horiz-adv-x="760" 
d="M561 710l-131 -166h-97l95 166h133zM611 466h142l-165 -466h-112l-96 303l-93 -303h-112l-170 466h142l88 -284l89 284h110l89 -284z" />
    <glyph glyph-name="Wdieresis" unicode="&#x1e84;" horiz-adv-x="904" 
d="M349 782q-30 0 -50.5 19.5t-20.5 48.5q0 28 21 47.5t50 19.5t49.5 -19.5t20.5 -47.5q0 -29 -20.5 -48.5t-49.5 -19.5zM557 782q-30 0 -51 19.5t-21 48.5q0 28 21 47.5t51 19.5q29 0 49 -19.5t20 -47.5q0 -29 -20 -48.5t-49 -19.5zM745 689h151l-234 -689h-111l-100 374
l-98 -374h-111l-233 689h150l140 -449l97 352h113l95 -352z" />
    <glyph glyph-name="wdieresis" unicode="&#x1e85;" horiz-adv-x="760" 
d="M276 559q-30 0 -50.5 19.5t-20.5 48.5q0 28 21 47.5t50 19.5t49.5 -19.5t20.5 -47.5q0 -29 -20.5 -48.5t-49.5 -19.5zM484 559q-30 0 -51 19.5t-21 48.5q0 28 21 47.5t51 19.5q29 0 49 -19.5t20 -47.5q0 -29 -20 -48.5t-49 -19.5zM611 466h142l-165 -466h-112l-96 303
l-93 -303h-112l-170 466h142l88 -284l89 284h110l89 -284z" />
    <glyph glyph-name="uni1E9E" unicode="&#x1e9e;" horiz-adv-x="691" 
d="M479 417q79 -18 125.5 -71.5t46.5 -128.5q0 -100 -67 -163.5t-176 -63.5q-68 0 -113 16l18 120q26 -13 79 -13q54 0 87 31t33 84q0 51 -38 83.5t-99 32.5h-34l-6 61l88 159q-38 9 -72 9q-59 0 -97.5 -39.5t-38.5 -111.5v-422h-139v421q0 133 76 204.5t201 71.5
q60 0 129.5 -16.5t114.5 -41.5v-14z" />
    <glyph glyph-name="Ygrave" unicode="&#x1ef2;" horiz-adv-x="670" 
d="M386 767h-97l-131 166h133zM507 689h165l-268 -378v-311h-139v313l-267 376h166l170 -262z" />
    <glyph glyph-name="ygrave" unicode="&#x1ef3;" horiz-adv-x="512" 
d="M310 544h-97l-131 166h133zM367 466h141l-288 -695h-140l110 273l-184 422h144l110 -269z" />
    <glyph glyph-name="endash" unicode="&#x2013;" horiz-adv-x="629" 
d="M62 181v113h505v-113h-505z" />
    <glyph glyph-name="emdash" unicode="&#x2014;" horiz-adv-x="841" 
d="M62 180v113h717v-113h-717z" />
    <glyph glyph-name="quoteleft" unicode="&#x2018;" horiz-adv-x="255" 
d="M46 421q-3 89 33.5 165.5t95.5 128.5l60 -32q-47 -64 -65.5 -123.5t-14.5 -138.5h-109z" />
    <glyph glyph-name="quoteright" unicode="&#x2019;" horiz-adv-x="248" 
d="M89 408l-61 32q46 63 65.5 123t15.5 139h108q4 -89 -33 -165.5t-95 -128.5z" />
    <glyph glyph-name="quotesinglbase" unicode="&#x201a;" horiz-adv-x="241" 
d="M51 -150l-61 32q46 63 65.5 122t15.5 139h108q4 -88 -33 -164.5t-95 -128.5z" />
    <glyph glyph-name="quotedblleft" unicode="&#x201c;" horiz-adv-x="419" 
d="M46 421q-3 89 33.5 165.5t95.5 128.5l60 -32q-47 -64 -65.5 -123.5t-14.5 -138.5h-109zM211 421q-4 89 33 165.5t95 128.5l61 -32q-46 -63 -65.5 -122.5t-15.5 -139.5h-108z" />
    <glyph glyph-name="quotedblright" unicode="&#x201d;" horiz-adv-x="413" 
d="M89 408l-61 32q46 63 65.5 123t15.5 139h108q4 -89 -33 -165.5t-95 -128.5zM253 408l-60 32q46 63 65.5 123t15.5 139h108q3 -89 -33.5 -165.5t-95.5 -128.5z" />
    <glyph glyph-name="quotedblbase" unicode="&#x201e;" horiz-adv-x="406" 
d="M51 -150l-61 32q46 63 65.5 122.5t15.5 138.5h108q4 -88 -33 -164.5t-95 -128.5zM215 -150l-60 32q46 63 65 122t15 139h109q3 -89 -34 -165t-95 -128z" />
    <glyph glyph-name="dagger" unicode="&#x2020;" horiz-adv-x="442" 
d="M161 -117v539h-116v97h116v165h120v-165h116v-97h-116v-539h-120z" />
    <glyph glyph-name="daggerdbl" unicode="&#x2021;" horiz-adv-x="442" 
d="M161 -117v222h-116v95h116v222h-116v97h116v165h120v-165h116v-97h-116v-222h116v-95h-116v-222h-120z" />
    <glyph glyph-name="bullet" unicode="&#x2022;" horiz-adv-x="451" 
d="M226 86q-66 0 -112.5 43.5t-46.5 108.5t46.5 108.5t112.5 43.5q65 0 111.5 -43.5t46.5 -108.5t-46.5 -108.5t-111.5 -43.5z" />
    <glyph glyph-name="ellipsis" unicode="&#x2026;" horiz-adv-x="831" 
d="M131 -9q-34 0 -58.5 22.5t-24.5 57.5t24.5 58t58.5 23q35 0 60 -23t25 -58t-25 -57.5t-60 -22.5zM415 -9q-34 0 -58.5 22.5t-24.5 57.5t24.5 58t58.5 23q35 0 60 -23t25 -58t-25 -57.5t-60 -22.5zM699 -9q-34 0 -58.5 22.5t-24.5 57.5t24.5 58t58.5 23t59 -23t25 -58
t-24.5 -57.5t-59.5 -22.5z" />
    <glyph glyph-name="perthousand" unicode="&#x2030;" horiz-adv-x="949" 
d="M165 404q-56 0 -94.5 38.5t-38.5 94.5t38.5 95t94.5 39q55 0 94.5 -39.5t39.5 -94.5q0 -56 -39 -94.5t-95 -38.5zM119 0l324 655h74l-325 -655h-73zM165 477q25 0 43 17t18 43q0 25 -18 43t-43 18q-26 0 -43 -18t-17 -43q0 -26 17 -43t43 -17zM472 -9q-56 0 -94.5 38.5
t-38.5 94.5t38.5 95t94.5 39t95 -39t39 -95t-39 -94.5t-95 -38.5zM786 -9q-56 0 -94.5 38.5t-38.5 94.5t38.5 95t94.5 39t95 -39t39 -95t-39 -94.5t-95 -38.5zM472 64q26 0 43.5 17t17.5 43q0 25 -18 43t-43 18t-42.5 -18t-17.5 -43q0 -26 17 -43t43 -17zM786 64q25 0 43 17
t18 43q0 25 -18 43t-43 18q-26 0 -43 -18t-17 -43q0 -26 17 -43t43 -17z" />
    <glyph glyph-name="guilsinglleft" unicode="&#x2039;" horiz-adv-x="319" 
d="M174 26l-138 207l138 207h106l-138 -207l138 -207h-106z" />
    <glyph glyph-name="guilsinglright" unicode="&#x203a;" horiz-adv-x="319" 
d="M39 26l138 207l-138 207h106l138 -207l-138 -207h-106z" />
    <glyph glyph-name="fraction" unicode="&#x2044;" horiz-adv-x="180" 
d="M-180 -9l452 677h83l-451 -677h-84z" />
    <glyph glyph-name="uni2070" unicode="&#x2070;" horiz-adv-x="343" 
d="M172 521q-135 0 -135 183q0 185 135 185q134 0 134 -185q0 -183 -134 -183zM172 594q54 0 54 110q0 111 -54 111q-55 0 -55 -111q0 -110 55 -110z" />
    <glyph glyph-name="uni2074" unicode="&#x2074;" horiz-adv-x="346" 
d="M319 661v-67h-52v-68h-80v68h-171v21l214 270h37v-224h52zM125 661h62v81z" />
    <glyph glyph-name="uni2075" unicode="&#x2075;" horiz-adv-x="329" 
d="M183 772q53 0 84.5 -34t31.5 -87q0 -59 -40.5 -94.5t-99.5 -35.5q-41 0 -77.5 20.5t-54.5 53.5l62 38q10 -17 28.5 -27.5t37.5 -10.5q28 0 45.5 15t17.5 40q0 26 -15.5 41t-41.5 15q-41 0 -75 -34l-49 32l32 181h206v-74h-141l-12 -55q26 16 61 16z" />
    <glyph glyph-name="uni2076" unicode="&#x2076;" horiz-adv-x="342" 
d="M191 756q53 0 86 -33t33 -82q0 -53 -37 -86.5t-96 -33.5q-63 0 -102 45t-39 127q0 93 42 144.5t107 51.5q35 0 67.5 -18t49.5 -46l-60 -43q-22 33 -55 33q-28 0 -49 -23.5t-24 -64.5q27 29 77 29zM179 595q22 0 36.5 15t14.5 34t-14 33.5t-38 14.5q-21 0 -36.5 -13
t-15.5 -33q0 -23 15 -37t38 -14z" />
    <glyph glyph-name="uni2077" unicode="&#x2077;" horiz-adv-x="307" 
d="M28 885h265v-8l-153 -351h-93l125 285h-144v74z" />
    <glyph glyph-name="uni2078" unicode="&#x2078;" horiz-adv-x="349" 
d="M256 729q27 -11 44 -37t17 -58q0 -50 -40.5 -81.5t-101.5 -31.5q-62 0 -102.5 31.5t-40.5 80.5q0 32 16.5 58t44.5 38q-33 24 -33 64q0 42 32.5 69t82.5 27t82.5 -27t32.5 -69t-34 -64zM174 818q-16 0 -26.5 -10t-10.5 -25q0 -14 10.5 -24t26.5 -10q17 0 28 10t11 24
q0 15 -11 25t-28 10zM175 593q26 0 42.5 14t16.5 36q0 23 -16 37t-43 14q-25 0 -41 -14t-16 -37q0 -22 16 -36t41 -14z" />
    <glyph glyph-name="uni2079" unicode="&#x2079;" horiz-adv-x="341" 
d="M165 889q63 0 102 -44.5t39 -123.5q0 -94 -41.5 -147t-107.5 -53q-35 0 -67.5 18t-49.5 46l60 43q22 -33 55 -33q28 0 49 23.5t24 65.5q-28 -30 -77 -30q-53 0 -86 33t-33 82q0 53 37 86.5t96 33.5zM164 719q22 0 37 12.5t15 32.5q0 23 -15 37t-38 14q-22 0 -36.5 -15
t-14.5 -34t14 -33t38 -14z" />
    <glyph glyph-name="uni207A" unicode="&#x207a;" horiz-adv-x="290" 
d="M260 695v-64h-83v-83h-64v83h-82v64h82v83h64v-83h83z" />
    <glyph glyph-name="uni207B" unicode="&#x207b;" horiz-adv-x="315" 
d="M46 639v63h222v-63h-222z" />
    <glyph glyph-name="uni207C" unicode="&#x207c;" horiz-adv-x="349" 
d="M47 713v59h255v-59h-255zM47 596v59h255v-59h-255z" />
    <glyph glyph-name="uni207D" unicode="&#x207d;" horiz-adv-x="233" 
d="M206 427q-78 -1 -125 67t-47 177q0 108 47.5 177.5t124.5 67.5v-60q-39 2 -70 -47.5t-31 -137.5t30.5 -137t70.5 -47v-60z" />
    <glyph glyph-name="uni207E" unicode="&#x207e;" horiz-adv-x="233" 
d="M27 427v60q40 -2 71 47t31 137t-31 137.5t-71 47.5v60q77 2 124.5 -67.5t47.5 -177.5q0 -109 -47 -177t-125 -67z" />
    <glyph glyph-name="colonmonetary" unicode="&#x20a1;" horiz-adv-x="654" 
d="M367 137q95 0 150 78l102 -74q-42 -60 -110 -95.5t-146 -35.5q-13 0 -39 2l-26 -90l-49 14l25 86q-33 10 -56 22l-26 -91l-49 14l30 104q-62 44 -98 112t-36 147q0 126 88 218.5t214 100.5l33 112l50 -14l-29 -99q26 -3 58 -11l27 93l50 -14l-29 -98q75 -37 118 -100
l-102 -74q-21 30 -52 50l-104 -357h6zM256 171q25 -17 54 -26l108 371q-22 7 -50 7h-10zM177 330q0 -67 37 -118l88 300q-56 -19 -90.5 -68t-34.5 -114z" />
    <glyph glyph-name="lira" unicode="&#x20a4;" horiz-adv-x="664" 
d="M393 362v-59h-320v59h69v80q0 103 58.5 161t151.5 58q99 0 161 -55.5t62 -172.5h-132q0 54 -24 80.5t-65 26.5q-35 0 -58 -28t-23 -72v-78h120zM493 203h131v-72q0 -56 -35 -93.5t-87 -37.5h-458v115h98v75h-69v59h320v-59h-120v-75h192q28 0 28 37v51z" />
    <glyph glyph-name="uni20A6" unicode="&#x20a6;" horiz-adv-x="749" 
d="M704 363h-73v-72h73v-58h-73v-233h-124l-142 233h-109v-233h-139v233h-72v58h72v72h-72v59h72v233h129l142 -233h104v233h139v-233h73v-59zM256 291h74l-44 72h-30v-72zM492 291v72h-68l44 -72h24z" />
    <glyph glyph-name="peseta" unicode="&#x20a7;" horiz-adv-x="1448" 
d="M366 689q110 0 167 -66t57 -159t-57 -158t-167 -65h-142v-241h-139v689h281zM867 637v-171h98v-101h-98v-365h-132v365h-84v101h84v171h132zM359 363q46 0 69 30t23 71q0 42 -22.5 72t-67.5 30h-137v-203h135zM1286 275q126 -34 126 -138q0 -69 -58.5 -107.5
t-136.5 -38.5t-137.5 42.5t-67.5 116.5h133q0 -22 18.5 -39t50.5 -17q29 0 48 11.5t19 31.5q0 26 -51 39l-62 15q-136 36 -136 148q0 56 52 97.5t131 41.5q73 0 129 -38t55 -114h-125q0 22 -16.5 35t-40.5 13q-23 0 -38.5 -10.5t-15.5 -28.5q0 -28 46 -40z" />
    <glyph glyph-name="uni20A8" unicode="&#x20a8;" horiz-adv-x="626" 
d="M417 597q51 -44 59 -128h117l-29 -58h-87q-10 -161 -146 -195l153 -216h-163l-138 208l-122 -1v122h185q81 0 91 82h-276v58h273q-15 63 -88 63h-185l-1 123h533l-29 -58h-147z" />
    <glyph glyph-name="uni20A9" unicode="&#x20a9;" horiz-adv-x="955" 
d="M910 655l-80 -235h72v-58h-92l-30 -88h122v-58h-141l-74 -216h-110l-58 216h-84l-57 -216h-111l-73 216h-141v58h121l-30 88h-91v58h72l-80 235h150l74 -235h104l48 172h113l47 -172h105l73 235h151zM287 362l27 -88h19l24 88h-70zM451 274h52l-24 88h-5zM641 274l27 88
h-71l24 -88h20z" />
    <glyph glyph-name="uni20AA" unicode="&#x20aa;" horiz-adv-x="865" 
d="M84 0v655h277q105 0 165.5 -57.5t60.5 -150.5v-207h-116v192q0 40 -28.5 67.5t-75.5 27.5h-153v-527h-130zM504 0q-104 0 -165 58t-61 150v208h116v-192q0 -40 28.5 -68t75.5 -28h153v527h130v-655h-277z" />
    <glyph glyph-name="dong" unicode="&#x20ab;" horiz-adv-x="665" 
d="M630 657v-64h-83v-547h-125v58q-23 -33 -65.5 -50t-84.5 -17q-94 0 -161.5 67t-67.5 176t67 176t161 67q44 0 86 -17t65 -50v137h-146v64h146v58h125v-58h83zM296 159q50 0 86 34.5t36 86.5t-37 86t-85 34q-49 0 -84.5 -34.5t-35.5 -85.5t35.5 -86t84.5 -35zM105 -78v64
h408v-64h-408z" />
    <glyph glyph-name="Euro" unicode="&#x20ac;" horiz-adv-x="796" 
d="M515 413v-61h-479v61h104q32 111 121.5 179.5t208.5 68.5q88 0 161.5 -37t120.5 -102l-110 -78q-64 87 -172 87q-61 0 -109 -32t-73 -86h227zM645 213l110 -79q-47 -66 -121.5 -104.5t-163.5 -38.5q-120 0 -210 70.5t-121 181.5h-103v62h479v-62h-229q25 -56 73.5 -89.5
t110.5 -33.5q53 0 99 25t76 68z" />
    <glyph glyph-name="uni20AE" unicode="&#x20ae;" horiz-adv-x="585" 
d="M553 533h-189v-108l79 58v-69l-79 -58v-46l79 58v-68l-79 -58v-242h-140v139l-80 -59v69l80 59v46l-80 -59v68l80 59v211h-190v122h519v-122z" />
    <glyph glyph-name="uni20B1" unicode="&#x20b1;" horiz-adv-x="707" 
d="M675 501v-45h-78q1 -7 1 -20q0 -12 -1 -18h78v-46h-85q-17 -66 -71.5 -105t-144.5 -39h-119v-228h-139v372h-70v46h70v38h-70v45h70v154h258q88 0 142.5 -42.5t73.5 -111.5h85zM255 533v-32h182q-27 32 -77 32h-105zM459 433q0 7 -2 23h-202v-38h203q1 5 1 15zM358 336
q56 0 83 36h-186v-36h103z" />
    <glyph glyph-name="uni20B4" unicode="&#x20b4;" horiz-adv-x="588" 
d="M450 408h74v-52h-461v52h221l31 26q49 41 48 65q0 13 -10.5 22t-27.5 9h-235v125h292q63 0 101.5 -32t38.5 -85q0 -36 -12 -59t-38 -50zM63 247v52h461v-52h-225l-31 -26q-26 -23 -37 -36.5t-11 -28.5q0 -13 10.5 -22t27.5 -9h251v-125h-308q-63 0 -101.5 32.5
t-38.5 85.5q0 36 12.5 59t38.5 50l22 20h-71z" />
    <glyph glyph-name="uni20BA" unicode="&#x20ba;" horiz-adv-x="622" 
d="M461 372h126v-61q0 -141 -79 -226t-211 -85h-186v259l-62 -45v68l62 45v46l-62 -45v69l62 45v213h130v-118l108 79v-68l-108 -79v-46l108 79v-69l-108 -79v-226h46q80 0 127 53.5t47 144.5v46z" />
    <glyph glyph-name="uni20BD" unicode="&#x20bd;" horiz-adv-x="642" 
d="M384 253h-119v-55h238v-79h-238v-119h-139v119h-75v79h75v55h-75v82h75v320h258q111 0 167.5 -58.5t56.5 -148.5q0 -89 -56 -142t-168 -53zM379 533h-114v-171h112q92 0 92 84q0 39 -22 63t-68 24z" />
    <glyph glyph-name="uni2113" unicode="&#x2113;" horiz-adv-x="400" 
d="M199 181h-22v-15q0 -31 12.5 -47t45.5 -16h95v-103h-121q-148 0 -148 168v361q0 169 148 169q146 0 146 -175v-187q0 -81 -31 -118t-125 -37zM209 591q-32 0 -32 -47v-278h21q25 0 32.5 13t7.5 38v227q0 25 -6 36t-23 11z" />
    <glyph glyph-name="uni2116" unicode="&#x2116;" horiz-adv-x="965" 
d="M796 429q-56 0 -94.5 38.5t-38.5 93.5t39 94t94 39t94 -39t39 -94t-39 -93.5t-94 -38.5zM460 262v427h139v-689h-125l-250 432v-432h-139v689h129zM796 622q-25 0 -43 -18t-18 -43t17.5 -42.5t43.5 -17.5q25 0 43 17.5t18 42.5t-18 43t-43 18zM669 326v59h253v-59h-253z
" />
    <glyph glyph-name="uni2117" unicode="&#x2117;" horiz-adv-x="783" 
d="M391 697q146 0 248 -103.5t102 -250.5t-102 -250t-248 -103t-247.5 103t-101.5 250t101.5 250.5t247.5 103.5zM391 52q120 0 204 85.5t84 205.5q0 121 -84 206.5t-204 85.5t-204 -85.5t-84 -206.5q0 -120 84 -205.5t204 -85.5zM425 512q56 0 86 -34t30 -82q0 -45 -30 -80
t-86 -35h-62v-112h-78v343h140zM422 353q19 0 29.5 13t10.5 30t-10 30t-28 13h-61v-86h59z" />
    <glyph glyph-name="uni2120" unicode="&#x2120;" horiz-adv-x="962" 
d="M240 523q57 -17 88 -46t31 -80q0 -63 -45 -95t-107 -32q-67 0 -110 38.5t-43 97.5h103q2 -47 50 -47q22 0 35 9.5t13 23.5q0 27 -39 40l-47 15q-112 31 -112 120q0 57 42.5 92.5t106.5 35.5q62 0 101.5 -36.5t39.5 -98.5h-104q-2 43 -42 43q-17 0 -28 -8.5t-11 -23.5
q0 -25 36 -35zM905 276h-106l-24 216l-79 -166h-80l-80 165l-24 -215h-106l49 413h89l111 -243l112 243h89z" />
    <glyph glyph-name="trademark" unicode="&#x2122;" horiz-adv-x="941" 
d="M34 598v91h316v-91h-106v-322h-105v322h-105zM881 276h-106l-24 217l-79 -167h-80l-80 165l-24 -215h-106l50 413h87l112 -243l111 243h89z" />
    <glyph glyph-name="estimated" unicode="&#x212e;" horiz-adv-x="633" 
d="M320 -10q-119 0 -195 84.5t-76 205.5q0 123 75 206.5t200 83.5q124 0 198.5 -84.5t74.5 -206.5h-429v-193q66 -63 152 -63q76 0 123 33t87 94l31 -19q-44 -68 -99 -104.5t-142 -36.5zM168 312h309v163q-68 62 -153 62q-96 0 -156 -62v-163z" />
    <glyph glyph-name="oneeighth" unicode="&#x215b;" horiz-adv-x="766" 
d="M509 668h83l-451 -677h-84zM105 297v255l-80 -30v74l154 64h5v-363h-79zM673 203q27 -11 44 -37t17 -58q0 -50 -40.5 -81.5t-101.5 -31.5q-62 0 -102.5 31.5t-40.5 80.5q0 33 16.5 59t44.5 37q-33 24 -33 64q0 42 32.5 69t82.5 27t82.5 -27t32.5 -69t-34 -64zM591 297
q-17 0 -28.5 -10.5t-11.5 -26.5q0 -15 11 -25.5t29 -10.5t29.5 10.5t11.5 25.5q0 16 -11.5 26.5t-29.5 10.5zM592 67q26 0 42.5 14t16.5 36q0 23 -16 37t-43 14q-25 0 -41 -14t-16 -37q0 -22 16 -36t41 -14z" />
    <glyph glyph-name="threeeighths" unicode="&#x215c;" horiz-adv-x="833" 
d="M576 668h83l-451 -677h-84zM270 403q0 -49 -36 -80t-94 -31q-83 0 -120 60l57 42q23 -29 59 -29q24 0 38.5 11.5t14.5 30.5q0 21 -16 34t-43 13h-27v59h14q27 0 42.5 12.5t14.5 32.5q0 14 -12 23t-29 9q-34 0 -55 -24l-42 48q37 46 108 46q49 0 79.5 -27t30.5 -73
q0 -49 -44 -71q60 -23 60 -86zM740 203q27 -11 44 -37t17 -58q0 -50 -40.5 -81.5t-101.5 -31.5q-62 0 -102.5 31.5t-40.5 80.5q0 33 16.5 59t44.5 37q-33 24 -33 64q0 42 32.5 69t82.5 27t82.5 -27t32.5 -69t-34 -64zM658 297q-17 0 -28.5 -10.5t-11.5 -26.5q0 -15 11 -25.5
t29 -10.5t29.5 10.5t11.5 25.5q0 16 -11.5 26.5t-29.5 10.5zM659 67q26 0 42.5 14t16.5 36q0 23 -16 37t-43 14q-25 0 -41 -14t-16 -37q0 -22 16 -36t41 -14z" />
    <glyph glyph-name="fiveeighths" unicode="&#x215d;" horiz-adv-x="858" 
d="M601 668h83l-451 -677h-84zM299 422q0 -59 -40.5 -94.5t-99.5 -35.5q-42 0 -78 20.5t-54 53.5l62 38q10 -17 28 -27.5t38 -10.5q28 0 45.5 15t17.5 40t-15.5 40.5t-41.5 15.5q-41 0 -75 -34l-49 32l32 181h206v-74h-141l-12 -55q26 16 61 16q53 0 84.5 -34t31.5 -87z
M765 203q27 -11 44 -37t17 -58q0 -50 -40.5 -81.5t-101.5 -31.5q-62 0 -102.5 31.5t-40.5 80.5q0 33 16.5 59t44.5 37q-33 24 -33 64q0 42 32.5 69t82.5 27t82.5 -27t32.5 -69t-34 -64zM683 297q-17 0 -28.5 -10.5t-11.5 -26.5q0 -15 11 -25.5t29 -10.5t29.5 10.5t11.5 25.5
q0 16 -11.5 26.5t-29.5 10.5zM684 67q26 0 42.5 14t16.5 36q0 23 -16 37t-43 14q-25 0 -41 -14t-16 -37q0 -22 16 -36t41 -14z" />
    <glyph glyph-name="seveneighths" unicode="&#x215e;" horiz-adv-x="820" 
d="M565 668h83l-451 -677h-84zM151 297h-93l125 285h-144v73h266v-7zM727 203q27 -11 44 -37t17 -58q0 -50 -40.5 -81.5t-101.5 -31.5q-62 0 -102.5 31.5t-40.5 80.5q0 33 16.5 59t44.5 37q-33 24 -33 64q0 42 32.5 69t82.5 27t82.5 -27t32.5 -69t-34 -64zM645 297
q-17 0 -28.5 -10.5t-11.5 -26.5q0 -15 11 -25.5t29 -10.5t29.5 10.5t11.5 25.5q0 16 -11.5 26.5t-29.5 10.5zM646 67q26 0 42.5 14t16.5 36q0 23 -16 37t-43 14q-25 0 -41 -14t-16 -37q0 -22 16 -36t41 -14z" />
    <glyph glyph-name="arrowleft" unicode="&#x2190;" horiz-adv-x="879" 
d="M837 397v-103h-607l159 -159l-73 -73l-284 285l284 285l73 -73l-162 -162h610z" />
    <glyph glyph-name="arrowup" unicode="&#x2191;" horiz-adv-x="619" 
d="M594 427l-73 -73l-159 159v-513h-104v514l-161 -160l-72 73l284 284z" />
    <glyph glyph-name="arrowright" unicode="&#x2192;" horiz-adv-x="879" 
d="M563 632l284 -285l-284 -285l-73 73l159 159h-607v103h610l-162 162z" />
    <glyph glyph-name="arrowdown" unicode="&#x2193;" horiz-adv-x="617" 
d="M520 323l73 -73l-285 -284l-284 284l72 73l161 -160v526h104v-525z" />
    <glyph glyph-name="arrowboth" unicode="&#x2194;" horiz-adv-x="1042" 
d="M731 648l284 -285l-284 -285l-73 73l162 162l-599 -1l163 -162l-73 -73l-284 285l283 286l73 -74l-158 -158h591l-158 159z" />
    <glyph glyph-name="arrowupdn" unicode="&#x2195;" horiz-adv-x="631" 
d="M366 64l161 161l73 -73l-285 -284l-284 284l72 73l159 -158v591l-159 -158l-72 73l284 284l285 -284l-73 -73l-161 161v-597z" />
    <glyph glyph-name="partialdiff" unicode="&#x2202;" horiz-adv-x="581" 
d="M317 664q67 1 114.5 -24.5t71.5 -67t33 -98t4.5 -112.5t-17.5 -115q-26 -118 -100.5 -187t-176.5 -69q-106 0 -162 62.5t-43 157.5q14 97 86 153.5t148 56.5q93 0 140 -65q15 85 -13.5 143t-99.5 58zM371 212q5 38 -21 65t-68 27q-43 -1 -73.5 -28.5t-35.5 -65.5
q-6 -41 18.5 -69t67.5 -28q43 1 74.5 29.5t37.5 69.5z" />
    <glyph glyph-name="emptyset" unicode="&#x2205;" horiz-adv-x="803" 
d="M758 656l-86 -86q79 -96 79 -225q0 -147 -101.5 -250.5t-248.5 -103.5q-129 0 -225 83l-86 -86l-45 47l86 86q-78 97 -78 224q0 148 101 251t247 103q128 0 226 -82l85 85zM131 345q0 -94 56 -168l383 383q-73 59 -170 59q-113 0 -191 -80t-78 -194zM672 345
q0 94 -56 169l-384 -384q74 -58 168 -58q114 0 193.5 79.5t78.5 193.5z" />
    <glyph glyph-name="product" unicode="&#x220f;" horiz-adv-x="703" 
d="M619 689v-842h-139v718h-257v-718h-139v842h535z" />
    <glyph glyph-name="summation" unicode="&#x2211;" horiz-adv-x="644" 
d="M605 689v-124h-386l172 -295l-172 -298h386v-125h-571v55l214 368l-214 365v54h571z" />
    <glyph glyph-name="minus" unicode="&#x2212;" horiz-adv-x="520" 
d="M64 212v99h392v-99h-392z" />
    <glyph glyph-name="radical" unicode="&#x221a;" horiz-adv-x="661" 
d="M558 884h123l-315 -1037h-125l-128 409h-121v94h220l92 -314z" />
    <glyph glyph-name="infinity" unicode="&#x221e;" horiz-adv-x="853" 
d="M617 484q82 0 135.5 -49t53.5 -134q0 -86 -53 -135.5t-136 -49.5q-68 0 -136 55l-54 47l-63 -54q-62 -48 -126 -48q-83 0 -137 49.5t-54 135.5q0 85 54 134t137 49q70 0 135 -54l54 -48l58 50q67 52 132 52zM238 241q41 0 81 31l36 28l-39 31q-36 29 -78 29
q-27 0 -48 -15t-21 -45t21 -44.5t48 -14.5zM616 241q27 0 47.5 14.5t21.5 44.5q-1 30 -21.5 45t-47.5 15q-41 0 -82 -32l-35 -28l35 -28q41 -31 82 -31z" />
    <glyph glyph-name="integral" unicode="&#x222b;" horiz-adv-x="392" 
d="M305 715h57v-122h-31q-54 0 -78.5 -26.5t-20.5 -70.5l61 -447q13 -92 -46.5 -147t-158.5 -55h-57v122h30q55 0 80.5 26t19.5 68l-61 432q-15 102 43.5 161t161.5 59z" />
    <glyph glyph-name="approxequal" unicode="&#x2248;" horiz-adv-x="671" 
d="M613 383q-26 -42 -69 -68.5t-91 -26.5q-19 0 -39.5 4.5t-29.5 7.5t-32 13.5t-24 10.5q-5 2 -22 10.5t-26.5 12t-27 7.5t-33.5 4q-58 0 -113 -63l-49 64q29 40 71.5 66t91.5 26q19 0 39 -4.5t29 -7.5t30.5 -13t23.5 -11q3 -1 27.5 -12.5t42.5 -16.5t39 -5q53 0 108 63z
M616 175q-28 -43 -71 -70.5t-92 -27.5q-18 0 -37.5 4.5t-30.5 8.5t-30 12.5t-24 10.5q-4 2 -22.5 10.5t-27.5 12t-27 7.5t-35 4q-58 0 -111 -62l-49 65q27 39 70.5 65t90.5 26q20 0 39.5 -4t31 -8.5t29.5 -12.5t25 -11q5 -2 22 -10t26.5 -12t26.5 -8t33 -4q62 0 111 62z" />
    <glyph glyph-name="notequal" unicode="&#x2260;" horiz-adv-x="588" 
d="M139 38l51 106h-126v96h173l50 104h-223v96h271l48 98h71l-48 -98h118v-96h-165l-51 -104h216v-96h-264l-51 -106h-70z" />
    <glyph glyph-name="lessequal" unicode="&#x2264;" horiz-adv-x="625" 
d="M556 150l-502 183v103l502 184v-103l-364 -132l364 -133v-102zM57 0v90h499v-90h-499z" />
    <glyph glyph-name="greaterequal" unicode="&#x2265;" horiz-adv-x="625" 
d="M69 150v102l363 133l-363 132v103l502 -184v-103zM68 0v90h500v-90h-500z" />
    <glyph glyph-name="filledbox" unicode="&#x25a0;" horiz-adv-x="698" 
d="M80 617h538v-538h-538v538z" />
    <glyph glyph-name="uni25A1" unicode="&#x25a1;" horiz-adv-x="638" 
d="M50 617h538v-538h-538v538zM134 533v-370h370v370h-370z" />
    <glyph glyph-name="triagup" unicode="&#x25b2;" horiz-adv-x="779" 
d="M80 69l309 535l310 -536z" />
    <glyph glyph-name="uni25B6" unicode="&#x25b6;" horiz-adv-x="696" 
d="M81 673l535 -309l-536 -311z" />
    <glyph glyph-name="triagdn" unicode="&#x25bc;" horiz-adv-x="779" 
d="M80 603l619 1l-310 -536z" />
    <glyph glyph-name="uni25C0" unicode="&#x25c0;" horiz-adv-x="696" 
d="M615 673l1 -620l-536 311z" />
    <glyph glyph-name="lozenge" unicode="&#x25ca;" horiz-adv-x="600" 
d="M284 710l223 -356l-223 -354h-20l-223 354l223 356h20zM393 354l-119 189l-119 -190l119 -189z" />
    <glyph glyph-name="circle" unicode="&#x25cb;" horiz-adv-x="694" 
d="M644 353q0 -123 -87 -210t-210 -87t-210 87t-87 210t87 210t210 87t210 -87t87 -210zM560 353q0 88 -62.5 150.5t-150.5 62.5t-150.5 -63t-62.5 -150q0 -88 62.5 -150.5t150.5 -62.5t150.5 62.5t62.5 150.5z" />
    <glyph glyph-name="uni2605" unicode="&#x2605;" horiz-adv-x="879" 
d="M584 250l90 -275l-235 170l-234 -170l89 275l-234 171h290l89 276l90 -276h290z" />
    <glyph glyph-name="uni2610" unicode="&#x2610;" horiz-adv-x="729" 
d="M364 -6q-130 0 -222 92t-92 222t92 222t222 92t222.5 -92t92.5 -222t-92.5 -222t-222.5 -92zM364 85q94 0 159 64.5t65 158.5t-65 158.5t-159 64.5t-158.5 -64.5t-64.5 -158.5t64.5 -158.5t158.5 -64.5z" />
    <glyph glyph-name="uni2611" unicode="&#x2611;" horiz-adv-x="745" 
d="M700 670l-103 -162q72 -86 72 -200q0 -130 -92.5 -222t-222.5 -92t-222 92t-92 222t92 222t222 92q93 0 170 -50l95 148zM578 308q0 66 -33 119l-177 -276h-27l-155 216l66 70l96 -136l127 196q-54 34 -121 34q-94 0 -158.5 -64.5t-64.5 -158.5t64.5 -158.5t158.5 -64.5
t159 64.5t65 158.5z" />
    <glyph glyph-name="uni261C" unicode="&#x261c;" horiz-adv-x="986" 
d="M28 459q2 31 21.5 49t53.5 18l346 -1l-22 47q-14 25 -6.5 55t26.5 40q20 11 37 13.5t40 -8.5t47 -40l176 -217v34q0 17 12.5 30t30.5 13h85q17 0 30 -13.5t13 -29.5v-406q0 -16 -13 -29.5t-30 -13.5h-85q-18 0 -30.5 13t-12.5 30v46h-387q-41 5 -60 23t-16 44q3 18 16 30
q-70 9 -63 73q4 17 11 27q-68 20 -57 71q5 23 16 32l-104 2q-36 1 -56 18.5t-19 49.5zM106 433l284 -5q42 -1 62.5 -23.5t17.5 -56.5q-3 -28 -15 -36q58 -8 58 -63q0 -37 -30 -50q19 -5 24.5 -29t-2.5 -39l242 -1l1 221l-209 248q-3 3 -9 9.5t-9 9t-8 7t-8 6t-7.5 2.5
t-8.5 0.5t-9 -3.5q-15 -8 -16 -22t5.5 -27.5t21.5 -33.5l99 -138q5 -7 3.5 -15.5t-7.5 -11.5q-18 -13 -33 8l-67 87l-380 3q-30 0 -30 -24q0 -23 30 -23zM256 329h134q31 0 34 25q2 15 -9 25t-32 10l-115 -1q-41 0 -38 -35q2 -21 26 -24zM304 225l133 -2q32 0 32 27
q0 34 -33 34l-127 -2q-28 0 -31 -27q-1 -27 26 -30zM359 134l78 -2q34 -2 34 20q0 14 -7 19.5t-25 6.5l-85 3q-25 1 -25 -20q0 -13 5.5 -19.5t24.5 -7.5z" />
    <glyph glyph-name="uni261E" unicode="&#x261e;" horiz-adv-x="986" 
d="M958 459q1 -32 -19 -49.5t-56 -18.5l-104 -2q11 -9 16 -32q11 -51 -57 -71q7 -10 11 -27q7 -64 -63 -73q13 -12 16 -30q3 -26 -16 -44t-60 -23h-387v-46q0 -17 -12.5 -30t-30.5 -13h-85q-17 0 -30 13.5t-13 29.5v406q0 16 13 29.5t30 13.5h85q18 0 30.5 -13t12.5 -30v-34
l176 217q24 29 47 40t40 8.5t37 -13.5q19 -10 26.5 -40t-6.5 -55l-22 -47l346 1q34 0 53.5 -18t21.5 -49zM880 433q30 0 30 23q0 24 -30 24l-380 -3q-55 -70 -67 -87q-15 -21 -33 -8q-6 3 -7.5 11.5t3.5 15.5l99 138q15 20 21.5 33.5t5.5 27.5t-16 22q-5 3 -9 3.5t-8.5 -0.5
t-7.5 -2.5t-8 -6t-8 -7t-9 -9t-9 -9.5l-209 -248l1 -221l242 1q-8 15 -2.5 39t24.5 29q-30 13 -30 50q0 55 58 63q-12 8 -15 36q-3 34 17.5 56.5t62.5 23.5zM730 329q24 3 26 24q3 35 -38 35l-115 1q-21 0 -32 -10t-9 -25q3 -25 34 -25h134zM682 225q27 3 26 30
q-3 27 -31 27l-127 2q-33 0 -33 -34q0 -27 32 -27zM627 134q19 1 24.5 7.5t5.5 19.5q0 21 -25 20l-85 -3q-18 -1 -25 -6.5t-7 -19.5q0 -22 34 -20z" />
    <glyph glyph-name="diamond" unicode="&#x2666;" horiz-adv-x="647" 
d="M323 -25l-243 365l243 365l244 -365z" />
    <glyph glyph-name="uni267C" unicode="&#x267c;" horiz-adv-x="868" 
d="M434 -9q-146 0 -250 103.5t-104 250.5q0 146 104 250t250 104q147 0 250.5 -104t103.5 -250q0 -147 -103.5 -250.5t-250.5 -103.5zM353 406l71 125q9 9 15 -2l41 -69l-39 -24l129 1l63 112l-42 -25l-28 46q-8 13 -20.5 21t-20.5 9l-8 2l-162 1q-19 -2 -33 -10.5
t-19 -16.5l-4 -7l-57 -98zM509 62v49l54 1q15 0 28 7t19 13l5 7l81 140q8 17 8 33.5t-4 24.5l-4 8l-57 97l-113 -64l72 -126q2 -5 -0.5 -8t-8.5 -3l-81 -1v46l-64 -112zM302 111h113l-1 130h-144q-13 2 -6 14l40 71l40 -23l-66 111l-128 -1l42 -24l-26 -47q-7 -13 -8 -28
t2 -23l3 -8l81 -140q12 -16 26.5 -24t23.5 -8h8z" />
    <glyph glyph-name="uni2713" unicode="&#x2713;" horiz-adv-x="600" 
d="M600 705l82 -50l-332 -518h-28l-154 215l66 71l97 -137z" />
    <glyph glyph-name="uni2B24" unicode="&#x2b24;" horiz-adv-x="754" 
d="M674 353q0 -123 -87 -210t-210 -87t-210 87t-87 210t87 210t210 87t210 -87t87 -210z" />
    <glyph glyph-name="uniF6DD" unicode="&#xf6dd;" horiz-adv-x="1219" 
d="M583 464q0 -78 -42 -135.5t-125 -74.5l179 -254h-163l-164 247h-47v-247h-139v689h275q110 0 168 -66t58 -159zM221 566v-207h111q55 0 83 29t28 73t-27 74.5t-74 30.5h-121zM960 478q94 0 161 -67.5t67 -176.5t-67 -176t-161 -67q-43 0 -85 17t-65 49v-286h-131v695h131
v-55q23 33 65 50t85 17zM935 114q50 0 85 34.5t35 85.5t-35 86t-85 35q-49 0 -85 -34.5t-36 -86.5t36.5 -86t84.5 -34z" />
    <glyph glyph-name="centsuperior" unicode="&#xf6e0;" horiz-adv-x="301" 
d="M166 595q36 0 53 27l57 -43q-32 -49 -94 -57v-62h-44v63q-49 9 -82 45t-33 87q0 52 33 87.5t82 44.5v64h44v-63q61 -7 95 -57l-58 -42q-16 26 -53 26q-27 0 -44.5 -17t-17.5 -43q0 -25 17.5 -42.5t44.5 -17.5z" />
    <glyph glyph-name="commasuperior" unicode="&#xf6e2;" horiz-adv-x="184" 
d="M63 441l-47 18q27 38 37 66.5t6 73.5h75q4 -49 -16.5 -90.5t-54.5 -67.5z" />
    <glyph glyph-name="periodsuperior" unicode="&#xf6e8;" horiz-adv-x="168" 
d="M84 521q-21 0 -35.5 14t-14.5 35t14.5 35t35.5 14t36 -14t15 -35t-15 -35t-36 -14z" />
    <glyph glyph-name="uniF8FF" unicode="&#xf8ff;" horiz-adv-x="981" 
d="M80 0v700h821v-700h-821zM521 367q12 0 16 7h1l2 -6h8v73h-11v-19q0 -5 1 -9h-1q-5 8 -15 8t-16 -7q-5 -8 -5 -20t5 -20q6 -7 15 -7zM673 434q0 -3 1 -5q1 -1 5 -1t5 1q1 2 1 5t-1 5q-1 1 -5 1t-5 -1q-1 -2 -1 -5zM201 368l20 57h1q0 -4 -1 -10v-47h11v69h-16l-20 -55
l-19 55h-16v-69h10v33q0 16 -1 25h1l20 -58h10zM381 376q-4 0 -5 2q-2 1 -2 6v28h15v8h-15v12h-7l-4 -11l-8 -4v-5h8v-29q0 -16 15 -16h6q1 0 2.5 0.5t2.5 1.5v8q-2 -1 -8 -1zM298 394q0 11 -7 20q-6 7 -18 7t-19 -7q-6 -7 -6 -20q0 -8 3 -14q3 -7 9 -10q4 -3 13 -3
q12 0 18 7q7 9 7 20zM348 383q0 2 -2 6q-1 2 -4 5q-7 3 -10 4l-4 2t-3.5 2t-2.5 1q-2 2 -2 4q0 5 9 5q5 0 14 -3l4 8q-8 4 -18 4t-15 -4q-5 -3 -5 -10q0 -6 3 -9q3 -4 12 -7l8 -4q3 0 3 -2q2 -2 2 -4q0 -6 -11 -6q-5 0 -17 4v-9q6 -3 17 -3t16 4q6 5 6 12zM442 368v35
q0 10 -5 14q-4 4 -15 4q-6 0 -9 -1q-6 -2 -10 -4l4 -8q3 3 7 3q3 1 8 1q6 0 7 -2q2 -2 2 -8v-2l-9 -1q-13 0 -18 -4q-6 -5 -6 -12q0 -8 4 -12t12 -4t10 1q3 2 8 7l3 -7h7zM487 421q-6 0 -9 -3q-6 -4 -7 -7h-1l-1 9h-9v-52h11v27q0 5 4 11q5 5 11 5q3 0 5 -1l1 11h-5z
M589 367h10l8 3v9l-9 -3q-1 0 -3.5 -0.5t-4.5 -0.5q-8 0 -11 5q-4 3 -4 11h35v6q0 12 -6 18t-17 6t-17 -7q-7 -7 -7 -21q0 -12 7 -19t19 -7zM659 383q0 4 -1 6t-4 5q-7 3 -10 4l-10 5q-2 2 -2 4q0 5 9 5q5 0 14 -3l4 8q-8 4 -18 4t-15 -4q-5 -3 -5 -10q0 -6 3 -9q3 -4 12 -7
q1 0 2.5 -1l3 -2t2.5 -1q3 0 3 -2q1 -1 1 -4q0 -6 -10 -6q-5 0 -17 4v-9q6 -3 17 -3t16 4t5 12zM729 420h-1q-2 1 -3 1h-5q-10 0 -15 -5q-6 -4 -6 -13q0 -6 3 -9q3 -5 7 -6q-1 0 -5 -4q-2 -2 -2 -5l1 -4q1 -3 4 -3q-4 -1 -8 -5q-3 -3 -3 -8q0 -7 5 -11q8 -4 17 -4q13 0 21 5
q7 4 7 14q0 7 -4 11q-4 3 -14 3h-9q-2 0 -4 1h-2q-2 2 -2 3q0 3 4 5h5q10 0 15 4q6 4 6 13q0 1 -1 3v2l-2 4l9 2v6h-18zM805 402q0 19 -19 19q-4 0 -10 -2q-4 -1 -7 -6l-2 7h-9v-52h12v26q0 10 3 14t10 4q5 0 8 -3q2 -2 2 -9v-32h12v34zM685 420h-12v-52h12v52zM710 403
q0 5 3 8q1 3 7 3t7 -3q3 -3 3 -8q0 -10 -10 -10q-3 0 -7 2q-3 3 -3 8zM587 413q4 0 8 -4t4 -10h-24q0 7 4 10q4 4 8 4zM259 394q0 9 4 13q3 5 10 5q13 0 13 -18t-13 -18q-14 0 -14 18zM524 376q-6 0 -9 4t-3 14q0 8 3 13t9 5q7 0 10 -4q4 -4 4 -14v-2q0 -9 -4 -12
q-3 -4 -10 -4zM418 375q-4 0 -6 2q-2 1 -2 6q0 4 3 7q6 2 12 2l6 1v-5q0 -6 -3 -9q-4 -4 -10 -4zM706 359q0 5 2 7q4 2 8 2h8q7 0 9 -2q3 -2 3 -5q0 -4 -5 -6q-5 -3 -13 -3q-5 0 -9 2q-3 2 -3 5zM679 250q10 0 15 8h1l2 -7h8v74h-11v-19q0 -1 0.5 -4t0.5 -5q-6 7 -16 7
t-16 -7q-5 -8 -5 -20t5 -20q6 -7 16 -7zM185 311h21v9h-52v-9h20v-60h11v60zM431 280h26v9h-26v22h28v9h-39v-69h11v29zM230 251l-2 -5q-3 -9 -11 -9h-6v-8q3 -1 7 -1q15 0 21 16l22 60h-12q-3 -10 -5.5 -18t-4.5 -13l-2 -5q-1 -2 -1 -6h-1q0 6 -3 12l-11 30h-12zM298 250
q8 0 15 7q6 7 6 20q0 14 -6 20q-4 7 -15 7t-16 -8l-2 8h-9v-76h11v29q6 -7 16 -7zM357 250q6 0 9 1q5 0 8 3v9q-4 -3 -8 -3q-3 -1 -9 -1q-7 0 -11 4q-4 6 -4 12h35v6q0 11 -6 17t-16 6q-12 0 -18 -7t-6 -20t6 -20q7 -7 20 -7zM519 277q0 13 -7 20q-6 7 -18 7t-18 -7
q-7 -6 -7 -20q0 -8 3 -14q3 -5 9 -10q6 -3 13 -3q11 0 18 7t7 20zM579 251v53h-11v-27q0 -9 -3 -14q-4 -4 -10 -4q-5 0 -8 3t-3 9v33h-11v-35q0 -9 5 -14t14 -5q4 0 10 2q5 4 7 6l2 -7h8zM643 285q0 19 -18 19q-7 0 -10 -2q-3 -1 -7 -5l-2 7h-9v-53h11v26q0 8 4 14q3 4 10 4
q5 0 8 -3q2 -4 2 -9v-32h11v34zM750 304q-6 0 -9 -2t-7 -8l-2 10h-9v-53h11v27q0 7 5 12q3 4 10 4h5l1 10h-5zM780 251l-2 -5q-3 -9 -11 -9h-6v-8q3 -1 7 -1q15 0 21 16l22 60h-12q-2 -8 -4.5 -14.5t-4 -10.5t-2.5 -7t-1 -4q-1 -2 -1 -6h-1q0 6 -3 12l-11 30h-12zM355 296
q5 0 8 -3q3 -5 3 -10h-24q2 6 4 10q3 3 9 3zM295 295q6 0 9 -4q3 -5 3 -14t-3 -13q-3 -5 -9 -5q-7 0 -10 5q-3 3 -3 13v2q0 9 3 12q3 4 10 4zM481 277q0 9 3 14q3 4 10 4q13 0 13 -18t-13 -18t-13 18zM682 259q-7 0 -10 5q-3 4 -3 13q0 8 3 14q4 4 9 4q7 0 11 -4q3 -5 3 -14
v-1q0 -8 -3 -13q-4 -4 -10 -4z" />
    <glyph glyph-name="IJ.alt" horiz-adv-x="731" 
d="M84 0v689h139v-689h-139zM430 -9q-47 0 -98 16l13 126q30 -11 85 -11q43 0 64 28t21 73v466h139v-466q0 -103 -54.5 -167.5t-169.5 -64.5z" />
    <glyph glyph-name="J.alt" horiz-adv-x="414" 
d="M112 -9q-48 0 -97 16l12 126q30 -11 85 -11q43 0 64 28t21 73v466h139v-466q0 -103 -54 -167.5t-170 -64.5z" />
    <glyph glyph-name="Jcircumflex.alt" horiz-adv-x="414" 
d="M91 766l109 167h132l110 -167h-98l-78 88l-78 -88h-97zM112 -9q-48 0 -97 16l12 126q30 -11 85 -11q43 0 64 28t21 73v466h139v-466q0 -103 -54 -167.5t-170 -64.5z" />
    <glyph glyph-name="W.alt" horiz-adv-x="915" 
d="M745 689h155l-205 -689h-117l-120 431l-121 -431h-117l-205 689h155l114 -428l116 404h115l116 -404z" />
    <glyph glyph-name="Wacute.alt" horiz-adv-x="915" 
d="M639 933l-131 -167h-96l94 167h133zM745 689h155l-205 -689h-117l-120 431l-121 -431h-117l-205 689h155l114 -428l116 404h115l116 -404z" />
    <glyph glyph-name="Wcircumflex.alt" horiz-adv-x="915" 
d="M457 854l-77 -88h-98l110 167h131l110 -167h-98zM745 689h155l-205 -689h-117l-120 431l-121 -431h-117l-205 689h155l114 -428l116 404h115l116 -404z" />
    <glyph glyph-name="Wdieresis.alt" horiz-adv-x="915" 
d="M355 782q-29 0 -50 19.5t-21 47.5t21 47.5t50 19.5t49 -19.5t20 -47.5t-20 -47.5t-49 -19.5zM562 782q-29 0 -50 19.5t-21 47.5t21 47.5t50 19.5t49.5 -19.5t20.5 -47.5t-20.5 -47.5t-49.5 -19.5zM745 689h155l-205 -689h-117l-120 431l-121 -431h-117l-205 689h155
l114 -428l116 404h115l116 -404z" />
    <glyph glyph-name="Wgrave.alt" horiz-adv-x="915" 
d="M508 766h-97l-130 167h133zM745 689h155l-205 -689h-117l-120 431l-121 -431h-117l-205 689h155l114 -428l116 404h115l116 -404z" />
    <glyph glyph-name="A.c2sc" horiz-adv-x="592" 
d="M450 0l-46 135h-216l-46 -135h-141l223 578h144l222 -578h-140zM226 249h138l-69 202z" />
    <glyph glyph-name="Aacute.c2sc" horiz-adv-x="592" 
d="M455 790l-116 -144h-87l82 144h121zM450 0l-46 135h-216l-46 -135h-141l223 578h144l222 -578h-140zM226 249h138l-69 202z" />
    <glyph glyph-name="Abreve.c2sc" horiz-adv-x="592" 
d="M296 659q-57 0 -87.5 32t-30.5 78h74q0 -44 44 -44q41 0 41 44h76q0 -49 -33 -79.5t-84 -30.5zM450 0l-46 135h-216l-46 -135h-141l223 578h144l222 -578h-140zM226 249h138l-69 202z" />
    <glyph glyph-name="uni01CD.c2sc" horiz-adv-x="592" 
d="M357 646h-124l-96 144h89l69 -76l69 76h89zM450 0l-46 135h-216l-46 -135h-141l223 578h144l222 -578h-140zM226 249h138l-69 202z" />
    <glyph glyph-name="Acircumflex.c2sc" horiz-adv-x="592" 
d="M295 720l-69 -74h-89l96 144h124l96 -144h-89zM450 0l-46 135h-216l-46 -135h-141l223 578h144l222 -578h-140zM226 249h138l-69 202z" />
    <glyph glyph-name="Adieresis.c2sc" horiz-adv-x="592" 
d="M204 661q-26 0 -45 17.5t-19 42.5q0 24 19 41.5t45 17.5t44 -17.5t18 -41.5q0 -25 -18 -42.5t-44 -17.5zM389 661q-27 0 -46 17.5t-19 42.5q0 24 19 41.5t46 17.5q25 0 43.5 -17.5t18.5 -41.5q0 -25 -18 -42.5t-44 -17.5zM450 0l-46 135h-216l-46 -135h-141l223 578h144
l222 -578h-140zM226 249h138l-69 202z" />
    <glyph glyph-name="Agrave.c2sc" horiz-adv-x="592" 
d="M342 646h-86l-117 144h121zM450 0l-46 135h-216l-46 -135h-141l223 578h144l222 -578h-140zM226 249h138l-69 202z" />
    <glyph glyph-name="Amacron.c2sc" horiz-adv-x="592" 
d="M418 749v-72h-245v72h245zM450 0l-46 135h-216l-46 -135h-141l223 578h144l222 -578h-140zM226 249h138l-69 202z" />
    <glyph glyph-name="Aogonek.c2sc" horiz-adv-x="592" 
d="M489 -121q33 0 33 42h63q0 -49 -28.5 -74.5t-69.5 -25.5q-37 0 -63 24.5t-26 61.5q0 27 9 42l37 68l-40 118h-216l-46 -135h-141l223 578h144l222 -578h-92l-35 -72q-3 -6 -3 -19q0 -14 8.5 -22t20.5 -8zM226 249h138l-69 202z" />
    <glyph glyph-name="Aring.c2sc" horiz-adv-x="592" 
d="M295 635q-44 0 -76 30.5t-32 73.5t32 74t76 31q45 0 77 -31t32 -74t-32 -73.5t-77 -30.5zM295 794q-23 0 -39.5 -16t-16.5 -39t16.5 -38.5t39.5 -15.5q24 0 41 15.5t17 38.5t-17 39t-41 16zM450 0l-46 135h-216l-46 -135h-141l223 578h144l222 -578h-140zM226 249h138
l-69 202z" />
    <glyph glyph-name="Aringacute.c2sc" horiz-adv-x="592" 
d="M295 635q-44 0 -76 30.5t-32 73.5q0 32 18 58t48 38l46 80h121l-75 -83q59 -29 59 -93q0 -43 -32 -73.5t-77 -30.5zM295 685q24 0 41 15.5t17 38.5t-17 39t-41 16q-23 0 -39.5 -16t-16.5 -39t16.5 -38.5t39.5 -15.5zM450 0l-46 135h-216l-46 -135h-141l223 578h144
l222 -578h-140zM226 249h138l-69 202z" />
    <glyph glyph-name="Atilde.c2sc" horiz-adv-x="592" 
d="M258 697q-8 0 -15.5 -9t-8.5 -27h-62q3 56 28.5 82t57.5 26q20 0 43.5 -17.5t32.5 -17.5q7 0 14.5 8.5t7.5 26.5h63q-2 -55 -28 -80.5t-57 -25.5q-20 0 -44 17t-32 17zM450 0l-46 135h-216l-46 -135h-141l223 578h144l222 -578h-140zM226 249h138l-69 202z" />
    <glyph glyph-name="AE.c2sc" horiz-adv-x="829" 
d="M520 116h259v-116h-390v130h-178l-66 -130h-158l315 578h469v-116h-251v-121h220v-112h-220v-113zM270 245h118v217h-7z" />
    <glyph glyph-name="AEacute.c2sc" horiz-adv-x="829" 
d="M574 790l-117 -144h-86l82 144h121zM520 116h259v-116h-390v130h-178l-66 -130h-158l315 578h469v-116h-251v-121h220v-112h-220v-113zM270 245h118v217h-7z" />
    <glyph glyph-name="B.c2sc" horiz-adv-x="574" 
d="M415 308q56 -8 86 -48.5t30 -93.5q0 -67 -48.5 -116.5t-145.5 -49.5h-259v578h241q81 0 130.5 -42t49.5 -107q0 -24 -6.5 -45.5t-26 -44t-51.5 -31.5zM311 462h-101v-110h100q26 0 41.5 14.5t15.5 40.5q0 24 -14 39.5t-42 15.5zM321 115q36 0 56 19t20 45t-19 45.5
t-57 19.5h-111v-129h111z" />
    <glyph glyph-name="C.c2sc" horiz-adv-x="626" 
d="M347 -7q-127 0 -216 87t-89 210q0 122 89 208.5t216 86.5q77 0 143 -34.5t107 -93.5l-102 -72q-51 75 -143 75q-77 0 -127 -49t-50 -121t49.5 -122t127.5 -50q92 0 143 75l102 -72q-41 -59 -107 -93.5t-143 -34.5z" />
    <glyph glyph-name="Cacute.c2sc" horiz-adv-x="626" 
d="M269 646l82 144h121l-116 -144h-87zM347 -7q-127 0 -216 87t-89 210q0 122 89 208.5t216 86.5q77 0 143 -34.5t107 -93.5l-102 -72q-51 75 -143 75q-77 0 -127 -49t-50 -121t49.5 -122t127.5 -50q92 0 143 75l102 -72q-41 -59 -107 -93.5t-143 -34.5z" />
    <glyph glyph-name="Ccaron.c2sc" horiz-adv-x="626" 
d="M280 646l-96 144h89l69 -76l69 76h89l-96 -144h-124zM347 -7q-127 0 -216 87t-89 210q0 122 89 208.5t216 86.5q77 0 143 -34.5t107 -93.5l-102 -72q-51 75 -143 75q-77 0 -127 -49t-50 -121t49.5 -122t127.5 -50q92 0 143 75l102 -72q-41 -59 -107 -93.5t-143 -34.5z
" />
    <glyph glyph-name="Ccedilla.c2sc" horiz-adv-x="626" 
d="M352 118q92 0 143 75l102 -72q-37 -53 -95.5 -86.5t-126.5 -40.5l25 -45q9 -17 9 -42q0 -37 -26 -61.5t-63 -24.5q-42 0 -70 25.5t-28 74.5h63q0 -42 32 -42q13 0 22 8t9 22q0 11 -4 19l-33 67q-115 13 -192 97t-77 198q0 122 89 208.5t216 86.5q77 0 143 -34.5
t107 -93.5l-102 -72q-51 75 -143 75q-77 0 -127 -49t-50 -121t49.5 -122t127.5 -50z" />
    <glyph glyph-name="Cdotaccent.c2sc" horiz-adv-x="626" 
d="M345 653q-29 0 -48.5 18.5t-19.5 47.5q0 28 19.5 46t48.5 18t49 -18.5t20 -45.5q0 -29 -20 -47.5t-49 -18.5zM347 -7q-127 0 -216 87t-89 210q0 122 89 208.5t216 86.5q77 0 143 -34.5t107 -93.5l-102 -72q-51 75 -143 75q-77 0 -127 -49t-50 -121t49.5 -122t127.5 -50
q92 0 143 75l102 -72q-41 -59 -107 -93.5t-143 -34.5z" />
    <glyph glyph-name="D.c2sc" horiz-adv-x="633" 
d="M78 0v578h237q126 0 199.5 -82t73.5 -208t-73.5 -207t-199.5 -81h-237zM210 115h105q66 0 103 51t37 122t-37 122.5t-103 51.5h-105v-347z" />
    <glyph glyph-name="Eth.c2sc" horiz-adv-x="643" 
d="M325 578q127 0 200 -81.5t73 -208.5q0 -126 -73 -207t-200 -81h-237v238h-65v95h65v245h237zM325 115q66 0 103 50.5t37 122.5t-37 123t-103 51h-105v-129h104v-95h-104v-123h105z" />
    <glyph glyph-name="Dcaron.c2sc" horiz-adv-x="633" 
d="M225 646l-95 144h88l69 -76l70 76h89l-97 -144h-124zM78 0v578h237q126 0 199.5 -82t73.5 -208t-73.5 -207t-199.5 -81h-237zM210 115h105q66 0 103 51t37 122t-37 122.5t-103 51.5h-105v-347z" />
    <glyph glyph-name="Dcroat.c2sc" horiz-adv-x="643" 
d="M325 578q127 0 200 -81.5t73 -208.5q0 -126 -73 -207t-200 -81h-237v238h-65v95h65v245h237zM325 115q66 0 103 50.5t37 122.5t-37 123t-103 51h-105v-129h104v-95h-104v-123h105z" />
    <glyph glyph-name="E.c2sc" horiz-adv-x="519" 
d="M210 115h259v-115h-391v578h383v-116h-251v-119h220v-117h-220v-111z" />
    <glyph glyph-name="Eacute.c2sc" horiz-adv-x="519" 
d="M420 790l-117 -144h-86l81 144h122zM210 115h259v-115h-391v578h383v-116h-251v-119h220v-117h-220v-111z" />
    <glyph glyph-name="Ecaron.c2sc" horiz-adv-x="519" 
d="M322 646h-125l-95 144h88l70 -76l69 76h89zM210 115h259v-115h-391v578h383v-116h-251v-119h220v-117h-220v-111z" />
    <glyph glyph-name="Ecircumflex.c2sc" horiz-adv-x="519" 
d="M260 720l-70 -74h-88l95 144h125l96 -144h-89zM210 115h259v-115h-391v578h383v-116h-251v-119h220v-117h-220v-111z" />
    <glyph glyph-name="Edieresis.c2sc" horiz-adv-x="519" 
d="M168 661q-26 0 -45 17.5t-19 42.5q0 24 19 41.5t45 17.5t44.5 -17.5t18.5 -41.5q0 -25 -18.5 -42.5t-44.5 -17.5zM353 661q-26 0 -45 17.5t-19 42.5q0 24 19 41.5t45 17.5t44 -17.5t18 -41.5q0 -25 -18 -42.5t-44 -17.5zM210 115h259v-115h-391v578h383v-116h-251v-119
h220v-117h-220v-111z" />
    <glyph glyph-name="Edotaccent.c2sc" horiz-adv-x="519" 
d="M260 653q-29 0 -48.5 18.5t-19.5 47.5q0 28 19.5 46t48.5 18t49 -18.5t20 -45.5q0 -29 -20 -47.5t-49 -18.5zM210 115h259v-115h-391v578h383v-116h-251v-119h220v-117h-220v-111z" />
    <glyph glyph-name="Egrave.c2sc" horiz-adv-x="519" 
d="M306 646h-85l-117 144h121zM210 115h259v-115h-391v578h383v-116h-251v-119h220v-117h-220v-111z" />
    <glyph glyph-name="Emacron.c2sc" horiz-adv-x="519" 
d="M383 749v-72h-245v72h245zM210 115h259v-115h-391v578h383v-116h-251v-119h220v-117h-220v-111z" />
    <glyph glyph-name="Eogonek.c2sc" horiz-adv-x="519" 
d="M374 0l-35 -72q-2 -6 -2 -19q0 -14 8.5 -22t20.5 -8q33 0 33 42h62q0 -49 -28 -74.5t-69 -25.5q-37 0 -63.5 24.5t-26.5 61.5q0 25 10 42l28 51h-234v578h383v-116h-251v-119h220v-117h-220v-111h259v-115h-95z" />
    <glyph glyph-name="F.c2sc" horiz-adv-x="490" 
d="M455 462h-245v-121h194v-114h-194v-227h-132v578h377v-116z" />
    <glyph glyph-name="G.c2sc" horiz-adv-x="673" 
d="M350 -7q-129 0 -218.5 86.5t-89.5 208.5q0 124 89.5 211t218.5 87q140 0 228 -100l-97 -82q-54 59 -131 59q-74 0 -124.5 -51t-50.5 -124q0 -72 51 -125t124 -53q55 0 94 20t52 57q3 7 4 14h-170v105h314q-1 -158 -80 -235.5t-214 -77.5z" />
    <glyph glyph-name="Gbreve.c2sc" horiz-adv-x="673" 
d="M336 659q-57 0 -87.5 32t-30.5 78h75q0 -44 43 -44q41 0 41 44h76q0 -49 -33 -79.5t-84 -30.5zM350 -7q-129 0 -218.5 86.5t-89.5 208.5q0 124 89.5 211t218.5 87q140 0 228 -100l-97 -82q-54 59 -131 59q-74 0 -124.5 -51t-50.5 -124q0 -72 51 -125t124 -53q55 0 94 20
t52 57q3 7 4 14h-170v105h314q-1 -158 -80 -235.5t-214 -77.5z" />
    <glyph glyph-name="Gcommaaccent.c2sc" horiz-adv-x="673" 
d="M350 -7q-129 0 -218.5 86.5t-89.5 208.5q0 124 89.5 211t218.5 87q140 0 228 -100l-97 -82q-54 59 -131 59q-74 0 -124.5 -51t-50.5 -124q0 -72 51 -125t124 -53q55 0 94 20t52 57q3 7 4 14h-170v105h314q-1 -158 -80 -235.5t-214 -77.5zM297 -199l-60 32q42 43 40 134
h115q1 -47 -27 -92.5t-68 -73.5z" />
    <glyph glyph-name="Gdotaccent.c2sc" horiz-adv-x="673" 
d="M336 653q-30 0 -49.5 18.5t-19.5 47.5q0 28 20 46t49 18t48.5 -18t19.5 -46q0 -29 -19.5 -47.5t-48.5 -18.5zM350 -7q-129 0 -218.5 86.5t-89.5 208.5q0 124 89.5 211t218.5 87q140 0 228 -100l-97 -82q-54 59 -131 59q-74 0 -124.5 -51t-50.5 -124q0 -72 51 -125
t124 -53q55 0 94 20t52 57q3 7 4 14h-170v105h314q-1 -158 -80 -235.5t-214 -77.5z" />
    <glyph glyph-name="H.c2sc" horiz-adv-x="627" 
d="M417 578h132v-578h-132v228h-207v-228h-132v578h132v-232h207v232z" />
    <glyph glyph-name="Hbar.c2sc" horiz-adv-x="642" 
d="M620 492v-65h-64v-427h-132v228h-206v-228h-132v427h-64v65h64v86h132v-86h206v86h132v-86h64zM424 346v81h-206v-81h206z" />
    <glyph glyph-name="I.c2sc" horiz-adv-x="288" 
d="M78 0v578h132v-578h-132z" />
    <glyph glyph-name="IJ.c2sc" horiz-adv-x="562" 
d="M78 0v578h132v-578h-132zM285 -198q-45 0 -90 15l13 119q25 -10 77 -10q33 0 49.5 20.5t16.5 52.5v579h132v-579q0 -87 -48 -142t-150 -55z" />
    <glyph glyph-name="Iacute.c2sc" horiz-adv-x="288" 
d="M101 646l82 144h121l-117 -144h-86zM78 0v578h132v-578h-132z" />
    <glyph glyph-name="uni01CF.c2sc" horiz-adv-x="288" 
d="M82 646l-96 144h88l69 -76l70 76h89l-96 -144h-124zM78 0v578h132v-578h-132z" />
    <glyph glyph-name="Icircumflex.c2sc" horiz-adv-x="288" 
d="M-14 646l96 144h124l96 -144h-89l-70 74l-69 -74h-88zM78 0v578h132v-578h-132z" />
    <glyph glyph-name="Idieresis.c2sc" horiz-adv-x="288" 
d="M52 661q-26 0 -45 17.5t-19 42.5q0 24 19 41.5t45 17.5t44.5 -17.5t18.5 -41.5q0 -25 -18.5 -42.5t-44.5 -17.5zM237 661q-27 0 -46 17.5t-19 42.5q0 24 19 41.5t46 17.5q25 0 43.5 -17.5t18.5 -41.5q0 -25 -18 -42.5t-44 -17.5zM78 0v578h132v-578h-132z" />
    <glyph glyph-name="Idotaccent.c2sc" horiz-adv-x="288" 
d="M144 653q-29 0 -48.5 18.5t-19.5 47.5q0 28 19.5 46t48.5 18t49 -18.5t20 -45.5q0 -29 -20 -47.5t-49 -18.5zM78 0v578h132v-578h-132z" />
    <glyph glyph-name="Igrave.c2sc" horiz-adv-x="288" 
d="M104 646l-116 144h121l82 -144h-87zM78 0v578h132v-578h-132z" />
    <glyph glyph-name="Imacron.c2sc" horiz-adv-x="288" 
d="M22 677v72h245v-72h-245zM78 0v578h132v-578h-132z" />
    <glyph glyph-name="Iogonek.c2sc" horiz-adv-x="289" 
d="M163 -79h62q0 -50 -27.5 -75t-69.5 -25q-37 0 -63.5 24.5t-26.5 61.5q0 24 10 42l30 56l1 573h132v-578h-72l-36 -72q-3 -9 -3 -19q0 -14 8.5 -22t21.5 -8q33 0 33 42z" />
    <glyph glyph-name="Itilde.c2sc" horiz-adv-x="288" 
d="M20 661q3 55 28.5 81.5t57.5 26.5q21 0 44.5 -17.5t31.5 -17.5t15.5 8.5t8.5 26.5h62q-3 -55 -28.5 -80.5t-57.5 -25.5q-19 0 -43.5 17t-32.5 17q-7 0 -14.5 -9t-8.5 -27h-63zM78 0v578h132v-578h-132z" />
    <glyph glyph-name="J.c2sc" horiz-adv-x="296" 
d="M20 -198q-46 0 -90 15l12 119q27 -10 78 -10q33 0 49.5 20.5t16.5 52.5v579h132v-579q0 -87 -48 -142t-150 -55z" />
    <glyph glyph-name="Jcircumflex.c2sc" horiz-adv-x="296" 
d="M-5 646l95 144h124l96 -144h-88l-70 74l-69 -74h-88zM20 -198q-46 0 -90 15l12 119q27 -10 78 -10q33 0 49.5 20.5t16.5 52.5v579h132v-579q0 -87 -48 -142t-150 -55z" />
    <glyph glyph-name="K.c2sc" horiz-adv-x="556" 
d="M565 0h-181l-174 186v-186h-132v578h132v-177l136 177h165l-228 -286z" />
    <glyph glyph-name="Kcommaaccent.c2sc" horiz-adv-x="556" 
d="M283 292l282 -292h-181l-174 186v-186h-132v578h132v-177l136 177h165zM220 -33h115q1 -47 -27 -92.5t-68 -73.5l-60 32q42 43 40 134z" />
    <glyph glyph-name="L.c2sc" horiz-adv-x="458" 
d="M78 0v578h132v-463h223v-115h-355z" />
    <glyph glyph-name="Lacute.c2sc" horiz-adv-x="458" 
d="M82 646l82 144h121l-117 -144h-86zM78 0v578h132v-463h223v-115h-355z" />
    <glyph glyph-name="Lcaron.c2sc" horiz-adv-x="476" 
d="M78 0v578h132v-463h223v-115h-355zM340 379l-53 30q28 40 39.5 76.5t11.5 92.5h96q-10 -130 -94 -199z" />
    <glyph glyph-name="Lcommaaccent.c2sc" horiz-adv-x="458" 
d="M78 0v578h132v-463h223v-115h-355zM192 -199l-60 32q43 45 39 134h116q0 -47 -27.5 -92.5t-67.5 -73.5z" />
    <glyph glyph-name="Lslash.c2sc" horiz-adv-x="471" 
d="M223 115h222v-115h-354v209l-66 -40v75l66 40v294h132v-213l87 53v-75l-87 -53v-175z" />
    <glyph glyph-name="M.c2sc" horiz-adv-x="819" 
d="M772 0h-135l-41 329l-135 -262h-102l-136 262l-41 -329h-136l75 578h111l178 -361l177 361h112z" />
    <glyph glyph-name="N.c2sc" horiz-adv-x="609" 
d="M398 578h132v-578h-116l-204 332v-332h-132v578h121l199 -327v327z" />
    <glyph glyph-name="Nacute.c2sc" horiz-adv-x="609" 
d="M464 790l-117 -144h-86l82 144h121zM398 578h132v-578h-116l-204 332v-332h-132v578h121l199 -327v327z" />
    <glyph glyph-name="Ncaron.c2sc" horiz-adv-x="609" 
d="M365 646h-124l-95 144h88l69 -76l70 76h88zM398 578h132v-578h-116l-204 332v-332h-132v578h121l199 -327v327z" />
    <glyph glyph-name="Ncommaaccent.c2sc" horiz-adv-x="609" 
d="M398 578h132v-578h-116l-204 332v-332h-132v578h121l199 -327v327zM206 -167q43 45 39 134h116q0 -47 -28 -92.5t-68 -73.5z" />
    <glyph glyph-name="Eng.c2sc" horiz-adv-x="609" 
d="M398 578h132v-578q0 -88 -48 -143t-150 -55q-40 0 -90 15l12 120q26 -10 78 -10q66 0 66 73v28l-188 303v-331h-132v578h121l199 -326v326z" />
    <glyph glyph-name="Ntilde.c2sc" horiz-adv-x="609" 
d="M266 697q-7 0 -14.5 -9t-8.5 -27h-63q3 56 28.5 82t57.5 26q20 0 44 -17.5t32 -17.5q7 0 14.5 8.5t8.5 26.5h63q-3 -55 -28.5 -80.5t-57.5 -25.5q-19 0 -43.5 17t-32.5 17zM398 578h132v-578h-116l-204 332v-332h-132v578h121l199 -327v327z" />
    <glyph glyph-name="O.c2sc" horiz-adv-x="697" 
d="M348 -7q-128 0 -217 86.5t-89 209.5t89 210t217 87t217 -87t89 -210t-89 -209.5t-217 -86.5zM348 117q76 0 125 49.5t49 122.5t-49 122.5t-125 49.5t-124.5 -49.5t-48.5 -122.5t48.5 -122.5t124.5 -49.5z" />
    <glyph glyph-name="Oacute.c2sc" horiz-adv-x="697" 
d="M305 646l82 144h121l-116 -144h-87zM348 -7q-128 0 -217 86.5t-89 209.5t89 210t217 87t217 -87t89 -210t-89 -209.5t-217 -86.5zM348 117q76 0 125 49.5t49 122.5t-49 122.5t-125 49.5t-124.5 -49.5t-48.5 -122.5t48.5 -122.5t124.5 -49.5z" />
    <glyph glyph-name="uni01D1.c2sc" horiz-adv-x="697" 
d="M286 646l-96 144h89l69 -76l69 76h89l-96 -144h-124zM348 -7q-128 0 -217 86.5t-89 209.5t89 210t217 87t217 -87t89 -210t-89 -209.5t-217 -86.5zM348 117q76 0 125 49.5t49 122.5t-49 122.5t-125 49.5t-124.5 -49.5t-48.5 -122.5t48.5 -122.5t124.5 -49.5z" />
    <glyph glyph-name="Ocircumflex.c2sc" horiz-adv-x="697" 
d="M190 646l96 144h124l96 -144h-89l-69 74l-69 -74h-89zM348 -7q-128 0 -217 86.5t-89 209.5t89 210t217 87t217 -87t89 -210t-89 -209.5t-217 -86.5zM348 117q76 0 125 49.5t49 122.5t-49 122.5t-125 49.5t-124.5 -49.5t-48.5 -122.5t48.5 -122.5t124.5 -49.5z" />
    <glyph glyph-name="Odieresis.c2sc" horiz-adv-x="697" 
d="M257 661q-26 0 -45 17.5t-19 42.5q0 24 19 41.5t45 17.5t44 -17.5t18 -41.5q0 -25 -18 -42.5t-44 -17.5zM442 661q-27 0 -46 17.5t-19 42.5q0 24 19 41.5t46 17.5q25 0 43.5 -17.5t18.5 -41.5q0 -25 -18 -42.5t-44 -17.5zM348 -7q-128 0 -217 86.5t-89 209.5t89 210
t217 87t217 -87t89 -210t-89 -209.5t-217 -86.5zM348 117q76 0 125 49.5t49 122.5t-49 122.5t-125 49.5t-124.5 -49.5t-48.5 -122.5t48.5 -122.5t124.5 -49.5z" />
    <glyph glyph-name="Ograve.c2sc" horiz-adv-x="697" 
d="M309 646l-117 144h121l82 -144h-86zM348 -7q-128 0 -217 86.5t-89 209.5t89 210t217 87t217 -87t89 -210t-89 -209.5t-217 -86.5zM348 117q76 0 125 49.5t49 122.5t-49 122.5t-125 49.5t-124.5 -49.5t-48.5 -122.5t48.5 -122.5t124.5 -49.5z" />
    <glyph glyph-name="Ohungarumlaut.c2sc" horiz-adv-x="697" 
d="M255 646l79 144h88l-88 -144h-79zM379 646l90 144h90l-98 -144h-82zM348 -7q-128 0 -217 86.5t-89 209.5t89 210t217 87t217 -87t89 -210t-89 -209.5t-217 -86.5zM348 117q76 0 125 49.5t49 122.5t-49 122.5t-125 49.5t-124.5 -49.5t-48.5 -122.5t48.5 -122.5
t124.5 -49.5z" />
    <glyph glyph-name="Omacron.c2sc" horiz-adv-x="697" 
d="M226 677v72h245v-72h-245zM348 -7q-128 0 -217 86.5t-89 209.5t89 210t217 87t217 -87t89 -210t-89 -209.5t-217 -86.5zM348 117q76 0 125 49.5t49 122.5t-49 122.5t-125 49.5t-124.5 -49.5t-48.5 -122.5t48.5 -122.5t124.5 -49.5z" />
    <glyph glyph-name="Oslash.c2sc" horiz-adv-x="699" 
d="M584 481q72 -83 72 -192q0 -122 -89.5 -209t-216.5 -87q-109 0 -193 66l-70 -69l-40 39l69 68q-72 83 -72 192q0 123 89 210t217 87q108 0 193 -66l69 68l41 -39zM176 289q0 -57 31 -102l245 243q-43 31 -103 31q-76 0 -124.5 -49.5t-48.5 -122.5zM349 117q76 0 125 49.5
t49 122.5q0 58 -31 101l-245 -242q42 -31 102 -31z" />
    <glyph glyph-name="Oslashacute.c2sc" horiz-adv-x="699" 
d="M509 790l-117 -144h-86l81 144h122zM584 481q72 -83 72 -192q0 -122 -89.5 -209t-216.5 -87q-109 0 -193 66l-70 -69l-40 39l69 68q-72 83 -72 192q0 123 89 210t217 87q108 0 193 -66l69 68l41 -39zM176 289q0 -57 31 -102l245 243q-43 31 -103 31q-76 0 -124.5 -49.5
t-48.5 -122.5zM349 117q76 0 125 49.5t49 122.5q0 58 -31 101l-245 -242q42 -31 102 -31z" />
    <glyph glyph-name="Otilde.c2sc" horiz-adv-x="697" 
d="M225 661q3 56 28 82t57 26q21 0 44.5 -17.5t31.5 -17.5q7 0 15 8.5t8 26.5h63q-3 -55 -28.5 -80.5t-57.5 -25.5q-19 0 -43 17t-33 17q-7 0 -14.5 -9t-8.5 -27h-62zM348 -7q-128 0 -217 86.5t-89 209.5t89 210t217 87t217 -87t89 -210t-89 -209.5t-217 -86.5zM348 117
q76 0 125 49.5t49 122.5t-49 122.5t-125 49.5t-124.5 -49.5t-48.5 -122.5t48.5 -122.5t124.5 -49.5z" />
    <glyph glyph-name="OE.c2sc" horiz-adv-x="963" 
d="M654 115h259v-115h-390v54q-65 -61 -175 -61q-128 0 -217 86.5t-89 209.5t89 210t217 87q107 0 175 -61v53h382v-116h-251v-119h220v-117h-220v-111zM348 117q76 0 125 49.5t49 122.5t-49 122.5t-125 49.5t-124.5 -49.5t-48.5 -122.5t48.5 -122.5t124.5 -49.5z" />
    <glyph glyph-name="P.c2sc" horiz-adv-x="555" 
d="M325 578q97 0 148.5 -56.5t51.5 -135.5t-51.5 -134.5t-148.5 -55.5h-115v-196h-132v578h247zM319 311q37 0 55.5 22t18.5 53t-18.5 53.5t-54.5 22.5h-110v-151h109z" />
    <glyph glyph-name="Thorn.c2sc" horiz-adv-x="556" 
d="M318 480q86 0 143 -52t57 -137q0 -86 -57 -139.5t-143 -53.5h-108v-98h-132v578h132v-98h108zM308 214q34 0 55.5 20.5t21.5 54.5q0 35 -21.5 55.5t-56.5 20.5h-97v-151h98z" />
    <glyph glyph-name="Q.c2sc" horiz-adv-x="697" 
d="M654 288q0 -73 -33.5 -136.5t-92.5 -104.5l57 -91l-94 -55l-62 100q-43 -10 -81 -10q-128 0 -217 87t-89 210t89 209.5t217 86.5t217 -86.5t89 -209.5zM348 116h9l-46 75l92 55l57 -92q62 51 62 134q0 73 -49 122.5t-125 49.5t-124.5 -49t-48.5 -123q0 -73 48.5 -122.5
t124.5 -49.5z" />
    <glyph glyph-name="R.c2sc" horiz-adv-x="573" 
d="M381 0l-141 203h-30v-203h-132v578h244q98 0 149.5 -56.5t51.5 -135.5q0 -65 -36 -112.5t-107 -63.5l155 -210h-154zM210 462v-155h91q44 0 67 22.5t23 53.5t-22.5 55t-62.5 24h-96z" />
    <glyph glyph-name="Racute.c2sc" horiz-adv-x="573" 
d="M445 790l-117 -144h-86l82 144h121zM381 0l-141 203h-30v-203h-132v578h244q98 0 149.5 -56.5t51.5 -135.5q0 -65 -36 -112.5t-107 -63.5l155 -210h-154zM210 462v-155h91q44 0 67 22.5t23 53.5t-22.5 55t-62.5 24h-96z" />
    <glyph glyph-name="Rcaron.c2sc" horiz-adv-x="573" 
d="M347 646h-124l-95 144h88l69 -76l69 76h89zM381 0l-141 203h-30v-203h-132v578h244q98 0 149.5 -56.5t51.5 -135.5q0 -65 -36 -112.5t-107 -63.5l155 -210h-154zM210 462v-155h91q44 0 67 22.5t23 53.5t-22.5 55t-62.5 24h-96z" />
    <glyph glyph-name="Rcommaaccent.c2sc" horiz-adv-x="573" 
d="M380 210l155 -210h-154l-141 203h-30v-203h-132v578h244q98 0 149.5 -56.5t51.5 -135.5q0 -65 -36 -112.5t-107 -63.5zM210 462v-155h91q44 0 67 22.5t23 53.5t-22.5 55t-62.5 24h-96zM187 -167q42 43 40 134h115q0 -47 -27.5 -92.5t-67.5 -73.5z" />
    <glyph glyph-name="S.c2sc" horiz-adv-x="526" 
d="M263 -7q-97 0 -157 49t-60 129h132q0 -28 26 -46.5t63 -18.5t60 15t23 42q0 38 -70 59l-73 22q-157 42 -157 166q0 77 61 126.5t150 49.5t146 -48.5t57 -131.5h-132q0 28 -19 46t-54 18q-33 0 -54 -16t-21 -40q0 -37 62 -54l65 -18q78 -23 124.5 -61.5t46.5 -111.5
q0 -87 -64 -131.5t-155 -44.5z" />
    <glyph glyph-name="Sacute.c2sc" horiz-adv-x="526" 
d="M220 646l81 144h122l-117 -144h-86zM263 -7q-97 0 -157 49t-60 129h132q0 -28 26 -46.5t63 -18.5t60 15t23 42q0 38 -70 59l-73 22q-157 42 -157 166q0 77 61 126.5t150 49.5t146 -48.5t57 -131.5h-132q0 28 -19 46t-54 18q-33 0 -54 -16t-21 -40q0 -37 62 -54l65 -18
q78 -23 124.5 -61.5t46.5 -111.5q0 -87 -64 -131.5t-155 -44.5z" />
    <glyph glyph-name="Scaron.c2sc" horiz-adv-x="526" 
d="M200 646l-95 144h88l69 -76l69 76h90l-97 -144h-124zM263 -7q-97 0 -157 49t-60 129h132q0 -28 26 -46.5t63 -18.5t60 15t23 42q0 38 -70 59l-73 22q-157 42 -157 166q0 77 61 126.5t150 49.5t146 -48.5t57 -131.5h-132q0 28 -19 46t-54 18q-33 0 -54 -16t-21 -40
q0 -37 62 -54l65 -18q78 -23 124.5 -61.5t46.5 -111.5q0 -87 -64 -131.5t-155 -44.5z" />
    <glyph glyph-name="Scedilla.c2sc" horiz-adv-x="526" 
d="M482 169q0 -78 -52.5 -122t-132.5 -52l25 -46q9 -15 9 -42q0 -37 -26 -61.5t-63 -24.5q-42 0 -70 25.5t-28 74.5h63q0 -42 33 -42q12 0 20.5 8t8.5 22q0 10 -3 19l-32 66q-85 8 -136.5 55.5t-51.5 121.5h132q0 -28 26 -46.5t63 -18.5t60 15t23 42q0 38 -70 59l-73 22
q-157 42 -157 166q0 77 61 126.5t150 49.5t146 -48.5t57 -131.5h-132q0 28 -19 46t-54 18q-33 0 -54 -16t-21 -40q0 -37 62 -54l65 -18q78 -23 124.5 -61.5t46.5 -111.5z" />
    <glyph glyph-name="Scommaaccent.c2sc" horiz-adv-x="526" 
d="M263 -7q-97 0 -157 49t-60 129h132q0 -28 26 -46.5t63 -18.5t60 15t23 42q0 38 -70 59l-73 22q-157 42 -157 166q0 77 61 126.5t150 49.5t146 -48.5t57 -131.5h-132q0 28 -19 46t-54 18q-33 0 -54 -16t-21 -40q0 -37 62 -54l65 -18q78 -23 124.5 -61.5t46.5 -111.5
q0 -87 -64 -131.5t-155 -44.5zM224 -199l-60 32q42 45 40 134h116q-1 -47 -29 -92.5t-67 -73.5z" />
    <glyph glyph-name="uni1E9E.c2sc" horiz-adv-x="621" 
d="M433 351q67 -15 107 -58t40 -107q0 -84 -59 -139.5t-153 -55.5q-65 2 -101 15l15 114q22 -11 68 -11q44 0 70.5 24t26.5 64q0 42 -31.5 68t-82.5 26h-33l-3 46l73 125q-29 6 -53 6q-47 0 -80 -32t-33 -92v-344h-132v341q0 121 68.5 182t178.5 61q53 0 113 -15t102 -39
v-12z" />
    <glyph glyph-name="T.c2sc" horiz-adv-x="505" 
d="M479 578v-116h-161v-462h-132v462h-161v116h454z" />
    <glyph glyph-name="Tbar.c2sc" horiz-adv-x="515" 
d="M485 462h-162v-160h90v-63h-90v-239h-132v239h-89v63h89v160h-161v116h455v-116z" />
    <glyph glyph-name="Tcaron.c2sc" horiz-adv-x="505" 
d="M314 646h-125l-95 144h89l69 -76l69 76h89zM479 578v-116h-161v-462h-132v462h-161v116h454z" />
    <glyph glyph-name="uni0162.c2sc" horiz-adv-x="505" 
d="M479 462h-161v-451l34 -62q9 -17 9 -42q0 -37 -26.5 -61.5t-63.5 -24.5q-41 0 -69 25t-28 75h62q0 -42 33 -42q13 0 21.5 8t8.5 22q0 10 -3 19l-36 72h-74v462h-161v116h454v-116z" />
    <glyph glyph-name="uni021A.c2sc" horiz-adv-x="505" 
d="M479 578v-116h-161v-462h-132v462h-161v116h454zM154 -167q43 44 39 134h116q0 -47 -27.5 -92.5t-67.5 -73.5z" />
    <glyph glyph-name="U.c2sc" 
d="M305 -7q-96 0 -164.5 59.5t-68.5 156.5v369h132v-359q0 -50 29.5 -75.5t71.5 -25.5t71.5 25.5t29.5 75.5v359h132v-369q0 -97 -68 -156.5t-165 -59.5z" />
    <glyph glyph-name="Uacute.c2sc" 
d="M262 646l81 144h122l-117 -144h-86zM305 -7q-96 0 -164.5 59.5t-68.5 156.5v369h132v-359q0 -50 29.5 -75.5t71.5 -25.5t71.5 25.5t29.5 75.5v359h132v-369q0 -97 -68 -156.5t-165 -59.5z" />
    <glyph glyph-name="uni01D3.c2sc" 
d="M242 646l-95 144h88l69 -76l69 76h90l-97 -144h-124zM305 -7q-96 0 -164.5 59.5t-68.5 156.5v369h132v-359q0 -50 29.5 -75.5t71.5 -25.5t71.5 25.5t29.5 75.5v359h132v-369q0 -97 -68 -156.5t-165 -59.5z" />
    <glyph glyph-name="Ucircumflex.c2sc" 
d="M147 646l95 144h124l97 -144h-90l-69 74l-69 -74h-88zM305 -7q-96 0 -164.5 59.5t-68.5 156.5v369h132v-359q0 -50 29.5 -75.5t71.5 -25.5t71.5 25.5t29.5 75.5v359h132v-369q0 -97 -68 -156.5t-165 -59.5z" />
    <glyph glyph-name="Udieresis.c2sc" 
d="M213 661q-26 0 -45 17.5t-19 42.5q0 24 19 41.5t45 17.5t44.5 -17.5t18.5 -41.5q0 -25 -18.5 -42.5t-44.5 -17.5zM398 661q-27 0 -46 17.5t-19 42.5q0 24 19 41.5t46 17.5q25 0 43.5 -17.5t18.5 -41.5q0 -25 -18 -42.5t-44 -17.5zM305 -7q-96 0 -164.5 59.5t-68.5 156.5
v369h132v-359q0 -50 29.5 -75.5t71.5 -25.5t71.5 25.5t29.5 75.5v359h132v-369q0 -97 -68 -156.5t-165 -59.5z" />
    <glyph glyph-name="uni01D7.c2sc" 
d="M262 810l81 145h122l-117 -145h-86zM213 661q-26 0 -45 17.5t-19 42.5q0 24 19 41.5t45 17.5t44.5 -17.5t18.5 -41.5q0 -25 -18.5 -42.5t-44.5 -17.5zM398 661q-27 0 -46 17.5t-19 42.5q0 24 19 41.5t46 17.5q25 0 43.5 -17.5t18.5 -41.5q0 -25 -18 -42.5t-44 -17.5z
M305 -7q-96 0 -164.5 59.5t-68.5 156.5v369h132v-359q0 -50 29.5 -75.5t71.5 -25.5t71.5 25.5t29.5 75.5v359h132v-369q0 -97 -68 -156.5t-165 -59.5z" />
    <glyph glyph-name="uni01D9.c2sc" 
d="M242 810l-95 145h88l69 -76l69 76h90l-97 -145h-124zM213 661q-26 0 -45 17.5t-19 42.5q0 24 19 41.5t45 17.5t44.5 -17.5t18.5 -41.5q0 -25 -18.5 -42.5t-44.5 -17.5zM398 661q-27 0 -46 17.5t-19 42.5q0 24 19 41.5t46 17.5q25 0 43.5 -17.5t18.5 -41.5
q0 -25 -18 -42.5t-44 -17.5zM305 -7q-96 0 -164.5 59.5t-68.5 156.5v369h132v-359q0 -50 29.5 -75.5t71.5 -25.5t71.5 25.5t29.5 75.5v359h132v-369q0 -97 -68 -156.5t-165 -59.5z" />
    <glyph glyph-name="uni01DB.c2sc" 
d="M265 809l-117 144h121l83 -144h-87zM213 661q-26 0 -45 17.5t-19 42.5q0 24 19 41.5t45 17.5t44.5 -17.5t18.5 -41.5q0 -25 -18.5 -42.5t-44.5 -17.5zM398 661q-27 0 -46 17.5t-19 42.5q0 24 19 41.5t46 17.5q25 0 43.5 -17.5t18.5 -41.5q0 -25 -18 -42.5t-44 -17.5z
M305 -7q-96 0 -164.5 59.5t-68.5 156.5v369h132v-359q0 -50 29.5 -75.5t71.5 -25.5t71.5 25.5t29.5 75.5v359h132v-369q0 -97 -68 -156.5t-165 -59.5z" />
    <glyph glyph-name="uni01D5.c2sc" 
d="M183 840v71h244v-71h-244zM213 661q-26 0 -45 17.5t-19 42.5q0 24 19 41.5t45 17.5t44.5 -17.5t18.5 -41.5q0 -25 -18.5 -42.5t-44.5 -17.5zM398 661q-27 0 -46 17.5t-19 42.5q0 24 19 41.5t46 17.5q25 0 43.5 -17.5t18.5 -41.5q0 -25 -18 -42.5t-44 -17.5zM305 -7
q-96 0 -164.5 59.5t-68.5 156.5v369h132v-359q0 -50 29.5 -75.5t71.5 -25.5t71.5 25.5t29.5 75.5v359h132v-369q0 -97 -68 -156.5t-165 -59.5z" />
    <glyph glyph-name="Ugrave.c2sc" 
d="M265 646l-117 144h121l83 -144h-87zM305 -7q-96 0 -164.5 59.5t-68.5 156.5v369h132v-359q0 -50 29.5 -75.5t71.5 -25.5t71.5 25.5t29.5 75.5v359h132v-369q0 -97 -68 -156.5t-165 -59.5z" />
    <glyph glyph-name="Uhungarumlaut.c2sc" 
d="M212 646l78 144h88l-88 -144h-78zM335 646l90 144h91l-98 -144h-83zM305 -7q-96 0 -164.5 59.5t-68.5 156.5v369h132v-359q0 -50 29.5 -75.5t71.5 -25.5t71.5 25.5t29.5 75.5v359h132v-369q0 -97 -68 -156.5t-165 -59.5z" />
    <glyph glyph-name="Umacron.c2sc" 
d="M183 677v72h244v-72h-244zM305 -7q-96 0 -164.5 59.5t-68.5 156.5v369h132v-359q0 -50 29.5 -75.5t71.5 -25.5t71.5 25.5t29.5 75.5v359h132v-369q0 -97 -68 -156.5t-165 -59.5z" />
    <glyph glyph-name="Uogonek.c2sc" 
d="M406 578h132v-369q0 -88 -57 -145.5t-142 -68.5l-33 -67q-4 -8 -4 -19q0 -14 8.5 -22t21.5 -8q33 0 33 42h63q0 -49 -28.5 -74.5t-69.5 -25.5q-37 0 -63 24.5t-26 61.5q0 27 9 42l25 46q-86 9 -144.5 67.5t-58.5 146.5v369h132v-359q0 -50 29.5 -75.5t71.5 -25.5
t71.5 25.5t29.5 75.5v359z" />
    <glyph glyph-name="Uring.c2sc" 
d="M304 635q-44 0 -76 30.5t-32 73.5t32 74t76 31q45 0 77.5 -31t32.5 -74t-32.5 -73.5t-77.5 -30.5zM304 685q24 0 41 15.5t17 38.5t-17 39t-41 16q-23 0 -39.5 -16t-16.5 -39t16.5 -38.5t39.5 -15.5zM305 -7q-96 0 -164.5 59.5t-68.5 156.5v369h132v-359q0 -50 29.5 -75.5
t71.5 -25.5t71.5 25.5t29.5 75.5v359h132v-369q0 -97 -68 -156.5t-165 -59.5z" />
    <glyph glyph-name="V.c2sc" horiz-adv-x="525" 
d="M366 578h139l-184 -578h-117l-183 578h137l105 -367z" />
    <glyph glyph-name="W.c2sc" horiz-adv-x="804" 
d="M647 578h144l-204 -578h-104l-82 292l-81 -292h-104l-202 578h142l114 -346l77 263h109l77 -263z" />
    <glyph glyph-name="Wacute.c2sc" horiz-adv-x="804" 
d="M562 790l-117 -144h-86l82 144h121zM647 578h144l-204 -578h-104l-82 292l-81 -292h-104l-202 578h142l114 -346l77 263h109l77 -263z" />
    <glyph glyph-name="Wcircumflex.c2sc" horiz-adv-x="804" 
d="M401 720l-69 -74h-88l95 144h125l96 -144h-90zM647 578h144l-204 -578h-104l-82 292l-81 -292h-104l-202 578h142l114 -346l77 263h109l77 -263z" />
    <glyph glyph-name="Wdieresis.c2sc" horiz-adv-x="804" 
d="M310 661q-26 0 -45 17.5t-19 42.5q0 24 19 41.5t45 17.5t44.5 -17.5t18.5 -41.5q0 -25 -18.5 -42.5t-44.5 -17.5zM495 661q-26 0 -45.5 17.5t-19.5 42.5q0 24 19.5 41.5t45.5 17.5t44.5 -17.5t18.5 -41.5q0 -25 -18.5 -42.5t-44.5 -17.5zM647 578h144l-204 -578h-104
l-82 292l-81 -292h-104l-202 578h142l114 -346l77 263h109l77 -263z" />
    <glyph glyph-name="Wgrave.c2sc" horiz-adv-x="804" 
d="M449 646h-87l-116 144h121zM647 578h144l-204 -578h-104l-82 292l-81 -292h-104l-202 578h142l114 -346l77 263h109l77 -263z" />
    <glyph glyph-name="X.c2sc" horiz-adv-x="592" 
d="M583 0h-156l-131 203l-131 -203h-155l207 308l-189 270h159l109 -166l110 166h158l-190 -271z" />
    <glyph glyph-name="Y.c2sc" horiz-adv-x="605" 
d="M446 578h157l-234 -319v-259h-133v261l-233 317h157l142 -213z" />
    <glyph glyph-name="Yacute.c2sc" horiz-adv-x="605" 
d="M462 790l-116 -144h-86l81 144h121zM446 578h157l-234 -319v-259h-133v261l-233 317h157l142 -213z" />
    <glyph glyph-name="Ycircumflex.c2sc" horiz-adv-x="605" 
d="M302 720l-69 -74h-88l95 144h125l96 -144h-90zM446 578h157l-234 -319v-259h-133v261l-233 317h157l142 -213z" />
    <glyph glyph-name="Ydieresis.c2sc" horiz-adv-x="605" 
d="M211 661q-26 0 -45 17.5t-19 42.5q0 24 19 41.5t45 17.5t44.5 -17.5t18.5 -41.5q0 -25 -18.5 -42.5t-44.5 -17.5zM396 661q-27 0 -46 17.5t-19 42.5q0 24 19 41.5t46 17.5q26 0 44 -17.5t18 -41.5q0 -25 -18 -42.5t-44 -17.5zM446 578h157l-234 -319v-259h-133v261
l-233 317h157l142 -213z" />
    <glyph glyph-name="Ygrave.c2sc" horiz-adv-x="605" 
d="M349 646h-86l-117 144h121zM446 578h157l-234 -319v-259h-133v261l-233 317h157l142 -213z" />
    <glyph glyph-name="Z.c2sc" horiz-adv-x="535" 
d="M486 578v-99l-273 -364h273v-115h-442v98l268 364h-257v116h431z" />
    <glyph glyph-name="Zacute.c2sc" horiz-adv-x="535" 
d="M428 790l-117 -144h-87l82 144h122zM486 578v-99l-273 -364h273v-115h-442v98l268 364h-257v116h431z" />
    <glyph glyph-name="Zcaron.c2sc" horiz-adv-x="535" 
d="M329 646h-124l-96 144h89l69 -76l69 76h89zM486 578v-99l-273 -364h273v-115h-442v98l268 364h-257v116h431z" />
    <glyph glyph-name="Zdotaccent.c2sc" horiz-adv-x="535" 
d="M268 653q-30 0 -49.5 18.5t-19.5 47.5q0 28 20 46t49 18t48.5 -18t19.5 -46q0 -29 -19.5 -47.5t-48.5 -18.5zM486 578v-99l-273 -364h273v-115h-442v98l268 364h-257v116h431z" />
    <glyph glyph-name="IJ.alt.c2sc" horiz-adv-x="666" 
d="M78 0v578h132v-578h-132zM395 -7q-45 0 -90 14l12 119q26 -9 78 -9q33 0 49.5 20.5t16.5 52.5v388h132v-388q0 -87 -48 -142t-150 -55z" />
    <glyph glyph-name="J.alt.c2sc" horiz-adv-x="381" 
d="M110 -7q-45 0 -90 14l12 119q27 -9 78 -9q33 0 49.5 20.5t16.5 52.5v388h132v-388q0 -88 -48 -142.5t-150 -54.5z" />
    <glyph glyph-name="Jcircumflex.alt.c2sc" horiz-adv-x="381" 
d="M85 646l95 144h124l96 -144h-88l-70 74l-69 -74h-88zM110 -7q-45 0 -90 14l12 119q27 -9 78 -9q33 0 49.5 20.5t16.5 52.5v388h132v-388q0 -88 -48 -142.5t-150 -54.5z" />
    <glyph glyph-name="W.alt.c2sc" horiz-adv-x="797" 
d="M627 578h149l-173 -578h-110l-95 337l-95 -337h-110l-174 578h150l85 -324l89 304h109l89 -305z" />
    <glyph glyph-name="Wacute.alt.c2sc" horiz-adv-x="797" 
d="M558 790l-117 -144h-86l81 144h122zM627 578h149l-173 -578h-110l-95 337l-95 -337h-110l-174 578h150l85 -324l89 304h109l89 -305z" />
    <glyph glyph-name="Wcircumflex.alt.c2sc" horiz-adv-x="797" 
d="M397 720l-69 -74h-88l95 144h125l96 -144h-89zM627 578h149l-173 -578h-110l-95 337l-95 -337h-110l-174 578h150l85 -324l89 304h109l89 -305z" />
    <glyph glyph-name="Wdieresis.alt.c2sc" horiz-adv-x="797" 
d="M306 661q-26 0 -45 17.5t-19 42.5q0 24 19 41.5t45 17.5t44.5 -17.5t18.5 -41.5q0 -25 -18.5 -42.5t-44.5 -17.5zM491 661q-26 0 -45.5 17.5t-19.5 42.5q0 24 19.5 41.5t45.5 17.5t44.5 -17.5t18.5 -41.5q0 -25 -18.5 -42.5t-44.5 -17.5zM627 578h149l-173 -578h-110
l-95 337l-95 -337h-110l-174 578h150l85 -324l89 304h109l89 -305z" />
    <glyph glyph-name="Wgrave.alt.c2sc" horiz-adv-x="797" 
d="M445 646h-87l-116 144h121zM627 578h149l-173 -578h-110l-95 337l-95 -337h-110l-174 578h150l85 -324l89 304h109l89 -305z" />
    <glyph glyph-name="i.loclTRK" horiz-adv-x="263" 
d="M132 552q-32 0 -54 20.5t-22 52.5q0 31 22 51.5t54 20.5q31 0 53 -21t22 -51q0 -32 -22 -52.5t-53 -20.5zM66 0v466h131v-466h-131z" />
    <glyph glyph-name="a.alt" horiz-adv-x="565" 
d="M276 478q100 0 164 -52t64 -147v-279h-137v57q-24 -30 -70.5 -48t-93.5 -18q-74 0 -123 40t-49 105q0 69 55.5 106.5t136.5 37.5q82 0 144 -30v23q0 40 -28 66t-75 26q-87 0 -130 -46l-72 74q31 39 89 62t125 23zM238 93q35 0 72.5 16t56.5 42v14q-49 31 -117 31
q-43 0 -65 -16t-22 -38t20.5 -35.5t54.5 -13.5z" />
    <glyph glyph-name="aacute.alt" horiz-adv-x="565" 
d="M460 710l-131 -166h-97l95 166h133zM276 478q100 0 164 -52t64 -147v-279h-137v57q-24 -30 -70.5 -48t-93.5 -18q-74 0 -123 40t-49 105q0 69 55.5 106.5t136.5 37.5q82 0 144 -30v23q0 40 -28 66t-75 26q-87 0 -130 -46l-72 74q31 39 89 62t125 23zM238 93q35 0 72.5 16
t56.5 42v14q-49 31 -117 31q-43 0 -65 -16t-22 -38t20.5 -35.5t54.5 -13.5z" />
    <glyph glyph-name="abreve.alt" horiz-adv-x="565" 
d="M277 559q-65 0 -99 38t-34 92h83q0 -53 50 -53q25 0 37 15t12 38h85q0 -59 -37 -94.5t-97 -35.5zM276 478q100 0 164 -52t64 -147v-279h-137v57q-24 -30 -70.5 -48t-93.5 -18q-74 0 -123 40t-49 105q0 69 55.5 106.5t136.5 37.5q82 0 144 -30v23q0 40 -28 66t-75 26
q-87 0 -130 -46l-72 74q31 39 89 62t125 23zM238 93q35 0 72.5 16t56.5 42v14q-49 31 -117 31q-43 0 -65 -16t-22 -38t20.5 -35.5t54.5 -13.5z" />
    <glyph glyph-name="uni01CE.alt" horiz-adv-x="565" 
d="M340 544h-132l-110 166h98l78 -89l78 89h98zM276 478q100 0 164 -52t64 -147v-279h-137v57q-24 -30 -70.5 -48t-93.5 -18q-74 0 -123 40t-49 105q0 69 55.5 106.5t136.5 37.5q82 0 144 -30v23q0 40 -28 66t-75 26q-87 0 -130 -46l-72 74q31 39 89 62t125 23zM238 93
q35 0 72.5 16t56.5 42v14q-49 31 -117 31q-43 0 -65 -16t-22 -38t20.5 -35.5t54.5 -13.5z" />
    <glyph glyph-name="acircumflex.alt" horiz-adv-x="565" 
d="M275 632l-78 -88h-97l109 166h132l110 -166h-98zM276 478q100 0 164 -52t64 -147v-279h-137v57q-24 -30 -70.5 -48t-93.5 -18q-74 0 -123 40t-49 105q0 69 55.5 106.5t136.5 37.5q82 0 144 -30v23q0 40 -28 66t-75 26q-87 0 -130 -46l-72 74q31 39 89 62t125 23zM238 93
q35 0 72.5 16t56.5 42v14q-49 31 -117 31q-43 0 -65 -16t-22 -38t20.5 -35.5t54.5 -13.5z" />
    <glyph glyph-name="adieresis.alt" horiz-adv-x="565" 
d="M175 559q-30 0 -50.5 19.5t-20.5 48.5q0 28 21 47.5t50 19.5t49 -19.5t20 -47.5q0 -29 -20 -48.5t-49 -19.5zM382 559q-30 0 -50.5 19.5t-20.5 48.5q0 28 21 47.5t50 19.5t49.5 -19.5t20.5 -47.5q0 -29 -20.5 -48.5t-49.5 -19.5zM276 478q100 0 164 -52t64 -147v-279
h-137v57q-24 -30 -70.5 -48t-93.5 -18q-74 0 -123 40t-49 105q0 69 55.5 106.5t136.5 37.5q82 0 144 -30v23q0 40 -28 66t-75 26q-87 0 -130 -46l-72 74q31 39 89 62t125 23zM238 93q35 0 72.5 16t56.5 42v14q-49 31 -117 31q-43 0 -65 -16t-22 -38t20.5 -35.5t54.5 -13.5z
" />
    <glyph glyph-name="agrave.alt" horiz-adv-x="565" 
d="M325 544h-97l-131 166h133zM276 478q100 0 164 -52t64 -147v-279h-137v57q-24 -30 -70.5 -48t-93.5 -18q-74 0 -123 40t-49 105q0 69 55.5 106.5t136.5 37.5q82 0 144 -30v23q0 40 -28 66t-75 26q-87 0 -130 -46l-72 74q31 39 89 62t125 23zM238 93q35 0 72.5 16t56.5 42
v14q-49 31 -117 31q-43 0 -65 -16t-22 -38t20.5 -35.5t54.5 -13.5z" />
    <glyph glyph-name="amacron.alt" horiz-adv-x="565" 
d="M411 666v-84h-274v84h274zM276 478q100 0 164 -52t64 -147v-279h-137v57q-24 -30 -70.5 -48t-93.5 -18q-74 0 -123 40t-49 105q0 69 55.5 106.5t136.5 37.5q82 0 144 -30v23q0 40 -28 66t-75 26q-87 0 -130 -46l-72 74q31 39 89 62t125 23zM238 93q35 0 72.5 16t56.5 42
v14q-49 31 -117 31q-43 0 -65 -16t-22 -38t20.5 -35.5t54.5 -13.5z" />
    <glyph glyph-name="aogonek.alt" horiz-adv-x="565" 
d="M467 -94h70q0 -56 -31.5 -86.5t-78.5 -30.5q-43 0 -72.5 29.5t-29.5 73.5q0 29 10 47l32 61v57q-25 -30 -71 -48t-93 -18q-74 0 -123 40t-49 105q0 69 55.5 106.5t136.5 37.5q80 0 144 -31v24q0 40 -28 66t-75 26q-87 0 -130 -46l-72 74q31 39 89 62t125 23
q100 0 164 -52t64 -147v-279h-68l-38 -86q-4 -9 -4 -21q0 -17 10 -27.5t25 -10.5q38 0 38 51zM238 93q35 0 72.5 16t56.5 42v14q-51 31 -117 31q-43 0 -65 -16t-22 -38t20.5 -35.5t54.5 -13.5z" />
    <glyph glyph-name="aring.alt" horiz-adv-x="565" 
d="M274 534q-50 0 -85 34.5t-35 83.5q0 50 35 85t85 35t86 -35t36 -85q0 -49 -36 -83.5t-86 -34.5zM274 714q-25 0 -43 -18t-18 -44q0 -25 18 -42.5t43 -17.5q26 0 45 17.5t19 42.5q0 26 -19 44t-45 18zM276 478q100 0 164 -52t64 -147v-279h-137v57q-24 -30 -70.5 -48
t-93.5 -18q-74 0 -123 40t-49 105q0 69 55.5 106.5t136.5 37.5q82 0 144 -30v23q0 40 -28 66t-75 26q-87 0 -130 -46l-72 74q31 39 89 62t125 23zM238 93q35 0 72.5 16t56.5 42v14q-49 31 -117 31q-43 0 -65 -16t-22 -38t20.5 -35.5t54.5 -13.5z" />
    <glyph glyph-name="aringacute.alt" horiz-adv-x="565" 
d="M277 534q-49 0 -84 34.5t-35 83.5q0 43 27 76t67 41l48 84h133l-88 -101q54 -34 54 -100q0 -49 -35.5 -83.5t-86.5 -34.5zM277 714q-24 0 -42 -18t-18 -44q0 -25 18 -42.5t42 -17.5q26 0 45 17.5t19 42.5q0 26 -19 44t-45 18zM276 478q100 0 164 -52t64 -147v-279h-137
v57q-24 -30 -70.5 -48t-93.5 -18q-74 0 -123 40t-49 105q0 69 55.5 106.5t136.5 37.5q82 0 144 -30v23q0 40 -28 66t-75 26q-87 0 -130 -46l-72 74q31 39 89 62t125 23zM238 93q35 0 72.5 16t56.5 42v14q-49 31 -117 31q-43 0 -65 -16t-22 -38t20.5 -35.5t54.5 -13.5z" />
    <glyph glyph-name="atilde.alt" horiz-adv-x="565" 
d="M231 605q-8 0 -17 -11t-10 -33h-69q3 65 31.5 95t64.5 30q24 0 51.5 -20.5t36.5 -20.5q8 0 16.5 10t9.5 31h70q-3 -64 -31.5 -93t-64.5 -29q-23 0 -50.5 20.5t-37.5 20.5zM276 478q100 0 164 -52t64 -147v-279h-137v57q-24 -30 -70.5 -48t-93.5 -18q-74 0 -123 40
t-49 105q0 69 55.5 106.5t136.5 37.5q85 0 144 -31v24q0 40 -28 66t-75 26q-87 0 -130 -46l-72 74q31 39 89 62t125 23zM238 93q35 0 72.5 16t56.5 42v14q-49 31 -117 31q-43 0 -65 -16t-22 -38t20.5 -35.5t54.5 -13.5z" />
    <glyph glyph-name="l.alt" horiz-adv-x="315" 
d="M261 0q-99 0 -150 56.5t-51 160.5v498h132v-496q-1 -45 18 -71t58 -26h36v-122h-43z" />
    <glyph glyph-name="lacute.alt" horiz-adv-x="315" 
d="M69 767l95 166h133l-131 -166h-97zM261 0q-99 0 -150 56.5t-51 160.5v498h132v-496q-1 -45 18 -71t58 -26h36v-122h-43z" />
    <glyph glyph-name="lcaron.alt" horiz-adv-x="326" 
d="M261 0q-99 0 -150 56.5t-51 160.5v498h132v-496q-1 -45 18 -71t58 -26h36v-122h-43zM294 463l-66 33q32 45 44.5 86.5t11.5 106.5h113q-10 -149 -103 -226z" />
    <glyph glyph-name="lcommaaccent.alt" horiz-adv-x="315" 
d="M261 0q-99 0 -150 56.5t-51 160.5v498h132v-496q-1 -45 18 -71t58 -26h36v-122h-43zM168 -237l-67 33q51 60 45 164h124q0 -60 -29.5 -112t-72.5 -85z" />
    <glyph glyph-name="lslash.alt" horiz-adv-x="378" 
d="M306 122h35v-122h-42q-99 0 -150 56.5t-51 160.5v45l-64 -39v85l64 39v368h131v-289l92 55v-84l-92 -56v-122q0 -97 77 -97z" />
    <glyph glyph-name="t.alt" horiz-adv-x="375" 
d="M292 0q-99 0 -144 46t-45 148v171h-84v101h84v105l131 40v-145h98v-101h-98v-163q1 -41 18.5 -60.5t55.5 -19.5h30v-122h-46z" />
    <glyph glyph-name="tbar.alt" horiz-adv-x="385" 
d="M316 122h31v-122h-46q-100 0 -144.5 45.5t-44.5 148.5v22h-55v71h55v78h-84v101h84v105l131 40v-145h97v-101h-97v-78h59v-71h-59v-14q0 -80 73 -80z" />
    <glyph glyph-name="tcaron.alt" horiz-adv-x="375" 
d="M375 500l-67 33q32 45 45 86t12 107h113q-11 -148 -103 -226zM292 0q-99 0 -144 46t-45 148v171h-84v101h84v105l131 40v-145h98v-101h-98v-163q1 -41 18.5 -60.5t55.5 -19.5h30v-122h-46z" />
    <glyph glyph-name="uni0163.alt" horiz-adv-x="375" 
d="M338 0h-46h-16l31 -61q11 -20 11 -47q0 -44 -29.5 -73.5t-72.5 -29.5q-47 0 -78.5 30.5t-31.5 86.5h69q0 -51 39 -51q15 0 25 10.5t10 27.5q0 12 -4 21l-43 99q-99 33 -99 181v171h-84v101h84v105l131 40v-145h98v-101h-98v-163q1 -41 18.5 -60.5t55.5 -19.5h30v-122z
" />
    <glyph glyph-name="uni021B.alt" horiz-adv-x="375" 
d="M292 0q-99 0 -144 46t-45 148v171h-84v101h84v105l131 40v-145h98v-101h-98v-163q1 -41 18.5 -60.5t55.5 -19.5h30v-122h-46zM202 -237l-66 33q50 60 45 164h123q1 -60 -28.5 -112t-73.5 -85z" />
    <glyph glyph-name="y.alt" horiz-adv-x="505" 
d="M365 466h137l-228 -552q-36 -82 -77 -115.5t-115 -33.5q-33 0 -67 11v111q26 -6 55 -6q32 0 50 20t36 63l29 72l-178 430h137l110 -286z" />
    <glyph glyph-name="yacute.alt" horiz-adv-x="505" 
d="M437 710l-131 -166h-97l95 166h133zM365 466h137l-228 -552q-36 -82 -77 -115.5t-115 -33.5q-33 0 -67 11v111q26 -6 55 -6q32 0 50 20t36 63l29 72l-178 430h137l110 -286z" />
    <glyph glyph-name="ycircumflex.alt" horiz-adv-x="505" 
d="M255 632l-78 -88h-97l109 166h132l110 -166h-98zM365 466h137l-228 -552q-36 -82 -77 -115.5t-115 -33.5q-33 0 -67 11v111q26 -6 55 -6q32 0 50 20t36 63l29 72l-178 430h137l110 -286z" />
    <glyph glyph-name="ydieresis.alt" horiz-adv-x="505" 
d="M152 559q-30 0 -50.5 19.5t-20.5 48.5q0 28 21 47.5t50 19.5t49.5 -19.5t20.5 -47.5q0 -29 -20.5 -48.5t-49.5 -19.5zM360 559q-30 0 -51 19.5t-21 48.5q0 28 21 47.5t51 19.5q29 0 49 -19.5t20 -47.5q0 -29 -20 -48.5t-49 -19.5zM365 466h137l-228 -552
q-36 -82 -77 -115.5t-115 -33.5q-33 0 -67 11v111q26 -6 55 -6q32 0 50 20t36 63l29 72l-178 430h137l110 -286z" />
    <glyph glyph-name="ygrave.alt" horiz-adv-x="505" 
d="M307 544h-97l-131 166h133zM365 466h137l-228 -552q-36 -82 -77 -115.5t-115 -33.5q-33 0 -67 11v111q26 -6 55 -6q32 0 50 20t36 63l29 72l-178 430h137l110 -286z" />
    <glyph glyph-name="f_b" horiz-adv-x="976" 
d="M710 477q94 0 161 -67t67 -176t-67.5 -176t-161.5 -67q-43 0 -84.5 17t-64.5 50v-58h-132v593h-85q-98 0 -100 -97v-30h102v-101h-102v-365h-131v365h-88v101h88v29q0 106 53 163t152 57h243v-304q23 32 65 49t85 17zM685 113q49 0 84.5 35t35.5 86t-35.5 85.5
t-84.5 34.5t-85.5 -34t-36.5 -86t36.5 -86.5t85.5 -34.5z" />
    <glyph glyph-name="f_f_b" horiz-adv-x="1343" 
d="M1077 477q94 0 161 -67t67 -176t-67.5 -176t-161.5 -67q-43 0 -84.5 17t-64.5 50v-58h-132v593h-85q-98 0 -100 -97v-30h102v-101h-102v-365h-131v365h-236v-365h-131v365h-88v101h88v29q0 106 53 163t152 57h56v-122h-30q-98 0 -100 -97v-30h236v29q0 106 53 163t152 57
h243v-304q23 32 65 49t85 17zM1052 113q49 0 84.5 35t35.5 86t-35.5 85.5t-84.5 34.5q-48 0 -85 -34t-37 -86t36.5 -86.5t85.5 -34.5z" />
    <glyph glyph-name="f_f_j" horiz-adv-x="998" 
d="M932 466v-478q0 -104 -51.5 -160.5t-150.5 -56.5h-60v122h57q37 0 55.5 26.5t18.5 69.5v376h-191v-365h-131v365h-236v-365h-131v365h-88v101h88v29q0 106 53 163t152 57h56v-122h-30q-98 0 -100 -97v-30h236v29q0 106 53 163t152 57h29v-122h-13q-90 0 -90 -88v-39h322z
M866 549q-34 0 -58.5 23t-24.5 56t24.5 55.5t58.5 22.5q35 0 59 -22.5t24 -55.5t-24 -56t-59 -23z" />
    <glyph glyph-name="f_f_k" horiz-adv-x="1249" 
d="M1259 0h-163l-164 202v-202h-131v593h-91q-98 0 -100 -97v-30h102v-101h-102v-365h-131v365h-236v-365h-131v365h-88v101h88v29q0 106 53 163t152 57h56v-122h-30q-98 0 -100 -97v-30h236v29q0 106 53 163t152 57h248v-391l118 142h168l-182 -205z" />
    <glyph glyph-name="f_j" horiz-adv-x="631" 
d="M565 466v-478q0 -104 -51 -160.5t-150 -56.5h-61v122h58q37 0 55 26.5t18 69.5v376h-191v-365h-131v365h-87v101h87v29q0 106 53 163t152 57h29v-122h-13q-90 0 -90 -88v-39h322zM500 549q-34 0 -58.5 23t-24.5 56t24.5 55.5t58.5 22.5q35 0 59 -22.5t24 -55.5t-24 -56
t-59 -23z" />
    <glyph glyph-name="f_k" horiz-adv-x="882" 
d="M892 0h-163l-164 202v-202h-131v593h-91q-98 0 -100 -97v-30h102v-101h-102v-365h-131v365h-88v101h88v29q0 106 53 163t152 57h248v-390l118 141h168l-182 -205z" />
    <glyph glyph-name="f_b.c2sc" horiz-adv-x="1064" 
d="M78 0v578h377v-116h-245v-121h194v-114h-194v-227h-132zM905 308q56 -8 86 -48.5t30 -93.5q0 -67 -48.5 -116.5t-145.5 -49.5h-259v578h241q81 0 130.5 -42t49.5 -107q0 -24 -6.5 -45.5t-26 -44t-51.5 -31.5zM801 462h-101v-110h100q26 0 41.5 14.5t15.5 40.5
q0 24 -14 39.5t-42 15.5zM811 115q36 0 56 19t20 45t-19 45.5t-57 19.5h-111v-129h111z" />
    <glyph glyph-name="f_f.c2sc" horiz-adv-x="980" 
d="M78 0v578h377v-116h-245v-121h194v-114h-194v-227h-132zM945 462h-245v-121h194v-114h-194v-227h-132v578h377v-116z" />
    <glyph glyph-name="f_f_b.c2sc" horiz-adv-x="1554" 
d="M78 0v578h377v-116h-245v-121h194v-114h-194v-227h-132zM568 0v578h377v-116h-245v-121h194v-114h-194v-227h-132zM1395 308q56 -8 86 -48.5t30 -93.5q0 -67 -48.5 -116.5t-145.5 -49.5h-259v578h241q81 0 130.5 -42t49.5 -107q0 -24 -6.5 -45.5t-26 -44t-51.5 -31.5z
M1291 462h-101v-110h100q26 0 41.5 14.5t15.5 40.5q0 24 -14 39.5t-42 15.5zM1301 115q36 0 56 19t20 45t-19 45.5t-57 19.5h-111v-129h111z" />
    <glyph glyph-name="f_f_i.c2sc" horiz-adv-x="1268" 
d="M78 0v578h377v-116h-245v-121h194v-114h-194v-227h-132zM568 0v578h377v-116h-245v-121h194v-114h-194v-227h-132zM1058 578h132v-578h-132v578z" />
    <glyph glyph-name="f_f_j.c2sc" horiz-adv-x="1276" 
d="M78 0v578h377v-116h-245v-121h194v-114h-194v-227h-132zM700 462v-121h194v-114h-194v-227h-132v578h377v-116h-245zM1066 578h132v-579q0 -87 -48 -142t-150 -55q-46 0 -90 15l12 119q27 -10 78 -10q33 0 49.5 20.5t16.5 52.5v579z" />
    <glyph glyph-name="f_f_k.c2sc" horiz-adv-x="1536" 
d="M78 0v578h377v-116h-245v-121h194v-114h-194v-227h-132zM568 0v578h377v-116h-245v-121h194v-114h-194v-227h-132zM1545 0h-181l-174 186v-186h-132v578h132v-177l136 177h165l-228 -286z" />
    <glyph glyph-name="f_f_l.c2sc" horiz-adv-x="1438" 
d="M78 0v578h377v-116h-245v-121h194v-114h-194v-227h-132zM568 0v578h377v-116h-245v-121h194v-114h-194v-227h-132zM1190 115h223v-115h-355v578h132v-463z" />
    <glyph glyph-name="f_j.c2sc" horiz-adv-x="786" 
d="M210 462v-121h194v-114h-194v-227h-132v578h377v-116h-245zM576 578h132v-579q0 -87 -48 -142t-150 -55q-46 0 -90 15l12 119q27 -10 78 -10q33 0 49.5 20.5t16.5 52.5v579z" />
    <glyph glyph-name="f_k.c2sc" horiz-adv-x="1046" 
d="M78 0v578h377v-116h-245v-121h194v-114h-194v-227h-132zM1055 0h-181l-174 186v-186h-132v578h132v-177l136 177h165l-228 -286z" />
    <glyph glyph-name="fi.c2sc" horiz-adv-x="778" 
d="M78 0v578h377v-116h-245v-121h194v-114h-194v-227h-132zM568 578h132v-578h-132v578z" />
    <glyph glyph-name="fl.c2sc" horiz-adv-x="948" 
d="M78 0v578h377v-116h-245v-121h194v-114h-194v-227h-132zM700 115h223v-115h-355v578h132v-463z" />
    <glyph glyph-name="a.smcp" horiz-adv-x="592" 
d="M450 0l-46 135h-216l-46 -135h-141l223 578h144l222 -578h-140zM226 249h138l-69 202z" />
    <glyph glyph-name="aacute.smcp" horiz-adv-x="592" 
d="M455 790l-116 -144h-87l82 144h121zM450 0l-46 135h-216l-46 -135h-141l223 578h144l222 -578h-140zM226 249h138l-69 202z" />
    <glyph glyph-name="abreve.smcp" horiz-adv-x="592" 
d="M296 659q-57 0 -87.5 32t-30.5 78h74q0 -44 44 -44q41 0 41 44h76q0 -49 -33 -79.5t-84 -30.5zM450 0l-46 135h-216l-46 -135h-141l223 578h144l222 -578h-140zM226 249h138l-69 202z" />
    <glyph glyph-name="uni01CE.smcp" horiz-adv-x="592" 
d="M357 646h-124l-96 144h89l69 -76l69 76h89zM450 0l-46 135h-216l-46 -135h-141l223 578h144l222 -578h-140zM226 249h138l-69 202z" />
    <glyph glyph-name="acircumflex.smcp" horiz-adv-x="592" 
d="M295 720l-69 -74h-89l96 144h124l96 -144h-89zM450 0l-46 135h-216l-46 -135h-141l223 578h144l222 -578h-140zM226 249h138l-69 202z" />
    <glyph glyph-name="adieresis.smcp" horiz-adv-x="592" 
d="M204 661q-26 0 -45 17.5t-19 42.5q0 24 19 41.5t45 17.5t44 -17.5t18 -41.5q0 -25 -18 -42.5t-44 -17.5zM389 661q-27 0 -46 17.5t-19 42.5q0 24 19 41.5t46 17.5q25 0 43.5 -17.5t18.5 -41.5q0 -25 -18 -42.5t-44 -17.5zM450 0l-46 135h-216l-46 -135h-141l223 578h144
l222 -578h-140zM226 249h138l-69 202z" />
    <glyph glyph-name="agrave.smcp" horiz-adv-x="592" 
d="M342 646h-86l-117 144h121zM450 0l-46 135h-216l-46 -135h-141l223 578h144l222 -578h-140zM226 249h138l-69 202z" />
    <glyph glyph-name="ij.alt.smcp" horiz-adv-x="666" 
d="M78 0v578h132v-578h-132zM395 -7q-45 0 -90 14l12 119q26 -9 78 -9q33 0 49.5 20.5t16.5 52.5v388h132v-388q0 -87 -48 -142t-150 -55z" />
    <glyph glyph-name="j.alt.smcp" horiz-adv-x="381" 
d="M110 -7q-45 0 -90 14l12 119q27 -9 78 -9q33 0 49.5 20.5t16.5 52.5v388h132v-388q0 -88 -48 -142.5t-150 -54.5z" />
    <glyph glyph-name="jcircumflex.alt.smcp" horiz-adv-x="381" 
d="M85 646l95 144h124l96 -144h-88l-70 74l-69 -74h-88zM110 -7q-45 0 -90 14l12 119q27 -9 78 -9q33 0 49.5 20.5t16.5 52.5v388h132v-388q0 -88 -48 -142.5t-150 -54.5z" />
    <glyph glyph-name="w.alt.smcp" horiz-adv-x="796" 
d="M627 578h149l-173 -578h-110l-95 337l-95 -337h-110l-174 578h150l85 -324l89 304h109l89 -305z" />
    <glyph glyph-name="wacute.alt.smcp" horiz-adv-x="797" 
d="M558 790l-117 -144h-86l81 144h122zM627 578h149l-173 -578h-110l-95 337l-95 -337h-110l-174 578h150l85 -324l89 304h109l89 -305z" />
    <glyph glyph-name="wcircumflex.alt.smcp" horiz-adv-x="797" 
d="M397 720l-69 -74h-88l95 144h125l96 -144h-89zM627 578h149l-173 -578h-110l-95 337l-95 -337h-110l-174 578h150l85 -324l89 304h109l89 -305z" />
    <glyph glyph-name="wdieresis.alt.smcp" horiz-adv-x="797" 
d="M306 661q-26 0 -45 17.5t-19 42.5q0 24 19 41.5t45 17.5t44.5 -17.5t18.5 -41.5q0 -25 -18.5 -42.5t-44.5 -17.5zM491 661q-26 0 -45.5 17.5t-19.5 42.5q0 24 19.5 41.5t45.5 17.5t44.5 -17.5t18.5 -41.5q0 -25 -18.5 -42.5t-44.5 -17.5zM627 578h149l-173 -578h-110
l-95 337l-95 -337h-110l-174 578h150l85 -324l89 304h109l89 -305z" />
    <glyph glyph-name="wgrave.alt.smcp" horiz-adv-x="797" 
d="M445 646h-87l-116 144h121zM627 578h149l-173 -578h-110l-95 337l-95 -337h-110l-174 578h150l85 -324l89 304h109l89 -305z" />
    <glyph glyph-name="amacron.smcp" horiz-adv-x="592" 
d="M418 749v-72h-245v72h245zM450 0l-46 135h-216l-46 -135h-141l223 578h144l222 -578h-140zM226 249h138l-69 202z" />
    <glyph glyph-name="aogonek.smcp" horiz-adv-x="592" 
d="M489 -121q33 0 33 42h63q0 -49 -28.5 -74.5t-69.5 -25.5q-37 0 -63 24.5t-26 61.5q0 27 9 42l37 68l-40 118h-216l-46 -135h-141l223 578h144l222 -578h-92l-35 -72q-3 -6 -3 -19q0 -14 8.5 -22t20.5 -8zM226 249h138l-69 202z" />
    <glyph glyph-name="aring.smcp" horiz-adv-x="592" 
d="M295 635q-44 0 -76 30.5t-32 73.5t32 74t76 31q45 0 77 -31t32 -74t-32 -73.5t-77 -30.5zM295 794q-23 0 -39.5 -16t-16.5 -39t16.5 -38.5t39.5 -15.5q24 0 41 15.5t17 38.5t-17 39t-41 16zM450 0l-46 135h-216l-46 -135h-141l223 578h144l222 -578h-140zM226 249h138
l-69 202z" />
    <glyph glyph-name="aringacute.smcp" horiz-adv-x="592" 
d="M295 635q-44 0 -76 30.5t-32 73.5q0 32 18 58t48 38l46 80h121l-75 -83q59 -29 59 -93q0 -43 -32 -73.5t-77 -30.5zM295 685q24 0 41 15.5t17 38.5t-17 39t-41 16q-23 0 -39.5 -16t-16.5 -39t16.5 -38.5t39.5 -15.5zM450 0l-46 135h-216l-46 -135h-141l223 578h144
l222 -578h-140zM226 249h138l-69 202z" />
    <glyph glyph-name="atilde.smcp" horiz-adv-x="592" 
d="M258 697q-8 0 -15.5 -9t-8.5 -27h-62q3 56 28.5 82t57.5 26q20 0 43.5 -17.5t32.5 -17.5q7 0 14.5 8.5t7.5 26.5h63q-2 -55 -28 -80.5t-57 -25.5q-20 0 -44 17t-32 17zM450 0l-46 135h-216l-46 -135h-141l223 578h144l222 -578h-140zM226 249h138l-69 202z" />
    <glyph glyph-name="ae.smcp" horiz-adv-x="829" 
d="M520 116h259v-116h-390v130h-178l-66 -130h-158l315 578h469v-116h-251v-121h220v-112h-220v-113zM270 245h118v217h-7z" />
    <glyph glyph-name="aeacute.smcp" horiz-adv-x="829" 
d="M574 790l-117 -144h-86l82 144h121zM520 116h259v-116h-390v130h-178l-66 -130h-158l315 578h469v-116h-251v-121h220v-112h-220v-113zM270 245h118v217h-7z" />
    <glyph glyph-name="b.smcp" horiz-adv-x="574" 
d="M415 308q56 -8 86 -48.5t30 -93.5q0 -67 -48.5 -116.5t-145.5 -49.5h-259v578h241q81 0 130.5 -42t49.5 -107q0 -24 -6.5 -45.5t-26 -44t-51.5 -31.5zM311 462h-101v-110h100q26 0 41.5 14.5t15.5 40.5q0 24 -14 39.5t-42 15.5zM321 115q36 0 56 19t20 45t-19 45.5
t-57 19.5h-111v-129h111z" />
    <glyph glyph-name="c.smcp" horiz-adv-x="626" 
d="M347 -7q-127 0 -216 87t-89 210q0 122 89 208.5t216 86.5q77 0 143 -34.5t107 -93.5l-102 -72q-51 75 -143 75q-77 0 -127 -49t-50 -121t49.5 -122t127.5 -50q92 0 143 75l102 -72q-41 -59 -107 -93.5t-143 -34.5z" />
    <glyph glyph-name="cacute.smcp" horiz-adv-x="626" 
d="M269 646l82 144h121l-116 -144h-87zM347 -7q-127 0 -216 87t-89 210q0 122 89 208.5t216 86.5q77 0 143 -34.5t107 -93.5l-102 -72q-51 75 -143 75q-77 0 -127 -49t-50 -121t49.5 -122t127.5 -50q92 0 143 75l102 -72q-41 -59 -107 -93.5t-143 -34.5z" />
    <glyph glyph-name="ccaron.smcp" horiz-adv-x="626" 
d="M280 646l-96 144h89l69 -76l69 76h89l-96 -144h-124zM347 -7q-127 0 -216 87t-89 210q0 122 89 208.5t216 86.5q77 0 143 -34.5t107 -93.5l-102 -72q-51 75 -143 75q-77 0 -127 -49t-50 -121t49.5 -122t127.5 -50q92 0 143 75l102 -72q-41 -59 -107 -93.5t-143 -34.5z
" />
    <glyph glyph-name="ccedilla.smcp" horiz-adv-x="626" 
d="M352 118q92 0 143 75l102 -72q-37 -53 -95.5 -86.5t-126.5 -40.5l25 -45q9 -17 9 -42q0 -37 -26 -61.5t-63 -24.5q-42 0 -70 25.5t-28 74.5h63q0 -42 32 -42q13 0 22 8t9 22q0 11 -4 19l-33 67q-115 13 -192 97t-77 198q0 122 89 208.5t216 86.5q77 0 143 -34.5
t107 -93.5l-102 -72q-51 75 -143 75q-77 0 -127 -49t-50 -121t49.5 -122t127.5 -50z" />
    <glyph glyph-name="cdotaccent.smcp" horiz-adv-x="626" 
d="M345 653q-29 0 -48.5 18.5t-19.5 47.5q0 28 19.5 46t48.5 18t49 -18.5t20 -45.5q0 -29 -20 -47.5t-49 -18.5zM347 -7q-127 0 -216 87t-89 210q0 122 89 208.5t216 86.5q77 0 143 -34.5t107 -93.5l-102 -72q-51 75 -143 75q-77 0 -127 -49t-50 -121t49.5 -122t127.5 -50
q92 0 143 75l102 -72q-41 -59 -107 -93.5t-143 -34.5z" />
    <glyph glyph-name="d.smcp" horiz-adv-x="633" 
d="M78 0v578h237q126 0 199.5 -82t73.5 -208t-73.5 -207t-199.5 -81h-237zM210 115h105q66 0 103 51t37 122t-37 122.5t-103 51.5h-105v-347z" />
    <glyph glyph-name="eth.smcp" horiz-adv-x="643" 
d="M325 578q127 0 200 -81.5t73 -208.5q0 -126 -73 -207t-200 -81h-237v238h-65v95h65v245h237zM325 115q66 0 103 50.5t37 122.5t-37 123t-103 51h-105v-129h104v-95h-104v-123h105z" />
    <glyph glyph-name="dcaron.smcp" horiz-adv-x="633" 
d="M225 646l-95 144h88l69 -76l70 76h89l-97 -144h-124zM78 0v578h237q126 0 199.5 -82t73.5 -208t-73.5 -207t-199.5 -81h-237zM210 115h105q66 0 103 51t37 122t-37 122.5t-103 51.5h-105v-347z" />
    <glyph glyph-name="dcroat.smcp" horiz-adv-x="643" 
d="M325 578q127 0 200 -81.5t73 -208.5q0 -126 -73 -207t-200 -81h-237v238h-65v95h65v245h237zM325 115q66 0 103 50.5t37 122.5t-37 123t-103 51h-105v-129h104v-95h-104v-123h105z" />
    <glyph glyph-name="e.smcp" horiz-adv-x="519" 
d="M210 115h259v-115h-391v578h383v-116h-251v-119h220v-117h-220v-111z" />
    <glyph glyph-name="eacute.smcp" horiz-adv-x="519" 
d="M420 790l-117 -144h-86l81 144h122zM210 115h259v-115h-391v578h383v-116h-251v-119h220v-117h-220v-111z" />
    <glyph glyph-name="ecaron.smcp" horiz-adv-x="519" 
d="M322 646h-125l-95 144h88l70 -76l69 76h89zM210 115h259v-115h-391v578h383v-116h-251v-119h220v-117h-220v-111z" />
    <glyph glyph-name="ecircumflex.smcp" horiz-adv-x="519" 
d="M260 720l-70 -74h-88l95 144h125l96 -144h-89zM210 115h259v-115h-391v578h383v-116h-251v-119h220v-117h-220v-111z" />
    <glyph glyph-name="edieresis.smcp" horiz-adv-x="519" 
d="M168 661q-26 0 -45 17.5t-19 42.5q0 24 19 41.5t45 17.5t44.5 -17.5t18.5 -41.5q0 -25 -18.5 -42.5t-44.5 -17.5zM353 661q-26 0 -45 17.5t-19 42.5q0 24 19 41.5t45 17.5t44 -17.5t18 -41.5q0 -25 -18 -42.5t-44 -17.5zM210 115h259v-115h-391v578h383v-116h-251v-119
h220v-117h-220v-111z" />
    <glyph glyph-name="edotaccent.smcp" horiz-adv-x="519" 
d="M260 653q-29 0 -48.5 18.5t-19.5 47.5q0 28 19.5 46t48.5 18t49 -18.5t20 -45.5q0 -29 -20 -47.5t-49 -18.5zM210 115h259v-115h-391v578h383v-116h-251v-119h220v-117h-220v-111z" />
    <glyph glyph-name="egrave.smcp" horiz-adv-x="519" 
d="M306 646h-85l-117 144h121zM210 115h259v-115h-391v578h383v-116h-251v-119h220v-117h-220v-111z" />
    <glyph glyph-name="emacron.smcp" horiz-adv-x="519" 
d="M383 749v-72h-245v72h245zM210 115h259v-115h-391v578h383v-116h-251v-119h220v-117h-220v-111z" />
    <glyph glyph-name="eogonek.smcp" horiz-adv-x="519" 
d="M374 0l-35 -72q-2 -6 -2 -19q0 -14 8.5 -22t20.5 -8q33 0 33 42h62q0 -49 -28 -74.5t-69 -25.5q-37 0 -63.5 24.5t-26.5 61.5q0 25 10 42l28 51h-234v578h383v-116h-251v-119h220v-117h-220v-111h259v-115h-95z" />
    <glyph glyph-name="f.smcp" horiz-adv-x="490" 
d="M455 462h-245v-121h194v-114h-194v-227h-132v578h377v-116z" />
    <glyph glyph-name="g.smcp" horiz-adv-x="673" 
d="M350 -7q-129 0 -218.5 86.5t-89.5 208.5q0 124 89.5 211t218.5 87q140 0 228 -100l-97 -82q-54 59 -131 59q-74 0 -124.5 -51t-50.5 -124q0 -72 51 -125t124 -53q55 0 94 20t52 57q3 7 4 14h-170v105h314q-1 -158 -80 -235.5t-214 -77.5z" />
    <glyph glyph-name="gbreve.smcp" horiz-adv-x="673" 
d="M336 659q-57 0 -87.5 32t-30.5 78h75q0 -44 43 -44q41 0 41 44h76q0 -49 -33 -79.5t-84 -30.5zM350 -7q-129 0 -218.5 86.5t-89.5 208.5q0 124 89.5 211t218.5 87q140 0 228 -100l-97 -82q-54 59 -131 59q-74 0 -124.5 -51t-50.5 -124q0 -72 51 -125t124 -53q55 0 94 20
t52 57q3 7 4 14h-170v105h314q-1 -158 -80 -235.5t-214 -77.5z" />
    <glyph glyph-name="gcommaaccent.smcp" horiz-adv-x="673" 
d="M350 -7q-129 0 -218.5 86.5t-89.5 208.5q0 124 89.5 211t218.5 87q140 0 228 -100l-97 -82q-54 59 -131 59q-74 0 -124.5 -51t-50.5 -124q0 -72 51 -125t124 -53q55 0 94 20t52 57q3 7 4 14h-170v105h314q-1 -158 -80 -235.5t-214 -77.5zM297 -199l-60 32q42 43 40 134
h115q1 -47 -27 -92.5t-68 -73.5z" />
    <glyph glyph-name="gdotaccent.smcp" horiz-adv-x="673" 
d="M336 653q-30 0 -49.5 18.5t-19.5 47.5q0 28 20 46t49 18t48.5 -18t19.5 -46q0 -29 -19.5 -47.5t-48.5 -18.5zM350 -7q-129 0 -218.5 86.5t-89.5 208.5q0 124 89.5 211t218.5 87q140 0 228 -100l-97 -82q-54 59 -131 59q-74 0 -124.5 -51t-50.5 -124q0 -72 51 -125
t124 -53q55 0 94 20t52 57q3 7 4 14h-170v105h314q-1 -158 -80 -235.5t-214 -77.5z" />
    <glyph glyph-name="h.smcp" horiz-adv-x="627" 
d="M417 578h132v-578h-132v228h-207v-228h-132v578h132v-232h207v232z" />
    <glyph glyph-name="hbar.smcp" horiz-adv-x="642" 
d="M620 492v-65h-64v-427h-132v228h-206v-228h-132v427h-64v65h64v86h132v-86h206v86h132v-86h64zM424 346v81h-206v-81h206z" />
    <glyph glyph-name="i.smcp" horiz-adv-x="288" 
d="M78 0v578h132v-578h-132z" />
    <glyph glyph-name="iacute.smcp" horiz-adv-x="288" 
d="M101 646l82 144h121l-117 -144h-86zM78 0v578h132v-578h-132z" />
    <glyph glyph-name="uni01D0.smcp" horiz-adv-x="288" 
d="M82 646l-96 144h88l69 -76l70 76h89l-96 -144h-124zM78 0v578h132v-578h-132z" />
    <glyph glyph-name="icircumflex.smcp" horiz-adv-x="288" 
d="M-14 646l96 144h124l96 -144h-89l-70 74l-69 -74h-88zM78 0v578h132v-578h-132z" />
    <glyph glyph-name="idieresis.smcp" horiz-adv-x="288" 
d="M52 661q-26 0 -45 17.5t-19 42.5q0 24 19 41.5t45 17.5t44.5 -17.5t18.5 -41.5q0 -25 -18.5 -42.5t-44.5 -17.5zM237 661q-27 0 -46 17.5t-19 42.5q0 24 19 41.5t46 17.5q25 0 43.5 -17.5t18.5 -41.5q0 -25 -18 -42.5t-44 -17.5zM78 0v578h132v-578h-132z" />
    <glyph glyph-name="i.loclTRK.smcp" horiz-adv-x="288" 
d="M144 653q-29 0 -48.5 18.5t-19.5 47.5q0 28 19.5 46t48.5 18t49 -18.5t20 -45.5q0 -29 -20 -47.5t-49 -18.5zM78 0v578h132v-578h-132z" />
    <glyph glyph-name="igrave.smcp" horiz-adv-x="288" 
d="M104 646l-116 144h121l82 -144h-87zM78 0v578h132v-578h-132z" />
    <glyph glyph-name="ij.smcp" horiz-adv-x="562" 
d="M78 0v578h132v-578h-132zM285 -198q-45 0 -90 15l13 119q25 -10 77 -10q33 0 49.5 20.5t16.5 52.5v579h132v-579q0 -87 -48 -142t-150 -55z" />
    <glyph glyph-name="imacron.smcp" horiz-adv-x="288" 
d="M22 677v72h245v-72h-245zM78 0v578h132v-578h-132z" />
    </font>
</defs>
</svg>
