<?xml version="1.0" standalone="no"?>
<!DOCTYPE svg PUBLIC "-//W3C//DTD SVG 1.1//EN" "http://www.w3.org/Graphics/SVG/1.1/DTD/svg11.dtd" >
<svg xmlns="http://www.w3.org/2000/svg" xmlns:xlink="http://www.w3.org/1999/xlink" version="1.1">
<metadata>
Created by FontForge 20170731 at Mon Feb 10 21:33:46 2020
 By Aleksey,,,
</metadata>
<defs>
<font id="grease_pencilgrease_pencil" horiz-adv-x="503" >
  <font-face 
    font-family="grease_pencilgrease_pencil"
    font-weight="400"
    font-stretch="normal"
    units-per-em="1000"
    panose-1="2 0 5 3 0 0 0 0 0 0"
    ascent="750"
    descent="-250"
    x-height="437"
    cap-height="724"
    bbox="-306 -421 968 1096"
    underline-thickness="0"
    underline-position="0"
    unicode-range="U+0009-FB02"
  />
<missing-glyph horiz-adv-x="260" 
 />
    <glyph glyph-name="i_j" unicode="ij" horiz-adv-x="431" 
d="M470 540q0 -11 -17.5 -21t-24.5 -10q-3 0 -18 6.5t-19 6.5q-37 0 -88 -6t-87.5 -12t-37.5 -6q-15 0 -35 18.5t-20 28.5v28q3 1 58 1q3 0 19 3t20 3q2 0 19.5 2t48 4.5t64.5 2.5q16 0 60.5 -14.5t46.5 -17.5q11 -11 11 -17zM407 404q0 -2 -5.5 -30t-11.5 -62.5t-8 -47.5
q-1 -9 -2.5 -31.5t-2.5 -31.5q-5 -49 -7 -89t-3 -50q-11 -108 -38.5 -219.5t-63.5 -172.5q-2 -3 -3 -10t-2 -8q-31 -49 -78 -62q-3 0 -9 -4t-10 -4t-23.5 1.5t-22.5 1.5q-19 0 -50 19q-28 16 -48 55.5t-20 66.5q0 40 2 46q3 13 13 23q6 -3 12.5 -11.5t11.5 -11.5
q46 -138 84 -138q19 0 45.5 42.5t34.5 61.5q9 16 16 36q29 91 32 105q7 29 15.5 92t13 111t4.5 54q0 14 -5 31q-17 -19 -55 -67.5t-59 -70.5q-40 -43 -65 -43q-6 0 -31.5 7t-38.5 14q-12 6 -19 13.5t-9.5 19t-3 18t-0.5 20.5q0 54 43 169t68 165q1 3 15.5 8t18.5 5t7 -1
t5.5 -3t4.5 -3q9 -5 23 -19t14 -23q0 -3 -11 -28.5t-30 -66.5t-27 -60q-4 -8 -8 -26q-3 -7 -13 -32.5t-13.5 -36t-7 -27.5t-2.5 -29q100 100 186 252q3 5 31 82q10 28 11 38q0 3 15 12t21 9q5 0 21 -10t25 -19q13 -16 13 -30zM156 348q-70 -111 -95 -286q9 42 45 139.5
t50 146.5zM352 260q-17 -16 -17 -45q-2 -22 -9 -94.5t-11 -106t-13.5 -92t-23 -106.5t-32.5 -95q46 71 64 160t24.5 205t17.5 174zM324 218q-11 -22 -18 -29q-25 -318 -74 -445q27 49 44 114.5t23 112.5t13.5 130t11.5 117zM116 305q-62 -99 -70 -257q4 17 12 58t13.5 65
t17.5 61.5t27 72.5z" />
    <glyph glyph-name="o_o" unicode="oo" horiz-adv-x="631" 
d="M650 267q0 -63 -41 -143q-13 -26 -45.5 -66.5t-49.5 -53.5q-37 -25 -76 -25h-19q-3 0 -9 3t-14 7.5t-13 6.5q-21 6 -31 37t-10 53q0 60 53 238q1 4 17 29q-42 -3 -127 -3q-2 -2 0 -15q10 -107 -34 -217q0 -1 -2.5 -3t-4.5 -5t-2 -6q-9 -35 -53 -80t-72 -45h-22
q-30 0 -51 14.5t-29.5 38t-11.5 42t-3 36.5q0 37 24 116t65 150.5t78 72.5q1 0 2.5 2.5t3 5.5t3.5 5q5 8 18 8q18 0 44 -11q5 -2 16.5 -13.5t18.5 -14.5q19 -9 53 -9q4 0 17 1t16 1q34 0 86.5 21t57.5 21q23 0 47.5 -10.5t34.5 -29.5q0 -1 2 -10t6 -14q28 -32 31 -36
q16 -27 21 -51q5 -25 5 -48zM566 276q0 11 -4 27t-11 19q-16 -8 -33 -8q-13 0 -23 12q-42 -88 -58 -183q-4 -4 -8.5 -34t-4.5 -45q0 -4 2 -9.5t2 -8.5h10q43 23 85.5 99.5t42.5 130.5zM204 299q0 5 -2 29t-2 32q-6 17 -9 22q-37 -36 -73.5 -129.5t-36.5 -150.5q0 -20 7 -44
q8 1 16.5 5.5t17.5 16t12.5 16.5t13.5 20q23 37 39.5 92.5t16.5 90.5zM245 332q2 -7 3 -14t1 -14.5t0.5 -12.5t-1 -13.5t-2 -11.5t-2.5 -13l-4 -12l-4 -13l-3 -12q17 13 23.5 55.5t-11.5 60.5zM147 414q-22 -17 -54 -93t-47 -158t13 -134q-8 31 -9 63.5t6.5 69.5t14 64
t24 69t25 59.5t27.5 59.5zM120 319q-31 -40 -51 -128t2 -146q-21 73 49 274zM260 356q10 -36 6 -76.5t-17 -73.5q20 9 27 64t-16 86zM576 243q1 -34 -28.5 -94t-56.5 -82q38 13 67.5 73.5t17.5 102.5zM591 227q2 -31 -19.5 -78.5t-45.5 -75.5q23 10 50 63t15 91z" />
    <glyph glyph-name="o_u" unicode="ou" horiz-adv-x="701" 
d="M767 97q0 -21 -23.5 -51t-48.5 -45q-14 -7 -41 -7q-48 0 -78 39t-38 94v1l-4 4q-9 -11 -30.5 -50t-45.5 -63.5t-54 -24.5q-21 0 -36.5 13.5t-23 34.5t-10.5 39t-3 34q0 41 19.5 125.5t32.5 127.5l-6 5q-16 -1 -118 -18q-2 -14 8 -59t10 -72q0 -24 -13 -68t-24 -62
q-33 -52 -54 -66q-12 -9 -35.5 -20.5t-35.5 -11.5h-23q-13 0 -38.5 19t-34.5 37q-19 43 -19 80q0 70 55.5 186.5t95.5 143.5q21 13 49 13q6 0 20 -5.5t20 -11.5q8 -5 22 -31q20 4 48.5 6t57.5 3.5t40 2.5q3 0 10.5 4.5t11.5 4.5t7 -1.5t7 -1.5t9 -7.5t8 -7.5q0 3 6 3
q4 0 9 -13.5t5 -17.5q0 -1 -6 -20t-14.5 -44.5t-11.5 -41.5q-3 -11 -10.5 -38t-10.5 -41q-1 -8 -6 -41t-9 -51l1 -23q106 123 176 334q7 -2 19 -1.5t15 -0.5q44 -24 44 -34q0 -5 -8 -26q-2 -10 -12 -45t-16 -59t-12 -57.5t-6 -56.5q0 -17 6 -47q12 -47 35 -51q20 0 51 15
q12 6 33 20q27 19 29 11q0 -2 -1 -7zM199 240q0 24 -10 63t-25 49q-34 -54 -58 -116.5t-24 -108.5t15 -57q34 0 68 60.5t34 109.5zM610 414q-18 -24 -30.5 -54.5t-19 -70t-8.5 -59t-5 -57.5q25 140 63 241zM396 257q-30 -61 -29 -123.5t29 -114.5q-18 69 -17 114t17 124z
M375 21q-12 33 -16 78t1 72q-12 -27 -14 -52.5t3.5 -45t12 -32t13.5 -20.5zM619 399q-8 -17 -15 -33.5t-12 -34.5t-8.5 -30.5t-7 -33t-5 -30t-3.5 -33t-2 -30.5l-3 -35l-2 -34l3 20q18 116 29 160q22 92 26 114zM214 337q17 -26 22 -73.5t-1 -71.5q18 15 10 77t-31 68z
M148 422q-22 -17 -53.5 -92.5t-46.5 -157t13 -133.5q-8 31 -9 63.5t6.5 69.5t14 63.5t24 68.5t25 59t26.5 59zM122 326q-18 -24 -35.5 -75t-24 -105t10.5 -91q-22 76 49 271zM219 363q20 -26 29.5 -69t4.5 -77q9 16 10 44t-11 59.5t-33 42.5z" />
    <glyph glyph-name="v_a" unicode="va" horiz-adv-x="712" 
d="M798 123q-3 -9 -5 -14q-13 -5 -18 -17l-3 -6l-6 -10l-5 -8q-19 -25 -62.5 -43.5t-76.5 -18.5q-32 0 -45 10q-6 5 -11.5 12t-9.5 12.5t-8 16t-6 16t-5 18.5t-4 18t-3.5 20t-3.5 19q-58 -103 -95 -144q-6 -7 -21.5 -11.5t-22.5 -4.5h-16q-6 0 -25.5 13t-20.5 16
q-16 28 -16 57q0 48 41.5 144.5t74.5 149.5q-7 1 -24 -4.5t-19 -5.5h-90q-5 -15 -19 -64t-24 -76t-27.5 -69.5t-41 -78t-52.5 -66.5q-7 -7 -37 -7q-17 0 -44 11q-17 5 -26 20q-8 12 -18 67q-5 53 -5 75q0 53 13.5 133.5t16.5 115.5q1 33 40 33q14 0 37 -17t23 -25l-10 -44
q-11 -44 -21.5 -115t-10.5 -137q0 -18 1 -21q77 97 115 291q1 5 -1 23q-1 13 5.5 35t20.5 22q2 0 47 -15q30 -9 72 -9q30 0 80 10t58 11q3 0 11.5 5.5t12.5 5.5q13 0 45 -18.5t37 -27.5q1 -2 1 -14q32 -8 46 -20.5t14 -37.5q0 -3 -5 -16.5t-6 -20.5q-4 -33 -11 -70
t-10.5 -63.5t-3.5 -61.5q0 -33 8 -47q20 -8 35 -8t36 9.5t35 19t31 21.5t25 16q9 4 12.5 1.5t0.5 -11.5zM549 318q-32 -8 -35 -8q-4 0 -9 3t-6 3q-15 -24 -28 -50.5t-29.5 -64.5t-20.5 -46q-7 -13 -14.5 -37.5t-7.5 -29.5v-10q21 20 44 53.5t37 58t38 70t31 58.5zM445 398
q-86 -15 -157 -15q35 -14 85 -7t72 22zM81 413q-25 -30 -40.5 -117t-5.5 -112l7 40q24 162 39 189zM54 402q-17 -19 -28 -83t-13 -116q-1 -31 7 -67.5t18 -47.5q-16 43 -16 107q0 12 0.5 24.5t1 21.5t3 24t3.5 21.5t5 26t5 25t6.5 31t7.5 33.5zM465 422q-103 -18 -178 -14
q24 -14 87.5 -7.5t90.5 21.5zM620 23q-7 12 -13.5 23.5t-10 19.5t-7.5 21t-5 18t-4.5 19.5t-4.5 17.5q-6 -28 3 -57.5t22 -46t20 -15.5zM477 332q-38 -29 -66.5 -118.5t-17.5 -138.5q-6 24 16 97q18 66 68 160zM592 25q-21 25 -35 93q-5 -78 35 -93zM404 241
q-14 -22 -23.5 -53.5t-11.5 -70t12 -69.5q-10 74 23 193z" />
    <glyph glyph-name="v_o" unicode="vo" horiz-adv-x="616" 
d="M623 276q0 -65 -40 -142q-19 -31 -93 -116q-24 -25 -84 -25q-15 0 -22 1q-3 2 -16 9.5t-21.5 15t-14.5 17.5q-9 16 -9 60q0 13 1.5 28t4.5 33t6 31.5t8.5 36t8.5 32.5t10 35.5t9 32.5q10 27 12 33q-2 2 -88 2q-4 -11 -25 -79t-33.5 -99.5t-41.5 -84t-65 -91.5
q-7 -7 -38 -7q-13 0 -42 9q-19 10 -27 22q-9 13 -17 66q-5 35 -5 76q0 48 13.5 134.5t15.5 114.5q0 14 7.5 21.5t14.5 8.5t18 1q14 0 37 -16t23 -26q0 -2 -4.5 -19t-10.5 -45.5t-12 -63t-10.5 -79.5t-4.5 -87q0 -18 2 -21q76 96 114 290q1 6 -1 23q0 6 1 13.5t3.5 18t8 17.5
t13.5 7q2 0 47 -14q42 -10 72 -10q39 0 90 14q7 8 12 9q18 7 40 7q18 0 41 -14t28 -25q0 -1 0.5 -6t1 -9t2.5 -6q60 -52 60 -134zM539 283q0 11 -4 27.5t-9 19.5q-14 -12 -30 -12q-13 0 -24 14q-39 -71 -58 -178q-13 -61 -13 -80q0 -5 4 -10.5t5 -7.5q48 28 88.5 104
t40.5 123zM547 260q1 -34 -29 -96.5t-57 -84.5q37 13 65 72t21 109zM561 239q-1 -33 -21.5 -80t-43.5 -74q24 10 50 60.5t15 93.5zM410 411q-23 -4 -41.5 -5.5t-37 0t-27.5 3t-30 5.5t-29 6q28 -24 86.5 -24.5t78.5 15.5zM82 417q-23 -24 -39.5 -106t-9.5 -113q0 -1 3.5 17
t8.5 46t11 58t13 57.5t13 40.5zM55 409q-36 -45 -42 -206q-1 -31 7 -67.5t18 -47.5q-16 68 -16 107q0 12 0.5 24.5t1.5 22t3 24t3 22t5 26t5.5 27t7 33t7.5 35.5zM432 435q-88 -15 -185 2q27 -19 88.5 -21t96.5 19z" />
    <glyph glyph-name="v_u" unicode="vu" horiz-adv-x="719" 
d="M771 112q-8 -24 -29 -59q-54 -64 -87 -64q-3 0 -9.5 -1.5t-10.5 -1.5h-11q-81 0 -91 151q-12 -14 -34.5 -52.5t-44.5 -61t-51 -22.5h-9h-7l-6 1l-7 3l-9 6q-14 12 -25.5 45t-11.5 57q0 85 48 229q-9 2 -42 2q-8 0 -16.5 0.5t-11.5 0t-7.5 -0.5t-5 -1.5t-2.5 -3t-2 -5
t-1 -7.5t-2.5 -11.5t-4.5 -15.5q-22 -73 -37 -115.5t-46 -98t-70 -96.5q-7 -7 -37 -7q-12 0 -42 10q-21 8 -27 21q-10 17 -17 66q-5 55 -5 76q0 49 13.5 135t15.5 115q3 31 41 31q13 0 36.5 -17t23.5 -25q0 -2 -4.5 -19.5t-10.5 -45.5t-12 -63t-10.5 -79.5t-4.5 -86.5
q0 -21 1 -22q76 96 114 291q1 5 -1 22q0 15 6.5 36t19.5 21q3 0 11 -2.5t19.5 -6.5t17.5 -6q34 -9 71 -9q43 0 66 7q3 1 12.5 6t14.5 5q16 0 31.5 -10.5t15.5 -22.5q0 -3 -11 -26t-14 -34q-11 -27 -20 -58.5t-12.5 -51t-9.5 -57t-8 -49.5l2 -22q7 4 14 13.5t15 24t12 19.5
q7 11 26.5 42t27 43t23 37.5t23 39.5t18 34.5t17.5 37.5t12 34l2 2q1 1 4 3q2 1 24 1q6 0 20.5 -9t21.5 -16q5 -5 5 -17q0 -9 -26 -93q-11 -35 -25.5 -101t-14.5 -93q-2 -19 7.5 -41.5t33.5 -25.5q5 0 23 6.5t32 16.5q37 25 59 49l1 -1q2 -2 2 -6zM403 398q-23 -4 -39 -6
t-29.5 -1t-20.5 2t-23 4.5t-26 5.5q34 -24 72 -23.5t66 18.5zM89 407q-23 -23 -39 -102.5t-10 -119.5l1 5q1 6 3 16l3 25l5 30l6 33l7 34l8 32l8 26zM63 400q-38 -47 -44 -197q-1 -32 8 -74.5t18 -53.5q-16 43 -16 107q0 81 34 218zM422 420q-58 -10 -81.5 -10.5t-63.5 7.5
q27 -19 69.5 -19t75.5 22zM620 420q-34 -44 -49.5 -119.5t-14.5 -127.5q22 127 64 247zM628 399q-34 -72 -45.5 -146t-14.5 -172l3 21q20 138 31 183q22 92 26 114z" />
    <glyph glyph-name="w_a" unicode="wa" horiz-adv-x="871" 
d="M968 111q0 -12 -39 -51q-22 -22 -61 -41.5t-68 -19.5q-39 0 -55 9q-6 5 -11 10l-10 10l-6 10l-4 10l-4 13l-4 11l-2 14l-3 15q-7 -7 -20 -29t-19 -31q-5 -7 -40 -39q-18 -9 -29 -9h-35q-5 0 -23 9q-17 9 -25 18q-7 9 -12 26.5t-5 25.5q0 26 14 68t29.5 74.5t35.5 71.5
l21 43q-6 2 -9 2q-2 0 -24 -3t-26 -3q-26 0 -62 15q-9 -16 -11 -46q-4 -101 -15 -139q-10 -37 -32 -72q-11 -14 -37.5 -37t-38.5 -23h-22q-20 0 -34.5 7.5t-24 22.5t-15 27.5t-12 34t-10.5 30.5q-8 -11 -25 -42t-30.5 -52t-36 -39.5t-46.5 -18.5h-20q-7 0 -25.5 17t-20.5 22
q-16 31 -16 70q0 58 39 166.5t73 167.5q9 18 40 18q4 0 18 -8t20 -14q4 0 4 -14q0 -7 -1 -9q-31 -31 -73 -143t-42 -169q0 -19 1 -20q15 6 46 62q36 71 91 207q7 3 17 3q9 0 53 -19q0 -3 3 -8.5t3 -9.5q1 -22 -0.5 -57.5t-1.5 -57.5t7 -51t22 -55q6 1 24 21q37 56 45.5 122
t3.5 152q-2 9 0 15.5t1 11.5t2 9t3 6.5t4.5 4t6 2.5t7.5 1h8h9h11q3 0 4.5 -1t1.5 -2l2 -3l2 -3q20 -12 57 -22.5t59 -10.5q1 0 71 16q7 9 9 11.5t7.5 9t8 8t8 4.5t10 4t10.5 1q12 0 14 -2q8 -3 29 -17t26 -14q4 0 6 1.5t6 1.5q19 0 39.5 -19t20.5 -39q0 -9 -5.5 -28
t-13 -39t-7.5 -21q-6 -16 -14 -69t-8 -77t4 -44q5 -22 30 -24q20 0 68 23q10 5 29.5 16t30.5 16l17 12q0 -2 1 -6t1 -8zM739 359v11q-5 0 -6 1l-2 2q-72 -60 -133 -267q-5 -5 -5 -14v-13q12 9 23.5 21t20 21.5t19 27.5t15 26t14.5 31t12 28t12 31.5t11 27.5q19 63 19 66z
M782 17q-27 53 -44 121q-9 -40 9.5 -77.5t34.5 -43.5zM657 319q-35 -27 -61 -106.5t-26 -129.5l5 -18q-6 24 16 97q18 65 66 157zM758 15q-15 25 -32 84l-6 17v-2q-5 -78 38 -99zM589 228q-18 -30 -28 -80t-5 -90q17 114 33 170zM555 17q-12 54 -7 117l-5 -22
q-13 -78 12 -95zM350 58q-33 -7 -58.5 31t-25.5 56q0 -41 23 -73.5t61 -13.5zM339 42q-31 -12 -58.5 20t-26.5 54q-7 -36 26 -67t59 -7zM132 407q-78 -147 -100 -285q12 33 46.5 135t53.5 150zM111 392q-31 -46 -52 -102t-28 -87t-19 -99q16 70 99 288z" />
    <glyph glyph-name="w_o" unicode="wo" horiz-adv-x="798" 
d="M798 257q0 -56 -41 -141q-21 -34 -93 -115q-24 -25 -83 -25h-22q-5 4 -16.5 10.5t-20.5 14t-14 17.5q-10 13 -10 61q0 49 26 146t44 131q-17 9 -59 9q-23 0 -40 -9q-3 -41 -5 -50q-1 -11 -4 -50.5t-5 -57.5q-1 -4 -3.5 -18t-6 -26.5t-8.5 -23.5q-11 -28 -24 -48
q-9 -16 -37.5 -39t-39.5 -23h-22q-25 0 -42 13.5t-24 28t-16 42.5t-14 39q-7 -10 -24.5 -42.5t-30.5 -53t-36 -39t-47 -18.5h-19q-7 0 -47 40q-15 30 -15 70q0 57 41.5 172t69.5 161q10 18 41 18q11 0 37 -20q5 -2 5 -16q0 -5 -0.5 -6t-0.5 -2q-31 -31 -73.5 -143
t-42.5 -169q0 -18 2 -21q1 0 2 1t2.5 2t2.5 1q13 17 25.5 37.5t25 46t20 42t20 45.5t16.5 37q2 4 8.5 24.5t13 28.5t18.5 8q10 0 52 -19q0 -4 3 -10t3 -8q1 -23 -1 -73t3.5 -83t25.5 -65q23 3 44 56q16 40 26 135q2 33 2.5 80.5t0.5 51.5q0 8 7.5 14.5t14.5 6.5q3 0 21 -0.5
t26 -0.5q27 0 81 -2q51 -9 53 -9q5 0 16.5 11t13.5 12q13 7 41 7q19 0 40.5 -13.5t27.5 -25.5q2 -2 2 -10.5t3 -10.5q60 -55 60 -134zM714 264q0 11 -4 27.5t-10 19.5q-14 -12 -29 -12q-19 0 -24 14q-39 -72 -58 -177q-13 -52 -13 -80l10 -18q48 29 88 103.5t40 122.5z
M352 59q-33 -7 -59.5 30.5t-26.5 55.5q0 -41 23 -73.5t63 -12.5zM341 44q-33 -11 -60.5 20t-26.5 52q-7 -36 23 -64t64 -8zM132 410q-77 -146 -100 -288q14 39 48 140t52 148zM111 392q-31 -46 -52 -102t-28 -87t-19 -99q32 136 99 288zM726 255q1 -34 -29 -98t-56 -86
q37 13 65 72.5t20 111.5zM741 231q-1 -33 -21.5 -80t-43.5 -74q24 10 50 60.5t15 93.5z" />
    <glyph glyph-name="w_u" unicode="wu" horiz-adv-x="888" 
d="M968 97q0 -13 -27 -55q-15 -19 -42 -41.5t-43 -22.5q-4 0 -11.5 -1t-10.5 -1h-11q-39 0 -64 39t-28 82q0 14 -4 19q-6 -9 -19 -30.5t-20 -31.5t-19.5 -24.5t-26 -23t-30.5 -13.5q-15 -5 -16 -5q-7 0 -24.5 4.5t-26.5 11.5q-31 25 -31 102q0 34 19 120q1 4 5 15t4 15
q14 64 29 96q-7 9 -62 9q-23 0 -40 -8q0 -28 -5 -49q-1 -10 -3 -50t-5 -58q-8 -42 -18 -70q-9 -24 -24 -48q-13 -17 -38 -38.5t-39 -21.5h-23q-24 0 -41 13.5t-24 27.5t-16.5 42.5t-14.5 38.5q-2 -3 -17 -32t-24 -43t-25.5 -35.5t-34 -31.5t-35.5 -10h-20q-7 0 -25 16.5
t-23 23.5q-15 32 -15 69q0 57 38.5 163.5t72.5 169.5q13 19 41 19q12 0 37 -22q5 -2 5 -14q0 -7 -1 -9q-28 -28 -71.5 -141t-43.5 -171q0 -18 2 -21q2 0 4 1.5t3 1.5q20 26 39.5 63.5t38.5 82t29 63.5q2 5 8 24.5t13 27.5t19 8q8 0 51 -18l8 -19q1 -23 -0.5 -58.5t-2 -57
t6.5 -50t22 -54.5q22 4 46 57q15 35 24 133q1 10 4 132q0 9 7.5 16t14.5 7q3 0 21 -0.5t26 -0.5q45 0 81 -4q7 0 27 -3.5t23 -3.5q4 0 15 4t16 4q10 0 36 -11q1 -3 7 -12t6 -14t-6 -23t-7 -23q-2 -8 -10.5 -36t-12.5 -43t-10 -39.5t-9.5 -46t-4.5 -41.5q0 -4 -3 -14.5
t-3 -14.5v-9l2 -4l3 -4q25 34 43 65.5t38.5 72t32.5 62.5q5 9 24 55t26 61q2 5 18 11q6 -2 20 -7t24.5 -9t13.5 -7q0 -1 1.5 -2.5t2.5 -3.5t1 -6q0 -3 -2.5 -12t-5.5 -20t-4 -16q-30 -122 -30 -209q-1 -9 1.5 -32t11 -45t21.5 -19q9 0 32 11.5t40 24.5q4 4 19.5 16t25.5 21
l1 -1q2 -2 2 -6zM350 58q-40 -2 -62 32.5t-22 54.5q0 -41 22 -72t62 -15zM341 44q-35 -9 -61.5 20.5t-25.5 51.5q-7 -36 24 -65.5t63 -6.5zM32 122l103 287q-83 -163 -103 -287zM111 392q-31 -46 -52 -102t-28 -87t-19 -99q16 70 99 288zM798 392q-34 -44 -48 -118t-13 -128
q24 134 61 246zM809 372q-66 -140 -48 -305l2 21q8 127 19 172q27 110 27 112zM596 379q-30 19 -63.5 22t-53 -2t-35.5 -13q7 0 34 2.5t38 2.5t34 -2.5t46 -9.5zM585 365q-53 33 -132 3q12 1 31.5 3t29.5 2t29 -1.5t42 -6.5z" />
    <glyph glyph-name="s_a" unicode="sa" horiz-adv-x="732" 
d="M810 111q0 -4 -14.5 -21t-26.5 -28q-23 -22 -61.5 -42t-68.5 -20q-39 0 -54 11q-11 8 -18 14.5t-11.5 18t-6 15.5t-5 22t-4.5 22q-6 -7 -19 -29t-20 -31q-18 -24 -41 -38q-15 -11 -28 -11h-35q-6 0 -24.5 10t-24.5 17q-16 20 -16 53q0 35 19.5 84t39.5 90t21 57
q-91 -46 -192 -108q12 -65 12 -94q0 -61 -29 -100t-82 -39q-7 0 -11 6q-56 2 -84.5 46.5t-28.5 88.5q0 3 6 15q4 19 20 38.5t28.5 29t40.5 27.5t32 21q-8 34 -25 81q-4 11 -16 39.5t-19 51t-7 42.5q0 45 29.5 68.5t70.5 23.5q51 0 103.5 -31t52.5 -86q0 -27 -13 -57.5
t-42 -30.5q-14 0 -38 10.5t-24 26.5q0 20 12 27.5t12 24.5q0 8 -1 12q-6 14 -23 25q-17 12 -26 12q-5 0 -13.5 -8t-8.5 -14q0 -12 9 -43t22 -69.5t17 -55.5q2 -2 3 -4l2 -4q157 84 201 103q6 2 26.5 13.5t30.5 14.5q2 1 6 2t8 2.5t7 3.5q4 3 12.5 14t13.5 14q9 7 26 7
q12 0 15 -1q6 -3 19 -11t23 -14t13 -6q4 0 6 1t6 1q19 0 39.5 -19t20.5 -40q0 -11 -13 -47.5t-13 -39.5q-5 -21 -13.5 -76t-8.5 -78q0 -61 32 -61q27 0 124 54l24 13q0 -2 2 -7.5t2 -8.5zM578 362v11l-7 4q-17 -14 -33 -34.5t-29 -46.5t-21 -44t-19 -46l-13 -32
q-28 -68 -24 -79v-14q16 12 31 29.5t25 31t22.5 39.5t17 36.5t17 42t14.5 36.5q19 49 19 66zM148 119q0 4 -1.5 14t-1.5 14q-54 -31 -54 -72q0 -10 9 -26.5t17 -17.5q11 12 21 42.5t10 45.5zM651 366q-14 -6 -21 -32q-19 -80 -26.5 -118.5t-7.5 -90t19 -73.5q-25 79 36 314z
M623 340q-2 0 -5 -2.5t-5 -5.5l-2 -2q-4 -16 -15 -59.5t-15.5 -65.5t-7.5 -56t3.5 -60t21.5 -47q-12 26 -13 68t6.5 87.5t15 79.5t16.5 63zM277 465q-5 19 -31.5 39.5t-48.5 12.5q12 -1 25 -7.5t19.5 -12t20.5 -18.5t15 -14zM273 433q-12 35 -32 49.5t-56 22.5q-4 1 -8 1
t-8 -1t-7 -2t-5 -1l-2 -1q67 0 118 -68zM420 327q-249 -103 -299 -162q47 34 154 86t145 76zM438 360l5 7l-182 -88q-123 -60 -165 -108q-14 -15 -25 -50q14 31 43 58.5t52 40.5t60 30.5t43 20.5q29 16 79.5 39t89.5 50z" />
    <glyph glyph-name="s_o" unicode="so" horiz-adv-x="676" 
d="M668 315q0 -10 -7 -64q-5 -35 -22 -72q-16 -34 -56 -105q-24 -44 -60 -68t-70 -24q-23 0 -55.5 20.5t-35.5 38.5q-2 19 -4.5 28.5t-4 11.5t-2.5 11.5t-1 29.5q0 40 9 89t9 53l4 1q2 1 2 5v14q-44 -20 -157 -87q12 -54 12 -95q0 -61 -28.5 -99.5t-82.5 -38.5q-5 0 -10 5
q-56 3 -84.5 47.5t-28.5 89.5q0 8 5 13q4 20 20 39.5t28.5 29.5t40.5 28t32 21q-4 19 -25 80q-3 9 -12 30.5t-14.5 35t-10 33t-4.5 34.5q0 45 29 68.5t70 23.5q51 0 103.5 -31t52.5 -87q0 -27 -13 -56.5t-42 -29.5q-16 0 -39 9.5t-23 27.5q0 19 12 26t12 25v11q-6 14 -23 25
q-19 14 -26 14q-6 0 -14.5 -8t-8.5 -15q0 -12 9 -43t22.5 -71t17.5 -54q1 -1 1.5 -4t2.5 -5q33 19 105.5 55.5t104.5 54.5q3 1 5.5 6.5t6 13.5t6.5 12q30 40 56 40q4 0 18 -3t18 -3q2 0 11.5 3t13.5 3q3 0 12.5 -5t15.5 -4q33 5 65 -47t32 -87zM584 298q0 12 -7.5 40
t-15.5 32l-9 -9l-9 -9l-6 -2q-19 0 -36 12q-65 -150 -65 -254q0 -15 4.5 -36.5t12.5 -25.5q40 19 85.5 108.5t45.5 143.5zM145 119q0 3 -2 13.5t-2 15.5q-53 -33 -53 -72q0 -10 9 -27.5t17 -18.5q10 12 20.5 42t10.5 47zM277 467q-7 24 -43.5 43t-61.5 9q38 1 105 -52z
M273 437q-12 34 -31 47t-57 21q-4 1 -8 1t-8 -1t-7 -2t-5 -1l-2 -1q65 0 118 -64zM375 304l2 5q-202 -83 -256 -148q47 34 132 76.5t122 66.5zM398 344l-137 -69q-123 -60 -165 -108q-14 -15 -25 -50q14 31 43 58.5t52 40.5t60 30.5t43 20.5q25 14 43 22.5t24 11.5t19 11
t38 25zM593 265q1 -34 -29.5 -99t-57.5 -87q38 13 66.5 73t20.5 113zM606 239q-1 -33 -21.5 -80t-43.5 -74q24 10 50 60.5t15 93.5z" />
    <glyph glyph-name="o_n" unicode="on" horiz-adv-x="763" 
d="M838 151l-22 -42q-7 -13 -21 -34q-2 -2 -5.5 -9t-7.5 -11q-19 -28 -42 -44q-5 -5 -26 -14q-20 -9 -42 -9q-39 0 -61.5 33t-27.5 70t-7.5 83t-3.5 52q-11 -11 -21 -27.5t-15 -28t-13.5 -33.5t-11.5 -30q-19 -41 -37 -64q-13 -19 -23 -25t-30 -12q-3 -1 -11 -6.5t-13 -5.5
q-7 0 -13 6q-55 0 -55 100q0 26 7.5 69.5t15.5 75.5t19.5 76t12.5 49q-12 0 -45 -2t-52 -2q1 -13 3.5 -34t4 -35.5t1.5 -18.5q0 -2 -2 -9.5t-2 -11.5q-6 -66 -23 -118q-2 -4 -10 -19t-12 -23q-19 -42 -60 -73.5t-78 -31.5q-4 0 -15.5 1.5t-17.5 1.5q-6 6 -12 7
q-30 0 -47 44.5t-17 78.5q0 44 27.5 128.5t43.5 111.5q19 29 30 48q14 19 29 32q2 2 11.5 4.5t12.5 4.5t7 8t5 7q3 0 13 2.5t15 2.5t18 -2.5t16 -2.5q8 -1 19 -9q3 -2 8.5 -8t9.5 -8q10 -6 31 -6h23q32 0 73.5 16t50.5 16q14 0 17 -1q2 -7 18 -12q3 0 12.5 -15t9.5 -21
q0 -3 -8 -28t-19 -60.5t-16 -55.5q-5 -17 -14.5 -59t-11.5 -49l2 -19q36 77 93 170q7 14 18 32.5t34 44t40 25.5q6 0 30 -13.5t28 -19.5q3 -15 3 -17q0 -8 -17 -107q-3 -31 -3 -97q0 -51 3 -67q2 -4 4.5 -14.5t4.5 -15.5q3 -7 9 -14.5t11 -7.5q23 -4 52.5 23.5t56.5 61.5
t38 38q6 -4 0 -21zM206 299q0 3 -4 31t-5 41q-3 13 -13 19q-34 -38 -66 -123.5t-32 -145.5q0 -4 2 -12.5t4.5 -20.5t3.5 -18h11q39 19 69 93.5t30 135.5zM151 433q-22 -17 -54 -93t-47 -157.5t13 -133.5q-8 31 -9 63.5t6.5 69.5t14.5 64t24 68t25 59.5t27 59.5zM124 336
q-18 -24 -35.5 -75t-24 -105t10.5 -91q-22 76 49 271zM410 417q-61 -13 -80.5 -14.5t-61.5 5.5q19 -16 47 -18t51.5 6t43.5 21zM418 443q-25 -8 -31.5 -10t-26 -6.5t-29.5 -5t-26 0t-33 3.5q26 -18 69 -12.5t77 30.5zM587 352q-3 0 -18.5 -22t-17.5 -27q-38 -84 -95 -197
q22 17 131 246zM578 312q-79 -168 -122 -250v-15q116 213 122 265zM703 18q-21 1 -42 15.5t-22 33.5q-5 -22 14.5 -41t49.5 -8zM683 6q-32 1 -52 30t-17 53q-13 -23 12 -61.5t57 -21.5z" />
    <glyph glyph-name="l_l" unicode="ll" horiz-adv-x="547" 
d="M610 115q0 -9 -33 -50q-14 -18 -27 -30q-27 -24 -73 -36q-28 -7 -35 -7q-3 0 -21 2.5t-26 2.5q-68 0 -98 53q-2 2 -5 6t-5 6q-8 -5 -25.5 -19.5t-33 -25t-27.5 -14.5q-3 0 -8.5 -3.5t-9.5 -3.5t-17 -2t-17 -2q-45 0 -69 10t-46 40.5t-28 58.5q-3 18 -3 69q0 208 108 441
q19 49 46.5 86.5t56.5 37.5q18 0 37 -7q17 -8 26 -24.5t10 -27.5t1 -30v-5q0 -81 -100 -274q-6 -11 -12.5 -23.5t-7.5 -13.5l-16 -27q-9 -15 -25 -40t-21 -32q-4 -8 -16 -41.5t-12 -41.5q-3 -13 9 -48.5t26 -37.5q8 -4 27 -4q4 0 8 2.5t7 2.5q34 6 64.5 29.5t49.5 55.5
q3 4 1 27q-2 28 -1 38q4 64 21 133q2 9 10.5 32.5t10.5 36.5q26 124 111 277q19 36 42 54q12 11 45 11q15 0 39 -22q5 -3 5 -22q0 -4 -3.5 -32.5t-3.5 -40.5q-26 -250 -124 -401q-2 -1 -3 -7t-2 -8q-20 -22 -38.5 -52t-18.5 -44q0 -38 16 -61q6 -9 20.5 -21t20.5 -12h19
q34 0 97 40q13 8 37.5 27t35.5 25q4 -4 4 -11zM458 559q-19 -36 -44 -110q-22 -66 -25 -111q22 32 37 84q27 76 32 137zM227 665q-72 -120 -105 -270q55 87 82.5 151t22.5 119zM242 688q12 -21 10.5 -53t-7.5 -57.5t-15 -46.5q12 15 22 44.5t9 63t-19 49.5zM133 13
q-35 9 -55.5 39.5t-26 71.5t-4.5 75.5t6 66.5q-30 -98 -5 -175.5t85 -77.5zM83 17q-64 45 -56 196q-10 -33 -9.5 -72.5t18.5 -76.5t47 -47zM234 673q10 -63 -24 -144q-1 -2 -1.5 -3.5t-1.5 -3.5q12 15 24 45t15.5 60.5t-12.5 45.5zM468 575q6 -32 -17.5 -110t-43.5 -126
q21 26 48.5 117t12.5 119zM482 604q7 -44 -13.5 -122.5t-38.5 -122.5q23 28 46 109.5t6 135.5z" />
    <glyph glyph-name="s_s" unicode="ss" horiz-adv-x="573" 
d="M552 383q0 -31 -15 -56t-30 -39.5t-15 -17.5q0 -1 23 -69t23 -95q0 -56 -32.5 -94.5t-81.5 -42.5q-20 -4 -24 -4h-30q-35 0 -52.5 23.5t-17.5 49.5q0 35 13 51q9 12 24 25.5t21 13.5q9 0 13.5 -7t5 -17.5t-0.5 -20t-2.5 -18.5t-1.5 -10q1 -10 14 -36q36 5 54 25.5
t18 45.5q0 26 -12.5 66.5t-24.5 58.5q-37 -17 -116 -38.5t-101 -30.5q12 -44 12 -84q0 -31 -10 -60q-4 -12 -26 -27.5t-34 -15.5q-63 -1 -104.5 52t-41.5 104q0 14 7 25.5t21.5 21t24.5 15t30.5 14t24.5 10.5q-1 2 -13 43t-22 83t-10 64q0 81 37 108q3 2 10.5 4t9.5 3
q20 10 33 10q62 0 100.5 -42.5t38.5 -99.5q0 -22 -15.5 -41t-36.5 -19q-20 0 -29 19.5t-10.5 45.5t-3.5 29q-7 16 -19 28.5t-25 9.5q-15 -17 -15 -54q0 -20 22 -90t29 -82q137 25 203 66q-3 12 -26.5 83t-23.5 87q0 27 18 43.5t43 16.5q43 0 96 -43t53 -90zM468 383
q-2 20 -26 39q12 -39 19 -56q0 1 2 3t3.5 5.5t1.5 8.5zM126 56v65q-29 -8 -45 -18q-1 -19 8 -40t30 -23q7 14 7 16zM271 343q24 54 -9 87q16 -36 9 -87zM441 227l-6 -4q35 -109 35 -149q0 -19 -5 -34q10 12 13.5 29t-1 39.5t-9 38.5t-14.5 43.5t-13 36.5zM190 113
q-6 41 -28 110q-3 10 -22 66.5t-25 82.5q-1 -30 33.5 -139t41.5 -120zM185 63q-6 45 -40.5 155t-40.5 134q12 -111 81 -289zM117 11q-49 12 -61 101q-6 -50 14 -79t47 -22zM102 -1q-22 6 -35.5 23.5t-17 34t-6 41.5t-4.5 32q-9 -44 6.5 -89t56.5 -42zM258 334q10 22 6.5 54
t-20.5 49q17 -38 14 -103zM450 234l-1 -1q7 -24 21 -58.5t19.5 -56.5t0.5 -41q7 12 7.5 27.5t-5 33t-11.5 33.5t-14 35t-12 32z" />
    <glyph glyph-name="i_e" unicode="ie" horiz-adv-x="506" 
d="M225 524q0 -11 -22 -19.5t-30 -8.5q-4 0 -18.5 3t-17.5 3q-12 0 -22 19.5t-10 26.5q0 4 16.5 18t21.5 14q14 0 48 -19t34 -37zM542 136q0 -7 -34 -43t-45 -43q-5 -3 -15.5 -11t-17.5 -13q-3 -3 -14.5 -6t-15.5 -5q-25 -15 -43 -15q-3 0 -15 -3t-15 -3q-19 0 -33 8
q-50 14 -65 48q-1 1 -5 1q-3 0 -11.5 -6.5t-20 -15.5t-17.5 -13q-16 -9 -41.5 -18.5t-36.5 -9.5q-3 0 -16 6t-19 8q-21 6 -35 20.5t-19 36t-6 35t-1 34.5q0 47 17 109q2 10 5.5 30.5t7.5 37.5t9 31q1 1 7.5 20t14.5 32t22 26q22 23 61 23q18 0 18 -24q0 -3 -5 -15.5
t-11.5 -29t-9.5 -24.5q-46 -128 -46 -233q0 -63 8 -63q16 0 57 35.5t49 51.5q3 7 7.5 39t9.5 47q0 2 3 7.5t4 8.5q7 39 59 124t93 85q5 0 25 -9q24 -8 39 -20q10 -10 19.5 -35t9.5 -36q0 -5 -20 -65q-15 -38 -63.5 -90.5t-100.5 -89.5q0 -53 41 -53q24 0 70.5 25t83.5 50
t39 25l14 -4q0 -1 2 -2.5t2 -5.5zM391 366q-64 -72 -89 -164q29 30 58 80t31 84zM422 356q0 28 -7 33q2 -79 -21 -119q28 27 28 86zM404 373q-1 -6 -2.5 -20.5t-3 -24t-5 -22.5t-9.5 -23q13 12 20 39.5t0 50.5zM302 21q-66 48 -46 199q-38 -166 46 -199zM284 18
q-39 27 -52 89q-6 -29 12.5 -59t39.5 -30zM93 354q-117 -243 -2 -339q-23 31 -34 66.5t-12.5 64t7.5 71t16.5 66.5t24.5 71zM62 324q-39 -68 -45 -158t35 -145q-23 41 -24.5 101.5t8.5 108t26 93.5z" />
    <glyph glyph-name="u_i" unicode="ui" horiz-adv-x="683" 
d="M668 546q0 -6 -9.5 -20t-18.5 -19q-22 -11 -49 -11h-12q-19 0 -30 18.5t-11 37.5q0 5 9.5 19t13.5 15q5 1 20 1h5q22 0 36 -1t30 -11t16 -29zM724 124q0 -4 -6 -10.5t-6 -10.5q-3 -30 -56 -71.5t-76 -41.5q-7 0 -28.5 7t-24.5 7q-18 2 -31.5 12t-21 20t-12.5 31
t-6.5 30.5t-3.5 35.5t-2 29q-8 -11 -37 -62t-53.5 -77t-53.5 -26q-24 0 -41.5 15t-26 38.5t-12 43t-4.5 37.5q-16 -19 -30 -44q-54 -90 -86 -90q-3 0 -10.5 -2t-11.5 -2q-37 0 -58 38t-21 70q0 71 31.5 189t61.5 141q5 2 21 2q3 0 9.5 -3.5t16.5 -9.5l15 -9q0 -1 2 -4t2 -8
t-24 -50q-13 -30 -19 -58t-10.5 -61t-7.5 -49t-8 -48l2 -32q11 11 25 31.5t24 36t27 44.5t23 38q5 9 17 28.5t22 37t18 33.5q4 8 17.5 39.5t19.5 44.5q6 1 26 1q13 0 50 -28q-3 -35 -31.5 -139t-28.5 -155q0 -11 5 -24q73 78 131 181q10 17 34 77t40 83q4 9 31 9q8 0 15 -9
q9 -3 12 -5q28 -24 28 -40q0 -2 -9 -25.5t-20 -55t-15 -48.5q-15 -62 -20 -141q0 -2 -2 -9.5t-2 -11.5q0 -13 4.5 -30.5t9.5 -22.5q40 13 53 22q12 8 40.5 29t46 33t20.5 12q5 0 10.5 -4.5t5.5 -8.5zM528 31q-33 42 -35 121q-14 -30 -3.5 -68.5t38.5 -52.5zM524 16
q-7 3 -12 7.5t-9.5 11t-7.5 10.5t-6 13.5t-4 13t-3 15t-2.5 13.5t-2 14.5t-1.5 13.5q-14 -33 0.5 -71.5t47.5 -40.5zM311 380q-20 -56 -32.5 -112.5t-15 -118t18.5 -91.5q-7 35 -8.5 67.5t3 68t8 57.5t13 66t13.5 63zM286 14q-13 22 -21 42.5t-11.5 34.5t-3 37t2 35.5
t6.5 45.5t8 52q-16 -37 -24 -83t1 -94.5t42 -69.5zM112 23q-15 8 -25 19t-15.5 18.5t-8.5 27t-3.5 25.5t-1 33.5t-0.5 33.5q-40 -135 54 -157zM89 7q-17 8 -29 22t-17.5 33t-7.5 36t0 40.5t3.5 37.5t5.5 35.5t5 26.5q-12 -26 -19.5 -59t-8.5 -70t16 -65.5t52 -36.5z" />
    <glyph glyph-name="t_t" unicode="tt" horiz-adv-x="636" 
d="M703 429q0 -8 -4 -13t-8 -7t-14 -5t-16 -6q-10 -4 -103 -14q-4 0 -40 -7t-53 -5q-7 -5 -12 -13.5t-7 -15t-6 -22.5t-7 -25q-3 -10 -6 -26.5t-7 -38t-6 -31.5q-11 -44 -11 -75q0 -24 10.5 -43t32.5 -19q25 0 61 24.5t63 48.5t30 24q7 0 12 -6t5 -12q0 -12 -22 -43
q6 -4 18 3q-49 -57 -88 -82.5t-80 -25.5h-20q-7 0 -27.5 6.5t-32.5 13.5q-19 11 -40 48q-2 3 -3 13t-4 13q-61 -101 -161 -101q-110 0 -110 156q0 83 30 188q-7 0 -12 -2t-8 -2q-23 0 -35.5 15.5t-12.5 33.5q0 15 14.5 27t28.5 12q4 0 4 -2t4 -2q35 0 43 20t25 74.5t36.5 98
t47.5 79.5q4 2 17 2q11 -9 31 -14q6 -8 8.5 -11t4.5 -6t2.5 -5t1 -3t0 -4t-0.5 -5q0 -5 -5.5 -20t-12 -29t-12.5 -27l-6 -13q0 -1 -11 -40q0 -2 -4 -8t-5 -10q-5 -13 -11 -47q12 -1 168 1q13 29 28.5 76.5t28.5 80t27 47.5q1 2 19.5 5t24.5 3q4 0 35 -14q5 -1 12 -10.5
t7 -14.5q0 -3 -5 -10t-12.5 -17t-11.5 -17q-11 -22 -26.5 -64t-20.5 -55q24 0 62 1t67 2t31 1q4 0 16.5 -3.5t19.5 -4.5q1 -2 7.5 -6t12.5 -4q4 -4 4 -11zM351 347v13q-118 2 -173 -10q-10 -19 -12 -30q-2 -4 -2.5 -13.5t-0.5 -10.5q-1 -6 -6.5 -18.5t-6.5 -17.5
q-5 -26 -10.5 -77.5t-5.5 -59.5q0 -9 1 -22.5t8 -32t18 -18.5q31 0 83.5 43t62.5 71q6 6 7 9q0 4 1 9l2 8l1 7q1 12 3.5 25.5t5.5 29t4 23.5q2 10 7 27t9 29.5t4 15.5zM210 593q-16 -9 -28.5 -36.5t-24.5 -68.5t-16 -52h15q26 105 54 157zM185 585q-13 -10 -23 -29.5
t-14.5 -34t-12 -46t-10.5 -40.5q4 -2 9 8.5t10.5 28.5t11.5 37.5t13.5 41t15.5 34.5zM363 382q-13 4 -100 4q-37 0 -77 -9q21 1 88.5 1t88.5 4zM430 362h-7q-14 -40 -25.5 -91.5t-15.5 -109t13 -84.5q-3 11 -4.5 22.5t-1.5 25.5v24l3 29l4 28l7 34l7 36l10 42zM406 361h-11
q-2 -9 -10.5 -40t-12 -46t-9.5 -44t-7 -47.5t-1 -41.5t5 -41.5t15 -33.5q-12 38 -9.5 85t8 71.5t16.5 67t16 70.5zM133 347l-10 -2q-50 -179 -22 -248q-7 41 7.5 132t24.5 118zM110 344l-11 -2q-1 -6 -10.5 -54t-14.5 -83.5t-2.5 -79t17.5 -64.5q-16 83 3 181z" />
    <glyph glyph-name=".notdef" horiz-adv-x="260" 
 />
    <glyph glyph-name=".notdef" horiz-adv-x="260" 
 />
    <glyph glyph-name=".null" horiz-adv-x="0" 
 />
    <glyph glyph-name="uni000D" unicode="&#xd;" horiz-adv-x="213" 
 />
    <glyph glyph-name="uni0009" unicode="&#x9;" horiz-adv-x="260" 
 />
    <glyph glyph-name="space" unicode=" " horiz-adv-x="260" 
 />
    <glyph glyph-name="exclam" unicode="!" horiz-adv-x="251" 
d="M265 682q0 -2 -12 -31.5t-28 -71t-24 -65.5q-8 -21 -18 -62q-29 -122 -21 -273q-15 -9 -19 -9q-27 0 -43.5 28.5t-20.5 53t-4 40.5q0 92 34 242t72 193q1 -1 1.5 -6t2.5 -6q1 1 4 5.5t6 5.5q1 -10 -19.5 -63.5t-24.5 -71.5q-44 -222 -44 -337q0 -29 3 -43q4 2 4 63v42
q3 22 11.5 78.5t13.5 87.5t15 78.5t24 88.5t33 80q6 -3 11 0q-18 -36 -51 -159t-28 -142q5 24 43.5 156.5t45.5 144.5q14 -5 24 -18.5t9 -28.5zM164 24q0 -7 -2 -13l-2 -6q-39 20 -67 63q17 17 30 17q28 0 41 -61zM153 -4q-2 -5 -10 -5q-38 28 -68 68q0 5 11 10
q5 -9 17.5 -22.5t28.5 -28.5zM136 -13q-24 -9 -53 13t-29 44q0 4 3.5 8.5t3.5 5.5q42 -46 75 -71z" />
    <glyph glyph-name="quotedbl" unicode="&#x22;" horiz-adv-x="238" 
d="M215 632q0 -2 -3 -8.5t-7 -14.5t-6 -13q-2 -7 -3 -23.5t-3 -24.5q-5 -22 -5 -45q0 -5 1 -20t1 -23q0 -4 -4.5 -9t-13.5 -5q-25 0 -36 35t-11 60q0 55 21 143q17 10 24 10q9 0 27 -18q18 -25 18 -44zM114 632q0 -2 -6 -15.5t-7 -20.5q-5 -8 -7 -48q-6 -20 -6 -45
q0 -7 1.5 -22.5t1.5 -20.5q0 -4 -4.5 -9t-13.5 -5q-25 0 -36.5 36t-11.5 59q0 67 22 143q13 10 24 10q9 0 27 -18q16 -22 16 -44zM49 498q-2 28 16 170q-15 -36 -21 -87t5 -83zM66 467q-4 49 13 180q-17 -18 -21.5 -84.5t8.5 -95.5z" />
    <glyph glyph-name="numbersign" unicode="#" horiz-adv-x="592" 
d="M539 376q-1 -20 -16 -29t-33 -9q-3 0 -23 2t-24 2q-23 0 -25 -1q-14 -12 -25 -48q-1 -4 -1 -18q7 -5 36 -4.5t46 -9.5q-12 -16 -84 -16q-118 0 -154 -5q0 -4 -3 -8q8 0 28.5 1t73.5 3.5t124 4.5h9q-12 -17 -75 -17q-3 0 -40.5 1.5t-41.5 1.5q-45 0 -66 -5h-4
q-4 -1 -7 -2.5t-5 -4.5l2 -1q22 3 92 3q17 0 62 0.5t75 0.5q-3 -11 -18 -16t-37 -8t-31 -6q-3 -17 -8 -63.5t-7 -57.5q-1 -5 -12.5 -15t-17.5 -10q-24 0 -29.5 52.5t-1.5 79.5q-3 3 -22 3q-29 0 -57 -10q-4 -1 -10 -21q-1 -7 -6 -28.5t-7 -33.5q-2 -16 2.5 -29t6.5 -18.5
t-5 -22.5q-4 -13 -22 -13q-12 0 -26 17q1 4 4 6q2 42 5.5 72t6 42.5t2.5 13.5q0 11 -4 11q-8 -27 -19 -140q-15 23 -11 75t-7 75q-21 0 -31.5 17.5t-9.5 38.5q17 9 39.5 15t29.5 13.5t7 29.5v3q-1 -1 -3 1q-18 -9 -31 -9q-20 0 -37 23.5t-17 38.5q0 19 26.5 31t55 19.5
t30.5 12.5q16 33 21 82q10 67 34 81h11v-11q0 -3 -29.5 -121t-29.5 -121v-12q1 -2 7 -2q5 22 22.5 109t38.5 154q3 2 7 -1.5t4 -9.5q0 -3 -28 -117t-28 -118l1 -11h2l57 240q30 -19 30 -35q0 -3 -5.5 -18.5t-14 -39.5t-11.5 -34q5 -2 31 -2q1 0 6.5 -0.5t10 -1t10 1t8.5 4.5
q6 7 12 21t12.5 35t9.5 30q17 60 42 60q12 0 33.5 -21.5t21.5 -32.5q0 -4 -17.5 -44.5t-17.5 -44.5t2 -7q2 4 13 4q21 0 53.5 -12.5t31.5 -35.5zM324 325v10h-35q-14 2 -36 -16q-2 -5 -5 -15t-5.5 -17t-2.5 -10v-15h19q13 0 46 10q20 48 19 53zM186 236l-4 1l-4 -7l4 -1z
M203 219l-3 1l-5 -7l5 -3zM180 216h-5l-3 -9l4 -1z" />
    <glyph glyph-name="dollar" unicode="$" horiz-adv-x="470" 
d="M446 511q0 -24 -3 -36q0 -5 -16.5 -30t-26.5 -25q-4 0 -5.5 -3t-5.5 -3q-22 0 -38 23.5t-16 38.5q0 3 27 51q-9 9 -49 9q-11 0 -35 -13q-2 -20 -6 -62t-6.5 -69t-2.5 -31q0 -22 3 -26q50 -53 71.5 -82t29.5 -63q4 -13 4 -52q0 -57 -102 -118q3 -33 11 -88q1 -6 5.5 -20.5
t4.5 -18.5q0 -12 -12 -24t-22 -12q-43 0 -56 59q0 3 1 16.5t-1 19.5q-2 36 -8 50h-8l-6 -7q-6 2 -12.5 2t-13.5 -1t-9 -1q-5 0 -11.5 3t-7.5 3q-62 0 -116 97q-7 18 -7 50q0 17 9 40.5t28 34.5q9 4 35 4q7 0 13 -16q3 -5 5 -15q0 -4 -9 -36.5t-9 -35.5q0 -16 16.5 -27
t30.5 -11q4 0 9.5 -1.5t9.5 -1.5q1 0 46 8v27q0 1 -1.5 19t-3.5 47.5t-2 56.5q0 3 4.5 42t-1.5 45q-1 2 -12 15t-24 30t-19 29q-25 49 -25 90q0 23 13 40t46 43t45 37q1 1 9.5 65.5t23.5 64.5q23 0 45 -24.5t22 -43.5q0 -4 -5.5 -20.5t-6.5 -23.5q7 -1 21 -1.5t23 -2.5
q1 0 6 -4t9 -3q29 2 61.5 -38t32.5 -70zM190 474q-15 -24 -3 -36q3 10 3 36zM290 187q0 19 -4.5 27t-27.5 31q-1 -16 -1 -35.5t0.5 -43t0.5 -35.5q32 18 32 56zM230 -106q9 11 -6 77q-10 35 -15 32q12 -72 21 -109zM320 229q-188 226 -159 333q-9 -22 -9.5 -47t6.5 -49
t17 -48t26 -48t31 -43.5t32.5 -39.5t29.5 -33zM337 149q1 21 -14 48t-32 46.5t-38.5 42t-25.5 27.5q-56 71 -87 156q2 -45 28.5 -91t58 -78.5t65 -74.5t45.5 -76zM91 73q-19 22 -29 45t-11.5 40t-1.5 48q-15 -26 -2.5 -74.5t44.5 -58.5zM249 -103q2 14 0.5 28t-7 45.5
t-6.5 43.5l-9 -4q12 -80 22 -113zM112 34q-69 42 -84 137q-12 -36 12 -78t72 -59zM397 551q2 -46 -4 -63.5t-33 -45.5q31 11 44 42t-7 67zM415 545q3 -16 3 -29t-1.5 -21.5t-6.5 -19t-8 -15t-11.5 -16t-12.5 -16.5q68 35 37 117z" />
    <glyph glyph-name="percent" unicode="%" horiz-adv-x="526" 
d="M229 440q0 -34 -33 -85.5t-70 -76.5q-8 -6 -25.5 -11t-24.5 -5q-31 0 -51.5 24t-20.5 51q0 54 54 143t97 89q28 0 41 -22q0 -10 0.5 -12t-3.5 -12t-5 -12q30 -28 35.5 -38t5.5 -33zM485 173q0 -18 -19 -82q-16 -39 -30 -56q-37 -37 -63 -37h-20q-32 0 -51 31t-19 56
q0 3 0.5 5t1.5 3.5t2 2.5t1 2q3 34 42 106.5t73 72.5q17 0 25 -10.5t6 -26.5q4 -4 14.5 -8.5t14.5 -7.5q9 -6 15.5 -22t6.5 -29zM419 169q0 14 -11 21q-10 -14 -29.5 -50t-19.5 -51v-25q19 3 39.5 43t20.5 62zM163 444q0 5 -8.5 12t-14.5 7q-5 0 -9.5 -5.5t-9 -13.5
t-7.5 -11q-11 -15 -24 -46t-13 -43v-15q24 5 55 51t31 64zM408 497q0 -15 -9 -34t-25.5 -44t-18.5 -29q-73 -139 -102 -189q-39 -66 -56 -103t-25 -80q-1 -7 -15.5 -16t-20.5 -9q-15 0 -23 16t-8 27q0 23 16 55q62 132 117 238q7 14 26.5 47t27.5 48q6 10 16 32t21.5 42
t26.5 37q2 -21 -6 -37q-122 -271 -222 -443q31 12 242 468q6 6 12 6q-2 -13 -12 -35q-54 -120 -87 -190q-1 -3 3 -7q15 27 51.5 109.5t60.5 122.5q12 -12 10 -32zM205 439q0 19 -14 49q18 -79 -35 -146q49 43 49 97zM182 447q0 16 -4 27q-5 -4 -6.5 -6.5t-1.5 -4.5t1 -9
t0 -16q-2 -54 -67 -126q78 68 78 135zM431 170q-5 -13 -13 -42t-17.5 -47t-29.5 -36q27 3 45.5 49.5t14.5 75.5zM438 149l-3 -12q-11 -49 -26 -70q-5 -7 -13 -16q21 6 33 34t9 64z" />
    <glyph glyph-name="ampersand" unicode="&#x26;" horiz-adv-x="593" 
d="M544 -71q0 -19 -11 -30.5t-31 -11.5q-26 0 -43 10q-7 4 -22.5 20.5t-23.5 21.5q-3 2 -14 7.5t-16 9.5q-9 9 -26 27.5t-29.5 31.5t-15.5 13t-12 -6t-21.5 -14t-19.5 -11q-32 -16 -83 -16q-54 0 -93.5 39t-39.5 90q0 40 22.5 86t49.5 78.5t49.5 62t22.5 39.5q0 2 -2.5 13
t-3.5 16q-12 74 -12 136q0 153 99 153q47 0 96 -37.5t49 -86.5q0 -33 -31 -92t-62 -106t-31 -51q0 -25 16.5 -76.5t29.5 -78.5q74 65 112 204q4 16 4 31q2 -5 -9 -91q6 15 11.5 48.5t5.5 46.5l13 3l-19 -138l14 44q16 65 10 94q8 0 14 4q2 -19 3 -29.5t-5 -32.5t-9.5 -33
t-11 -32t-10.5 -30q14 17 30.5 65t13.5 88q1 2 5.5 5.5t5.5 4.5q17 -15 17 -34q0 -45 -44 -143t-77 -127q-3 -3 -12.5 -17t-16.5 -21q1 -7 35.5 -42t49.5 -35q3 0 10.5 4t11.5 4q21 0 39 -30.5t18 -47.5zM322 600v2q0 6 -0.5 8t-4 4.5t-11.5 2.5q-19 0 -31 -27.5t-12 -45.5
q0 -32 7 -74q2 4 10 19.5t14 27.5t13 28t11 30.5t4 24.5zM241 317q-16 102 -22 249q-11 -47 -0.5 -132t22.5 -117zM319 123q-30 68 -48 155t-24 151.5t-12 175.5q-10 -126 13 -256.5t71 -225.5zM292 140q-6 33 -49 157q-1 -28 18.5 -84t30.5 -73zM265 104q-40 103 -50 135
q-2 -4 -27.5 -40.5t-39.5 -64t-14 -46.5v-27q4 -4 24 -4q22 0 57 15.5t50 31.5zM142 217q-82 -135 -4 -195q-25 20 -27.5 60.5t7.5 72.5t24 62zM101 28q-21 57 2 139q-43 -77 -2 -139z" />
    <glyph glyph-name="quotesingle" unicode="'" horiz-adv-x="145" 
d="M115 598q0 -3 -6.5 -16.5t-7.5 -18.5q-3 -9 -4.5 -26t-2.5 -22q-5 -19 -5 -46q0 -5 1 -20t1 -24q0 -1 -1 -4t-5.5 -6t-11.5 -3q-24 0 -36 35.5t-12 58.5q0 46 22 143q8 10 25 10q13 0 26 -18q17 -12 17 -43zM44 473q-2 25 16 165q-15 -36 -21 -86.5t5 -78.5zM61 437
q-4 49 13 180q-17 -18 -21.5 -84.5t8.5 -95.5z" />
    <glyph glyph-name="parenleft" unicode="(" horiz-adv-x="323" 
d="M299 671q0 -7 -8 -20q-4 -4 -21.5 -15.5t-25.5 -22.5q-31 -41 -35 -48q-120 -217 -120 -390q0 -37 23.5 -109.5t47.5 -84.5q24 -13 90 -16q11 -5 11 -19q0 -20 -28 -29.5t-47 -9.5q-4 0 -9 3t-7 3q-70 18 -111.5 89.5t-51.5 148.5q-1 11 -3.5 36t-2.5 29q0 81 35 205
q3 18 37.5 92.5t84.5 149t81 74.5q15 0 38 -23q22 -27 22 -43zM179 631q-31 -59 -59 -141t-46.5 -176.5t-7 -184t58.5 -141.5q-40 61 -49.5 149.5t7.5 180t41.5 168.5t54.5 145zM102 -13q-53 92 -53 203t31 255q-97 -306 22 -458z" />
    <glyph glyph-name="parenright" unicode=")" horiz-adv-x="357" 
d="M300 377q0 -107 -56 -249q-5 -13 -21 -38t-21 -35q-23 -38 -39 -61t-44 -48t-58 -35q-24 -8 -37 -11q-10 10 -10 25q0 13 31 56q33 46 69 106q100 167 100 310q0 64 -17 120.5t-38 88t-38 59.5t-17 42q0 6 14.5 17.5t20.5 11.5q15 0 29 -13q20 -13 37.5 -46.5t25.5 -59.5
q2 -4 15.5 -25.5t18.5 -33.5q12 -32 23.5 -88.5t11.5 -92.5zM130 -18q31 59 59 141t46.5 176.5t7 184t-58.5 141.5q40 -61 49.5 -149.5t-7.5 -180t-41.5 -168.5t-54.5 -145zM207 626q53 -92 53 -203t-31 -255q97 306 -22 458z" />
    <glyph glyph-name="asterisk" unicode="*" horiz-adv-x="360" 
d="M377 589q-3 -4 -6 -6t-8.5 -3t-10.5 -1.5t-16.5 -1t-23.5 -0.5h-34l-44 -1q-1 0 -5.5 -0.5t-8.5 -2.5l5 -4q3 1 34 1.5t67 1t44 1.5q-3 -8 -10 -15q-25 -3 -80 -5t-66 -3l8 -45l7 -45l3 -21q0 -5 -7 -15t-11 -9q-12 2 -20.5 12t-12 20t-8.5 26t-7 21q0 -1 -10 -16
l-22 -28l-21 -28l-15 -13q-10 0 -22 15t-12 23q0 7 53 86q-1 2 -7 2q-3 0 -15 -6t-16 -6q-13 0 -29 24.5t-11 36.5q22 15 105 21q2 22 -12 96q4 16 18 20q3 -17 11 -54t11 -54h2q-1 13 -15 104l5 2q2 1 3.5 -2.5t2.5 -10.5t2 -16t2.5 -20t2.5 -21t2.5 -20t3.5 -17q5 3 5 7
q0 13 -14 97q9 -7 12.5 -17t6 -29.5t3.5 -23.5q10 9 20 21.5t25.5 34.5t18.5 26q5 9 17 9q13 0 25 -17.5t12 -26.5q0 -8 -10.5 -23t-26 -32t-16.5 -19q12 -4 55 -7.5t54 -14.5q-25 -5 -145 -5q-5 0 -8 -4q41 -1 160 1zM212 454q3 44 -11 95q-5 16 -2 -5q5 -50 13 -90z
M147 586h-27h-18h-12l-10 -2l-10 -5q70 -1 77 7zM206 448q-1 35 -11 68q-2 7 -3 5q-3 -10 10 -60q2 -10 4 -13zM146 566l3 6l-81 -4v-5z" />
    <glyph glyph-name="plus" unicode="+" horiz-adv-x="428" 
d="M372 387q0 -10 -10.5 -23.5t-20.5 -14.5q-13 -2 -67 -5.5t-82 -13.5q-4 -1 -17 -39q-5 -13 -9 -30.5t-5.5 -31t-4.5 -36.5t-5 -35q-11 9 -11 15t5.5 49t10.5 64q4 22 5 34q-4 0 -7 -5l-3 -5q-1 -6 -19 -151q-9 9 -9 15q0 1 18 142q-1 0 -3 -2l-2 -4l-3 -3
q-14 -111 -16 -140q-8 7 -17.5 27t-9.5 31q0 13 12 83q-1 2 -6 2q-4 0 -13 -4.5t-11 -4.5q-17 0 -36 24t-19 37t12 20q9 5 65 19q3 0 9 -0.5t10.5 0t6.5 3.5q16 23 35 88t27 85h9q17 0 37 -23t20 -35q0 -3 -5 -18.5t-13.5 -39.5t-12.5 -37q5 -1 48 -2t75 -8.5t32 -26.5z
M193 553q-5 -5 -18 -50t-10 -55q5 6 16 49t12 56zM215 526q-4 -14 -17 -55.5t-16 -53.5q1 0 5.5 1t6.5 1q1 13 8.5 38.5t12 44.5t0.5 24zM208 538q0 5 -5 10q-21 -78 -39 -135q8 1 26 59t18 66z" />
    <glyph glyph-name="comma" unicode="," horiz-adv-x="144" 
d="M140 -12q0 -38 -29.5 -82.5t-61.5 -44.5q-4 0 -9 -2t-9 -2q-14 0 -14 17q0 7 18.5 35t29.5 41q14 28 14 56q0 4 -3.5 17.5t-3 24t9.5 17.5q35 2 46.5 -21t11.5 -56zM90 30q6 -36 -6.5 -76.5t-42.5 -70.5q28 -2 47 56t2 91z" />
    <glyph glyph-name="hyphen" unicode="-" horiz-adv-x="468" 
d="M395 288q-16 -1 -41 -1t-45 1t-37.5 1.5t-18.5 0.5t-17 -1t-24 -1q-50 0 -73 -1q-7 -1 -27.5 -4.5t-23.5 -3.5h-17q0 1 -2 6t-2 10q0 15 10.5 22t22 7t31.5 -1t28 -1q27 -1 67 1t71 4t32 2q60 0 66 -41zM395 279q0 -2 -2 -7.5t-2 -6.5q-133 2 -200 0q-67 -4 -114 -5l-4 6
q35 13 280 13h42zM387 258q-9 -12 -17 -12h-119q-4 0 -74 -7t-73 -7q-12 0 -23 15q9 4 82 9t90 5q3 0 47 -1.5t47 -1.5h40z" />
    <glyph glyph-name="period" unicode="." horiz-adv-x="151" 
d="M24 64q3 16 17 18q42 -61 49 -81q-9 -5 -19 -2q-19 4 -33 24.5t-14 40.5zM50 83q1 2 4 3t6 1t3 -1q19 -21 44 -77q0 -4 -13 -7q-3 10 -10.5 23.5t-18.5 32t-15 25.5zM71 86q43 -11 43 -62q0 -1 -4 -13q-4 7 -17 36t-22 39z" />
    <glyph glyph-name="slash" unicode="/" horiz-adv-x="420" 
d="M398 656q0 -10 -63 -141q-9 -19 -91.5 -187t-122.5 -258q-3 -7 -5.5 -42.5t-15.5 -63.5q-18 -6 -53 8.5t-35 45.5q0 13 46 117q154 344 254 572q1 4 7 11t10 7q4 -3 -16 -52t-41.5 -100.5t-20.5 -58.5q2 1 47 105t49 106q1 -10 -4 -25.5t-13.5 -35t-10.5 -26.5
q-3 -9 -8.5 -27.5t-9 -30.5t-10 -27.5t-13.5 -27.5q-46 -83 -110 -234t-79 -180q-3 -10 -2 -12q29 47 66.5 141t44.5 109q10 22 43 86t46 93q6 13 32.5 85.5t47.5 105.5q5 -3 8 -3q-4 -11 -17 -37.5t-17 -36.5q-7 -17 -20 -58t-22 -63q-6 -12 -39 -75t-48 -98
q-19 -43 -80 -202v-4q11 13 14 20q10 23 36.5 91t35.5 88q14 32 46.5 93t46.5 92q8 18 17.5 49.5t22.5 61t36 62.5q5 -2 8.5 -16t2.5 -27z" />
    <glyph glyph-name="zero" unicode="0" horiz-adv-x="404" 
d="M365 302q0 -4 -4.5 -22.5t-5.5 -26.5q-4 0 -8 -2q0 -8 5 -10q-4 -25 -10 -44q0 -2 1 -5t0 -5q-2 -19 -15 -39q-5 0 -8 -3q-3 -6 -9.5 -22t-11.5 -26t-14.5 -24t-20.5 -24q-4 -4 -12.5 -8.5t-13 -8.5t-3.5 -9q-9 -9 -30.5 -16t-36.5 -7h-20q-27 0 -64 22.5t-48 53.5
q-1 3 -7 9q-28 61 -28 129q0 23 13 97q6 23 22 62t41.5 88.5t61 84t70.5 34.5q11 0 32 -12t29 -23q3 -4 6 -14.5t5 -13.5q-6 4 -9 1q2 -9 21 -21q4 -2 11 -4.5t9 -4.5q3 -2 11.5 -11t15.5 -13q-5 -4 -4 -8q6 -3 13 -19q1 -1 2.5 -9t6.5 -12q0 -4 -2 -18t0 -20q6 -15 6.5 -25
t-1.5 -20t-2 -16q0 -1 3 -6t3 -9zM290 353q0 33 -9.5 71.5t-32.5 38.5q-12 0 -16 -5q-3 -1 -6 -5.5t-6 -4.5h-21q-4 0 -7 4t-6 4h-13q-5 -3 -3 -10q-29 -39 -55 -104.5t-33 -102.5q-5 -20 -5 -58q0 -23 1 -30q1 -4 5 -15t6.5 -16.5t7.5 -14.5t9.5 -13.5t12.5 -8t18 -3.5
q37 0 68 30t48.5 74t27 88.5t9.5 80.5zM265 478q13 -16 21 -31.5t12.5 -33t6 -28.5t3.5 -33t3 -32q24 126 -46 158zM217 541q-96 -91 -140.5 -220.5t0.5 -237.5q-35 99 8 226t132 232zM186 534q-52 -39 -94.5 -118t-56 -171t27.5 -171q-32 70 -19.5 154.5t49.5 161t93 144.5
zM285 484q6 -5 11.5 -11t9 -10.5t6.5 -13t5 -12t4 -14.5t3 -15l2 -17l3 -18q14 31 1 64t-45 47z" />
    <glyph glyph-name="one" unicode="1" horiz-adv-x="274" 
d="M243 515q0 -2 -8.5 -25.5t-10.5 -39.5q-15 -108 -23 -146q-2 -8 -4 -34t-4 -36q-7 -38 -15 -60q-3 -6 -6 -44q-13 -20 -13 -39q0 -3 1.5 -15.5t4.5 -36t5 -38.5q-1 0 -6 -2t-8 -2q-4 0 -6.5 6t-7.5 6q-4 0 -5.5 -1t-3.5 -1q-6 8 -6 42q0 17 19 150q30 213 46 305
q2 12 2 14q-2 20 -6 20q-1 -9 -5 -27t-5 -26q-11 -70 -65 -478q-12 7 -12 27q0 27 12 97q7 43 60 411q2 6 -1 10q-3 0 -8 -8q-5 -28 -9.5 -60.5t-9.5 -71.5t-8 -61q-3 -20 -15.5 -99t-21 -144.5t-6.5 -93.5q-7 1 -12 18.5t-5 27.5q0 2 5 28.5t11.5 63t9.5 56.5
q24 195 24 225q0 14 -2 20q-52 -31 -62 -31q-16 0 -28 7q-8 3 -21 14q0 1 17.5 14t35.5 25.5t19 13.5q-1 5 -20.5 -7.5t-39.5 -25t-22 -8.5q3 7 22.5 20t45.5 29t34 21q3 4 -4 4q-3 0 -44.5 -26.5t-45.5 -26.5q-3 0 -7 2.5t-6 2.5q17 10 48.5 30t39.5 25l8 6q8 6 18 14
t22 15.5t23 13t17 5.5q23 0 46 -27.5t22 -47.5z" />
    <glyph glyph-name="two" unicode="2" horiz-adv-x="409" 
d="M369 483q0 -69 -79.5 -197t-140.5 -194q18 1 51.5 4.5t59.5 7t28 3.5t22.5 -6.5t25.5 -9.5q-4 0 -89.5 -8t-122.5 -14q8 -1 37 -2t36 0q19 1 51 4.5t55 6t26 2.5h13q6 -6 6 -10q-33 -6 -112 -11t-94 -7q6 -3 63 -3q3 0 61 5.5t62 5.5q10 0 13 -9.5t12 -9.5
q-5 -2 -15.5 -6t-18 -7t-10.5 -3t-13 1t-13 1t-102 -23t-103 -23q-20 0 -35 10q-13 9 -29.5 25t-16.5 21q0 3 17 25t43 55t38 49q7 9 19.5 33t17.5 31q2 4 14.5 16t16.5 19q112 187 112 229q0 6 -1.5 9t-3 3.5t-5.5 -0.5h-4q-37 0 -91.5 -48t-36.5 -83q-14 -7 -32 -7
q-24 0 -28 5q-7 7 -32 43q-1 2 -1 9q0 21 10 37q21 31 72.5 74t77.5 44q4 0 13.5 2t14.5 2q-32 -11 -68.5 -42t-47.5 -59q101 101 143 101q43 0 78.5 -30t35.5 -71zM308 538q17 -53 6 -112q20 23 18.5 56t-24.5 56zM248 561q-24 2 -69.5 -30.5t-46.5 -53.5q18 20 55 46
t61 38zM286 524q13 -30 14.5 -46.5t-5.5 -43.5q18 10 16.5 43t-25.5 47z" />
    <glyph glyph-name="three" unicode="3" horiz-adv-x="376" 
d="M345 458q0 -27 -27 -65.5t-53 -60.5q-12 -10 -32.5 -22.5t-28.5 -18.5q0 -1 5 -6q40 -20 61.5 -55.5t21.5 -68.5q0 -42 -45.5 -96.5t-87.5 -62.5q-2 0 -8.5 -5.5t-10.5 -5.5q-3 0 -13 6t-14 6h-9q-4 0 -4 -1q0 -2 -5 -2q-3 0 -3 2t-1 2.5t-3 0.5q-4 0 -4 -1t-3 -1
q-4 0 -6.5 2t-5 5t-3.5 4q53 -6 100 32q2 7 1 10q-13 -15 -37.5 -24t-48.5 -9q-36 0 -46 23q37 -8 49 -8q52 0 75 28q-2 0 -31 -10.5t-47 -11.5q-23 0 -49 12q-3 2 -3 16q0 5 -10 5v9q0 5 12.5 18.5t20.5 16.5q6 3 21 6.5t19 4.5q1 -4 3.5 -10t4 -10.5t1.5 -7.5t-7 -12.5
t-7 -13.5v-18q3 -2 6 -2q26 0 72.5 52t48.5 73v28q-18 6 -38 6q-3 0 -31 -7.5t-32 -7.5q-3 0 -19.5 7.5t-20.5 7.5t-7 -1l-2 -1q1 2 -1 14q-3 3 -12.5 7.5t-12.5 10.5q-3 4 -3 22q0 12 11 20q31 14 62 34q22 15 85.5 77.5t63.5 83.5q0 5 -3.5 7t-7.5 1h-3q-51 0 -95 -21
q-11 -5 -24 -14t-23.5 -18.5t-20 -17.5t-14.5 -13l-6 -6q-10 0 -28 9q-3 2 -6 9.5t-6 9.5q-12 0 -21 9t-9 18q0 25 36 51.5t68.5 41t40.5 15.5q63 9 76 9q92 0 113 -58q-8 13 -34 26t-45 12q-11 0 -19 -1t-15 -3l-11 -3l-11 -5l-12 -4q4 -3 17 -1q28 8 46 8q28 0 66.5 -25
t38.5 -62zM333 470q-6 25 -37 44t-56 19q-13 0 -25 -3t-31 -10t-24 -9q8 1 34.5 6.5t42.5 5.5q49 0 96 -53zM263 187q4 28 -12.5 47.5t-40.5 25.5q40 -29 53 -73zM251 149q7 22 -4.5 50.5t-35.5 40.5q7 -7 12.5 -15t10 -20t6.5 -17.5t6.5 -21.5t4.5 -17z" />
    <glyph glyph-name="four" unicode="4" horiz-adv-x="454" 
d="M406 156q-41 -4 -94 -4q-5 -20 -5 -48q0 -20 2 -33t4.5 -19.5t10 -23t13.5 -30.5v-14q-49 18 -55 18q0 -3 -6 -3q-5 0 -16 11q-13 15 -21 54q-7 24 -7 81q-1 1 -12 1q-5 0 -77 -15t-75 -15q-10 0 -63 44q-7 4 -7 16q0 16 14 30q13 16 36.5 50t36.5 49q15 15 36.5 47
t35.5 49q6 6 23 21t24 22q1 1 4.5 10.5t6.5 13.5q32 53 81 116q2 2 18 2q11 0 39.5 -36t28.5 -47q0 -3 -4 -12.5t-9 -21.5t-7 -18l-18 -69q0 -1 -0.5 -3t-0.5 -3.5t-0.5 -3t-1.5 -2.5q-3 -15 -9.5 -51.5t-11 -59.5t-4.5 -26v-18q5 -2 23.5 -0.5t26.5 -3.5q18 -8 40 -55z
M262 371v13q-108 -126 -147 -180q64 10 119 10q8 54 11 60q-1 26 6 60q1 2 3 5t4 4q0 6 2 15t2 13zM346 455q1 1 -1.5 3t-4.5 4l-3 1q-4 -50 -15 -87q0 -1 -4 -20.5t-8 -38.5t-9 -52t-8.5 -64t-5.5 -70t-1 -75q13 173 60 399zM273 494q-27 -38 -99.5 -138t-107.5 -152
q1 -2 4 -2.5t5 0.5h2q72 109 110 157q81 99 86 135zM263 437q-18 -25 -59.5 -77t-70 -91.5t-36.5 -64.5q28 40 88 115t74 93q4 4 4 25zM327 461q-1 -2 -7 -20t-11.5 -35.5t-13.5 -51t-12 -66.5t-7.5 -82.5t0.5 -98.5q1 49 7 99.5t10 76.5t17 91.5t17 86.5z" />
    <glyph glyph-name="five" unicode="5" horiz-adv-x="418" 
d="M411 532q0 -10 -3 -14h-124q-5 0 -35 -6h-17h-19l-18 -4l-15 -7l2 -3q64 11 108 11h110q-40 -20 -43 -20q-4 0 -6 1t-5 1t-17 -1.5t-33 -3.5t-30 -3t-42 -1h-46q-22 -64 -31 -97q28 -11 41 -11q4 0 5.5 2t4.5 2q21 0 53 -29t42 -54q15 -49 15 -80q0 -13 -0.5 -22
t-4 -20.5t-5 -16t-8 -21.5t-9.5 -24q-9 -26 -48 -74q-4 -4 -19 -18.5t-19 -20.5q-11 -2 -38 -2t-37 2q-1 1 -26.5 17t-36.5 38q-6 11 -6 37q0 9 5 15t16.5 14.5t17.5 14.5q36 -36 31 -69q2 -2 7 -2q13 0 36.5 34.5t31.5 49.5q25 48 25 101q0 28 -11 40.5t-37 12.5
q-13 0 -29.5 -14t-31.5 -33t-18 -22q-8 -8 -23 -14.5t-22 -6.5q-18 0 -37.5 21t-19.5 36q0 5 27 65t48 102q0 1 -1 5.5t0 6.5q18 38 20 58q2 11 27 83q11 -2 31 -8l35 -10l18 -5l75 9l76 9q5 0 14 -5t16 -11l18 -14l12 -10q-140 -2 -213 -15v-3q18 1 55.5 4t44.5 3h116z
M209 353q-27 10 -63 3t-48 -23q51 20 111 20zM227 326q-41 20 -102.5 -0.5t-92.5 -58.5q41 32 95 48t100 11zM78 325q-21 -4 -40 -21.5t-24 -26.5q7 5 32.5 24.5t31.5 23.5zM217 107q-21 -38 -50 -63t-54 -20q25 -18 56 10t48 73zM184 90q-42 -60 -91 -45q24 -21 50 -6
t41 51z" />
    <glyph glyph-name="six" unicode="6" horiz-adv-x="383" 
d="M362 232q0 -52 -34.5 -111t-94.5 -93q-13 -7 -39 -18t-31 -11q-40 0 -66.5 5.5t-53.5 32t-37 75.5q-5 20 -5 49q0 15 5 39t14 58.5t12 48.5q26 88 148 246q42 52 44 54q5 5 20 5q20 0 41 -18.5t21 -35.5q0 -7 -13.5 -26t-21.5 -27q-6 -5 -22 -11t-22 -12
q-21 -19 -55.5 -73.5t-41.5 -82.5v-3q57 37 127 37q8 0 30 -11.5t26 -17.5q29 -26 39 -46.5t10 -52.5zM290 262q0 34 -20 34q-28 0 -54 -13l-6 -3l-6 -4q-23 0 -76.5 -52t-53.5 -84q0 -54 12 -68q2 0 10 -2t12 -2q65 0 123.5 65.5t58.5 128.5zM318 261q3 -30 -4 -62t-19 -50
q22 15 28.5 48t-5.5 64zM299 278q13 -71 -38 -140q35 20 47.5 71.5t-9.5 68.5zM231 577q-102 -88 -162 -218t-46 -257q4 134 58 255.5t150 219.5zM194 503q-162 -159 -162 -411q0 -20 8 -34q-5 250 154 445z" />
    <glyph glyph-name="seven" unicode="7" horiz-adv-x="405" 
d="M436 277v-16q-30 -7 -37 -7q-3 0 -11 3t-12 3t-11.5 -3t-11.5 -3q-1 6 -7 6q-2 -6 -7 -6h-18q-1 0 -5 0.5t-10.5 -1.5t-9.5 -5q-6 -5 -13 -6l-7 -8q-8 -30 -66 -189q0 -8 -9 -13q0 -1 1.5 -5t1.5 -8q0 -1 -2 -11t1 -11q7 -19 -6 -35q-3 1 -10 5.5t-10 5.5q-11 4 -17 6.5
t-11.5 4.5t-8 4.5t-5 3.5t-3 4.5t-0.5 4.5v7v8q0 25 3 36q23 72 48 144q15 30 15 33v4q-1 -1 -3 1q-70 -16 -109 -16q-4 0 -16 6.5t-16 6.5q-6 13 -16 23q-1 1 -8.5 4.5t-11.5 8.5q0 1 -2 4.5t-2 8.5v16q8 4 23 4q3 0 38.5 1t39.5 1q1 0 44 8q13 3 25.5 1t24 -0.5t14.5 9.5
q9 25 17 67t8 51q0 20 -9 67q-2 3 -14.5 7t-17.5 4q-36 0 -106.5 -38t-83.5 -73q-7 2 -16 9t-10 8q3 2 0 6q-3 3 -13.5 12.5t-15.5 16.5t-5 12q0 23 43 51.5t54 28.5q14 12 30 18q2 1 10.5 6t13.5 7q38 11 73 11q5 0 12.5 0.5t11.5 0.5t11 -1.5t13 -4t15.5 -7.5t21.5 -13
q3 -2 11 -14.5t11 -15.5q19 -19 27.5 -40.5t9.5 -33t1 -36.5v-12v-10v-8l-1 -8l-1 -10l-3 -13l-3 -15l-6 -24q38 -2 40 -2q10 1 43 -2q4 0 22.5 -20.5t18.5 -24.5zM236 555q-114 31 -216 -41q55 29 102.5 36.5t113.5 4.5zM257 531q-31 16 -79 16t-97.5 -18.5t-62.5 -46.5
q47 30 88.5 43t75.5 12t75 -6zM281 431q1 -22 -7.5 -65t-9.5 -52q33 74 17 117zM218 235q-7 -7 -36.5 -93.5t-29.5 -92.5q0 -1 5 -11q6 20 24 73q42 125 37 124zM221 189q-2 5 -11 -20q-30 -77 -43 -140q-2 -10 -1 -12q5 8 31.5 86.5t23.5 85.5zM265 459q1 -22 -9.5 -79
t-11.5 -66q44 99 21 145z" />
    <glyph glyph-name="eight" unicode="8" horiz-adv-x="362" 
d="M342 466q0 -43 -22 -94.5t-44 -86.5t-22 -37q0 -3 10 -22.5t19.5 -48.5t9.5 -56q0 -11 -7 -39q-1 -3 -2.5 -10.5t-3 -13t-3.5 -6.5q-19 -19 -53 -37.5t-56 -18.5q-21 0 -56 11t-52 24q-16 12 -38 60q-14 25 -20 52q0 4 1 13t1 13q-5 20 -5 28q0 4 0.5 9.5t0.5 8.5
q2 46 31 85q2 3 8.5 13.5t13 19t13.5 14.5q17 15 38 29q2 -2 3 -2q2 0 2 2q-13 16 -22 42t-7 43q-9 31 -9 61q0 4 1.5 8t1.5 6q0 10 -1 12q0 19 13 34q5 7 40 23q3 1 11 6t13 7q25 5 47 5q5 0 35 -11.5t49 -21.5q28 -15 44.5 -54t16.5 -70zM239 474q0 79 -40 79
q-35 0 -35 -77q0 -14 9.5 -43t22.5 -63l14 -33q10 14 19.5 60.5t9.5 76.5zM197 112q0 27 -19.5 81t-26.5 85q-1 3 -7 14.5t-8 17.5q-41 -79 -41 -125q0 -26 14.5 -80.5t42.5 -54.5q19 0 32 20.5t13 41.5zM231 579q59 -41 48 -106q20 26 1 65t-49 41zM226 562q25 -29 40 -100
q12 57 -32 95zM244 140q-2 49 -32.5 124.5t-58.5 140.5t-27 92q-11 -26 17.5 -96.5t62.5 -159.5t33 -149q7 17 5 48zM224 130q-1 44 -22.5 101t-45 103.5t-39 110t-7.5 122.5q-18 -53 -4 -117.5t38 -111.5t47 -110t23 -113q0 -40 -8 -68q17 48 18 83zM99 57q-10 6 -18 15
t-12.5 17t-8.5 20.5t-5 18.5t-3.5 19.5t-2.5 15.5q-11 -32 5.5 -68.5t44.5 -37.5zM87 41q-8 5 -14.5 11t-11.5 14t-9 15t-7 17t-5 16.5t-3.5 17t-2.5 15t-2 14.5t-1 12q-11 -52 7.5 -91t48.5 -41z" />
    <glyph glyph-name="nine" unicode="9" horiz-adv-x="383" 
d="M356 435q0 -47 -22 -116.5t-42 -112.5q-2 -3 -3 -10.5t-2 -10.5q-6 -16 -17.5 -35t-30.5 -48l-25 -37q-1 -2 -8 -12t-10 -13.5t-10 -13.5t-11 -14.5t-11 -12.5t-13 -12t-12.5 -8.5t-13.5 -6.5t-13 -2q-3 0 -8 2.5t-11 6.5t-9 5q-4 2 -13.5 13t-14.5 14v3q0 2 2 4l16 12
l16 14l14 15l14 17l12 16l14 16l11 16q16 22 32.5 57t16.5 43q0 2 -6 6h-5q-6 0 -6 -2v-3q-14 -7 -42 -7q-43 0 -97.5 41t-54.5 86q0 95 96 197q3 8 2 10q11 11 33.5 25.5t29.5 24.5q1 0 9.5 -1.5t14.5 -1.5l6 6q8 -6 24 -6q4 0 7.5 1.5t7.5 1.5q6 -1 18 -7.5t23 -4.5
q0 1 1 -1q1 -1 1 -2q15 5 38 -15.5t27 -37.5q3 -9 8 -22t7 -20t5 -17t4 -19.5t1 -20.5zM266 446q0 22 -10 59t-27 37q-8 0 -13 -5q-46 -14 -91 -82.5t-45 -112.5q0 -46 56 -46q4 0 18.5 1t17.5 1q15 0 33 11q34 16 42 30q19 28 19 107zM325 424q0 61 -33 98q22 -65 21 -103
q-2 -39 -22 -121l19 48q15 46 15 78zM300 415q0 66 -33 126q23 -72 23 -126q0 -43 -22.5 -104.5t-41.5 -88.5q31 41 52.5 94t21.5 99zM151 539q-73 -51 -104.5 -105t-9.5 -123q-6 60 14.5 106.5t99.5 121.5zM119 480q-76 -59 -68 -156q14 84 68 156z" />
    <glyph glyph-name="colon" unicode=":" horiz-adv-x="185" 
d="M143 328q0 -15 -10 -32.5t-25 -17.5q-10 0 -20 5q-11 2 -30.5 31.5t-19.5 40.5q0 16 10 24.5t23 8.5q19 0 45.5 -21.5t26.5 -38.5zM113 46q0 -47 -33 -47q-19 0 -36 13q-11 10 -17.5 28.5t-6.5 27.5q0 10 18.5 23t27.5 13q6 0 19 -10q18 -10 27 -29q1 -2 1 -19zM59 375
q5 -2 15 -6.5t12.5 -6t9 -5t10.5 -8t10 -11.5t14 -18q-9 25 -21.5 37.5t-22 14.5t-27.5 3zM51 88q9 -1 16 -4.5t12.5 -9.5t8 -10t7 -12.5t5.5 -11.5q2 24 -13 39.5t-36 8.5zM49 78q14 -8 22 -18t10.5 -16.5t7.5 -22.5q7 17 -4.5 35t-35.5 22z" />
    <glyph glyph-name="semicolon" unicode=";" horiz-adv-x="193" 
d="M133 6q0 -39 -29.5 -83.5t-62.5 -44.5q-3 0 -8.5 -1.5t-9.5 -1.5q-13 0 -13 17q0 7 22 39t24 37q14 29 16 56q0 4 -3.5 16.5t-3 23.5t8.5 19q19 1 32 -6t18 -20.5t7 -24.5t2 -26zM143 311q0 -15 -10 -32.5t-25 -17.5q-10 0 -20 5q-11 2 -30.5 31.5t-19.5 40.5
q0 16 10 24.5t23 8.5q19 0 45.5 -21.5t26.5 -38.5zM77 65q7 -42 -2.5 -85t-42.5 -70q18 -1 34 27.5t19 63.5t-8 64zM89 59q14 -79 -23 -134q28 21 34 61.5t-11 72.5zM60 357q5 -2 15 -6.5t12.5 -6t9 -5t10.5 -8t10 -11.5t14 -18q-9 25 -21.5 37.5t-22 14.5t-27.5 3z" />
    <glyph glyph-name="less" unicode="&#x3c;" horiz-adv-x="331" 
d="M284 410q0 -11 -4 -15q-4 -7 -20 -16t-21 -13q-40 -34 -135 -127q17 -19 107 -88q4 -3 14 -7t14 -7q9 -8 26 -40q1 -2 1 -18q0 -13 -7.5 -27t-22.5 -14q-11 0 -30.5 14.5t-25.5 23.5q-2 2 -4 9t-3 9q-5 6 -20 14t-21 13q-17 15 -56.5 45t-56.5 50t-17 42q0 8 5.5 17
t11.5 15t19 18t20 18q6 6 70 62l28 28l45 40l34 13q19 0 34 -21t15 -38zM235 121q-27 13 -78 51t-72 57l-9 -4q-2 -1 9.5 -10.5t30 -23t38 -27.5t35.5 -24t21 -12zM208 119q-38 16 -141 96q24 -31 67.5 -61.5t73.5 -34.5z" />
    <glyph glyph-name="equal" unicode="=" horiz-adv-x="466" 
d="M401 321q0 -31 -32 -31q-3 0 -46 3t-46 3q-40 0 -115 -7q-39 -11 -46 -11q-28 0 -37 31q29 1 77 4t84 6t38 3q3 0 14 -1t15 -1h7h6h4l6 2l4 4l-8 2q-10 3 -84 0q-13 -1 -88 -6t-78 -5l-3 13q141 9 249 9q11 0 18 7h-65q-4 0 -73.5 -2.5t-73.5 -2.5q-46 0 -55 1
q18 32 167 32q160 0 161 -53zM381 232q0 -6 -8.5 -18.5t-13.5 -13.5q-15 -6 -32.5 -9t-44.5 -6.5t-37 -4.5q-20 -3 -56 -8.5t-62 -9.5t-29 -4q-25 0 -37 16q37 6 111.5 16.5t109.5 16.5l-4 3q-14 3 -33 0.5t-59.5 -9t-58.5 -7.5q-9 -1 -32.5 -6t-26.5 -5q-18 0 -18 30
q0 18 7 19q86 27 218 27q7 0 20 -1t34.5 -3t36.5 -8t15 -15z" />
    <glyph glyph-name="greater" unicode="&#x3e;" horiz-adv-x="323" 
d="M288 251q0 -9 -3.5 -16.5t-9 -12t-18.5 -16.5t-24 -24q-8 -8 -34 -28.5t-38 -32.5l-13 -13l-16 -16l-16 -16l-16 -14l-16 -11l-16 -9l-13 -2q-7 0 -25 10q-11 7 -19 26q-6 18 -6 22q0 10 5 17q4 7 19.5 15t20.5 13q6 5 136 127q-37 34 -108 88q-1 1 -12 5.5t-16 8.5
t-9.5 10.5t-9.5 16t-7 13.5q-1 1 -1 18q0 13 7.5 26.5t22.5 13.5q12 0 31.5 -14.5t24.5 -22.5q3 -2 4.5 -9t2.5 -9q6 -6 21.5 -15t19.5 -12q17 -17 55.5 -45t57 -49t18.5 -43zM56 403q26 -18 75 -62t66 -63l9 4q4 1 -24 27t-59.5 52.5t-39.5 31.5q-27 12 -27 10zM87 401
q33 -19 129 -111q-21 34 -60.5 69.5t-68.5 41.5z" />
    <glyph glyph-name="question" unicode="?" horiz-adv-x="368" 
d="M365 607q0 31 -20.5 68t-49.5 47q-32 9 -59 9q-37 0 -90.5 -41.5t-53.5 -81.5q0 -19 11 -41q10 -24 21 -34.5t30 -10.5q9 0 15.5 13t10.5 28t5 17q33 45 81 45q14 0 17 -7q-19 -54 -88.5 -149t-97.5 -147q-13 -25 -13 -62q0 -9 2 -23.5t7.5 -34.5t17.5 -34t29 -14
q4 0 3 1.5t3 1.5q8 0 14.5 6.5t5.5 12.5q-7 50 -4 62q4 19 26 54q6 10 29 42q1 3 18 20q9 14 40 59.5t45.5 69t29.5 60t15 64.5zM192 35q-1 65 -23 65q-8 0 -23 -1.5t-35.5 -10t-20.5 -22.5q0 -15 17 -49t39 -34q2 0 26 4q12 20 19 34q1 2 1 14zM302 692q-51 29 -147 -13
q22 18 47.5 27.5t53 7t46.5 -21.5zM311 672q-1 0 -24.5 6.5t-48.5 6t-57 -10.5q78 42 130 -2zM301 597q1 -35 -50 -109t-77 -97q1 1 32 47.5t56.5 93t32.5 79.5q3 -5 6 -14zM319 569q0 -26 -44.5 -90t-70.5 -83q7 10 39.5 55t49.5 76t19 56q7 -5 7 -14z" />
    <glyph glyph-name="at" unicode="@" horiz-adv-x="614" 
d="M581 271q4 -34 -7.5 -84t-44 -94.5t-77.5 -44.5h-18q-15 0 -35 11q-15 8 -24 19t-15.5 24.5t-10.5 19.5q-2 -3 -14.5 -20.5t-16.5 -22.5t-15.5 -17.5t-19.5 -17t-19.5 -9t-23.5 -4.5h-23q-26 0 -44 26t-18 46q0 18 11 59t29 87.5t47 81.5t60 35q13 0 44 -31q23 17 33 17
q16 0 33 -12t17 -28q0 -3 -6.5 -23.5t-13.5 -51t-7 -59.5q0 -36 13 -60q12 -19 23 -16q18 4 31.5 23.5t19.5 41.5t9 50.5t3.5 38.5t0.5 18q-4 58 -37.5 118.5t-69.5 62.5q-63 3 -134.5 -62t-101.5 -126q-55 -109 -56 -226q3 -51 41.5 -78.5t93.5 -29.5q11 0 130 33l4 -19
q-6 -3 -34.5 -21t-51 -28t-41.5 -10q-3 0 -20 -3.5t-23 -3.5q-71 0 -123.5 55t-52.5 123q0 61 9 107.5t37 103.5q25 50 55 89q123 169 228 169q97 0 155.5 -73.5t70.5 -183.5zM337 301q-30 -12 -65 -78q-26 -55 -28 -62q-11 -50 -11 -54l5 -8q63 74 99 202zM556 245
q-7 219 -153 254q72 -32 106.5 -96t46.5 -158zM243 232q-20 -39 -29 -66.5t-5 -56t30 -41.5q-13 16 -18.5 32t-4 35t4 29.5t11 35t11.5 32.5zM228 48q-28 25 -32 60t9 81q-11 -26 -16 -44.5t-5.5 -37.5t11 -34t33.5 -25zM533 265q1 76 -37 138t-115 80q30 -13 53 -31
t36.5 -34t26 -45t18.5 -47.5t18 -60.5z" />
    <glyph glyph-name="A" unicode="A" horiz-adv-x="463" 
d="M487 253q0 -18 -48.5 -36.5t-50.5 -23.5q-7 -37 -8 -73q-1 -11 -2 -38.5t-2 -40.5q0 -68 -26 -68q-3 0 -9.5 2.5t-8.5 2.5q-5 0 -5.5 7.5t-0.5 20t-3 20.5q-8 -33 -15 -41l-5 3q9 108 9 128l1 57q-9 -1 -11 -4q0 -6 0.5 -25t-0.5 -27q-2 -28 -0.5 -46.5t-0.5 -39
t-10 -38.5l-5 5q5 138 5 168q-1 0 -2 1t-5 1q-8 0 -80 -17q-5 -2 -17 -7.5t-22 -9t-15 -3.5q-3 0 -15.5 3t-17.5 3q-12 0 -14 -16.5t-3.5 -51t-12.5 -63.5q-20 -10 -29 -10q-17 0 -35.5 17.5t-18.5 30.5q0 107 90 333.5t154 306.5q5 6 15 26q5 1 15.5 4.5t18.5 6t11 2.5
q53 0 79 -62q1 -6 5 -35t8.5 -77.5t4.5 -82.5q0 -4 -7.5 -86t-7.5 -86q0 -5 4 -9t8 -4t15 1t14 1q56 0 56 -30zM327 629q31 -102 23 -204q15 29 9 100.5t-32 103.5zM253 636q-23 -6 -70.5 -111.5t-55.5 -137.5q-1 -3 27.5 54t60.5 121.5t38 73.5zM318 620l-6 -19
q0 -2 3 -14.5t7.5 -29.5t5.5 -26q7 -64 2 -134q15 27 10.5 105.5t-22.5 117.5zM307 567q-2 12 -9 24q-6 -12 -31.5 -56t-39.5 -71t-21 -46q-9 -25 -26.5 -69.5t-29.5 -75.5t-12 -33q0 -12 19 -12q11 0 29.5 3.5t37 8.5t35 9.5t27.5 8.5l12 3q9 25 12 62q13 137 -3 244z
M335 169v15l-10 -5l-1 -130l7 -4zM124 375l-5 -4q-38 -86 -56.5 -160.5t-31.5 -176.5q9 17 15 39.5t13 59t13 61.5q26 109 52 181zM46 200l-31 -122l3 -38z" />
    <glyph glyph-name="B" unicode="B" horiz-adv-x="392" 
d="M327 285q0 15 -35 22.5t-59 7.5q-47 0 -95 -20q-23 -8 -27 -16q-5 -16 -10.5 -49.5t-9 -59t-3.5 -29.5v-30q10 1 21.5 -17t14.5 -19q54 23 119 79t77 104q1 3 3 8.5t3 10t1 8.5zM410 250q0 -67 -75.5 -140t-157.5 -104q-65 -24 -75 -24q-22 0 -58.5 22.5t-43.5 45.5
q-1 6 -1 24q0 28 19.5 129.5t19.5 109.5q0 15 -9 25t-9 15q0 3 12 14t16 18q15 34 27 102q3 21 9 76t14 101.5t22 84.5q0 -1 -1.5 -33.5t0.5 -35.5q1 2 6.5 36t8.5 36q0 -40 -9 -89l3 -28q5 14 10.5 61t7.5 59h10q-4 -56 -10 -89q6 -4 10 -4q3 13 -2 14q1 1 1.5 3t1 4.5
t0.5 3.5q3 11 6.5 37t5.5 37q15 -6 23.5 -17.5t10.5 -21.5t7.5 -17.5t14.5 -7.5q3 0 7 1.5t8 1.5q26 0 63 -10q25 -7 39 -18q14 -13 32 -40t18 -42q0 -40 -41.5 -97t-92.5 -91q4 -12 13 -12q59 -10 99 -51t40 -89zM348 604q7 23 -18 51t-77 15q75 -7 95 -66zM322 608
q7 16 -19.5 36t-49.5 11q57 -18 69 -47zM289 597v2q0 10 -14 10q-30 0 -63 -13q-20 -8 -41 -25q-3 -17 -9.5 -46t-11 -50t-4.5 -23q0 -3 1 -5t2 -2h1q14 0 76.5 62.5t62.5 89.5zM295 349q-8 8 -33 13.5t-43 5.5q-44 0 -75 -23q38 13 79 13q34 0 72 -9zM322 308
q-24 24 -45.5 32.5t-53.5 8.5q-28 0 -40 -4q-11 -2 -29.5 -11.5t-20.5 -15.5q20 7 34.5 10.5t22.5 4t16 0.5h14q32 2 53.5 -2.5t48.5 -22.5zM151 626h-10l-89 -574q64 360 99 574zM128 612v17q-2 -8 -7 -24t-8 -29t-4 -21q-7 -46 -25 -150.5t-30.5 -191t-18.5 -163.5l22 124
l28 165q46 260 43 273z" />
    <glyph glyph-name="C" unicode="C" horiz-adv-x="435" 
d="M421 617q0 -38 -20 -79t-50 -49q-3 0 -3 7q0 2 14 19q32 46 42 95h-7q-27 -80 -59 -115q-10 0 -10 7q0 3 4.5 9t11 13.5t8.5 11.5q19 30 34 75q-1 1 -3.5 1.5t-3.5 2.5q-6 -9 -17.5 -37t-25.5 -48.5t-34 -25.5q-7 10 -7 18q0 4 17.5 39t17.5 38v41q-5 0 -5 1
q-18 0 -64 -56.5t-60 -82.5q-35 -70 -54 -112.5t-38 -105.5t-19 -111q0 -50 21 -83q3 -5 36 -26h31q37 0 72 16t79 43t78 41q11 -6 11 -17q0 -13 -22 -43t-37 -45q-10 -10 -39.5 -28.5t-49.5 -23.5l-4 -1q-3 -1 -4 -2q-8 -2 -23 -5t-25 -5.5t-13 -2.5q-11 0 -49 9t-58 21
q-13 7 -41 40t-35 51q-12 25 -16 45q-3 21 -3 43q0 54 28.5 145t71.5 179.5t101.5 153t110.5 64.5q4 0 38.5 -20t37.5 -25q28 -44 30 -50q4 -14 4 -30zM285 672q-21 -11 -60.5 -65t-50.5 -82l23 31q72 101 88 116zM284 693q-31 -15 -50 -37q-84 -109 -137.5 -237.5
t-53.5 -237.5q0 -122 88 -151q-22 12 -37 30t-22.5 33t-11.5 37.5t-4.5 34.5t-0.5 32q0 85 42 196q3 8 8.5 26t8.5 24q32 65 84.5 143.5t85.5 106.5zM145 35q-25 16 -40.5 36t-21 40.5t-8 43t-1 43.5t-0.5 42q-10 -22 -10 -57q0 -116 81 -148z" />
    <glyph glyph-name="D" unicode="D" horiz-adv-x="446" 
d="M460 440q0 -52 -28 -116q-34 -80 -103 -160q-6 -6 -32 -28q-14 -11 -51.5 -45t-59 -52t-53.5 -35t-58 -17q-23 0 -40.5 20.5t-24.5 46.5q-1 4 2.5 15t3.5 15q-2 6 -8 19.5t-10 23t-4 12.5t4 14t4 15q1 11 1.5 32t1.5 32q1 7 5 45t7 57q4 32 15 85.5t19.5 92.5t8.5 41
q0 3 -4 7.5t-10.5 10.5t-9.5 9q-7 9 -14 26.5t-7 23.5q0 16 9 23t30 12.5t32 10.5q3 1 5 5.5t4 12t3 10.5t6 11.5t7 12.5q6 23 20 39.5t33 16.5q11 0 34.5 -20.5t23.5 -36.5q0 -7 -1.5 -10.5t-7.5 -11t-11 -14.5q0 -5 5 -6q121 -18 187 -84.5t66 -160.5zM386 474q0 15 -2 26
t-8 24.5t-20 25t-35 20.5q-59 26 -94 26q-3 0 -12.5 -1t-14.5 -1q-28 2 -36 -5q-12 -6 -12 -14q-5 -19 -15 -57.5t-15 -60.5t-12 -58.5t-11 -73.5q-2 -18 -8 -52.5t-9.5 -61.5t-3.5 -47q0 -61 14 -75q88 57 162.5 135.5t104.5 157.5q2 6 8 20t9.5 23t6.5 22.5t3 26.5z
M396 539q-5 9 -12 16.5t-12.5 13t-13 11t-12.5 8.5t-13 7t-11 5t-9.5 4t-7.5 3q-45 20 -130 20q-19 0 -43.5 -7.5t-29.5 -8.5q42 7 67 7q150 0 227 -79zM435 496q-12 46 -40.5 78t-67 47.5t-75.5 22t-77 6.5q-59 0 -92 -19h13q4 0 9.5 3t6.5 3q11 0 37.5 1t27.5 1
q27 0 72 -8.5t66 -16.5q42 -16 77 -49.5t43 -68.5zM131 590q-11 -8 -16.5 -26.5t-9 -44t-5.5 -33.5q3 10 11.5 34.5t14 43.5t5.5 26zM91 457q-14 -26 -26.5 -133t-12.5 -161q0 -47 9 -92q1 1 3 2.5t4.5 2.5t3.5 2q-9 26 -9 64t5.5 94.5t5.5 61.5q4 106 17 159zM52 70
q-10 18 -10 102q0 1 4 62t4 84q-17 -85 -19 -156q0 -48 9 -96q8 0 12 4z" />
    <glyph glyph-name="E" unicode="E" horiz-adv-x="489" 
d="M565 647q-7 -5 -29 -5q-5 0 -110.5 11.5t-108.5 11.5q-2 0 -14.5 0.5t-17.5 0t-14.5 -3.5t-15.5 -9q8 0 27 3t22 3q2 0 13.5 -2t28.5 -4.5t28 -3.5q60 -9 186 -17q-14 -14 -33 -14q-3 0 -109 13.5t-111 13.5q-8 0 -34.5 -5t-29.5 -8q10 0 32 3.5t24 3.5q3 0 46.5 -5
t105.5 -12t97 -10q0 -6 6 -6q-11 -11 -24 -11q-3 0 -17 4.5t-20 5.5q-51 7 -145 7h-14q-13 1 -27 1.5t-31.5 0t-27.5 -2.5q-10 -1 -29 -20.5t-33 -39.5q-15 -15 -27 -37q-45 -85 -45 -99q0 -11 13 -11q14 0 115.5 17t116.5 23q7 2 25 11t22 9q9 0 22 -13q0 -2 0.5 -16t0 -20
t-2.5 -17.5t-8 -18.5t-15 -11q-35 -19 -81 -30t-121.5 -21.5t-93.5 -13.5q-8 -1 -14 -4.5t-9.5 -9.5t-6 -11t-3.5 -14.5t-1 -13.5v-14v-10q0 -49 4 -59q1 -4 7.5 -12t7.5 -12q9 -24 39.5 -42.5t50.5 -18.5q31 0 56.5 14t42.5 33t47 49t60 51q5 -3 11 -10t6 -13
q0 -3 -4 -12.5t-5 -12.5q-1 -7 -0.5 -12.5t0 -12.5t-3.5 -12q-79 -149 -184 -149q-27 0 -60 11t-51 27q-37 34 -59.5 75t-29 79t-8 80t2.5 77q0 6 -4.5 18.5t-4.5 15.5q0 2 5.5 8.5t12.5 15.5t10 16q5 11 15.5 45t16.5 49q6 16 19 43.5t22.5 47.5t9.5 23q0 2 -4.5 16
t-10.5 31.5t-8 26.5q10 12 25 14q16 2 42 2.5t46.5 0t39.5 -0.5l19 -1q110 0 149 -2q6 0 18.5 -2t15.5 -2t41 5t41 5q18 0 28.5 -11.5t13 -24t4.5 -36.5zM169 44q-111 35 -111 180q0 3 1.5 23.5t1.5 28.5q2 52 17.5 100.5t51.5 127.5t48 108h-7q-6 0 -34 -57t-57 -143.5
t-31 -146.5v-9q0 -30 1 -49.5t7 -51.5t22 -57t42 -41q12 -8 27 -11.5t21 -1.5zM138 37q-32 9 -56.5 43.5t-35 69.5t-12.5 65q-5 77 34 208q9 29 22.5 61t32.5 71.5t27 58.5l-11 -4q-103 -192 -113 -353q-2 -30 1.5 -60.5t14.5 -64.5t35.5 -59.5t60.5 -35.5z" />
    <glyph glyph-name="F" unicode="F" horiz-adv-x="462" 
d="M536 678q-6 -4 -2 -11q-8 -1 -58.5 0t-61.5 -7l35 -2q55 -2 76 -19q-48 -3 -147 -7.5t-147 -7.5q-9 0 -16 -8t-11 -16.5t-7.5 -19t-4.5 -12.5q-38 -101 -48 -132q4 -7 28 -7q3 0 18.5 2t22.5 2q1 0 32 0.5t47 2.5q20 1 54 5t60 7.5t28 3.5q15 0 26.5 -7t11.5 -20t-19 -46
q-7 -11 -17 -14q-61 -18 -183 -29.5t-137 -13.5q-13 -2 -23.5 -75t-10.5 -114q0 -48 11 -75q3 -8 4.5 -17t1.5 -21t-7.5 -19.5t-21.5 -8.5q-20 -1 -37 17q-5 6 -9 12.5t-7 14.5t-5 14t-3.5 16t-2 14.5t-1.5 16t-1 13.5q-4 34 -4 66q0 18 5 61q3 20 9 53.5t11 58.5t5 28
t-8 16t-8 17q0 3 13 12t17 17q9 21 16 43.5t15.5 53t12.5 43.5v9q-36 1 -55 32t-21 66q11 9 45.5 16.5t41.5 9.5q3 1 12 1t13 1q8 2 15 10.5t12.5 19t7.5 12.5q19 19 37 19q16 0 26 -8.5t18 -23t12 -18.5q123 5 148 5h9h33l33 -3l33 -8l20 -15zM148 616q-16 -6 -46.5 -105
t-34.5 -135q1 3 39 110t42 130zM117 600q-19 -12 -61 -183l-7 -34q9 24 37.5 112t30.5 105zM39 60q-13 39 -13.5 80t6.5 81q12 69 13 132q-38 -144 -24 -243q11 -44 18 -50z" />
    <glyph glyph-name="G" unicode="G" horiz-adv-x="539" 
d="M523 271q0 -26 -50.5 -85t-72.5 -78q-51 -43 -119 -82.5t-115 -39.5h-23q-43 0 -89 59.5t-48 91.5q0 7 -3 27t-3 23q0 110 56.5 238t121.5 215q85 115 144 115q43 0 77 -37.5t34 -76.5q0 -11 -4.5 -25t-10 -26.5t-6.5 -14.5q-6 -2 -20.5 -6.5t-25 -7.5t-13.5 -3h-11
q-6 0 -11.5 7t-8 13.5t-2.5 7.5q0 3 4.5 13t11 24t9.5 22q-4 0 -3 1q-6 0 -22 -9t-27 -18q-11 -8 -37 -42q-177 -235 -177 -423q0 -38 7 -51q2 -7 11 -16.5t15 -9.5q4 0 20.5 -1t20.5 -1q3 0 36 13q84 34 163 115q26 22 52 55l-5 4q-4 -2 -18 -2t-22 -1q-8 -3 -26 -7t-34 -9
t-29 -12q-16 -10 -32 -10q-21 0 -40.5 32t-19.5 48q0 17 11 22q10 4 23 7.5t30.5 6.5t25.5 5q40 12 55 16q3 1 10 0t8 -1q7 0 21 2.5t17 2.5t3 -3q0 -1 1 -2t3 -1q4 0 37.5 4.5t36.5 4.5q32 0 48 -31t15 -63zM277 669q-68 -71 -145 -222t-78 -276q24 104 41 160.5t63 148.5
t119 189zM429 265q-31 -53 -86.5 -105t-107.5 -78l-2 -7q53 23 122.5 86t73.5 104zM250 662q-224 -275 -224 -510q0 -73 50 -103q-41 47 -41 103q0 41 5.5 80.5t21.5 82.5t26.5 71t38.5 76t38 65.5t44.5 71.5t40.5 63zM428 235q-16 -36 -78.5 -93t-111.5 -80l-4 -13
q51 26 108 73.5t82 87.5q5 14 4 25zM104 48q-22 25 -36.5 59.5t-12.5 57.5q-7 -30 8 -65t41 -52z" />
    <glyph glyph-name="H" unicode="H" horiz-adv-x="499" 
d="M507 676q0 -3 -3.5 -11t-9 -18.5t-7.5 -16.5q-3 -9 -28 -111q-4 -16 -11.5 -48.5t-13 -55t-5.5 -25.5v-14q3 -2 15 1t14 3q13 0 24 -17.5t11 -27.5q0 -9 -5 -16t-11.5 -10.5t-15.5 -6t-15.5 -3.5t-13.5 -1l-8 -1q-13 -4 -19 -13q-9 -17 -22 -86t-13 -80q0 -3 6.5 -42.5
t7.5 -58.5q-9 -9 -23 -9q-44 0 -65 30t-21 68q0 18 5.5 56.5t12.5 77.5l7 38q-6 8 -25 8q-38 0 -159 -16q-7 -3 -9 -10q-31 -181 -31 -210q0 -3 8 -36.5t8 -37.5q0 -19 -20 -19q-78 0 -78 106q0 4 12 113t12 112q0 15 -1.5 19t-6 9t-7.5 16q24 16 25 23q6 23 21 99
t34.5 144.5t46.5 119.5l10 4q16 6 16 -8q0 -3 -7 -25t-15.5 -50.5t-11.5 -43.5q0 -4 -3 -15t-3 -15q-7 -34 -25.5 -112.5t-29.5 -128.5t-21 -116t-10 -113q0 -29 7 -56q1 58 6.5 115.5t19 127t22 109t30 127.5t27.5 116q1 5 13.5 37.5t12.5 47.5q8 0 11 -4q-2 -10 -12 -38.5
t-13 -44.5q-4 -17 -26 -106.5t-36.5 -155.5t-28.5 -153t-14 -143q0 -14 6 -50q4 0 5 3v3q0 5 -2.5 26.5t-2.5 25.5q0 3 2 23.5t3 29.5q3 45 12.5 102t19 99.5t25.5 112t24 104.5q38 167 48 167q11 0 27 -16.5t16 -24.5q0 -4 -8 -13.5t-10 -12.5q-7 -13 -30 -73q0 -1 -3 -5.5
t-4 -8.5q-5 -18 -15.5 -53.5t-16.5 -57t-12 -49.5t-7 -49q9 -4 45 -4q67 0 150 9q12 21 20.5 52t16 72t13.5 62q4 14 16 75.5t22 91.5q5 17 36 17q22 0 42 -17t20 -39zM310 324q-47 0 -104 -3t-77 -3q-10 -5 -12 -8l83 2q25 0 35 1q12 1 37 2t35 2zM303 300l-62 5
q-75 -3 -87.5 -4t-40.5 -8q3 0 190 7zM350 20q-9 12 -13.5 21.5t-6.5 22t-4 18.5q-3 10 -1.5 18t0.5 16t-7 13q-7 -39 3.5 -69t28.5 -40zM321 38q-14 20 -16 64t-3 48q-10 -40 -9 -55q2 -35 28 -57z" />
    <glyph glyph-name="I" unicode="I" horiz-adv-x="467" 
d="M465 636q0 -8 -7 -22t-13 -14q-3 0 -24 7.5t-31 8.5q-22 5 -58 5q-24 0 -34 -4q-10 -2 -14 -12q-84 -222 -95 -458q-2 -32 -11 -67q5 -4 13.5 -6.5t21.5 -3t22.5 -1t24 0t18.5 0.5h65q6 1 18.5 6.5t15.5 5.5q16 0 16 -22q0 -76 -229 -76q-90 0 -101 2q-15 1 -37 19
q-1 11 -4 16q-13 15 -18 26t-5.5 22.5t-2.5 16.5q13 10 32 10q2 0 9.5 -1t17.5 -2t16 -1q7 -1 20 -5t17 -5q3 1 5 4q-4 33 0 105q3 68 6 92q4 60 13 117q3 23 13.5 61t19 66.5t8.5 30.5v29q-2 1 -6 1q-2 0 -12 -7t-26 -7q-15 0 -27 16l30 9q-9 3 -35 -2q-2 2 -3.5 6t-2.5 5
q63 17 133 27.5t111 4.5q17 -4 27 1v2q-66 6 -70 6q-54 -1 -117 -14t-90 -16q-6 8 -9 13.5t-4.5 12t-2 9t0 11t0.5 11.5q16 13 38 23q21 8 40 11.5t40.5 5t28.5 2.5q1 0 6 3t9 3t15 -3t15 -3q3 0 12.5 1t13.5 1q18 0 57.5 -8.5t79.5 -29t40 -46.5zM255 605
q-28 -57 -52 -168.5t-36 -204.5q-3 -26 -5 -77t-3 -72q4 18 34 258q8 60 30.5 134.5t31.5 129.5zM228 603q-45 -109 -65 -237q-29 -202 -19 -282q2 34 5 67t5.5 58t7 56.5t7 49.5t8.5 50.5t9 44.5l10 48l9 44l11 50z" />
    <glyph glyph-name="J" unicode="J" horiz-adv-x="442" 
d="M420 464q0 -51 -16 -213q-1 -8 -16 -60q-2 -9 -8.5 -31.5t-10 -34.5t-10 -31t-13.5 -34.5t-16 -29.5q-29 -48 -73.5 -74t-85.5 -26q-68 0 -132.5 57.5t-64.5 126.5q0 32 22 79.5t52 56.5q3 1 9.5 7.5t10.5 6.5q9 0 13 -18t4 -30q0 -2 -16 -53t-15 -60q3 -55 22 -74
q11 -11 30.5 -19.5t34.5 -8.5q46 0 91 63t55 99q45 171 45 281q0 51 -10 129t-25 135q-2 7 0 22q9 2 15 -12q42 -81 42 -247q0 -3 -2.5 -34t-5 -73t-3.5 -67q6 12 13.5 74.5t7.5 103.5q0 155 -49 260q3 2 7 4q16 -24 17 -27q15 -43 26 -115.5t11 -125.5q0 -44 -13 -130.5
t-23 -96.5q21 7 32 82t11 154q0 95 -29 213q-1 6 -8.5 23t-7.5 19v10h12q5 0 24.5 -17.5t20.5 -22.5q2 -21 9 -68.5t11.5 -90.5t4.5 -82zM144 -12q-37 -5 -61.5 11t-35 46.5t-14 60t-1.5 61.5q-11 -39 -8 -80.5t29 -74t67 -32.5q16 0 24 8zM109 -30q-35 1 -66.5 45.5
t-31.5 76.5q-2 -43 22.5 -83.5t75.5 -38.5z" />
    <glyph glyph-name="K" unicode="K" horiz-adv-x="505" 
d="M586 76q0 -25 -28 -42.5t-53 -23t-39 -5.5q-99 0 -184.5 85.5t-149.5 219.5q-7 0 -9 -11q-33 -146 -33 -164q0 -3 10.5 -50t10.5 -51q0 -18 -8.5 -35.5t-23.5 -17.5t-41 19.5t-32 31.5q-7 15 -7 56q0 46 16 136q19 110 20 113l30 124q2 9 10.5 45t11.5 55l6 41
q1 9 4 29.5t4 28.5q1 9 1.5 34.5t0.5 32.5q3 3 18 10q7 -4 8.5 -16t2.5 -13q5 10 3 26q4 1 7 -3h3q0 -12 -11 -86q-13 -67 -24 -156q-1 -9 -7 -39t-8 -43q-35 -180 -34 -233q36 162 57 322q1 9 8 60t12 76q14 61 18 97q5 2 10 5v-25q0 -3 -3 -17t-6.5 -33t-5.5 -29
q-16 -98 -21 -142q-14 -96 -45 -249q-13 -75 -20 -110l1 -11q2 3 3.5 9t2.5 8q56 249 80 455q2 17 13 62t14 69q9 -3 15.5 -22t6.5 -28q0 -4 -7.5 -41.5t-18.5 -93t-17 -84.5l5 -5l98 86q16 14 47 46.5t52 49.5t37 17q28 0 51.5 -17t23.5 -44q0 -2 0.5 -6t-0.5 -5l-1 -5
l-4 -5l-8 -7q-8 -7 -31 -21.5t-30 -19.5q-8 -5 -56 -50l-6 -4q-5 -5 -14 -12t-20 -16.5t-22.5 -19.5t-23 -21t-20 -20t-14 -17.5t-5.5 -13.5q0 -3 4.5 -14.5t10.5 -27.5l9 -24q24 -69 98 -152.5t135 -83.5q50 0 81 37q-50 -27 -82 -27q-42 0 -75 27q59 -14 63 -14q15 0 41 8
t46 16t21 8q8 0 12.5 -6.5t4.5 -12.5zM527 41q-103 -50 -231 116q25 -57 77.5 -97t98.5 -40q13 0 32.5 6.5t22.5 14.5z" />
    <glyph glyph-name="L" unicode="L" horiz-adv-x="428" 
d="M474 133q5 -49 -110 -81q-5 -1 -7 -2q-11 -3 -40.5 -7t-41.5 -7q-14 -3 -55.5 -10.5t-64.5 -12.5q-9 -2 -37 -12t-33 -10q-29 0 -58 27t-29 53q0 58 9 123q2 11 11 47.5t12 55.5q14 108 24 165q6 26 11 53q2 11 14 91t16 116q1 7 36 26q5 -4 7 -4q0 -6 -7.5 -36.5
t-10.5 -37.5q5 -1 9.5 13.5t8.5 32.5t7 22q2 0 6 -1.5t5 -1.5q-2 -11 -6 -24.5t-10 -32t-10 -30.5q-8 -31 -22.5 -109.5t-26 -143t-11.5 -68.5v-11q7 18 17 68.5t22.5 119t15.5 85.5q11 53 37 136q0 4 7 0q5 -2 5 -6q0 -2 -6.5 -23t-15.5 -49.5t-12 -45.5q-4 -19 -51 -250
q-9 -58 -13 -90q-14 -110 -14 -131q0 -12 3 -17q2 17 9.5 74.5t12.5 88.5q28 159 62 332q3 18 16.5 57t16.5 50q2 -4 12 -16.5t10 -17.5q0 -2 -8.5 -30t-19 -66.5t-15.5 -61.5q-18 -76 -37 -183q-7 -44 -18.5 -132.5t-13.5 -101.5q15 -10 39 -10q3 0 21.5 3.5t25.5 4.5
q115 11 146 16q14 2 44.5 8.5t54.5 12t27 5.5q13 0 24 -13z" />
    <glyph glyph-name="M" unicode="M" horiz-adv-x="682" 
d="M645 678q0 -2 -8 -53t-19 -122t-16 -111q-4 -29 -8.5 -81.5t-7.5 -91.5t-3 -43q0 -67 7 -104q0 -4 5.5 -17t5.5 -17q0 -16 -11 -28.5t-24 -12.5q-34 0 -55.5 58t-21.5 85v131q0 42 10 112v72q-4 1 -6 -3q-81 -175 -121 -275v-10l-1 -11q-5 -14 -17 -44.5t-17 -42.5
q-4 -12 -8.5 -41t-13.5 -41q-5 -7 -16 -7q-17 0 -38 19t-29 35q-12 23 -21 76q-9 74 -9 127v224q-1 0 -2 1.5t-5 1.5q-11 0 -32 -84q-5 -10 -7 -12q-55 -199 -63 -346q-2 -9 -21 -19q-2 2 -5 7t-7 5t-4.5 2.5t0.5 6.5l1 4q38 290 127 520q-31 -54 -55.5 -126.5t-34.5 -119.5
t-27.5 -144t-23.5 -128q-1 0 -4 -3.5t-7 -5.5q0 1 -1.5 3.5t-1.5 6.5q0 23 19 111q37 159 53 236q8 39 24 81t42 99t36 82q-33 -45 -59 -107t-38 -104t-33.5 -134t-31.5 -129q-5 -19 -12 -66.5t-10 -63.5q-22 33 -22 57q0 14 9 63.5t17.5 91t9.5 44.5q61 236 118 332
q10 17 17.5 40.5t14 33t22.5 9.5q18 0 46 -24t29 -39q1 -20 6.5 -66t6.5 -69q2 -184 2 -240l5 -5q7 5 19 28q3 6 24 59t30.5 76t33.5 75.5t42.5 86.5t45.5 77.5t54 77.5q4 4 24 4q31 0 51.5 -22.5t20.5 -47.5zM525 526q-13 -69 -13.5 -162.5t6.5 -122.5q0 -3 1.5 47
t3.5 120.5t2 117.5zM549 589q-13 -76 -13 -98q-1 -51 -2.5 -126t-2 -102.5t0 -66t3.5 -58.5t8 -39q-3 201 6 402q4 70 0 88zM232 646q-12 -5 -36 -54l-2 -25q2 4 18.5 36.5t19.5 42.5zM281 211q-3 41 -7.5 103.5t-4 65t-2 62t0.5 93.5q-13 -37 -13 -102t7.5 -122.5
t18.5 -99.5zM244 473q-15 -58 -5 -141t29 -110l-1 2q-1 3 -3 12t-4.5 21.5t-5 33.5t-5 45.5t-4 60.5t-1.5 76z" />
    <glyph glyph-name="N" unicode="N" horiz-adv-x="526" 
d="M503 421q0 -75 -9 -161q-3 -27 -19 -91l-1 -9q-2 -9 -4 -19.5t-6 -25.5t-8.5 -29t-10.5 -28t-13 -24.5t-16.5 -17t-19.5 -6.5q-14 0 -53 16q-44 19 -73.5 53t-44.5 77t-23.5 84t-17.5 87.5t-20 73.5q-2 0 -6 -6q-35 -165 -49 -275q-4 -26 -4 -44q0 -9 2 -25.5t1.5 -29
t-6.5 -25.5h-33q-6 0 -31.5 18t-33.5 32q-5 6 -5 22q0 17 19 120q45 227 50 252q4 20 16.5 70t16.5 71q1 7 6 50t14 67q1 5 11 9t17 4q15 0 40.5 -15.5t28.5 -32.5l6 -41q2 -15 42 -253q1 -6 6 -41t7.5 -49.5t7.5 -42t10 -47.5t11 -36q2 -6 13.5 -26t17.5 -20q14 0 26.5 31
t21 77.5t13.5 83t8 64.5q2 12 2 84q0 18 -5 101q-1 5 -1.5 36t-3.5 46q-1 6 -7.5 22.5t-6.5 20.5q0 5 1 7.5t2.5 3.5t5 2.5t5.5 3.5q0 -2 13 -53t16 -77q6 -49 6 -150q0 -47 -11 -177q8 27 14.5 87t6.5 100q0 84 -10 154q-2 13 -12 53.5t-10 44.5v23q7 0 11 4
q2 -18 10.5 -61t11.5 -62q6 -43 12 -241q15 82 -5 249q-2 13 -9.5 49t-7.5 40l-3 22h11q9 1 23 -15t15 -23q21 -147 21 -236zM395 25q-39 12 -68 42t-41.5 59.5t-25.5 65.5t-21 48q25 -90 48.5 -135t41.5 -56t54 -21zM411 41q-41 13 -70.5 47.5t-41 62t-23.5 67.5
q-4 -28 15.5 -73t54 -78t65.5 -26zM152 487q-21 -27 -52.5 -199.5t-29.5 -256.5q0 -12 6 -18q8 156 76 474zM98 341q-8 -21 -15 -44.5t-11.5 -49.5t-8 -47t-6 -49t-3.5 -42.5t-2.5 -40t-1.5 -29.5l5 -6q7 124 43 308z" />
    <glyph glyph-name="O" unicode="O" 
d="M497 378q0 -54 -7 -77q-17 -56 -46 -100q-1 -2 -9.5 -15.5t-11.5 -17.5l-11 -17l-14 -19l-13 -16l-16 -18l-17 -17q-53 -46 -132 -81q-13 -6 -67 -6q-3 0 -15.5 5t-20.5 6q-24 1 -58 30.5t-42 55.5q-19 56 -19 101q0 94 37 240q1 5 13 32t15 42q3 13 -5.5 40.5t5.5 41.5
q14 25 47.5 58.5t62.5 50.5q4 2 13.5 13.5t14.5 15.5q27 21 38 27q24 10 37 10q11 0 34.5 -16.5t22.5 -30.5q-1 -3 -2 -12t-3 -14q0 -8 9 -13q79 -55 119.5 -138.5t40.5 -160.5zM415 401q0 23 -6.5 55t-20 69.5t-41 63.5t-64.5 26q-31 0 -62 -28.5t-47 -68.5q-6 -15 -31 -67
t-30 -71q-34 -126 -34 -209q0 -109 59 -109q78 0 168.5 105t101.5 200q1 6 4 18.5t3 15.5zM429 528l2 8q-9 40 -43.5 78t-71.5 38q24 -3 65 -47.5t48 -76.5zM424 455q3 35 -11 76t-47.5 74t-78.5 35q56 -16 92.5 -71.5t44.5 -113.5zM224 709q-117 -116 -169 -290t1 -301
q-21 106 -14 177t44 171q18 51 41.5 95.5t39.5 68t57 79.5zM192 638q-54 -67 -94.5 -179t-45 -217.5t41.5 -170.5q-39 71 -29.5 175.5t43.5 205t84 186.5z" />
    <glyph glyph-name="P" unicode="P" horiz-adv-x="414" 
d="M442 454q0 -26 -10 -45v-12q-3 -5 -13 -22q-2 -3 -5.5 -13t-6.5 -15q-33 -43 -79.5 -79.5t-73 -51.5t-89.5 -49q-14 -7 -70 -16q-11 -24 -11 -87q0 -35 2 -39q2 -7 5 -17t5.5 -17.5t2.5 -10.5q0 -18 -22 -18q-11 0 -30 9.5t-27 18.5t-14 39t-6 50q0 108 36.5 293.5
t65.5 252.5q-6 7 -26 12q-40 60 -40 73q0 11 14.5 23t28 18.5t16.5 6.5q7 1 31 1q67 0 150.5 -59t124.5 -125q2 -4 12 -15t13 -18q6 -18 11 -48.5t5 -39.5zM354 496q0 68 -121 151h-9q-5 -12 -31 -69t-35 -88q-6 -17 -13.5 -50.5t-8.5 -39.5q-8 -27 -19.5 -80.5t-11.5 -59.5
q0 -10 5 -15q244 128 244 251zM174 652q-45 -105 -82 -282q-2 -8 -11 -72q87 327 93 354zM301 346q-68 -70 -197 -119q49 2 110 38t87 81zM308 322q-38 -43 -93.5 -74.5t-106.5 -35.5q43 -16 106.5 22t93.5 88zM150 648q-60 -168 -96 -309t-36 -271q0 -42 11 -52
q-5 68 7.5 157t27 149.5t45 172t41.5 153.5z" />
    <glyph glyph-name="Q" unicode="Q" horiz-adv-x="530" 
d="M492 -184q-39 -1 -76 17t-58 48q-23 25 -39 51q-3 4 -12.5 20t-15.5 25q-1 2 -3 7.5t-3 10t-4.5 8t-9.5 3.5q-3 0 -12 -6t-15 -7q-31 -11 -56 -11q-3 0 -14.5 2t-15.5 2q-8 0 -37 13q-122 46 -122 210q0 30 2.5 54t7.5 49t7 39q9 60 39 139q3 8 14.5 43.5t22 61t27 57
t39 48.5t47.5 17q3 0 7 -2t8 -2q3 0 37 14t38 14q21 0 67 -17q28 -14 29 -15q44 -33 63 -96.5t19 -120.5q0 -49 -9 -117q-1 -5 -19 -72q-19 -66 -47 -130q-13 -30 -26.5 -53t-20 -32t-6.5 -11q0 -3 3 -7t4 -7q18 -49 29.5 -75t37.5 -62.5t60 -59.5q2 -1 15 -6q46 -17 47 -26
q1 -12 -49 -18zM375 508q0 93 -31 145q-9 6 -13 6q-3 -10 -1.5 -19t-2.5 -16t-17 -7q-4 0 -11 3t-10 3t-16 -13t-30.5 -30t-29.5 -25q-8 -7 -28 -9q-37 -78 -63.5 -175t-26.5 -176q0 -141 71 -141h8l4 1q2 1 10 7.5t16 12.5t16.5 13t13.5 12.5t5 8.5q0 4 -7.5 24.5
t-8.5 25.5q-29 125 -29 147v4q-1 5 -0.5 9t1 9t3.5 8.5t8 5.5q22 11 26 11q6 0 24.5 -4.5t26.5 -8.5q17 -11 20.5 -25t0 -29t-2.5 -19q1 -10 9 -26q17 19 52 146v13l1 11q12 57 12 97zM279 219q0 8 -7 49.5t-10 49.5l-5 -7q0 -6 9.5 -46.5t12.5 -45.5zM270 189
q0 19 -11.5 59t-13.5 52l-8 -10q20 -76 33 -101zM132 605q-28 -52 -52 -114t-40 -135t-15.5 -137.5t28 -119.5t83.5 -82q-34 24 -55.5 57.5t-32 64.5t-10 77t4 77.5t17 84t22 78.5t27 79.5t23.5 69.5zM508 -157q-40 6 -71 26.5t-53.5 54.5t-35 62.5t-28.5 72.5
q8 -80 58 -148t130 -68zM440 -154q-52 26 -87 82.5t-46 116.5q-1 -64 37 -125t96 -74zM150 29q-14 10 -25.5 22.5t-20.5 23.5t-15.5 29.5t-11 29t-7.5 33t-4.5 31.5t-2.5 34t-1 31v33v28q-8 -40 -10 -72.5t2 -78t28 -83t68 -61.5z" />
    <glyph glyph-name="R" unicode="R" horiz-adv-x="514" 
d="M595 55q0 5 -5 11.5t-9 6.5q-5 0 -34 -9t-34 -9h-68q-27 0 -61 12q-5 2 -15.5 9.5t-14.5 9.5q-24 10 -52.5 47t-65 96t-56.5 85q22 20 26 22q34 13 86.5 45.5t69.5 50.5q66 67 75 138q0 2 2 7.5t2 8.5q0 44 -36.5 80t-83 54.5t-94.5 23.5q-2 0 -9 -0.5t-8 0.5q-1 0 -7 3
t-10 3q-82 0 -120 -8q-59 -12 -91 -39q1 -2 4 -17t5 -20q4 -8 23.5 -26t32.5 -18q10 0 31.5 14t26.5 14t5 -1q0 -3 1 -4q-6 -24 -16 -71t-19 -85.5t-20 -71.5q-1 -5 -4.5 -8.5t-8 -7t-6.5 -5.5q11 -26 7 -39q-44 -189 -44 -258q0 -35 21 -68.5t62 -33.5q6 0 11 12t5 18
q0 4 -6 29.5t-6 28.5q0 9 7 56.5t15 76.5q1 4 1 14.5t2 16.5t9 7q34 -33 59 -74q29 -54 84 -112t104 -70q7 -2 24.5 -9.5t21.5 -7.5h47q23 0 97 27q11 5 18 15q2 3 7 9.5t8.5 12t3.5 8.5zM349 622q0 -13 -19 -56q-36 -70 -163 -136q-4 14 7 51q7 31 12 48q1 7 6.5 30.5
t7.5 35.5l2 8q1 8 3.5 17.5t6 20t8.5 17t11 6.5q4 0 9.5 -3t8.5 -3q4 0 9.5 2t8.5 2q4 0 21 -6t20 -6q4 0 4 1t3 1q8 0 21 -11t13 -19zM368 665q-117 90 -308 21q41 17 76 26t77.5 12t82 -11.5t72.5 -47.5zM375 629q-17 18 -36.5 30.5t-35.5 19.5t-40.5 9.5t-38 3.5t-42 -3
t-39.5 -6t-43 -9t-40 -9q216 93 315 -36zM200 660q-7 -32 -22.5 -95.5t-23.5 -99.5q3 15 9 60q19 138 33 138q2 0 4 -3zM180 661l-2 -11l-9 -40q-9 -40 -19.5 -89t-14.5 -67q-24 -113 -54 -280q-6 -28 -12 -87q2 84 16 172.5t43.5 219.5t37.5 174q1 2 2 3.5t5 5t7 -0.5z
M469 45q-25 -9 -49 -9.5t-45 7.5t-40 20.5t-36.5 31.5t-32.5 37.5t-30 43t-26.5 44t-25.5 43t-23 37.5q11 0 11 4q21 -42 37.5 -71.5t47 -72t60 -68t70 -40.5t82.5 -7zM223 164q-5 7 -16 22.5t-19.5 28.5t-18 27t-14 22.5t-3.5 10.5l5 9q32 -47 67 -117q5 -11 3 -9
q-1 1 -4 6z" />
    <glyph glyph-name="S" unicode="S" horiz-adv-x="469" 
d="M452 606q0 -24 -10.5 -53.5t-37.5 -44.5h-10q23 56 23 84q0 18 -15.5 53t-39.5 53q-1 1 -5 -1q54 -68 51 -114q-1 -16 -19 -64q-17 26 -19 34q0 2 2.5 39t-7 60t-38.5 23q-46 0 -88 -35t-42 -81q0 -29 29.5 -71.5t68 -87.5t48.5 -63q4 -6 16 -27l16 -28l13 -24l12 -25
l9 -23l7 -24l1 -24l-2 -22l-4 -14l-7 -14l-7 -14q-15 -31 -59 -63.5t-75 -40.5q-3 -1 -17.5 -8t-23.5 -9q-39 -6 -78 -6q-18 0 -50 11.5t-43 21.5q-50 46 -50 97q0 75 37 75q23 0 40 -12.5t15 -32.5l-5 -21q-4 -22 -2 -32q2 -16 43 -16q19 0 56 9t53 17q30 16 57 48t27 58
q0 31 -24 79q-3 5 -6.5 17.5t-7.5 17.5q-15 20 -53.5 66t-56.5 70q-19 26 -40.5 75t-21.5 81q0 73 59.5 112t127.5 39q3 0 10 -1t15 -2t12 -1q4 -1 24 -13q3 -1 13.5 -6.5t17.5 -9t15.5 -10t11.5 -13.5q2 -4 7.5 -14.5t8 -15.5t7 -14.5t6.5 -15.5t3.5 -14t1.5 -15zM436 594
q0 55 -58 110q69 -76 46 -162q1 5 5 15.5t5.5 19.5t1.5 17zM380 217q-11 70 -84 144q-62 64 -85.5 112t-25.5 105q-7 -48 7.5 -90t35.5 -67.5t60.5 -69t62.5 -75.5q17 -22 29 -59zM377 178q1 45 -45 104.5t-96.5 116.5t-56.5 91q0 3 -2 8l-7 33q-1 0 -1 -6q-1 -45 26.5 -90
t62.5 -78t71 -82t48 -97zM278 45q-39 -31 -61 -39t-65 -8q-20 0 -45.5 10.5t-35.5 11.5q54 -38 105 -33t102 58zM282 63q-59 -36 -123 -43q-18 -4 -71 10q37 -25 100 -15.5t94 48.5z" />
    <glyph glyph-name="T" unicode="T" horiz-adv-x="435" 
d="M565 658q0 -18 -13.5 -26.5t-30.5 -8.5q-20 0 -35 4q-42 8 -148 8q-27 0 -38 -5q-8 -3 -22 -45q-13 -52 -18 -75q-4 -21 -13 -64.5t-12 -64.5q-5 -30 -10.5 -79.5t-8.5 -84.5t-3 -40q0 -28 7 -77t13 -58q1 -2 11.5 -13t10.5 -17q0 -9 -10 -14.5t-14 -5.5t-13 3t-13 4
q-28 10 -44 36t-19.5 50.5t-6.5 58t-6 45.5v93q2 9 2.5 34t1.5 32q10 90 48 270l-8 7q-10 -6 -30 -6.5t-27 -2.5q-4 -1 -16 -6t-21.5 -8t-12.5 -3q-18 0 -42 23t-29 35q-7 12 -7 26q0 6 5.5 14t11.5 9q12 3 82 12q180 13 246 13q54 0 107 -5q5 0 88 -12q37 -21 37 -56z
M218 630h-11q-5 0 -26.5 -115.5t-29.5 -243.5t32 -217q-14 41 -20.5 85.5t-3 101t6.5 87.5t13.5 100.5t12.5 83.5q2 15 14 62.5t12 55.5zM212 548q-79 -416 -2 -516q-28 86 -28 158q0 30 4 73.5t9 82.5t6 47q14 125 11 155z" />
    <glyph glyph-name="U" unicode="U" horiz-adv-x="548" 
d="M626 115q-1 -4 -4.5 -9t-4.5 -8q-1 -4 1 -14t-1 -14q-1 -2 -9 -13.5t-13 -19t-12.5 -17t-14 -15.5t-11.5 -7q-11 -3 -26 -3q-21 0 -85 15q-9 9 -12 10q-58 37 -80 107t-19 137q0 1 -1 3t-2.5 4.5t-2.5 5.5q-1 0 -6 -5q-40 -80 -88 -160q-3 -5 -13.5 -25.5t-18 -32.5
t-19.5 -27.5t-26.5 -23.5t-30.5 -8q-8 0 -16.5 5t-15.5 6q-29 3 -48.5 22t-27.5 48.5t-11 55.5t-2 54q2 45 27 204q30 167 90 343q2 3 8 9q24 8 38 8q8 0 29.5 -21.5t26.5 -31.5q6 -32 5 -41q0 -6 -3 -11t-6 -7.5t-8 -5.5t-6 -4q-4 -4 -6.5 -9t-5 -13t-4.5 -12
q-17 -35 -27 -78q-19 -61 -32 -124q-10 -48 -23 -128t-13 -88q0 -1 1 -32t-1 -48l8 -5q7 3 12 14q18 26 39 64.5t44 85.5t32 64q18 27 24 42q8 17 32.5 72t39 88.5t34 83t31.5 88.5q2 0 11 4.5t14 4.5q28 0 59 -35q11 -19 11 -48q0 -3 -7.5 -38.5t-17.5 -83.5t-14 -74
l-8 -57l-7 -63l-5 -52l-3 -25q0 -4 2 -8t2 -6q-3 -11 1 -42q1 -4 3 -20.5t5 -23.5q10 -33 41 -56q9 -3 11 -3q4 0 4 1t3 1t4 -3t4 -3q11 0 59.5 33t49.5 33q12 0 12 -14zM408 515q-20 -54 -20.5 -195t10.5 -159q1 -3 1.5 26.5t1 76t1 96t2 94t4.5 61.5zM384 585
q-23 -56 -81.5 -177.5t-78.5 -177.5q122 216 160 355zM406 62q-12 29 -19.5 63t-10.5 79.5t-3.5 69.5t0 79t0.5 61q-16 -91 -10.5 -184.5t43.5 -167.5zM174 620q-41 -95 -74 -241t-27 -222q6 72 39 220.5t62 242.5zM158 637q-67 -183 -84 -251q-47 -184 2 -324
q-10 44 -11.5 95t1.5 90.5t16 101.5t21 93t28.5 101.5t26.5 93.5z" />
    <glyph glyph-name="V" unicode="V" horiz-adv-x="436" 
d="M554 657q-33 -8 -60 -24q-16 -12 -28.5 -31.5t-26 -47.5t-21.5 -41q-25 -41 -118 -261q-3 -6 -17.5 -35.5t-21.5 -48.5q-8 -20 -14 -44t-12.5 -55.5t-10.5 -46.5q-6 -28 -41 -28q-10 0 -30 10q-22 15 -37 33t-23 42t-12.5 41t-9 46t-6.5 41q-3 16 -7 57.5t-5 49.5
q-2 20 -6.5 89t-9.5 116t-14 91q-2 9 -8.5 26.5t-12 31t-5.5 15.5q0 19 18 27t35 8q19 0 38 -13t23 -35q6 -39 13 -112.5t9 -93.5q2 -15 5 -50t5 -57t7.5 -59.5t13.5 -75.5l7 -8q7 4 16 22q17 37 54 128.5t59 138.5q6 14 26 48t28 52q17 39 51 77t66 44q3 -4 7 -4
q-39 -33 -45 -42q-48 -64 -101 -159.5t-79 -181.5q92 202 193 345q12 18 41 36h14q-77 -66 -151 -217q10 0 29 30q0 1 10 17.5t21.5 35.5t27.5 43.5t30 43.5t27 32t20 13q5 0 22 -14.5t17 -19.5v-25zM152 190q0 7 -3 26t-8 43t-6 34q-9 56 -43 315q-2 1 -5 5.5t-5 5.5
q11 -73 19.5 -156.5t18.5 -141t32 -131.5zM140 149l1 14q0 2 -6.5 31.5t-15 67.5t-11.5 55q-10 67 -42 326h-9q1 -9 1.5 -27t2.5 -25q19 -156 31 -232q15 -118 48 -210z" />
    <glyph glyph-name="W" unicode="W" horiz-adv-x="717" 
d="M706 419q0 -51 -24.5 -138t-51.5 -140q-2 -3 -2.5 -13.5t-2.5 -13.5l-11 -22q-11 -23 -14.5 -29.5t-16 -25t-21.5 -25.5t-23.5 -14.5t-30.5 -7.5q-2 0 -30 14q-34 10 -39 14q-45 37 -72.5 77t-38 84t-13.5 80t-4.5 87.5t-5.5 83.5q-2 0 -10 -8q-54 -98 -123 -273l-2 -13
q-3 -13 -6.5 -28t-9.5 -33.5t-13 -33.5t-17 -25.5t-21 -10.5t-41.5 23t-37.5 33q-18 27 -21 48q-4 23 -4 55q0 2 1.5 24t3.5 50.5t2 46.5q2 35 10 109l6 64q1 19 7 76t8 80q0 4 -2.5 65t3.5 67q1 6 12 10.5t18 4.5q5 0 22.5 -5t25.5 -10q8 -6 17.5 -26t9.5 -34
q0 -2 -2.5 -16.5t-6 -35t-5.5 -32.5q-3 -20 -33 -341q-1 -1 3 -7q10 5 18 15t11 19.5t7.5 24.5t7.5 22q19 45 44.5 91.5t66.5 114.5t67 113q1 2 1 8v10q4 8 18.5 25t23.5 17q24 0 49.5 -31.5t25.5 -51.5q0 -3 -8 -18t-9 -21q-3 -15 -7 -57t-6 -57q-8 -49 -8 -152
q0 -4 -0.5 -29t0 -34t3 -31.5t7 -36.5t13.5 -32.5t22 -34.5l1 -3q1 -3 2.5 -7t4 -8.5t5 -8t6.5 -6t8 -2.5q9 0 22.5 16.5t20.5 28.5q91 177 91 346q0 66 -18 103t-18 85q0 25 4 35q6 3 6 9q35 -41 50.5 -104t13 -125.5t-18.5 -122.5q33 86 26 179.5t-51 168.5q0 6 3 11
q8 -6 15.5 -15t12 -16.5t9.5 -21t7 -20.5t5 -23.5t4 -21t3 -22.5l2 -18q4 -29 4.5 -62.5t-1 -48.5t0.5 -26q18 53 6 152.5t-54 145.5q3 -1 14.5 -2.5t19.5 -6.5t14 -18q12 -26 23 -74t11 -78l5 -2q1 -2 1 -5v-121zM407 114q-32 43 -49 105t-18.5 138.5t1 128t9.5 125.5
q-13 -29 -20 -99.5t-4.5 -149t23 -150.5t58.5 -98zM446 81q-33 54 -52 103.5t-24.5 96.5t-5.5 83t2 88t1 86q-15 -74 -17.5 -157t23 -169t73.5 -131zM117 701q-34 -190 -37 -319q-1 -31 4 -7q16 84 30 272q3 35 3 54zM92 650q-17 -92 -23.5 -134.5t-15.5 -119.5t-7.5 -139.5
t11.5 -123.5q-2 72 1 141.5t6.5 111.5t13 129t14.5 135zM77 176l4 166l-6 3l-7 -134z" />
    <glyph glyph-name="X" unicode="X" horiz-adv-x="555" 
d="M623 -37q0 -12 -1 -18q0 -9 -17 -22q-14 -9 -38 -9h-30q-34 0 -83 33t-79 72q-34 47 -48 80q-8 16 -15.5 38.5t-12 39t-12.5 45.5t-11 41q0 5 -9 14q-25 -28 -54 -77t-45 -85q-2 -4 -13 -19t-16 -23q-4 -7 -20 -54q-10 -25 -43 -25h-19q-9 0 -37 30q-13 15 -13 31
q0 3 40 61.5t103.5 150.5t92.5 135q2 3 -1.5 11t-3.5 10q0 13 -40 150q-4 14 -16.5 41.5t-23 49.5t-10.5 25q0 28 38 28q18 0 30 -5q45 -23 52 -39q3 -9 9 -41t10 -46q7 -20 28 -81q2 0 11 15t10 18q9 13 23 41.5t20 38.5q3 5 6 23.5t8 27.5q10 19 29.5 38.5t35.5 19.5
q20 0 44.5 -22t24.5 -40q0 -3 -92 -137t-92 -138q0 -2 7 -26.5t15.5 -58t11.5 -53.5q20 -109 58 -174q57 -98 116 -98q17 0 29 9t20 9q23 0 23 -35zM298 350q-7 28 -29.5 131.5t-32.5 142.5q1 -47 24.5 -145.5t37.5 -128.5zM299 290q-21 62 -47.5 178t-40.5 162
q38 -252 88 -340zM453 5q-43 50 -65 95t-43 114q3 -56 36.5 -123.5t71.5 -85.5zM473 -33q-21 14 -39.5 31.5t-33 40t-25.5 42t-22 47.5t-17 45t-15.5 47.5t-13.5 41.5q9 -42 14.5 -66.5t20 -66.5t30 -68.5t42 -53.5t59.5 -40zM261 325q-9 -15 -40 -65.5t-56 -92t-39 -68.5
q31 29 82 118t53 108zM255 339q0 7 -6 9q-74 -146 -196 -310q95 97 164 231q36 62 38 70z" />
    <glyph glyph-name="Y" unicode="Y" horiz-adv-x="506" 
d="M488 626q0 -6 -27 -141q-17 -91 -27 -132l-19 -94q-13 -53 -21 -101q-14 -84 -16 -100t0 -58q0 -2 1.5 -14t2 -24.5t-0.5 -26.5t-6 -22.5t-15 -8.5q-4 0 -13.5 4t-12.5 5q3 21 34 220t41 318q-6 1 -10.5 -9t-7 -29.5t-4.5 -39.5t-4.5 -47t-4.5 -45q-6 -41 -15.5 -114.5
t-18 -134t-17.5 -113.5q-10 6 -16.5 14.5t-9.5 16.5t-5 19.5t-2 18.5t0.5 17.5t0.5 12.5q0 37 6.5 90t12.5 85t20 100.5t16 80.5q3 2 -1 8q-23 -24 -60.5 -69.5t-58.5 -68t-54 -42.5t-67 -20q-53 0 -83 39t-30 82q0 89 90 359q1 4 1 13t1 14q2 11 8 21q12 12 31 12
q27 0 49 -23.5t22 -48.5q0 -22 -7 -30q-29 -46 -58 -135q-15 -39 -26 -93q-18 -81 -14 -112l1 -2q2 -3 3.5 -4t5.5 -1q11 0 39 27t43 46q7 9 37 47.5t40 51.5t33.5 44.5t35 49.5t26.5 43.5t25 47.5q11 22 16 74q1 0 14.5 4.5t17.5 4.5q26 0 44.5 -31.5t13.5 -55.5zM445 661
q0 3 -1.5 3.5t-4 -0.5t-5.5 0q-5 -45 -63 -144q74 95 74 141zM423 663q-2 0 -14 -12q-6 -26 -23 -60.5t-44 -79t-27 -45.5q22 15 59 81.5t49 115.5zM155 657q-45 -63 -87 -272q11 38 62 187q28 85 25 85zM381 433q-52 -296 -58 -438q0 -5 14 85t28.5 200.5t15.5 152.5z
M139 673q0 3 -1.5 3.5t-3 -0.5t-3.5 1q-48 -99 -74.5 -223.5t0.5 -192.5q-8 33 -4.5 78.5t9.5 80t18 77.5t22 71t21.5 60t15.5 45z" />
    <glyph glyph-name="Z" unicode="Z" horiz-adv-x="508" 
d="M528 95q-6 -29 -16 -39q-7 -6 -21 -12.5t-20 -6.5h-117q-3 0 -12 -1.5t-21.5 -3t-19.5 -2.5q-63 -9 -190 -38q-27 -5 -36 -9q-1 0 -6.5 -5t-9.5 -5q-6 0 -26 10q-11 5 -23.5 39.5t-12.5 48.5q0 8 20 36.5t26 34.5q128 182 227 331q8 12 29.5 43.5t33 52t13.5 33.5
q-4 7 -26 7q-34 0 -99 -25t-85 -25q-9 0 -14 3t-7.5 6t-6.5 12.5t-8 15.5q52 13 100 31q-6 2 -27.5 -3t-46 -12.5t-28.5 -8.5q-2 5 -4 7q1 5 4 7q169 51 261 52l2 2q-8 5 -27 5q-31 0 -72 -8t-94 -22t-76 -19q0 4 -3 12t-3 13q14 17 33 18q29 2 74.5 13.5t51.5 12.5
q130 22 160 22q42 0 60.5 -18.5t18.5 -56.5q0 -11 -1.5 -18t-2.5 -10t-7.5 -13t-9.5 -15q-2 -3 -11.5 -12.5t-13.5 -14.5q-19 -26 -101 -140q-85 -127 -129 -203q-5 -3 -36 -45.5t-31 -54.5q0 -7 4 -12t8 -6.5t5 -1.5q4 0 11 3.5t8 3.5q76 13 148 13q83 0 163 -8
q9 -1 40 -14zM381 608l-7 3l-61 -98q-61 -98 -117.5 -194.5t-54.5 -107.5zM402 605q-164 -240 -311 -508q195 292 311 508z" />
    <glyph glyph-name="bracketleft" unicode="[" horiz-adv-x="305" 
d="M287 643q0 -28 -44 -28q-5 0 -37.5 1.5t-35.5 1.5q-8 0 -22.5 -6.5t-17.5 -16.5q-9 -213 -9 -217l-32 -366q0 -17 3 -20.5t15 -3.5q1 0 11 2t11 -2q50 21 54 21q8 0 14 -14q7 -13 7 -16q0 -13 -5 -19q-2 -18 -17 -25q-32 -18 -39 -18q-5 0 -8 -2.5t-8 -2.5h-82
q-6 0 -33 37q-8 9 -8 31q0 3 4.5 37.5t10 81.5t6.5 76q7 40 7 86q9 221 20 367q1 17 0 37.5t-1.5 30t2 19.5t11 13.5t24.5 3.5q4 0 11.5 -4.5t17.5 -11.5t17 -10q12 -4 33 -4q3 0 10 1.5t12 1.5q6 0 34.5 -11.5t49.5 -22.5q14 -6 14 -28zM81 609q-14 -68 -27.5 -238
t-14.5 -180q7 7 13 65t12.5 142.5t13.5 128.5q10 55 3 82zM104 627q-3 -2 -6 -12.5t-5.5 -26.5t-4.5 -30.5t-3.5 -33t-2.5 -24.5q-4 -28 -19 -231q-1 -21 -7 -69t-7 -59q-4 -60 -4 -89q0 -43 6 -48q-3 78 21 258q4 34 8.5 107.5t7.5 102.5q2 18 6 56.5t7 67t3 31.5z" />
    <glyph glyph-name="backslash" unicode="\" horiz-adv-x="382" 
d="M271 -19q-9 9 -52 145q-6 17 -64.5 196t-92.5 272q-3 7 -26 34.5t-32 56.5q9 17 41 30t59 -7q9 -11 49 -116q134 -370 216 -588q2 -3 2.5 -12t-2.5 -13q-5 0 -24.5 49t-40 101t-26.5 56q0 -1 40 -107t38 -111q-8 7 -15 21.5t-14.5 34t-10.5 26.5q-4 9 -17 32.5t-21 41.5
t-12 36q-24 91 -83.5 243t-68.5 185q-1 1 -1.5 3.5t-1.5 4t-4 2.5q12 -53 49.5 -145t44.5 -111q8 -22 29 -91t32 -100q5 -13 36.5 -83.5t39.5 -109.5q-6 -1 -8 -3q-6 11 -15 40t-12 37q-6 13 -25.5 53t-28.5 63q-5 15 -25 82.5t-33 102.5q-18 47 -84 200l-2 3q0 -13 3 -24
q8 -21 36 -88t37 -91q12 -33 31.5 -99t30.5 -98q7 -18 22 -48t26 -60t18 -69q-5 -2 -17 5.5t-21 17.5z" />
    <glyph glyph-name="bracketright" unicode="]" horiz-adv-x="298" 
d="M261 653q0 -4 -0.5 -5.5t-3 -3t-3.5 -2.5q-1 -12 -7.5 -54t-8.5 -67q-7 -63 -13 -168.5t-9.5 -184t-3.5 -79.5v-72q0 -12 7 -39.5t7 -29.5q0 -19 -16 -27.5t-35 -8.5h-101q-16 0 -27 5q-4 0 -21 24.5t-17 33.5q0 11 13.5 23.5t20.5 12.5q3 0 19 -2.5t24 -2.5q26 0 37 3
q6 5 6 15q8 97 14 280q2 38 9.5 110.5t13 127.5t5.5 60q0 27 -8.5 41.5t-33.5 14.5q-2 0 -31.5 -8.5t-32.5 -8.5q-20 0 -20 16q0 37 35 57t68 20q26 0 69.5 -25.5t43.5 -55.5zM171 33q14 68 25 236.5t12 177.5q-7 -7 -12.5 -66t-11 -144t-12.5 -129q-11 -61 -1 -75zM145 11
q3 2 6 12.5t5.5 26.5t4.5 30.5t3.5 33t2.5 24.5q5 46 17 231q1 21 7 69t7 59q3 45 3 89q0 43 -6 48q3 -84 -20 -258q-3 -32 -7 -105.5t-8 -104.5q-1 -19 -5 -56.5t-7 -67t-3 -31.5z" />
    <glyph glyph-name="asciicircum" unicode="^" horiz-adv-x="376" 
d="M330 588q-12 -6 -17 -6q-26 0 -49 32t-34 63.5t-12 47.5l-9 95q-4 1 -6 -2q-7 -15 -24 -47.5t-26 -51t-20 -45.5t-18 -50v-10l-1 -18l-4 -18l-11 -7q-8 0 -31.5 16t-24.5 23q-2 3 -2 12q0 11 5.5 28t15.5 42t12 31q4 10 22.5 49t23.5 50q6 15 17 41t32 61.5t34 35.5
q3 0 7 -8t10 -23t8 -18q3 7 -4.5 26.5t-10.5 22.5q7 1 11.5 -6.5t7.5 -18.5t6 -14q4 18 -9 37h13q6 0 17.5 -9.5t12.5 -18.5q1 -7 1 -37.5t1 -42.5q0 -5 3 -25t3 -30q3 -86 22 -138q19 -28 19 -29q11 -19 9 -40zM305 616q-10 26 -17.5 51.5t-14 57t-10 48t-10 56.5t-8.5 52
l-7 25v-1q0 -46 22.5 -152.5t44.5 -136.5zM281 632q-9 25 -17 65t-19 102t-15 83q1 -44 16 -126.5t35 -123.5z" />
    <glyph glyph-name="underscore" unicode="_" horiz-adv-x="544" 
d="M512 37q0 -7 -6 -24t-14 -17q-5 0 -47 6t-45 6q-29 0 -204 -7q-14 0 -39.5 -2t-46 -4t-21.5 -2q-16 0 -26.5 5t-14 15t-4.5 17t-1 20q0 9 6 16.5t12 7.5q4 0 10.5 -4t10.5 -4h12h14h10q3 0 121 4t122 4q3 0 39.5 -1t39.5 -1t19.5 3t20.5 3q6 0 19 -18.5t13 -22.5zM450 44
q-34 2 -63.5 1.5t-71 -2t-49.5 -1.5q-1 0 -24.5 0.5t-51 1t-61.5 1t-56 -0.5q16 -12 176 -12q146 0 201 12zM465 19q-7 6 -28 6q-203 -4 -254 -2q-64 3 -96 1q59 -12 158 -12q110 0 220 7z" />
    <glyph glyph-name="grave" unicode="`" horiz-adv-x="251" 
d="M214 839q0 -8 -5 -19.5t-14 -11.5q-28 0 -99 67.5t-77 89.5q19 -11 66 -58.5t72 -62.5q1 -2 4 1q-28 20 -71.5 62.5t-62.5 70.5q0 2 2 4.5t4 1.5q17 -14 69.5 -65t86.5 -75q2 4 -34.5 37t-73.5 68t-37 45q0 7 9.5 10.5t17.5 3.5q12 0 22.5 -10t24 -29.5t18.5 -25.5
q12 -15 35 -41.5t30 -34.5q13 -17 13 -28z" />
    <glyph glyph-name="a" unicode="a" horiz-adv-x="409" 
d="M474 104q0 -8 -36 -44q-23 -23 -59.5 -42t-68.5 -19q-40 0 -56 9q-13 10 -21 21.5t-10.5 18t-6.5 26t-6 27.5q-7 -7 -19.5 -28.5t-20.5 -30.5q-6 -9 -40 -40q-18 -9 -29 -9h-35q-6 0 -23.5 9t-25.5 18q-6 9 -11 27t-5 25q0 61 69 199.5t106 171.5q12 7 27 7q12 0 14 -1
q10 -8 30.5 -20.5t23.5 -12.5q4 0 6 2t6 2q19 0 39.5 -18.5t20.5 -40.5q0 -6 -3.5 -20t-7.5 -27l-10 -26l-4 -14q-23 -106 -23 -147q0 -2 -0.5 -11.5t0 -14t1.5 -13t4 -13t9 -8.5t15 -5q37 0 73 16q40 17 78 43q0 -6 -1 -17zM247 361v10q-4 0 -5 1l-2 2q-76 -64 -134 -267
q-5 -5 -5 -13v-14q12 9 23.5 21t20 21.5t19 27.5t15 26t14.5 31t12 28t12 31.5t11 27.5q19 63 19 67zM201 390q-31 -8 -76.5 -98t-40.5 -129q6 40 42 109t75 118zM303 38q-58 41 -58 94q0 4 1 15t1 16q-14 -26 -14 -34q0 -25 21 -56.5t49 -34.5zM225 391l-14 -4
q-57 -63 -93.5 -154t-29.5 -164q0 70 40.5 163t96.5 159zM285 23q-26 14 -42.5 45t-16.5 57q0 -1 -4 -7.5t-3 -10.5q3 -31 22.5 -56t43.5 -28z" />
    <glyph glyph-name="b" unicode="b" horiz-adv-x="387" 
d="M357 282q0 -30 -31 -113t-43 -84q-3 0 -4.5 -4.5t-4 -11t-4.5 -9.5q-66 -86 -139 -86q-21 0 -35.5 12t-22 24.5t-11.5 12.5q-3 0 -6 -1t-7 -1q-41 0 -41 58q0 21 9 63.5t22.5 94t17.5 69.5q3 18 8.5 58.5t7.5 50.5l3 14q4 14 8.5 35.5t9 45t8 46t3.5 35.5v117
q21 16 29 16q18 0 18 -38q0 -28 -18 -118t-18 -101v-22h2q10 59 21 108q21 97 19 161h10q4 -4 4 -18q0 -2 -11 -68t-26 -158.5t-22 -145.5q-15 -112 -15 -122q17 69 37.5 209t38.5 216q3 13 5 43t3 36q17 -21 17 -51q0 -1 -6 -61q-7 -73 -13 -115q-2 -8 -6 -25t-7 -29.5
t-3 -15.5v-18q4 -4 7 -4q2 0 9.5 6t13.5 8q11 3 33 3q24 0 60.5 -11t44.5 -27q25 -61 25 -84zM322 275q0 4 -2.5 8.5t-2.5 6.5q-1 -60 -83 -184q1 1 11.5 13.5t14 17.5t14 19t15.5 22t12.5 22t11 25t6.5 24.5t3 25.5zM305 299q0 19 -15 32q16 -43 -18 -119.5t-86 -132.5
q120 120 119 220zM276 332q-18 16 -32 16q-31 0 -58.5 -40t-42.5 -92.5t-23.5 -94t-8.5 -53.5q0 -4 9 -16q67 53 107 129.5t49 150.5z" />
    <glyph glyph-name="c" unicode="c" horiz-adv-x="321" 
d="M364 134q-16 -27 -37.5 -49.5t-33.5 -31.5t-46.5 -30t-42.5 -26q-5 -3 -25.5 -8t-26.5 -5q-3 0 -34 2t-35 2q-10 0 -29.5 14.5t-27.5 22.5q-7 13 -16 44t-9 49q0 51 23 129.5t67 144.5t91 66q26 0 61.5 -16.5t53.5 -40.5q11 -17 11 -50q0 -3 -13.5 -32t-18.5 -30
q-7 -3 -25 -15t-22 -12q-10 0 -21.5 15.5t-11.5 23.5q0 3 4 13l8 26l7 25l-6 6q-42 -20 -78.5 -110t-36.5 -149q0 -9 2.5 -23t11 -28.5t20.5 -10.5q3 0 5.5 -2.5t6.5 -2.5q23 0 75.5 21.5t78.5 36.5q57 31 58 32q3 2 6 0.5t6 -1.5zM259 341q2 29 -14 49q0 -2 -1.5 -3
t-3.5 -1l-2 -1q11 -11 12.5 -36t-5.5 -43q13 19 14 35zM239 342q2 22 -8 41q-1 0 -5 -2t-6 -2q5 -5 7.5 -12t3 -12.5t-1 -15t-2.5 -13.5t-4 -15t-4 -13q17 22 20 44zM123 316q-36 -60 -51 -109.5t-5 -99.5t50 -95q-33 44 -39 96.5t6 98.5t39 109zM256 389q7 -8 9.5 -17.5
t2 -16t-3.5 -18t-3 -14.5q14 13 14 39t-19 27zM82 288q-39 -77 -45 -109q-12 -68 41 -143q-14 26 -21 50.5t-9.5 41t1.5 40.5t7 35.5t12.5 41.5t13.5 43z" />
    <glyph glyph-name="d" unicode="d" horiz-adv-x="422" 
d="M473 69q-1 -20 -28.5 -43.5t-44.5 -23.5q-4 0 -15 -3t-14 -3q-52 0 -95 55.5t-39 111.5l-7 7q-2 -2 -2.5 -7t-1.5 -7q-4 -2 -6 -4q-45 -113 -78 -134q-7 -5 -12.5 -10t-8 -7t-7 -3.5t-12.5 -1.5q-55 0 -77.5 25.5t-20.5 80.5q0 6 10 49t18 68l12 35q11 34 16.5 48.5
t17 43t24 49.5t26.5 37q16 18 46 18q4 0 15.5 -4t17.5 -5q5 -1 11.5 -5.5t15 -11t12.5 -9.5t6.5 -12.5t15.5 -15.5q8 52 48.5 185t66.5 133q6 0 23.5 -8t22.5 -16q10 -12 10 -32q0 -8 -10 -35.5t-21 -55t-12 -30.5q-2 -8 -14.5 -50.5t-21 -74t-19.5 -75.5t-17 -83t-7 -70
q-1 -36 16.5 -83.5t52.5 -47.5q11 0 33.5 7.5t37.5 22.5l17 13q1 -3 1 -4.5t-1 -6t-1 -7.5zM199 246q-6 2 -16.5 14.5t-10.5 22.5q5 45 5 48q-77 -140 -87 -219q0 -2 -2.5 -10.5t-1.5 -12.5l-1 -23q55 51 114 180zM376 643q-14 -10 -29 -46.5t-11 -56.5q5 11 20.5 53
t19.5 50zM391 626q-26 -35 -46 -92.5t-28 -95t-19 -105.5q19 108 93 293zM355 30q-84 83 -63 291q-15 -118 -9 -166q10 -84 72 -125zM327 27q-25 26 -39 62.5t-17 59t-3.5 73t-1.5 62.5q-5 -30 -6.5 -62.5t2.5 -71t20.5 -72t44.5 -51.5zM188 392q-21 -8 -57.5 -77
t-60 -149.5t-10.5 -113.5q2 74 41 174.5t87 165.5zM158 389q-43 -38 -89 -168.5t-23 -174.5q-12 54 25.5 156t86.5 187z" />
    <glyph glyph-name="e" unicode="e" horiz-adv-x="331" 
d="M372 167q2 -11 -11 -26q-49 -63 -111.5 -108t-111.5 -45q-68 0 -103 42t-35 103q0 57 35 139.5t78 131.5q2 3 7.5 11.5t12 16t14.5 13.5q9 7 25 15.5t21 8.5q3 0 7.5 -1.5t10 -4t8.5 -3.5q34 -8 52.5 -36.5t18.5 -59.5q0 -50 -80 -154.5t-126 -111.5q9 -29 17 -35.5
t26 -6.5q36 0 88.5 28t94 55.5t49.5 27.5h13zM215 391q-12 -69 -8 -66l1 2q0 1 3 7t4 10t2.5 11.5t1 16.5t-3.5 19zM244 402q3 -34 -10.5 -76t-42.5 -71q33 17 51 65.5t2 81.5zM229 398q0 -2 -1 -13.5t-2 -16.5t-2.5 -17t-4.5 -20t-7.5 -19t-11 -21t-14.5 -20q29 16 42 57.5
t1 69.5zM201 381q-25 -16 -55.5 -67.5t-40.5 -92.5q31 16 67 63.5t29 96.5zM119 6q-28 9 -48.5 27t-30.5 39.5t-14 41.5t-4 41q0 52 29 121q-37 -66 -37 -131q0 -49 24.5 -90t80.5 -49zM148 11q-56 19 -87 72.5t-21 98.5q-6 -12 -6 -39q0 -51 28.5 -88t85.5 -44z" />
    <glyph glyph-name="f" unicode="f" horiz-adv-x="360" 
d="M421 648q0 -29 -21.5 -68.5t-49.5 -39.5q-6 0 -19 15.5t-13 18.5t9 36t9 37q0 37 -26 37q-7 0 -17 -8.5t-17 -17t-7 -9.5q-31 -45 -59 -118q-23 -65 -37 -128q-2 -7 -9.5 -26.5t-7.5 -23.5v-12q16 -5 36 -5q4 0 80 9t80 9t18 -5t16 -8q8 -11 8 -16v-11
q-32 -8 -89.5 -22.5t-97 -24.5t-41.5 -10q0 3 -6 3q-11 0 -24 -8q-28 -86 -36 -198q0 -6 -6 -12q-10 -52 -10 -126q0 -64 11 -90q9 -24 15 -29q2 -1 10.5 -1.5t11.5 -3.5q5 -4 10.5 -14t5.5 -16q0 -2 -2 -6.5t-2 -8.5h-37q-14 0 -41 18t-35 30q-7 8 -18 45l-8 48l-3 33
q0 127 38 317q-9 4 -20 4q-4 0 -9.5 -3t-9.5 -3q-36 0 -59.5 24.5t-19.5 56.5q0 1 1 2q3 3 3 4q24 9 28 9q3 0 19.5 -4t20.5 -4q2 0 24.5 2.5t36.5 3.5q5 12 13.5 45.5t13.5 49.5q10 31 26.5 75t25.5 69q36 91 72.5 138t93.5 47q3 0 18.5 -3t22.5 -2q47 -23 63.5 -45.5
t16.5 -55.5zM361 597q16 21 16 45t-9.5 40t-22.5 23q17 -16 22 -49t-6 -59zM225 621q-41 -60 -71.5 -150t-26.5 -138q1 5 8 30t8.5 31t8 28t9 30.5t8.5 28t10 29.5t10 27t11 29t11.5 26.5t13.5 28.5zM206 617q-39 -54 -67 -133.5t-37 -151.5h10q13 121 94 285zM96 248
q-14 -7 -15 -9q-2 -12 -10.5 -57t-11 -60.5t-9 -59t-5.5 -52.5t0 -41q7 46 25.5 140t25.5 139zM116 251h-11q-5 -39 -16.5 -97t-18.5 -93.5t-11.5 -96t4.5 -104.5q-1 48 4 104t11.5 92t19.5 102.5t18 92.5zM341 596q16 25 16.5 48t-6.5 35t-16 18q22 -33 6 -101z" />
    <glyph glyph-name="g" unicode="g" horiz-adv-x="373" 
d="M347 383q1 -25 -9.5 -62.5t-11.5 -47.5q-3 -26 -6.5 -72.5t-7.5 -86t-10 -72.5q-34 -208 -91 -324q-1 -3 -20 -31q0 -1 -0.5 -5.5t-1.5 -5.5q-11 -17 -40 -38.5t-50 -22.5q-55 -3 -99.5 37t-47.5 93q-3 31 19 56q3 0 8.5 -3.5t12.5 -10t11 -9.5q1 -9 8.5 -34t23 -51
t31.5 -25q13 0 41 33q55 76 90 216q13 51 25 149l-4 22q-10 -11 -34 -44t-45 -51.5t-43 -19.5q-14 -1 -24 2.5t-16 8.5l-5 4q-26 8 -36 15q-13 8 -16 51q-2 14 0 30t3.5 21.5t8 27.5t12.5 49q7 30 68.5 141t104.5 114q12 0 32 -6q7 17 4.5 25t-0.5 14.5t13 14.5q8 4 20 6
q5 0 14 -9q31 1 49 -34t19 -65zM236 292q-1 10 -11.5 26t-18.5 15q-29 -27 -80 -126t-48 -147v-13q60 53 107 143l4 7q4 7 10 17t12.5 22.5t12 23.5t9 20t3.5 12zM189 353q-132 -157 -134 -261q11 41 34.5 90t42.5 80.5t57 90.5zM229 200q-9 -19 -23 -41.5t-34.5 -51.5
t-24.5 -35q24 13 51 54t31 74zM130 308q-24 -20 -51 -73.5t-31 -89.5q19 48 82 163zM226 147q-6 -8 -18 -26.5t-18.5 -28t-18.5 -23.5t-25 -26q24 11 49.5 41.5t30.5 62.5zM250 126l-11 -15q-3 -69 -36 -245l-2 -21q9 12 29 124q16 87 20 157zM276 161l-15 -23
q-1 -9 -6.5 -59t-7 -62.5t-7.5 -54t-11.5 -60.5t-14.5 -52t-21.5 -60.5t-27.5 -55.5q18 27 32 53.5t24.5 61t17 54t13 64.5t8.5 58t8.5 69.5t7.5 66.5z" />
    <glyph glyph-name="h" unicode="h" horiz-adv-x="404" 
d="M441 86q0 -12 -27 -47t-33 -39q-43 -15 -60 -15q-87 0 -100 198q-3 61 -5 78q-34 -49 -56 -105q-3 -7 -15 -42t-22.5 -60.5t-22.5 -46.5q-2 -3 -15 -6.5t-19 -3.5q-20 0 -28 0.5t-19 5t-14.5 15t-3.5 29.5q0 28 19 134q0 1 13 60t17 89q8 55 28.5 143t24.5 106q2 12 9 59
t13 74q5 24 25 24q6 0 26 -6.5t28 -13.5q4 -1 7.5 -9t3.5 -14q0 -34 -15 -94q-51 -203 -76 -342q-2 -2 -4 -7t-3 -6q-2 -7 0 -10q28 46 42 76q6 19 35 60t53 41q10 0 34 -10t26 -15q9 -12 9 -44q0 -4 -6 -75t-6 -74q0 -13 1.5 -32t5 -48.5t13 -49t22.5 -19.5q17 0 82 58h13
v-16zM165 707q-9 -32 -14.5 -64t-10.5 -71t-8 -57q-5 -33 -19.5 -97t-15.5 -68q-7 -32 -19.5 -80.5t-20.5 -82t-15 -69.5t-4.5 -60t13.5 -36q-5 71 23.5 192t60 257t30.5 236zM253 86q-3 35 -17 215q-12 -30 -6.5 -98t23.5 -117zM414 66q-59 -48 -107 -38q32 -13 64 -1
t43 39zM391 27q-42 -27 -75 -18q23 -14 45 -6t30 24zM59 284q-1 7 -6 -8q-20 -66 -32 -180q-8 -67 1 -76q-6 6 4 64t22.5 122t10.5 78z" />
    <glyph glyph-name="i" unicode="i" horiz-adv-x="229" 
d="M217 523q0 -34 -49 -34q-17 0 -35.5 15.5t-18.5 32.5q0 23 9 32t34 9q4 0 6.5 -1t4.5 -3t3 -2q46 -5 46 -49zM266 121q0 -3 -5.5 -12t-13 -21t-10.5 -19q-20 -33 -58.5 -56t-70.5 -23q-43 0 -71 28t-35 72v41q0 37 4 68.5t13.5 73.5t11.5 54q2 7 8 23t8 23q9 38 30 54
q12 7 25 7q16 0 34 -14.5t18 -28.5q0 -2 -7 -18.5t-16.5 -43.5t-19 -60t-16.5 -75.5t-7 -81.5q0 -67 28 -67q23 0 82 49l58 49q10 -7 10 -22zM117 368q-96 -262 -13 -354q-21 38 -28.5 78t1.5 90.5t16.5 77.5t27.5 90q1 4 -4 18zM106 375l-11 10q-2 -6 -12 -36.5t-13.5 -43
t-11.5 -42.5t-10 -47.5t-4.5 -45.5t1 -47.5t10.5 -42t20 -41.5q-16 36 -19.5 79t5 90t19 84t26.5 83z" />
    <glyph glyph-name="j" unicode="j" horiz-adv-x="202" 
d="M183 528q0 -4 -5 -14q-64 -28 -72 -28q-26 0 -39.5 15t-13.5 39q0 6 1.5 11t3.5 8.5t6.5 5.5t7.5 3t10 1.5t11 0.5h13h13q8 0 36 -18t28 -24zM168 348q0 -5 -6 -66.5t-15.5 -152t-17.5 -151.5q-5 -36 -18 -93q-17 -75 -53 -157q-25 -58 -44 -82q-18 -22 -29 -30
q-55 -37 -103 -37q-28 0 -52 7q-70 26 -103 87.5t-33 124.5q0 29 15 69.5t43 40.5q5 0 8.5 -0.5t4.5 -0.5q2 -2 5 -6.5t4 -5.5q0 -5 3.5 -22t3.5 -21t-7.5 -40t-7.5 -40q0 -33 13 -67t44 -49q9 -7 23 -7q31 0 64 29.5t55.5 69t37.5 72t18 45.5q50 219 56 462q0 6 -1.5 28
t-1 37.5t5.5 19.5q15 10 20 10q34 0 51 -23t17 -51zM119 305q0 23 -5 40q-7 -161 -32.5 -335t-67.5 -286q47 105 76 274.5t29 306.5zM-215 -329q-40 32 -25 172l1 18q-1 -1 -6 -15q-9 -27 -11 -59t7.5 -65.5t33.5 -50.5zM-218 -359q-54 76 -50 174q1 8 0 8t-4 -8
q-3 -7 -4.5 -22.5t0 -41.5t16.5 -56t42 -54zM102 338q0 4 -4 6.5t-6 7.5q-17 -389 -95 -595q48 77 76.5 255t28.5 326z" />
    <glyph glyph-name="k" unicode="k" horiz-adv-x="372" 
d="M489 141q0 -11 -59 -70q-2 -2 -12 -13t-18 -17q-15 -12 -42 -30q-15 -10 -41 -17.5t-42 -7.5q-35 0 -60.5 15t-42.5 44.5t-27 57t-20 69.5q-1 -3 -4 -5q-1 -13 0 -27.5t-0.5 -33t-4 -35.5t-9 -35t-16.5 -31q-3 -4 -17.5 -8.5t-20.5 -4.5q-2 0 -8.5 3t-16.5 8t-17 8
q-13 26 -13 52q0 2 4.5 25.5t11.5 58t11 57.5q12 62 32 162q5 25 14 80.5t14 79.5q22 102 61 165q10 17 35.5 36.5t40.5 19.5q4 0 10 -2t9 -2q0 -2 1.5 -5.5t1.5 -7.5q0 -3 -9.5 -24.5t-22 -51t-17.5 -45.5q-1 -2 -2 -6.5t-1 -5.5q-1 -2 -2.5 -11t-3.5 -13q-11 -32 -22 -96
t-17 -88q-8 -26 -14 -89q-2 -2 2 -5q2 8 8 38q6 3 7 7q1 2 7.5 21.5t16.5 33t29 25.5q9 6 28.5 11.5t26.5 5.5q4 0 13 -5t12 -5q4 0 4 2t4 2q7 0 14 -8t11 -16l3 -8q0 -8 -30.5 -36.5t-39.5 -45.5q-11 -19 -21.5 -63t-10.5 -75t12 -67.5t33 -50.5q14 -7 32 -7q24 0 56 17.5
t71.5 44.5t59.5 38q8 -8 8 -13zM186 695q-67 -40 -126 -537q12 39 27.5 149.5t39 218.5t59.5 169zM143 639q-18 -32 -32 -71t-25 -92t-16 -82t-14 -94t-10 -73q-3 -15 -8.5 -39.5t-10 -42t-4.5 -19.5q0 -4 4 -13t4 -13q-1 8 16 91q12 60 25 145.5t27.5 152t43.5 150.5z
M261 374q-56 -48 -65 -154t43 -170q-75 155 22 324zM234 367q-27 -26 -41 -59t-14.5 -72.5t2.5 -69t11 -73.5q-11 61 -3 140q10 83 45 134z" />
    <glyph glyph-name="l" unicode="l" horiz-adv-x="244" 
d="M295 71q-39 -46 -71.5 -67.5t-72.5 -21.5q-46 0 -78 22.5t-46 59.5t-19.5 69t-5.5 67q0 93 37 219.5t80 218.5q2 7 12 28t29.5 47t35.5 26q12 0 34 -14t26 -22q10 -14 10 -39q0 -3 -2.5 -13.5t-6 -25.5t-5.5 -23q-17 -107 -56 -196q-1 -2 -1.5 -10t-2.5 -14
q0 -1 -18.5 -34.5t-37.5 -70t-35.5 -75.5t-16.5 -54q0 -40 21 -80.5t66 -40.5q9 0 33.5 5.5t30.5 9.5q12 7 60 43v-14zM218 536q6 25 5 59.5t-4 40.5q6 -58 -45 -203q23 30 44 103zM204 623q-27 -31 -58.5 -128.5t-36.5 -132.5q-2 -12 6 0q28 42 63 145q25 75 26 116z
M170 672q-67 -76 -107.5 -232t-47.5 -284q58 346 155 516zM140 575q-83 -161 -97 -328q25 105 39 152t58 176z" />
    <glyph glyph-name="m" unicode="m" horiz-adv-x="570" 
d="M687 136q-25 -50 -86.5 -92t-110.5 -42q-50 0 -77 45.5t-28 97.5q-1 1 -1.5 3.5t-2.5 3.5q-10 -17 -31 -76.5t-46 -83.5q-16 -13 -48 -13q-12 0 -30 13q-13 9 -22 29q-5 22 -5 54q0 7 6.5 47.5t12.5 78.5l6 38v10h-3q-31 -42 -63 -111q-2 -4 -14.5 -32t-20.5 -44
q-2 -4 -14 -31.5t-23.5 -39.5t-30.5 -12q-30 0 -43 22t-13 47q0 3 13 64.5t31.5 146.5t26.5 129q4 19 10.5 33.5t18 28.5t12.5 16h20v-17q0 -1 -11 -16t-13 -24q-43 -86 -43 -170q0 -15 2 -19q4 0 4 5v6q1 22 0 31t3.5 26.5t6 22.5t6.5 18t5 14q2 5 5.5 16.5t5 17t6 16.5
t9 19.5t12.5 21t18 26.5q4 -4 7 -4q-27 -45 -34 -66q-18 -52 -18 -81q4 -6 4 2q1 3 1 4q4 12 9.5 32t9.5 32.5t12.5 31t20.5 37.5l3 -6q2 -5 2 -10q0 -2 -6 -15t-14 -32.5t-12 -34.5q-6 -19 -17 -68.5t-17 -72.5l2 -18q9 12 60 107t91 141q15 8 50 -6.5t35 -41.5
q0 -1 -5.5 -25.5t-13.5 -58.5t-12 -54q-1 -7 -7 -30t-9 -42t-1 -35q17 32 39.5 85.5t45 93.5t54.5 75q4 5 27 5q13 0 32.5 -16t19.5 -33q0 -4 -10 -40.5t-20.5 -91t-10.5 -102.5q0 -20 10 -40.5t31 -20.5q30 0 93 31.5t85 47.5zM542 44q-61 -9 -112 29q33 -57 112 -29z
M555 35q-51 -11 -74 -6.5t-62 29.5q19 -36 59 -41.5t77 18.5zM284 337q-18 -38 -34.5 -104.5t-17 -139t28.5 -98.5q-16 30 -16.5 83t8 99t19.5 96t12 64zM246 286q-10 -31 -19.5 -88t-11.5 -117t18 -80q-6 35 -6.5 76t2 67t9 75.5t8.5 66.5z" />
    <glyph glyph-name="n" unicode="n" horiz-adv-x="439" 
d="M517 167q-3 -5 -11 -26.5t-14 -31.5q-4 -4 -11.5 -16t-12.5 -18l-12 -17q-14 -21 -42 -45q-38 -19 -54 -19q-4 0 -8 -2t-8 -2q-31 0 -51.5 20t-29.5 54t-12.5 63t-4.5 63t-1 38q-14 -14 -24.5 -32t-22.5 -48.5t-16 -38.5q-8 -27 -36 -63q-14 -19 -24 -25.5t-30 -12.5
q-20 -12 -24 -12q-5 0 -13 6q-17 0 -29 11t-17 29t-7 32t-2 28q0 57 33.5 197t51.5 167q9 9 27 9q4 0 18 -6t20 -7q6 -2 14 -16t8 -20q0 -3 -8 -28.5t-19.5 -61t-16.5 -55.5q-4 -16 -13.5 -55t-12.5 -53l2 -19q5 7 44.5 83.5t78 133t63.5 56.5q6 0 31 -14t27 -21l4 -16
q0 -3 -3.5 -23.5t-8 -46t-5.5 -37.5q-4 -41 -4 -97v-30q2 -28 4 -38q2 -6 8 -30q8 -27 21 -27q22 1 52 26.5t60.5 61.5t31.5 37q4 0 9 -5zM153 409q0 11 -7 11q-8 0 -36 -137l-4 -26q6 17 26.5 81t20.5 71zM246 316q-3 0 -9.5 -5t-8.5 -8q-58 -130 -83 -179q7 5 16.5 19.5
t21.5 39t20.5 42.5t23 49.5t19.5 41.5zM255 307q-30 -64 -110 -215v-15q6 11 25.5 46.5t30 54t24.5 46.5t21 48.5t9 34.5zM368 22q-18 4 -34.5 18.5t-17.5 33.5q-5 -21 11.5 -41t40.5 -11zM134 429q1 7 -11 13q-5 -63 -35 -169t-34 -161q5 25 40 147.5t40 169.5zM360 6
q-23 1 -47 31.5t-22 51.5q-13 -23 12 -61.5t57 -21.5z" />
    <glyph glyph-name="o" unicode="o" horiz-adv-x="320" 
d="M319 273q0 -58 -43.5 -133.5t-101.5 -126.5q-26 -23 -83 -23q-43 0 -67 32t-24 71q0 17 7 51.5t14 60t8 28.5q4 13 14.5 51t20.5 66.5t25.5 60.5t38 50t50.5 18q12 0 34.5 -9.5t29.5 -16.5q12 -12 12 -14q1 -3 1 -9t1 -11t4 -8q59 -45 59 -138zM231 284q0 7 -5.5 24.5
t-7.5 18.5q-24 -12 -32 -12q-10 0 -28 12q-39 -71 -61 -175q-12 -65 -12 -80q0 -4 1 -9.5t1 -8.5h11q49 29 91 102.5t42 127.5zM270 325q-5 17 -27 24q16 -13 19 -49.5t-2 -46.5l2 9q3 8 5.5 18.5t4 23.5t-1.5 21zM254 291q0 48 -25 45q9 -11 13 -26.5t4 -25.5t-2 -26.5
t-2 -19.5q12 36 12 53zM150 411q-22 -17 -53.5 -92.5t-46.5 -156.5t13 -133q-8 31 -9 63.5t6.5 69.5t14.5 64t23.5 67.5t24.5 59t27 58.5zM124 316q-18 -24 -35.5 -75t-24 -105t10.5 -91q-22 76 49 271z" />
    <glyph glyph-name="p" unicode="p" horiz-adv-x="400" 
d="M389 327q0 -28 -16 -89t-27 -73q-3 -3 -5.5 -15t-5.5 -17q-14 -31 -33 -56q-25 -39 -69.5 -73t-79.5 -34q-2 0 -9.5 1.5t-22 4.5t-29.5 6q-14 -37 -24 -150.5t-14 -133.5q-18 5 -22 15q-11 35 1 147.5t10 127.5q-7 -17 -7 -20l-18 -198q-1 -4 3 -22.5t4 -21.5v-22l-3 -2
q-2 -1 -6 -1q-19 0 -29 2t-14.5 11t-5 15.5t-0.5 25.5q0 34 14 144q8 76 22 132q26 102 29 115q23 92 31 148q1 14 7 51.5t8 57.5v13q1 12 1.5 17.5t3 17t6.5 17.5t12.5 11t19.5 5q19 0 19 -15q0 -4 -23 -79q-19 -55 -30.5 -109.5t-22.5 -129t-15 -95.5q-3 -11 2 -18
q7 32 19.5 101.5t21.5 115t25.5 109t35.5 114.5q3 -3 10 -3q-1 -4 -16.5 -59t-29 -108t-13.5 -64q16 26 67 231q1 -3 3.5 -9t4.5 -11t2 -8t-3.5 -17.5t-4.5 -20.5q0 -3 -1 -14t-1 -23q61 48 112 48q10 0 36 -13t37 -21q18 -11 26 -30q7 -13 7 -29zM341 264q0 34 -8 47
q5 -107 -79 -211q36 29 61.5 76.5t25.5 87.5zM322 291q0 27 -16 49q16 -53 -9.5 -127.5t-77.5 -123.5q40 25 71.5 89t31.5 113zM299 333q0 5 -7 9t-13 4q-28 0 -69.5 -58t-59.5 -101q-2 -6 -8 -15.5t-7 -13.5q-21 -70 -21 -88q0 -5 10 -19.5t17 -21.5q69 58 113.5 144.5
t44.5 159.5z" />
    <glyph glyph-name="q" unicode="q" horiz-adv-x="389" 
d="M286 -259q1 -2 0.5 -14.5t-1.5 -14.5q-15 -15 -25 -15q-11 0 -28 5q-22 6 -27.5 16t-12.5 42q0 47 4.5 96.5t9.5 81.5t14.5 87t13.5 83l-1 19q-34 -42 -83 -81t-80 -39q-18 0 -52 22q-5 3 -11.5 23.5t-6.5 27.5q0 3 4.5 22.5t12.5 50t11 42.5q1 1 4 11l3 9q1 3 14.5 34.5
t23 53t30 56t40 56.5t48 40t58.5 21q1 0 33 -8q33 -9 43 -25q8 -16 16 -44q1 -1 1 -3q2 -2 5 -2t3 2q0 1 4 1q9 0 18.5 -12t9.5 -20q0 -4 -6.5 -22t-7.5 -24q-10 -32 -40 -161q-34 -145 -44 -229q-2 -17 -5 -37.5t-4.5 -34.5t-1.5 -27q0 -1 -0.5 -9.5t0 -16t1.5 -18t4 -22
t8 -23.5zM252 386q-63 -15 -109.5 -116t-47.5 -163q41 26 79 73.5t56 89.5q-6 14 -3.5 32t5.5 27.5t10 27t10 29.5zM197 401q-76 -72 -111.5 -170t-8.5 -169q-25 155 120 339zM290 177q1 2 -4 -2q-7 -5 -9 -4q-10 -49 -18 -102.5t-12 -88.5t-9.5 -92t-8.5 -85q14 28 14 29
q9 55 19 171t28 174zM264 159q-1 -1 -5 -6t-6 -6q-31 -172 -41 -374q1 0 7 13q20 243 45 373zM61 60q0 1 -1.5 12t-2.5 18t-1.5 20.5t0 26t2.5 29t6.5 34.5t10.5 37q-24 -37 -28.5 -78.5t1.5 -64.5t13 -34z" />
    <glyph glyph-name="r" unicode="r" horiz-adv-x="338" 
d="M342 330q0 -11 -20 -42q-25 54 -43 68q-15 11 -32 11q-9 0 -23 -12t-21 -25q-39 -63 -56.5 -103t-38.5 -109q-7 -22 -12.5 -52t-9.5 -45t-10 -15q-4 0 -4 1.5t-4 1.5q-3 0 -11.5 -6.5t-10.5 -7.5q2 15 -3 26q-5 -16 -12 -20q-3 2 -6 2q5 28 20 185t38 224q-1 0 -7.5 -8.5
t-9.5 -8.5q-20 -73 -32.5 -211t-17.5 -170q0 -3 -7 -3q-3 0 -4 1t-2 4.5t-2 5.5q9 66 24.5 211t26.5 221q1 4 8.5 8.5t12.5 4.5q13 0 58 -33q1 -7 0.5 -11.5t-2.5 -13.5t-2 -11v-26q1 0 4 -5q42 42 60.5 54.5t43.5 12.5q38 0 72.5 -35t34.5 -69zM287 400q-58 46 -110 -9
q38 25 110 9zM88 388q-33 -98 -42 -322q32 157 42 322zM304 370q-52 52 -117 9q42 10 64 7.5t53 -16.5z" />
    <glyph glyph-name="s" unicode="s" horiz-adv-x="312" 
d="M288 384q-1 -24 -10.5 -36.5t-33.5 -12.5h-20q-15 0 -29 12q-8 5 -8.5 19.5t1.5 23.5t-7 11q-7 0 -12 -3t-7.5 -7t-4 -8.5t-1.5 -8.5l-1 -3q0 -22 29.5 -73.5t59 -108.5t28.5 -93q-2 -54 -48.5 -85.5t-97.5 -31.5q-15 0 -45 10t-40 23q-15 17 -32.5 62t-16.5 70
q0 8 5.5 27.5t11.5 24.5q3 0 7 -1q6 -6 7 -14q3 -2 9 -4t8 -3q8 -4 13 -36q9 -21 17 -33q3 -3 16 -22.5t26.5 -32.5t27.5 -13q20 0 31.5 18t11.5 30q2 32 -64 142q-9 16 -25 42t-23 39t-13 33.5t-5 42.5q3 91 140 91q14 0 41.5 -12t36.5 -22q15 -19 17.5 -31t-0.5 -26z
M200 239q-61 97 -58 136q-3 -33 13 -69.5t41.5 -82t35.5 -81.5q1 -5 3 -19l6 -27q4 37 -3.5 66t-37.5 77zM171 204q-1 2 -5 12t-9 21t-11 24.5t-11 25.5t-10 22t-8 15t-3 4q-9 -28 57 -124zM229 106q0 34 -9.5 61.5t-36.5 71.5q-4 7 -14.5 23.5t-15 25t-11 21.5t-10.5 24.5
t-6 23.5q-4 -14 1.5 -34t14 -34.5t20 -32.5t13.5 -21q44 -73 54 -129zM105 19q-1 1 -8.5 7.5t-9.5 8t-9 7.5t-9 8.5t-7.5 8.5t-8.5 9.5t-7 9.5t-6.5 11t-4.5 11q-5 -23 21.5 -53t48.5 -28zM94 4q-52 32 -75 108q2 -20 5.5 -34t11 -31.5t22.5 -28t36 -14.5z" />
    <glyph glyph-name="t" unicode="t" horiz-adv-x="328" 
d="M369 426q0 -3 -0.5 -5t-1 -3.5t-1.5 -3t-2 -2.5t-3 -2l-3 -2l-4 -1l-4 -1l-6 -2l-5 -1q-1 -1 -5 -3t-6 -4q-15 -3 -32 -6.5t-27 -5.5t-18 -2q-2 2 -8 2q-3 0 -7 -2.5t-8 -2.5q-6 -1 -19.5 -1.5t-22 -1.5t-19 -3t-18 -6t-12.5 -9q-11 -11 -29.5 -106t-18.5 -128
q2 -62 45 -62q31 0 101 53l64 49q33 26 42 27q13 5 13 -1.5t-5 -15.5q-18 -36 -29 -52q2 -1 0 -4.5t-7.5 -11.5t-14.5 -18q-27 -32 -75 -63q-47 -32 -89 -32h-20q-9 0 -29.5 5t-31.5 14q-53 39 -53 127q0 28 3.5 58.5t7.5 48.5t10.5 44.5t7.5 31.5q-48 15 -48 54
q0 19 13.5 28t33 13.5t26.5 12.5q5 4 8 12.5t5.5 21.5t3.5 18q11 30 20 58t12.5 40t12 28.5t22.5 38.5q8 8 44 8q4 0 17 -6t18 -7q6 -2 13 -11t7 -15q0 -3 -12.5 -19.5t-16.5 -25.5q-10 -21 -24.5 -65t-18.5 -54q13 0 46.5 1t50.5 1q32 1 47 1q6 0 36 -7q1 0 4.5 -3t8 -5.5
t8.5 -2.5q3 -3 3 -11zM179 560q-11 -10 -27 -52.5t-15 -55.5l4 -1q3 -1 8.5 15.5t15 47.5t14.5 46zM164 580q-12 -13 -31.5 -66.5t-18.5 -63.5l9 1q3 0 19 50.5t22 78.5zM306 144q-68 -82 -184 -125q36 -5 96.5 34t87.5 91zM289 100q-85 -74 -143 -93q32 -1 75 27.5t68 65.5
zM97 343q-18 -42 -31 -100.5t-14.5 -116.5t19.5 -87q-23 113 19 279zM100 305q-48 -150 -18 -242v11q-3 121 18 231z" />
    <glyph glyph-name="u" unicode="u" horiz-adv-x="426" 
d="M484 119q0 -12 -33 -60q-16 -20 -42.5 -42.5t-44.5 -22.5q-3 0 -10 -1t-10 -1h-11q-6 0 -23.5 6t-25.5 13q-6 4 -10.5 9.5t-8.5 12.5t-7 12t-6 14.5t-4.5 14t-3.5 16t-3 14.5t-3 15.5t-2 13.5q-9 -12 -29.5 -41.5t-34.5 -47.5t-37 -34t-47 -16q-31 0 -53 32t-26 61l-3 15
q-3 14 -2 22q1 10 20.5 103t33.5 149q3 2 8 12q1 3 5.5 14.5t9.5 18.5t13 11q10 5 18 5q4 0 5.5 -3t5.5 -3q3 0 4 1t5 1q5 0 18 -10t13 -15q0 -2 -7 -21t-17.5 -46t-15.5 -42q-5 -13 -6 -18q-1 -1 -2 -4t-1 -4q-23 -77 -23 -146q0 -3 1.5 -11.5t1.5 -13.5v-1q1 -1 5 -1
q7 0 23.5 23.5t17.5 29.5q23 33 46.5 73t36.5 66.5t35.5 74.5t31.5 66q40 6 62 -16q2 -1 6 -2q2 -1 3 -1l1 -4q2 -4 2 -8q0 -5 -10 -48q-32 -141 -32 -211q0 -97 33 -94q40 4 72 34q3 2 24.5 24t30.5 24q2 -4 2 -12zM310 399q-23 -31 -37.5 -81.5t-17.5 -77t-7 -79.5
q25 140 62 238zM318 377q-8 -17 -15 -33.5t-12 -34.5t-8.5 -30.5t-7 -33t-5 -30t-3.5 -33t-3 -30.5l-2 -35l-2 -34l3 20q18 116 29 160q22 92 26 114zM71 263q-30 -61 -29 -121.5t29 -112.5q-18 68 -17 113t17 121zM50 31q-12 33 -16 78t1 72q-12 -27 -14 -52.5t3.5 -45
t12 -32t13.5 -20.5z" />
    <glyph glyph-name="v" unicode="v" horiz-adv-x="300" 
d="M390 466q0 -15 -30 -54q-56 -82 -140 -252q-1 -3 -3 -14t-5 -16q-18 -27 -31 -67q-1 -4 -2 -23.5t-5 -28.5q-3 -9 -22.5 -18t-32.5 -9q-18 0 -25 7.5t-19 36.5q-14 28 -24 67t-13.5 62.5t-9.5 72t-7 57.5q-1 16 -10 66t-9 52q0 16 11 23q1 -1 1.5 -3t2 -3.5t4.5 -1.5
q4 0 10 6q3 -5 5 -7q5 -130 42 -281q22 -80 31 -96q3 5 -4 32t-17 59t-12 41q-8 43 -21.5 143.5t-12.5 106.5q10 8 16 -22.5t9.5 -71t5.5 -45.5q5 11 3 38.5t-5.5 63.5t-2.5 41q2 -1 7.5 -2t10 -3t5.5 -6q5 -10 7 -24t3 -32t2 -24q16 -142 25 -172q11 18 33.5 58.5t47 80.5
t52.5 77q16 22 56.5 61.5t57.5 39.5q15 0 15 -16zM298 365q-40 -30 -89 -117t-63 -141q58 121 152 258zM297 399q-56 -43 -126 -200q71 128 126 200z" />
    <glyph glyph-name="w" unicode="w" horiz-adv-x="534" 
d="M528 248q0 -61 -15 -102q-23 -60 -63.5 -101.5t-90.5 -41.5q-4 0 -22 1t-21 1q-19 0 -44 36t-27 47q-3 8 -7.5 28.5t-6.5 26.5q-20 -18 -36 -47q-71 -124 -90 -124q-3 0 -10 4.5t-10 4.5q-4 0 -9.5 -1.5t-8.5 -1.5q-29 0 -47.5 18t-18.5 45q0 29 28.5 131t57 189t29.5 88
q6 10 26 10q17 0 40.5 -16t23.5 -33q0 -3 -4.5 -13.5t-11 -25t-9.5 -22.5q-22 -53 -59 -193q-2 -1 0 -7q22 22 43.5 53t32.5 50t31 58.5t24 46.5q16 1 38.5 -10.5t24.5 -25.5q1 -4 0.5 -82t4.5 -112q7 -46 25 -60q14 -2 22 6q70 71 70 188q0 85 -16 126q-1 3 -9 11.5
t-8 12.5q-2 13 0.5 19t6 5.5t6.5 -0.5h1q44 -94 44 -243q8 28 8 44q0 19 -2 38t-4 32.5t-7 34t-8 30.5t-10.5 34t-10.5 34h11q27 -75 34 -111.5t7 -96.5q0 -48 -22 -108q-2 -3 0 -7q33 53 33 130q0 87 -22 144q-3 6 -6.5 22t-5.5 22l-5 11q41 -20 54 -39q10 -14 12 -30
q9 -114 9 -128zM332 27q-7 9 -13.5 20t-11 19t-9.5 20.5t-7.5 19t-7 20.5t-5.5 18.5t-5 19.5t-5 18q-3 -110 64 -155zM128 382q-48 -63 -68 -192q46 137 68 192zM311 22q-11 14 -19 28t-15 31t-10 25t-9.5 29.5t-7.5 25.5q6 -118 61 -139zM146 369q-26 -24 -62 -131.5
t-36 -162.5q0 -46 6 -52l11 -5q-7 17 -7.5 41t5 53.5t11.5 54.5t18.5 60t19 53t19.5 51t15 38z" />
    <glyph glyph-name="x" unicode="x" horiz-adv-x="399" 
d="M479 5v-4q0 -9 -28 -22t-45 -13q-3 0 -11 2.5t-11 2.5q-91 0 -203 153q-22 -26 -44 -61q-18 -30 -32 -58q-2 -4 -6 -16t-8.5 -17.5t-12.5 -5.5q-3 0 -21 6q6 10 24 40.5t28 47t28.5 41.5t36.5 45q0 6 -3 10q-22 -25 -42 -53.5t-44 -68t-35 -56.5q-9 6 -10 6q0 2 6 17
t6 20q-6 -5 -20 -33q-5 3 -15 6.5t-15 6.5q-3 15 4 26q6 11 43 68.5t66.5 105.5t29.5 55q0 4 -8.5 71.5t-8.5 70.5q0 69 28 69q14 0 35 -15t23 -25q1 -3 2.5 -25.5t7.5 -31.5q9 13 26 44.5t25 45.5q2 4 16 4q9 0 30 -7q-11 -13 -31.5 -43.5t-18.5 -38.5q2 2 28.5 39t29.5 39
q4 -3 7 -5q-17 -24 -40 -53t-38.5 -51.5t-31.5 -52.5q0 -3 2 -6q43 71 118 158q4 -3 7 -3q-10 -14 -40.5 -57t-51 -74t-34.5 -59q6 -4 13 8q80 122 121 171q10 0 10 -14q0 -3 -66 -100t-66 -100q0 -4 4 -11t4 -9q5 -26 23.5 -69t56.5 -87t78 -44q3 0 15.5 2t30 4.5t28.5 3.5
zM165 170l-5 14q-6 -9 -29 -37.5t-35 -48t-12 -32.5q26 38 81 104z" />
    <glyph glyph-name="y" unicode="y" horiz-adv-x="421" 
d="M407 404q0 -2 -5.5 -30t-11.5 -62.5t-8 -47.5q-1 -9 -2.5 -31.5t-2.5 -31.5q-5 -49 -7 -89t-3 -50q-11 -108 -38.5 -219.5t-63.5 -172.5q-2 -3 -3 -10t-2 -8q-31 -49 -78 -62q-3 0 -9 -4t-10 -4t-23.5 1.5t-22.5 1.5q-19 0 -50 19q-28 16 -48 55.5t-20 66.5q0 40 2 46
q3 13 13 23q6 -3 12.5 -11.5t11.5 -11.5q46 -138 84 -138q19 0 45.5 42.5t34.5 61.5q9 16 16 36q29 91 32 105q7 29 15.5 92t13 111t4.5 54q0 14 -5 31q-17 -19 -55 -67.5t-59 -70.5q-40 -43 -65 -43q-6 0 -31.5 7t-38.5 14q-12 6 -19 13.5t-9.5 19t-3 18t-0.5 20.5
q0 54 43 169t68 165q1 3 15.5 8t18.5 5t7 -1t5.5 -3t4.5 -3q9 -5 23 -19t14 -23q0 -3 -11 -28.5t-30 -66.5t-27 -60q-4 -8 -8 -26q-3 -7 -13 -32.5t-13.5 -36t-7 -27.5t-2.5 -29q100 100 186 252q3 5 31 82q10 28 11 38q0 3 15 12t21 9q5 0 21 -10t25 -19q13 -16 13 -30z
M151 344q-64 -102 -90 -282q10 45 44.5 146t45.5 136zM352 255q-17 -16 -17 -40q-2 -22 -9 -94.5t-11 -106t-13.5 -92t-23 -106.5t-32.5 -95q46 71 64 160.5t24.5 203.5t17.5 170zM326 213q-4 -8 -20 -24q-25 -318 -74 -445q27 49 44 114t23.5 113.5t14 126.5t12.5 115z
M116 305q-62 -99 -70 -257q4 17 12 58t13.5 65t17.5 61.5t27 72.5z" />
    <glyph glyph-name="z" unicode="z" horiz-adv-x="398" 
d="M433 38q-7 -6 -15.5 -9t-14.5 -4t-16 -1.5t-15 -1.5l-28 -3q-7 0 -34 -3t-34 -3q-19 0 -84 -7q-56 -6 -106 -34q-5 -1 -19.5 -10.5t-18.5 -9.5t-8 2t-9 6t-7 5q-5 5 -16 20t-13 17q0 1 -1.5 3.5t-2.5 5.5t-1 6q0 8 16.5 35t33.5 50t18 23q111 117 192 237q-3 3 -12 3
q-20 0 -71 -11q-17 -3 -51 -16t-37 -13q-10 0 -24 33l-13 33q0 7 10.5 12.5t22.5 9t25.5 6.5t14.5 3q18 9 28 10q104 13 125 13q36 0 49 -3q11 -4 26 -26t15 -38q0 -15 -83.5 -119t-99.5 -120q-8 -11 -30 -35.5t-31 -37.5q144 13 296 -16q2 0 23 -12zM279 410
q-60 16 -159 -13q-28 -9 -46 -25q93 35 205 38zM268 390q-34 11 -91 1t-79 -28q83 26 170 27zM349 44q-51 18 -131 18t-123 -22q91 10 121.5 10.5t132.5 -6.5zM316 29q-45 15 -98.5 15.5t-98.5 -16.5q94 6 197 1z" />
    <glyph glyph-name="braceleft" unicode="{" horiz-adv-x="333" 
d="M310 681q0 -14 -11 -28.5t-18 -14.5q-12 0 -33.5 23t-22.5 23q-5 0 -10 -3.5t-8 -7t-8.5 -10t-6.5 -7.5q-16 -17 -28 -50.5t-15 -65.5q-5 -31 -15 -86.5t-17 -95t-7 -43.5t13 -43t13 -44q0 -28 -26.5 -100t-26.5 -93q0 -14 2.5 -28t11.5 -28.5t25 -14.5q19 0 45 7
q13 10 18 10h22q0 -1 2.5 -4t2.5 -7q0 -12 -10 -22q-4 -14 -35.5 -23t-51.5 -9q-53 0 -80.5 45t-27.5 91q0 63 11 90q30 76 30 93q0 18 -22 28q-14 7 -27 25.5t-13 34.5q0 3 -1 7t0 6t5.5 7t14.5 13q3 6 23 6q9 20 13 40t7 44.5t6 38.5q4 20 8.5 69t16 90t39.5 79
q37 50 91 50q5 0 20 -2t18 -2q21 -7 42 -36.5t21 -51.5zM168 707q-9 0 -13 -4q-38 -78 -48 -161q-3 -19 -6 -64.5t-8 -63.5q-4 -23 -12 -36q18 29 22 44q3 18 7 62.5t8 71t17 69t33 82.5zM138 702q-6 0 -11 -7q-30 -58 -43 -145q-1 -8 -2 -54t-10.5 -82t-34.5 -63
q30 30 41 60t12.5 75.5t5.5 64.5q18 99 42 151zM95 229q-51 -113 -51 -200q0 -16 7.5 -35t18.5 -25q-17 31 -17 61q0 36 19 106t23 93zM84 245q3 5 -3 11q-2 -9 -29.5 -94.5t-27.5 -133.5q0 -40 25 -61q-16 30 -16 62q0 29 8.5 65.5t23 84t19.5 66.5z" />
    <glyph glyph-name="bar" unicode="|" horiz-adv-x="225" 
d="M167 645q0 -2 -4 -34.5t-8.5 -75.5t-6.5 -66q-16 -178 -16 -242v-209q-8 -10 -19 -10q-6 0 -9.5 8.5t-3.5 11.5t18.5 288.5t18.5 288.5l2 103q29 -31 28 -63zM127 633q0 -6 -5 -115t-13.5 -263.5t-15.5 -246.5q-11 0 -17 37q-4 -4 -4 -23q-25 32 -25 53q0 4 3 8.5t3 7.5
v211q0 37 8 141t15 182.5t8 91.5q15 15 18 15q10 0 23 -16q2 -58 2 -83zM113 679q0 -2 -3 -5t-3 -5q1 -134 -13 -351t-16 -262q30 201 35 623z" />
    <glyph glyph-name="braceright" unicode="}" horiz-adv-x="325" 
d="M343 316q0 -22 -19 -33q-4 -3 -23 -6q-9 -17 -13.5 -37.5t-7 -45t-5.5 -38.5q-4 -18 -9.5 -72.5t-17 -91t-39.5 -75.5q-29 -49 -89 -49q-27 0 -38 3q-23 9 -43.5 38t-20.5 49q0 14 12 28.5t18 14.5q14 0 35 -22t22 -22q4 0 9 4t14 13l9 10q35 34 42 115q4 32 13.5 86.5
t17.5 96t8 43.5q0 5 -12 43t-12 43q2 28 26.5 100.5t25.5 94.5q0 23 -8.5 46.5t-29.5 23.5q-7 0 -47 -8l-6 -5q-6 -5 -11 -3h-22q0 1 -2 3t-2 7q0 13 7 22q9 15 38 23.5t52 8.5q35 0 60.5 -24t36 -54t10.5 -59q0 -60 -12 -89q-1 -5 -15 -41.5t-14 -51.5q0 -17 21 -28
q14 -6 27.5 -25.5t13.5 -35.5zM159 -69q1 1 5 1.5t6 2.5q38 81 48 161q3 18 6.5 64t8.5 64q7 27 13 35q-19 -22 -23 -43q-2 -16 -7.5 -61.5t-9.5 -71.5t-16 -69t-31 -83zM185 -62q7 -2 13 7q30 58 44 143q1 7 2 54t11 82.5t36 62.5q-31 -29 -42 -59.5t-13.5 -76t-6.5 -64.5
q-19 -102 -44 -149zM232 414q50 105 50 194q0 16 -7.5 35.5t-17.5 25.5q18 -36 16 -60q0 -37 -18.5 -104t-22.5 -91zM241 394q-3 -5 2 -13q2 8 30.5 94.5t28.5 134.5q0 38 -25 61q16 -27 16 -62q0 -29 -8.5 -65.5t-23.5 -84t-20 -65.5z" />
    <glyph glyph-name="asciitilde" unicode="~" horiz-adv-x="544" 
d="M503 304q4 -34 -44 -71.5t-84 -37.5q-24 0 -45.5 13.5t-34 29.5t-31 29.5t-36.5 13.5q-35 0 -70 -21t-42 -54q-5 -11 -23 -11q-21 0 -37 21l-5 15q0 9 28.5 35.5t37.5 30.5q17 6 67 14q-10 5 -20 5q-62 0 -104 -61q-5 -7 -13 -7q-4 1 -4 9q0 4 22.5 25.5t37.5 29.5
q20 12 63 22q-30 6 -56.5 -9t-71.5 -60q0 2 -2 5t-2 7q0 22 26 41t60 30t60 17t33 6q19 0 41 -10q23 -11 37 -23t25 -26.5t20 -21.5q3 -4 15 -4q17 0 38.5 14t33.5 32q3 5 5 16.5t6 19.5t13 8q15 0 50 -26q-2 -8 -21 -27.5t-35 -28.5q13 5 28.5 16.5t23.5 18.5t8 4
q4 -31 -44.5 -56t-84.5 -25q14 -14 64 7.5t67 44.5z" />
    <glyph glyph-name="uni00A0" unicode="&#xa0;" horiz-adv-x="260" 
 />
    <glyph glyph-name="exclamdown" unicode="&#xa1;" horiz-adv-x="220" 
d="M147 28q-1 -17 -12.5 -29.5t-26.5 -15.5q-4 13 -22.5 150t-19.5 161q-8 -18 6 -145t26 -165q-3 4 -11 2q-15 51 -23 114t-9.5 95.5t-1 116.5t0.5 97q3 21 8 52q8 50 4 52q-4 -9 -9 -42q-18 -113 -8 -340q1 -18 13 -74t10 -66q-3 2 -5 7t-3 6q-2 -1 -3.5 -5.5t-2.5 -6.5
q-31 48 -42 208.5t3 237.5q2 11 7 27t15 38t27 35.5t37 10.5q6 -1 17 -12q-31 -150 -20 -273q4 -46 8 -64q4 -24 14 -67t16.5 -73t6.5 -32zM149 694q-7 -17 -12 -28t-16 -21.5t-23 -8.5q-13 2 -27 21q33 39 76 52q0 -1 1.5 -4.5t0.5 -10.5zM142 720q-4 -3 -36.5 -27.5
t-41.5 -35.5q-10 8 -9 12q32 32 77 57q0 4 8 -3zM126 731q-39 -21 -85 -59q0 1 -3 6t-2 9q3 21 35 39t55 5z" />
    <glyph glyph-name="cent" unicode="&#xa2;" horiz-adv-x="350" 
d="M287 331q0 -16 -13 -16q-5 0 -20 5t-19 5q-3 0 -12 -4.5t-10 -7.5q-9 -36 -19 -118q9 -5 38 -4.5t38 -11.5q-9 -19 -21.5 -27.5t-34.5 -12.5t-30 -7q0 -4 -1.5 -11.5t-1.5 -12.5q0 -15 2 -22.5t4.5 -8t5.5 -1t5.5 -1.5t4.5 -8.5t2 -22.5q0 -9 -5 -25.5t-15 -18.5
q-13 7 -27.5 23.5t-18.5 30.5q-2 58 -6 71q0 2 -7 6q-27 0 -58.5 37t-31.5 68q0 23 14.5 46.5t29 36.5t45.5 36.5t41 32.5l4 26q5 26 14.5 50.5t23.5 24.5q20 0 30 -19q12 -19 12 -28q0 -6 -7 -19.5t-14 -20.5q0 -4 23 -16t26 -20q9 -12 9 -35zM149 271v13q-12 -2 -35 -26.5
t-23 -36.5q0 -27 34 -27q13 0 18 5q0 15 3 42t3 30zM138 171q-21 3 -43.5 22.5t-10.5 40.5q-17 -16 -7.5 -31.5t31.5 -26.5t30 -5zM117 160q-59 24 -49 68q-19 -33 4 -50.5t45 -17.5zM150 77q0 -3 3 3q1 3 2 5q1 31 15.5 163.5t26.5 214.5q-13 -22 -30 -183t-17 -203z
M162 87q40 330 41 336q-17 -28 -40 -322z" />
    <glyph glyph-name="sterling" unicode="&#xa3;" horiz-adv-x="565" 
d="M532 583q0 -27 -13 -72t-32 -45q-15 0 -28 22.5t-13 31.5q0 3 6 40t6 41q0 18 -13 18q-22 0 -40.5 -13t-32.5 -36.5t-22.5 -42t-17.5 -43.5l-9 -29q-11 -20 -15 -24v-11q14 -1 46 -1.5t47 -2.5q8 -1 30 -12q20 -5 32 -32.5t7 -41.5q-1 0 -8.5 -4t-12.5 -4t-25 4t-23 4
q-36 0 -129 -19q-1 -2 -20 -49q-7 -16 -21 -44t-24 -47.5t-10 -22.5q0 -7 21 -29.5t27 -24.5q34 -20 50 -20q57 0 136 89q5 -2 30 7q13 -32 13 -54q0 -4 -3 -11t-8 -16.5t-7 -12.5q-1 -4 -4 -7.5t-7 -9.5t-7 -11q-6 -9 -12.5 -16.5t-10 -10t-15 -11t-14.5 -10.5
q-25 -19 -55 -19h-12q-40 0 -77 26t-82 73q-1 -1 -10.5 -13t-17.5 -21t-19 -20t-22.5 -17.5t-20.5 -6.5q-19 0 -24 8q-50 47 -50 90q0 35 26.5 73.5t55.5 38.5q13 0 26 -1q14 -1 27 -1q3 0 9.5 12.5t18 37.5t15.5 34q-30 -2 -53 30t-23 59q0 7 26 17q6 3 9 2l12 -4l15 -4
q36 0 54 9q4 4 9 13q4 10 9 30.5t8 29.5q14 48 34 87q38 82 51 97q38 43 78 43q44 0 86.5 -40t42.5 -80zM486 603q4 21 -20.5 41t-42.5 13q16 -4 37.5 -20.5t25.5 -33.5zM381 620l-8 -1q-69 -115 -93 -206q10 21 25 55t24.5 53.5t23.5 46.5t28 52zM331 575q-44 -74 -64 -141
q47 80 64 141zM251 317q-2 -4 -102 -206q68 92 102 206zM302 52q-32 5 -67 34.5t-47 51.5q-4 -6 -4 -14q0 -12 45.5 -46t72.5 -26zM271 34q-37 15 -90 75q3 -20 32.5 -47.5t57.5 -27.5zM512 583q1 38 -30.5 70.5t-66.5 26.5q33 -7 62 -36.5t35 -60.5z" />
    <glyph glyph-name="yen" unicode="&#xa5;" horiz-adv-x="499" 
d="M475 283q0 -16 -29 -36t-44 -24l-61 -11q-5 -2 -6 -9t0.5 -14.5t-1.5 -14.5q2 -2 7 -2q3 0 28 10.5t29 10.5q10 0 30 -11t24 -20q8 -13 8 -31q0 -8 -8 -24q-1 0 -3 -2t-5 -3.5t-7 -1.5t-21 1t-21 1q-20 0 -33 -1q-1 0 -8.5 -3.5t-12.5 -3.5q-6 0 -6 2q-17 0 -17 -54
q0 -21 10 -55q0 -1 4 -6t4 -10q0 -31 -22 -31h-14q-27 0 -41 30t-12.5 59t0.5 40v1q-59 -18 -66 -18q-20 0 -37.5 16t-17.5 32q0 15 24 24t41 9q17 3 65 17q-2 8 6 41v1q-9 1 -35.5 -9.5t-28.5 -10.5q-13 0 -23 7q-12 8 -21.5 22t-9.5 23q0 17 36 32t49 15q6 0 6 -3
q4 0 15 3.5t15 3.5q2 1 3 2t2 2.5t2 2.5q22 132 22 144q0 6 -1 7q-12 -10 -53 -63.5t-82 -94t-72 -40.5q-25 0 -54.5 26t-31.5 47v24q0 59 54.5 193t72.5 158q6 6 22 6q20 0 36.5 -20t16.5 -40q0 -10 -15 -35q-1 -3 -13 -16t-17 -24q-43 -92 -68 -180q-1 -4 -5 -13.5t-7 -17
t-3 -9.5q0 -7 5 -12q30 22 55.5 50t58.5 72.5t42 55.5q17 22 59 93l24 42q17 27 17 15q3 0 9 4.5t10 4.5q13 0 32 -17q4 -1 10 -19q6 -17 6 -22q0 -2 -10 -57.5t-22.5 -131.5t-17.5 -122q1 -1 13 -1q16 0 42 6q8 2 24.5 10t20.5 8q23 0 23 -30zM159 606q-26 -12 -66 -110
t-38 -160q22 89 40.5 137.5t63.5 132.5zM359 444q-23 -68 -44.5 -212.5t-8.5 -259.5q-1 154 53 472zM148 624q-43 -50 -81.5 -147t-26.5 -169q8 86 32.5 156t75.5 160zM339 444q-17 -50 -33 -144.5t-8 -113.5q2 10 7.5 49.5t14.5 94t19 114.5z" />
    <glyph glyph-name="brokenbar" unicode="&#xa6;" horiz-adv-x="191" 
d="M156 664q0 -4 -9 -78q-14 -116 -22 -174q-1 -19 -24 -19q-18 0 -28.5 20.5t-12.5 39t-2 35.5l2 10q1 10 2.5 30t1.5 43q1 26 4.5 64.5t3.5 50.5q0 7 1.5 16t7 18.5t14.5 9.5q4 0 21 -12t27 -22q13 -13 13 -32zM138 250l-8 -48l-5 -58l-4 -50q-8 -70 -26 -95q-27 0 -31 7
q-20 21 -20 77v7q1 7 2 25t1 45q1 85 5 132q0 6 7.5 14.5t13.5 8.5q21 0 43 -23.5t22 -41.5zM109 694q-8 -27 -5 -37.5t2 -63t-11 -120.5q13 2 17.5 79.5t-3.5 141.5zM110 467q10 1 17 54t7 105.5t-8 52.5q-3 -9 -0.5 -11.5t-1 -59t-14.5 -141.5zM99 264q-8 -27 -5 -37.5
t2 -63t-11 -120.5q13 2 17.5 79.5t-3.5 141.5z" />
    <glyph glyph-name="section" unicode="&#xa7;" horiz-adv-x="356" 
d="M312 530q-15 -12 -24 -12q-18 0 -35 18t-27 18q-20 0 -36 -9.5t-16 -28.5q0 -21 17.5 -49.5t29.5 -40.5q17 -15 21 -26q2 -9 6 -28.5t7 -32.5t3 -16q0 -47 -28.5 -82.5t-75.5 -35.5q-4 0 -12 2t-14 2q6 -11 49 -60.5t43 -81.5q0 -20 -12.5 -34t-31 -20.5t-34.5 -9
t-29 -2.5q-35 0 -73 18.5t-38 42.5q0 5 13 21.5t17 16.5q9 0 13.5 -5.5t6.5 -12.5t10 -12.5t23 -5.5q12 0 32.5 7.5t20.5 20.5q0 14 -10 23q-49 49 -79.5 110.5t-30.5 115.5q0 48 23 68.5t89 44.5q-13 17 -25.5 52t-12.5 57q0 30 24 49t47 24t42 5q4 0 8.5 -2.5t7.5 -2.5
q18 -3 44 -17.5t37 -31.5q10 -19 10 -57zM178 342l-3 12q0 1 -1.5 4t-2 3.5t-1.5 2.5t-3 2.5t-4 0.5q-12 0 -38.5 -15t-26.5 -33q0 -3 5 -10.5t13 -17.5t11 -14q23 9 37 27.5t14 37.5zM140 603q-10 -35 3.5 -78.5t35.5 -78t41 -74t17 -66.5q10 23 -5 61t-39 73.5t-42 81.5
t-11 81zM123 177q-30 63 -39 102t-3 97q-15 -55 -5.5 -101t47.5 -98zM180 80q0 22 -9 40.5t-16 25.5t-25 23q3 -6 15.5 -21t22 -32t12.5 -36zM123 584q-8 -42 19.5 -104.5t56.5 -121t25 -90.5q15 15 0.5 57t-38.5 83t-45 92t-18 84zM54 335q-16 -36 -0.5 -78t40 -73
t47.5 -67.5t23 -62.5q7 25 -9.5 57t-40 60.5t-43 73t-17.5 90.5z" />
    <glyph glyph-name="dieresis" unicode="&#xa8;" horiz-adv-x="301" 
d="M257 901q0 -18 -9 -28t-22 -10q-19 0 -35 13q-22 22 -22 36q0 28 31 44q25 2 41 -15t16 -40zM118 906q0 -43 -41 -43q-15 0 -30.5 22t-15.5 38q0 30 46 30q6 0 18.5 -6t18.5 -12q4 -6 4 -29zM111 909q-5 21 -20 30.5t-32 1.5q28 -1 52 -32zM106 893q-5 23 -23.5 35
t-38.5 5q23 -4 35 -12t27 -28zM245 881q8 21 -3 42t-30 20q28 -13 33 -62z" />
    <glyph glyph-name="copyright" unicode="&#xa9;" horiz-adv-x="466" 
d="M418 265q0 -4 -4 -9.5t-4 -9.5q-3 -44 -36 -84q-26 -37 -63 -58q-64 -33 -106 -33h-25q-10 0 -41.5 15t-38.5 22l-11 11q-11 11 -16 19q-12 20 -21.5 57.5t-9.5 61.5q0 61 47 131.5t110 98.5q6 3 13 0q3 0 8.5 2.5t9.5 2.5q20 0 30 -5q4 -2 14 -9.5t14 -9.5t15.5 -4.5
t21.5 -6.5t17 -9q26 -20 50 -63q12 -20 22 -81v-3v-1l1 -2q-4 -12 -3.5 -17t3.5 -9.5t3 -6.5zM355 298q0 23 -5 27q3 35 -21.5 51t-57.5 16q-4 0 -18 -3t-17 -3q-6 0 -16.5 3t-13.5 3q-11 0 -41.5 -35.5t-33.5 -45.5q-2 -6 -9.5 -20.5t-10 -24.5t-1.5 -19q-4 -4 -4 -9
q0 -7 4 -27q4 -21 9 -33q5 -19 33 -30t42 -11q51 0 106 50.5t55 110.5zM286 192q0 -20 -38 -26q-17 -5 -36 -5q-36 0 -58 21.5t-22 55.5q0 39 39 87.5t70 48.5q23 0 31 -18t8 -36q0 -42 -24 -42q-4 0 -13 13.5t-13 13.5t-18.5 -15t-21.5 -26q-16 -22 -16 -38q0 -23 41 -23
q1 0 14 -1t26.5 -1t22.5 2q1 -1 3.5 -2.5t3.5 -3t1 -5.5zM320 413q29 -17 44.5 -45.5t13.5 -53.5q15 23 -5 55.5t-53 43.5zM141 120q-29 27 -43 58.5t-15 50.5t0 53q-17 -43 -2 -88t60 -74zM147 99q-82 47 -82 157q-17 -45 6.5 -94t75.5 -63zM336 419q57 -28 51 -95
q16 24 0 56t-51 39z" />
    <glyph glyph-name="ordfeminine" unicode="&#xaa;" horiz-adv-x="270" 
d="M240 727q0 -11 -27.5 -20.5t-35.5 -9.5q-12 0 -18.5 2.5t-9 5.5t-9.5 16t-14 23l-11 -11l-9 -9l-7 -7l-6 -5l-5 -3l-6 -3h-6l-7 -1q-19 0 -34 11t-15 29q0 27 42 89t73 62q11 0 24.5 -10t10.5 -16q-2 -5 -10.5 -20t-12.5 -25.5t-7.5 -28t1 -39t16.5 -46.5l2 3
q-17 52 -13.5 82.5t34.5 72.5q4 1 10 -2q-56 -80 -18 -144q-1 8 -3 20t-3.5 20t-1.5 11q0 21 9.5 46.5t25.5 40.5l-21 -72v-51l2 -2q1 -2 5 -2t22.5 9.5t25.5 11.5q3 -3 7 -3v-25zM139 848q-39 -31 -65 -95q51 64 65 95zM79 829q-23 -14 -36.5 -50.5t-4.5 -51.5
q-1 48 41 102z" />
    <glyph glyph-name="guillemotleft" unicode="&#xab;" horiz-adv-x="428" 
d="M55 235q0 28 63.5 102.5t98.5 73.5q15 0 20 -9q0 -29 -5 -36q-2 -4 -49.5 -54.5t-48.5 -62.5q0 -19 38 -55t37 -57q0 -4 -2.5 -10t-2.5 -8q-58 76 -97 115q3 -13 35 -46.5t42 -56.5q9 -16 9 -20q0 -5 -3 -6q-8 13 -100 132l-6 4q10 -19 38 -55t47 -60t14 -25l-19 -5
q-16 12 -63 66.5t-46 72.5zM184 248q-1 12 17 37q10 13 29.5 36t25.5 30q1 1 6 8.5t8.5 11.5t10 11.5t11.5 12.5t12 10t13.5 7.5t13.5 2.5q10 -1 19.5 -10.5t9.5 -22.5q-1 -16 -47.5 -63t-46.5 -59q0 -6 45 -54.5t44 -65.5q0 -11 -13 -30.5t-28 -19.5q-6 0 -15 6t-12 14
q-12 30 -94 112q-9 10 -9 26zM230 266q55 30 109 110q-8 0 -10 -3q-14 -24 -55.5 -64.5t-43.5 -42.5zM231 280q44 29 101 113q-18 -17 -52 -57.5t-49 -55.5z" />
    <glyph glyph-name="logicalnot" unicode="&#xac;" horiz-adv-x="451" 
d="M408 349q0 -4 -4.5 -14t-4.5 -15q-1 -8 -1 -24v-22l-2 -19l-7 -29l-5 -22q0 -1 1 -18.5t-3.5 -28.5t-17.5 -11q-11 0 -27 18q-5 4 -8 21q-14 32 0 125q-7 6 -50 6q-3 0 -102 -6.5t-104 -6.5q-17 0 -35 22t-18 38q0 30 25 30q4 0 29 -4t29 -4q3 0 87 4.5t88 4.5h15h21
l22 -1l24 -3l20 -8l17 -12q11 -15 11 -21zM383 368q-81 13 -175 10q-54 0 -125 -11q19 -3 40 -2.5t50.5 3.5t33.5 3q1 0 27.5 -1t56 -2t58 -1.5t34.5 1.5zM378 343q-7 6 -24 11t-22 5q-30 1 -63 2t-42 1t-27.5 -0.5t-33 -1.5t-45.5 -4q16 -4 44 -3t94 -0.5t119 -9.5z" />
    <glyph glyph-name="uni00AD" unicode="&#xad;" horiz-adv-x="468" 
d="M395 288q-16 -1 -41 -1t-45 1t-37.5 1.5t-18.5 0.5t-17 -1t-24 -1q-50 0 -73 -1q-7 -1 -27.5 -4.5t-23.5 -3.5h-17q0 1 -2 6t-2 10q0 15 10.5 22t22 7t31.5 -1t28 -1q27 -1 67 1t71 4t32 2q60 0 66 -41zM395 279q0 -2 -2 -7.5t-2 -6.5q-133 2 -200 0q-67 -4 -114 -5l-4 6
q35 13 280 13h42zM387 258q-9 -12 -17 -12h-119q-4 0 -74 -7t-73 -7q-12 0 -23 15q9 4 82 9t90 5q3 0 47 -1.5t47 -1.5h40z" />
    <glyph glyph-name="registered" unicode="&#xae;" horiz-adv-x="379" 
d="M320 601q0 -52 -47 -94t-96 -42q-44 0 -74 27.5t-30 69.5q0 45 37.5 103.5t88.5 58.5q4 0 13.5 -2.5t11.5 -2.5q3 -6 9 -9q45 -3 66 -37.5t21 -71.5zM216 623q-6 1 -10.5 -4t-8 -13t-4.5 -9q9 2 17 11t6 15zM291 608q0 59 -68 59q-46 0 -78.5 -30.5t-32.5 -79.5
q0 -24 16.5 -40.5t41.5 -16.5q14 0 30.5 7t22.5 13q-4 3 -13.5 11t-16.5 13.5t-10 5.5h-9q-1 -4 -2 -14t-4.5 -16.5t-12.5 -10.5q-14 16 -14 25q0 19 16 62t24 52v-9q-3 -12 -13 -38.5t-15 -44.5t-3 -26q13 54 46 126h19q15 0 27.5 -9.5t12.5 -29.5q0 -27 -35 -48
q31 -24 30 -34q14 8 27.5 32t13.5 41zM172 692q-43 -26 -63.5 -76t-9.5 -84q4 98 73 160zM120 663q-16 -18 -28.5 -59t-2.5 -57q-1 22 8.5 57t22.5 59z" />
    <glyph glyph-name="macron" unicode="&#xaf;" horiz-adv-x="341" 
d="M309 890q2 -17 -10 -31l-3 -2q-3 -2 -6.5 -4.5t-5.5 -2.5q-92 -18 -129 -18q-3 0 -44 -3t-43 -3q-6 0 -20.5 8.5t-14.5 10.5q-7 11 -7 37q0 30 21 30q3 0 19.5 -3t20.5 -3q6 0 81.5 1t80.5 1q40 0 60 -18zM287 872l3 7q-44 0 -113 -3t-90 -3q-10 -5 -12 -8q29 1 55 2
l39 1l23 1l14 1h8q13 1 38.5 1t34.5 1zM282 862l-109 -5l-104 -5q-5 -10 111 -3q77 5 102 13z" />
    <glyph glyph-name="degree" unicode="&#xb0;" horiz-adv-x="296" 
d="M264 578q0 -52 -45 -94t-90 -42q-43 0 -68 31t-25 70q0 52 32 102.5t88 50.5q24 0 29 -5q45 -40 62 -62.5t17 -50.5zM207 583q0 9 -7 25q-4 1 -14 7.5t-12 6.5q-4 0 -7 -1t-6 -1q-4 0 -9 3t-8 3q-16 0 -30.5 -39.5t-14.5 -52.5q0 -38 21 -38q13 0 29 8q16 5 37 33.5
t21 45.5zM234 605q0 -91 -48 -123q27 6 43 37t5 86zM221 612q-11 -63 -24 -87t-56 -42q38 -8 64 32.5t16 96.5z" />
    <glyph glyph-name="plusminus" unicode="&#xb1;" horiz-adv-x="383" 
d="M336 332q0 -2 -5 -22q-19 -14 -35 -14q-3 0 -30 3t-31 3q-6 0 -50 -13q-5 -2 -7 -13q-2 -8 3 -22t5 -16q0 -3 -3 -18t-3 -22q-1 -1 -2 -3t-2.5 -3t-5.5 -1q-20 0 -29 36.5t-9 56.5q-5 0 -23.5 -1.5t-22.5 -1.5q-10 0 -13 1l-8 10q-16 34 -16 52q0 21 30 21h17l22 1l12 2
l1 2l2 3q6 45 21 100q12 9 21 9q12 0 21.5 -19.5t9.5 -29.5q0 -3 -3.5 -12.5t-8 -23t-6.5 -20.5q2 0 28 -2.5t51 -5.5t47 -13t22 -24zM282 126q0 -12 -16 -30q-5 -1 -16.5 -5t-16.5 -5q-23 -2 -64 -7t-71 -8.5t-34 -3.5q-8 0 -12 13q-20 43 -20 45q0 3 2 9.5t2 10.5
q53 7 191 7q8 0 31.5 -9t23.5 -17zM176 467q-12 -9 -23.5 -86.5t-7.5 -90.5q3 4 12.5 83t18.5 94zM195 439q-18 -24 -25.5 -107t-2.5 -118q1 0 2.5 7.5t3.5 7.5q-8 24 2 98t20 112zM188 458q-19 -29 -29 -115t-1 -118q-3 36 7.5 123.5t22.5 109.5zM260 131q-10 8 -30 8
q-156 -4 -155 -9q1 -4 185 1z" />
    <glyph glyph-name="uni00B2" unicode="&#xb2;" horiz-adv-x="233" 
d="M180 699q-5 -9 -13 -9q-3 0 -19.5 2t-18.5 2q-19 0 -36.5 -6.5t-20.5 -6.5q-16 0 -30 12t-14 28q0 10 8 24t22.5 33.5t15.5 21.5q13 18 27 52v2q0 1 -0.5 2t-3.5 1q-4 0 -7.5 -5t-5 -10t-3.5 -12t-2 -8h-13q-11 0 -19.5 21.5t-7.5 30.5q28 31 58 31q21 0 39 -15.5
t18 -37.5q0 -9 -3 -19.5t-6 -18t-10.5 -19.5t-11 -17.5t-14 -20t-13.5 -18.5q4 -3 17 -3q12 0 25 6l13 5q6 0 16 -4.5t11 -11.5q-17 -3 -48 -6t-53 -5t-24 -4q25 0 71 3.5t55 3.5l1 -8q-89 -7 -114 -11q11 -2 25.5 -0.5t39.5 4.5t36 3q13 0 13 -12zM111 886q17 -30 8 -62
q11 14 7.5 34.5t-15.5 27.5zM127 884q1 -3 2 -9t1.5 -8t1 -7t0.5 -7t0.5 -6t0 -6.5t-1 -6.5t-2 -7.5t-3 -8t-3.5 -9.5q31 41 4 75z" />
    <glyph glyph-name="uni00B3" unicode="&#xb3;" horiz-adv-x="203" 
d="M151 846q0 -14 -5 -22.5t-16 -21t-20 -29.5q1 -1 4.5 -3t4.5 -3q5 -5 10 -17.5t5 -17.5q0 -22 -19.5 -46t-42.5 -24q-14 0 -24 8.5t-10 22.5q0 7 9.5 17.5t15.5 10.5q2 0 12 -8q11 11 11 20q0 7 -6 7q-3 0 -4.5 -1.5t-3.5 -1.5q-10 0 -21.5 9.5t-11.5 18.5q0 5 29 47
q3 5 11 13t12 14.5t4 10.5q-6 -6 -10.5 -11t-6 -7t-4.5 -3t-8 -1q-12 0 -22 10t-10 20q0 17 24.5 29t37.5 12q3 0 6.5 -10.5t5.5 -20.5l2 -11q0 -23 -16 -53v-2q20 22 20 55q0 13 -8 32v8h8q10 -17 10 -41q0 -25 -19 -57q-1 -1 -1 -5q11 7 19.5 26.5t8.5 35.5q0 3 -5 38
q24 -23 24 -48z" />
    <glyph glyph-name="acute" unicode="&#xb4;" horiz-adv-x="317" 
d="M272 986q0 -3 -23.5 -15t-22.5 -20q23 8 44 24q1 -3 -1.5 -11.5t-5.5 -11.5q-10 -11 -73.5 -58t-85.5 -88q-4 -6 -15 -6q-12 0 -29 18q3 5 23.5 24.5t24.5 24.5q-4 -2 -14.5 -10t-22.5 -18.5t-16 -13.5q-9 3 -7 14q73 50 97 81q-7 -5 -43.5 -33.5t-55.5 -40.5
q-2 28 81.5 92t107.5 63l27 -1q-5 -4 -11.5 -8.5t-10.5 -6.5t-7 -5.5t-3 -6.5l37 20q5 0 5 -7z" />
    <glyph glyph-name="periodcentered" unicode="&#xb7;" horiz-adv-x="144" 
d="M114 264q0 -11 -11.5 -18.5t-19.5 -7.5h-13q-17 0 -31.5 25t-14.5 38q0 24 41 24q24 0 36.5 -17.5t12.5 -43.5z" />
    <glyph glyph-name="cedilla" unicode="&#xb8;" horiz-adv-x="185" 
d="M164 -121q0 -27 -10 -40q-11 -11 -29 -22t-29 -11q-42 0 -42 33q0 11 13 24q5 -6 15 -6q7 0 26 19q-8 8 -14 8q-4 0 -18 -1.5t-18 -1.5q-18 0 -31 19.5t-13 31.5q0 28 23 56q4 4 8.5 13.5t8.5 12.5q11 8 20 8q15 0 24.5 -19t9.5 -29q0 -3 -3 -8.5t-7.5 -12t-5.5 -9.5
q22 0 47 -22t25 -43zM147 -118q-11 25 -26 32.5t-42 0.5q41 -2 68 -33zM141 -143q-3 32 -32 45t-56 -4q31 5 55 -6.5t33 -34.5z" />
    <glyph glyph-name="uni00B9" unicode="&#xb9;" horiz-adv-x="169" 
d="M141 870q0 -2 -5 -22.5t-12 -48t-10 -42.5q0 -2 -1 -13t-2 -18.5t-5.5 -16.5t-12.5 -14q0 21 24 152q-1 0 -5 -4q-8 -27 -27 -148l-4 3q1 40 20 136l-1 5q-1 0 -2 -3q-1 -1 -1 -1.5t-1 -1.5q-15 -75 -22 -125q-7 17 -7 19q0 3 8 37t8 37v19l1 1q0 1 -3 1q-2 0 -15.5 -9
t-17.5 -9q-8 0 -15.5 13.5t-7.5 21.5q16 6 39 24q39 37 55 37q13 0 18 -10t4 -20z" />
    <glyph glyph-name="ordmasculine" unicode="&#xba;" horiz-adv-x="220" 
d="M188 812q0 -29 -15 -65t-48 -56q-12 -7 -24 -7q-37 0 -59 21.5t-22 56.5q0 36 29.5 89t58.5 53q6 0 4 -5q37 2 56.5 -28.5t19.5 -58.5zM137 826q0 32 -19 32q-14 0 -29 -45t-15 -58q0 -10 6 -19h14q43 40 43 90zM175 809l-2 -5q-27 -70 -55 -96q20 8 37 36t20 65z
M153 793q0 10 -4 1q-24 -52 -42 -73q-7 -8 -14 -14q20 4 40 34t20 52z" />
    <glyph glyph-name="guillemotright" unicode="&#xbb;" horiz-adv-x="464" 
d="M391 231q0 -18 -47.5 -72.5t-64.5 -66.5l-19 5q-5 1 14.5 25t48.5 59t39 54q-3 -3 -6 -4q-94 -115 -103 -129q-3 2 -3 6q0 2 10 19q11 23 43.5 56t35.5 46q-40 -38 -99 -113q0 2 -2.5 8t-2.5 10q0 21 38.5 56t38.5 54q0 12 -47 64t-49 55q-4 6 -4 36q4 9 20 9
q35 0 97 -75t62 -102zM262 241q0 -13 -9 -22q-85 -83 -97 -111q-3 -7 -12 -13t-15 -6q-15 0 -27.5 20t-12.5 31q0 17 45.5 64.5t45.5 53.5q0 12 -45.5 60t-45.5 64q0 13 9.5 22.5t19.5 9.5q8 0 16 -4t14.5 -9t14 -13.5t12 -14t10.5 -14t7 -10.5q5 -7 24.5 -30.5t29.5 -36.5
q18 -24 16 -41zM213 264q-1 1 -40 42.5t-53 65.5q-2 3 -10 3q52 -81 103 -111zM216 277q-15 15 -48.5 57t-50.5 58q55 -85 99 -115z" />
    <glyph glyph-name="onequarter" unicode="&#xbc;" horiz-adv-x="563" 
d="M526 138q-21 -17 -51 -17q-4 0 -10 2t-9 2q-25 0 -25 -51q0 -4 9 -29t9 -28q0 -25 -28 -36h-8q-2 14 0 64t3.5 83.5t-4.5 45.5q-8 -47 -8 -193q-17 6 -17 63q0 15 16 180l-6 -8q-21 -118 -17 -217q-8 6 -11.5 19.5t-4 24.5t0.5 31.5t1 26.5v3q-2 -1 -5 -1t-6.5 -2
t-8.5 -5l-7 -3q-15 -9 -42 -9q-4 0 -18 11t-20 21q-4 7 -4 21q0 16 17 33q8 11 54.5 67t63.5 83q4 9 33 9q10 0 14 -1q9 -7 22.5 -25.5t13.5 -27.5q0 -4 -6.5 -17.5t-7.5 -18.5q-13 -46 -13 -61q0 -7 2.5 -10.5t5 -3.5t7.5 0.5t6 0.5q3 0 19 4.5t20 4.5q6 0 13 -13t7 -23z
M161 559q0 -3 -8 -32t-18 -68t-14 -61q0 -2 -1.5 -25.5t-8 -39t-20.5 -24.5q0 25 33 217q-2 0 -3.5 -2t-2.5 -3q-8 -28 -39 -212l-6 4q0 27 3 54.5t6 43t10 49t10 47.5q1 1 -1 7q-1 0 -6 -8q-22 -101 -32 -179q-1 3 -5.5 13.5t-4.5 13.5q0 4 11.5 53.5t11.5 52.5v28l1 2
q-1 1 -4 1t-22.5 -13.5t-25.5 -13.5q-12 0 -22.5 19t-10.5 31q21 9 56 35q3 2 11.5 10t12 11t11.5 9.5t12.5 9.5t10.5 6.5t11.5 5t10.5 1.5q19 0 26.5 -14.5t6.5 -28.5zM375 538q0 -12 -46 -102t-103.5 -200t-75.5 -152q-4 -10 -5.5 -33.5t-4.5 -39.5t-13 -16q-8 0 -12 8
t-4 14q0 14 17 50q26 64 117 255q94 202 117 248q15 -15 13 -32zM352 580q-37 -91 -127 -283t-128 -287q-6 0 -6 7q0 17 16 54q21 49 63.5 139.5t53.5 115.5l122 256zM331 583q4 -9 -7 -30q-10 -22 -39.5 -84t-47.5 -101q-16 -36 -57.5 -124t-66.5 -144.5t-29 -81.5
q-1 2 -5.5 10t-4.5 12q0 6 12.5 42t24.5 59q164 338 198 416q5 13 22 26zM378 189q-16 -16 -24 -32q4 0 7 1t5 3.5t4 4.5t3 6t2 6t2 6t1 5z" />
    <glyph glyph-name="onehalf" unicode="&#xbd;" horiz-adv-x="532" 
d="M161 559q0 -3 -8 -32t-18 -68t-14 -61q0 -2 -1.5 -25.5t-8 -39t-20.5 -24.5q0 25 33 217q-2 0 -3.5 -2t-2.5 -3q-8 -28 -39 -212l-6 4q0 27 3 54.5t6 43t10 49t10 47.5q1 1 -1 7q-1 0 -6 -8q-22 -101 -32 -179q-1 3 -5.5 13.5t-4.5 13.5q0 4 11.5 53.5t11.5 52.5v28l1 2
q-1 1 -4 1t-22.5 -13.5t-25.5 -13.5q-12 0 -22.5 19t-10.5 31q21 9 56 35q3 2 11.5 10t12 11t11.5 9.5t12.5 9.5t10.5 6.5t11.5 5t10.5 1.5q19 0 26.5 -14.5t6.5 -28.5zM375 538q0 -12 -46 -102t-103.5 -200t-75.5 -152q-4 -10 -5.5 -33.5t-4.5 -39.5t-13 -16q-8 0 -12 8
t-4 14q0 14 17 50q26 64 117 255q94 202 117 248q15 -15 13 -32zM346 582l6 -2q-37 -91 -127 -283t-128 -287q-6 0 -6 7q0 17 16 54q21 49 63.5 139.5t53.5 115.5zM331 583q4 -9 -7 -30q-10 -22 -39.5 -84t-47.5 -101q-16 -36 -57.5 -124t-66.5 -144.5t-29 -81.5
q-1 2 -5.5 10t-4.5 12q0 6 12.5 42t24.5 59q164 338 198 416q5 13 22 26zM504 15q-7 -16 -18 -16q-5 0 -27.5 3t-25.5 3q-27 0 -51 -9t-29 -9q-22 0 -42 16.5t-20 38.5q0 11 8 28t17 29.5t23 31.5t17 23q12 17 38 72v4q-1 3 -6 3q-6 0 -11 -7t-7.5 -14t-5 -17t-2.5 -11h-18
q-15 0 -27 30.5t-10 42.5l20 15l17 13l14 9l15 6l15 1q30 0 55 -22t25 -53q0 -13 -4 -27.5t-8.5 -25t-15 -27.5t-16 -24.5t-20 -28t-18.5 -25.5q5 -4 24 -4q13 0 25 4t19.5 7.5t8.5 3.5q8 0 22.5 -7t15.5 -16q-23 -5 -67 -8.5t-75 -6.5t-33 -6q18 0 177 11l2 -12
q-118 -9 -161 -16q15 -3 35.5 -0.5t55.5 6.5t51 4q19 0 18 -13zM410 272q8 -14 11 -38t-2 -47q15 20 10.5 48.5t-19.5 36.5zM430 272q1 -3 2 -10q9 -45 2 -71q-3 -10 -9 -25q42 57 5 106z" />
    <glyph glyph-name="threequarters" unicode="&#xbe;" horiz-adv-x="557" 
d="M541 138q-21 -17 -51 -17q-4 0 -10 2t-9 2q-25 0 -25 -51q0 -4 9 -29t9 -28q0 -25 -28 -36h-8q-2 14 0 64t3.5 83.5t-4.5 45.5q-8 -47 -8 -193q-17 6 -17 63q0 15 16 180l-6 -8q-21 -118 -17 -217q-8 6 -11.5 19.5t-4 24.5t0.5 31.5t1 26.5v3q-2 -1 -5 -1t-6.5 -2
t-8.5 -5l-7 -3q-15 -9 -42 -9q-4 0 -18 11t-20 21q-4 7 -4 21q0 16 17 33q8 11 54.5 67t63.5 83q4 9 33 9q10 0 14 -1q9 -7 22.5 -25.5t13.5 -27.5q0 -4 -6.5 -17.5t-7.5 -18.5q-13 -46 -13 -61q0 -7 2.5 -10.5t5 -3.5t7.5 0.5t6 0.5q4 0 20 4.5t19 4.5q6 0 13 -13t7 -23z
M390 538q0 -12 -46 -102t-103.5 -200t-75.5 -152q-4 -10 -5.5 -33.5t-4.5 -39.5t-13 -16q-8 0 -12 8t-4 14q0 14 17 50q26 64 117 255q94 202 117 248q15 -15 13 -32zM361 582l6 -2q-37 -91 -127 -283t-128 -287q-6 0 -6 7q0 17 16 54q21 49 63.5 139.5t53.5 115.5zM346 583
q4 -9 -7 -30q-10 -22 -39.5 -84t-47.5 -101q-16 -36 -57.5 -124t-66.5 -144.5t-29 -81.5q-1 2 -5.5 10t-4.5 12q0 6 12.5 42t24.5 59q164 338 198 416q5 13 22 26zM393 189q-16 -16 -24 -32q4 0 7 1t5 3.5t4 4.5t3 6t2 6t2 6t1 5zM169 530q0 -20 -7 -32t-23.5 -31t-28.5 -43
q1 -2 6 -4t7 -5q8 -8 15 -25.5t7 -24.5q0 -32 -28.5 -67t-61.5 -35q-21 0 -35.5 12t-14.5 32q0 11 14.5 26.5t22.5 15.5q3 0 17 -12q16 18 16 29q0 10 -9 10q-4 0 -6 -2t-6 -2q-14 0 -30.5 13.5t-16.5 27.5q0 6 42 67q5 8 16 20t17 20.5t6 15.5q-9 -8 -15.5 -15.5t-9 -10.5
t-6.5 -4.5t-11 -1.5q-18 0 -32.5 15t-14.5 29q0 25 35.5 42t54.5 17q5 0 10 -15.5t8 -30.5l3 -15q0 -32 -24 -77v-3q30 32 30 80q0 23 -12 47v11h11q3 -5 5 -10l4 -8l3 -8l1 -6l2 -6v-6v-8v-7q0 -38 -28 -84q-1 -1 -1 -7q17 11 29 39.5t12 51.5q0 2 -8 55q35 -32 35 -70z
" />
    <glyph glyph-name="questiondown" unicode="&#xbf;" horiz-adv-x="354" 
d="M5 110q0 28 15 64.5t29.5 60t45.5 69t40 59.5q17 17 18 20q23 32 29 42q22 35 26 54q3 12 -4 62q-1 6 5.5 12.5t14.5 6.5q4 0 3 1.5t3 1.5q22 0 35.5 -25t17 -46t3.5 -35q0 -37 -13 -62q-28 -52 -97.5 -147t-88.5 -149q3 -7 17 -7q48 0 81 45q1 2 5 17t10.5 28t15.5 13
q19 0 30 -10.5t21 -34.5q11 -22 11 -41q0 -40 -53.5 -81.5t-90.5 -41.5q-27 0 -59 9q-29 10 -49.5 47t-20.5 68zM178 682q0 12 1 14q7 14 19 34q24 4 26 4q22 0 39 -34t17 -49q0 -14 -20.5 -22.5t-35.5 -10t-23 -1.5q-10 0 -15.5 16.5t-6.5 32.5zM68 25q32 -28 72 -22t75 34
q-97 -43 -147 -12zM57 46q57 -46 132 -4q-20 -7 -38 -9.5t-33 -1t-24 3t-21.5 6t-15.5 5.5zM68 113q0 -2 6 -10q7 34 31.5 81.5t54.5 93t31 47.5q-26 -23 -75 -99t-48 -113zM49 145q0 -9 7 -14q2 25 18.5 56.5t48 76t38.5 56.5q-25 -20 -68.5 -84.5t-43.5 -90.5z" />
    <glyph glyph-name="Agrave" unicode="&#xc0;" horiz-adv-x="463" 
d="M487 253q0 -18 -48.5 -36.5t-50.5 -23.5q-7 -37 -8 -73q-1 -11 -2 -38.5t-2 -40.5q0 -68 -26 -68q-3 0 -9.5 2.5t-8.5 2.5q-5 0 -5.5 7.5t-0.5 20t-3 20.5q-8 -33 -15 -41l-5 3q9 108 9 128l1 57q-9 -1 -11 -4q0 -6 0.5 -25t-0.5 -27q-2 -28 -0.5 -46.5t-0.5 -39
t-10 -38.5l-5 5q5 138 5 168q-1 0 -2 1t-5 1q-8 0 -80 -17q-5 -2 -17 -7.5t-22 -9t-15 -3.5q-3 0 -15.5 3t-17.5 3q-12 0 -14 -16.5t-3.5 -51t-12.5 -63.5q-20 -10 -29 -10q-17 0 -35.5 17.5t-18.5 30.5q0 107 90 333.5t154 306.5q5 6 15 26q5 1 15.5 4.5t18.5 6t11 2.5
q53 0 79 -62q1 -6 5 -35t8.5 -77.5t4.5 -82.5q0 -4 -7.5 -86t-7.5 -86q0 -5 4 -9t8 -4t15 1t14 1q56 0 56 -30zM327 629q31 -102 23 -204q15 29 9 100.5t-32 103.5zM253 636q-23 -6 -70.5 -111.5t-55.5 -137.5q-1 -3 27.5 54t60.5 121.5t38 73.5zM318 620l-6 -19
q0 -2 3 -14.5t7.5 -29.5t5.5 -26q7 -64 2 -134q15 27 10.5 105.5t-22.5 117.5zM307 567q-2 12 -9 24q-6 -12 -31.5 -56t-39.5 -71t-21 -46q-9 -25 -26.5 -69.5t-29.5 -75.5t-12 -33q0 -12 19 -12q11 0 29.5 3.5t37 8.5t35 9.5t27.5 8.5l12 3q9 25 12 62q13 137 -3 244z
M335 169v15l-10 -5l-1 -130l7 -4zM124 375l-5 -4q-38 -86 -56.5 -160.5t-31.5 -176.5q9 17 15 39.5t13 59t13 61.5q26 109 52 181zM46 200l-31 -122l3 -38zM352 780q0 -8 -5 -19.5t-14 -11.5q-28 0 -99 67.5t-77 89.5q19 -11 66 -58.5t72 -62.5q1 -2 4 1q-28 20 -71.5 62.5
t-62.5 70.5q0 2 2 4.5t4 1.5q17 -14 69.5 -65t86.5 -75q2 4 -34.5 37t-73.5 68t-37 45q0 7 9.5 10.5t17.5 3.5q12 0 22.5 -10t24 -29.5t18.5 -25.5q12 -15 35 -41.5t30 -34.5q13 -17 13 -28z" />
    <glyph glyph-name="Aacute" unicode="&#xc1;" horiz-adv-x="463" 
d="M487 253q0 -18 -48.5 -36.5t-50.5 -23.5q-7 -37 -8 -73q-1 -11 -2 -38.5t-2 -40.5q0 -68 -26 -68q-3 0 -9.5 2.5t-8.5 2.5q-5 0 -5.5 7.5t-0.5 20t-3 20.5q-8 -33 -15 -41l-5 3q9 108 9 128l1 57q-9 -1 -11 -4q0 -6 0.5 -25t-0.5 -27q-2 -28 -0.5 -46.5t-0.5 -39
t-10 -38.5l-5 5q5 138 5 168q-1 0 -2 1t-5 1q-8 0 -80 -17q-5 -2 -17 -7.5t-22 -9t-15 -3.5q-3 0 -15.5 3t-17.5 3q-12 0 -14 -16.5t-3.5 -51t-12.5 -63.5q-20 -10 -29 -10q-17 0 -35.5 17.5t-18.5 30.5q0 107 90 333.5t154 306.5q5 6 15 26q5 1 15.5 4.5t18.5 6t11 2.5
q53 0 79 -62q1 -6 5 -35t8.5 -77.5t4.5 -82.5q0 -4 -7.5 -86t-7.5 -86q0 -5 4 -9t8 -4t15 1t14 1q56 0 56 -30zM327 629q31 -102 23 -204q15 29 9 100.5t-32 103.5zM253 636q-23 -6 -70.5 -111.5t-55.5 -137.5q-1 -3 27.5 54t60.5 121.5t38 73.5zM318 620l-6 -19
q0 -2 3 -14.5t7.5 -29.5t5.5 -26q7 -64 2 -134q15 27 10.5 105.5t-22.5 117.5zM307 567q-2 12 -9 24q-6 -12 -31.5 -56t-39.5 -71t-21 -46q-9 -25 -26.5 -69.5t-29.5 -75.5t-12 -33q0 -12 19 -12q11 0 29.5 3.5t37 8.5t35 9.5t27.5 8.5l12 3q9 25 12 62q13 137 -3 244z
M335 169v15l-10 -5l-1 -130l7 -4zM124 375l-5 -4q-38 -86 -56.5 -160.5t-31.5 -176.5q9 17 15 39.5t13 59t13 61.5q26 109 52 181zM46 200l-31 -122l3 -38zM505 936q0 -3 -23.5 -15t-22.5 -20q23 8 44 24q1 -3 -1.5 -11.5t-5.5 -11.5q-10 -11 -73.5 -58t-85.5 -88
q-4 -6 -15 -6q-12 0 -29 18q3 5 23.5 24.5t24.5 24.5q-4 -2 -14.5 -10t-22.5 -18.5t-16 -13.5q-9 3 -7 14q73 50 97 81q-7 -5 -43.5 -33.5t-55.5 -40.5q-2 28 81.5 92t107.5 63l27 -1q-5 -4 -11.5 -8.5t-10.5 -6.5t-7 -5.5t-3 -6.5l37 20q5 0 5 -7z" />
    <glyph glyph-name="Acircumflex" unicode="&#xc2;" horiz-adv-x="463" 
d="M487 253q0 -18 -48.5 -36.5t-50.5 -23.5q-7 -37 -8 -73q-1 -11 -2 -38.5t-2 -40.5q0 -68 -26 -68q-3 0 -9.5 2.5t-8.5 2.5q-5 0 -5.5 7.5t-0.5 20t-3 20.5q-8 -33 -15 -41l-5 3q9 108 9 128l1 57q-9 -1 -11 -4q0 -6 0.5 -25t-0.5 -27q-2 -28 -0.5 -46.5t-0.5 -39
t-10 -38.5l-5 5q5 138 5 168q-1 0 -2 1t-5 1q-8 0 -80 -17q-5 -2 -17 -7.5t-22 -9t-15 -3.5q-3 0 -15.5 3t-17.5 3q-12 0 -14 -16.5t-3.5 -51t-12.5 -63.5q-20 -10 -29 -10q-17 0 -35.5 17.5t-18.5 30.5q0 107 90 333.5t154 306.5q5 6 15 26q5 1 15.5 4.5t18.5 6t11 2.5
q53 0 79 -62q1 -6 5 -35t8.5 -77.5t4.5 -82.5q0 -4 -7.5 -86t-7.5 -86q0 -5 4 -9t8 -4t15 1t14 1q56 0 56 -30zM327 629q31 -102 23 -204q15 29 9 100.5t-32 103.5zM253 636q-23 -6 -70.5 -111.5t-55.5 -137.5q-1 -3 27.5 54t60.5 121.5t38 73.5zM318 620l-6 -19
q0 -2 3 -14.5t7.5 -29.5t5.5 -26q7 -64 2 -134q15 27 10.5 105.5t-22.5 117.5zM307 567q-2 12 -9 24q-6 -12 -31.5 -56t-39.5 -71t-21 -46q-9 -25 -26.5 -69.5t-29.5 -75.5t-12 -33q0 -12 19 -12q11 0 29.5 3.5t37 8.5t35 9.5t27.5 8.5l12 3q9 25 12 62q13 137 -3 244z
M335 169v15l-10 -5l-1 -130l7 -4zM124 375l-5 -4q-38 -86 -56.5 -160.5t-31.5 -176.5q9 17 15 39.5t13 59t13 61.5q26 109 52 181zM46 200l-31 -122l3 -38zM435 779q0 -10 -10 -20q-15 26 -25 76t-21 73q0 -4 -2 -4q0 -23 37 -149h-10q-12 19 -21.5 65t-16.5 64q-4 -3 -4 -8
q0 -14 25 -111q-11 22 -38 96q-32 -36 -46 -55q-1 -2 -8 -12t-12.5 -18t-13.5 -17.5t-16 -15t-14 -5.5q-10 0 -25.5 15t-15.5 20q0 12 37 49q8 9 36 47.5t51.5 63.5t39.5 25q14 0 34.5 -13t22.5 -27q2 -10 5 -84q1 -8 6 -30t5 -25z" />
    <glyph glyph-name="Atilde" unicode="&#xc3;" horiz-adv-x="463" 
d="M487 253q0 30 -56 30q-3 0 -14 -1t-15 -1t-8 4t-4 9q0 4 7.5 86t7.5 86q0 34 -4.5 82.5t-8.5 77.5t-5 35q-26 62 -79 62q-3 0 -11 -2.5t-18.5 -6t-15.5 -4.5q-10 -20 -15 -26q-64 -80 -154 -306.5t-90 -333.5q0 -13 18.5 -30.5t35.5 -17.5q9 0 29 10q11 29 12.5 63.5
t3.5 51t14 16.5q5 0 17.5 -3t15.5 -3q5 0 15 3.5t22 9t17 7.5q72 17 80 17q4 0 5 -1t2 -1q0 -30 -5 -168l5 -5q8 18 10 38.5t0.5 39t0.5 46.5q1 8 0.5 27t-0.5 25l11 4l-1 -57q0 -20 -9 -128l5 -3q7 8 15 41q3 -8 3 -20.5t0.5 -20t5.5 -7.5q2 0 8.5 -2.5t9.5 -2.5
q26 0 26 68q1 13 2 40.5t2 38.5q1 36 8 73q2 5 50.5 23.5t48.5 36.5zM327 629q26 -32 32 -103.5t-9 -100.5q8 102 -23 204zM253 636q-4 -6 -18.5 -34.5t-32.5 -64.5l-36 -71l-28 -58l-11 -21q8 32 55.5 137.5t70.5 111.5zM318 620q18 -39 22.5 -117.5t-10.5 -105.5
q5 70 -2 134q-1 9 -5.5 26t-7.5 29.5t-3 14.5zM307 567q16 -107 3 -244q-3 -37 -12 -62l-12 -3q-11 -4 -27.5 -8.5t-35 -9.5t-37 -8.5t-29.5 -3.5q-19 0 -19 12q0 2 12 33t29.5 75.5t26.5 69.5q7 19 21 46t39.5 71t31.5 56q7 -12 9 -24zM335 184v-15l-4 -124l-7 4l1 130z
M119 371l5 4q-26 -72 -52 -181q-6 -25 -13 -61.5t-13 -59t-15 -39.5q13 102 31.5 176.5t56.5 160.5zM15 78l31 122l-28 -160zM471 820q0 49 -40 57q-3 -5 -5.5 -11t-4 -12.5t-2.5 -8.5q-3 -11 -17.5 -22t-23.5 -11q-2 0 -13.5 15t-30 29.5t-38.5 14.5q-28 0 -66 -21.5
t-38 -54.5q0 -27 21 -48q8 -10 18 -10q11 0 13 10q1 2 4 11t7 14q4 7 22 17.5t28 10.5h8q7 0 19 -16t29 -31.5t35 -15.5q17 0 45 23.5t30 37.5v22zM404 792q-14 -8 -31 1.5t-31.5 23t-37.5 16t-49 -20.5q20 27 41.5 29.5t37 -10t36 -26.5t34.5 -13zM416 784q-14 -14 -25 -14
q-15 -1 -32 10.5t-29 23t-34 10.5t-49 -23q19 26 39.5 30t35.5 -6t35.5 -23t34.5 -14q9 -1 24 6z" />
    <glyph glyph-name="Adieresis" unicode="&#xc4;" horiz-adv-x="463" 
d="M487 253q0 -18 -48.5 -36.5t-50.5 -23.5q-7 -37 -8 -73q-1 -11 -2 -38.5t-2 -40.5q0 -68 -26 -68q-3 0 -9.5 2.5t-8.5 2.5q-5 0 -5.5 7.5t-0.5 20t-3 20.5q-8 -33 -15 -41l-5 3q9 108 9 128l1 57q-9 -1 -11 -4q0 -6 0.5 -25t-0.5 -27q-2 -28 -0.5 -46.5t-0.5 -39
t-10 -38.5l-5 5q5 138 5 168q-1 0 -2 1t-5 1q-8 0 -80 -17q-5 -2 -17 -7.5t-22 -9t-15 -3.5q-3 0 -15.5 3t-17.5 3q-12 0 -14 -16.5t-3.5 -51t-12.5 -63.5q-20 -10 -29 -10q-17 0 -35.5 17.5t-18.5 30.5q0 107 90 333.5t154 306.5q5 6 15 26q5 1 15.5 4.5t18.5 6t11 2.5
q53 0 79 -62q1 -6 5 -35t8.5 -77.5t4.5 -82.5q0 -4 -7.5 -86t-7.5 -86q0 -5 4 -9t8 -4t15 1t14 1q56 0 56 -30zM327 629q31 -102 23 -204q15 29 9 100.5t-32 103.5zM253 636q-23 -6 -70.5 -111.5t-55.5 -137.5q-1 -3 27.5 54t60.5 121.5t38 73.5zM318 620l-6 -19
q0 -2 3 -14.5t7.5 -29.5t5.5 -26q7 -64 2 -134q15 27 10.5 105.5t-22.5 117.5zM307 567q-2 12 -9 24q-6 -12 -31.5 -56t-39.5 -71t-21 -46q-9 -25 -26.5 -69.5t-29.5 -75.5t-12 -33q0 -12 19 -12q11 0 29.5 3.5t37 8.5t35 9.5t27.5 8.5l12 3q9 25 12 62q13 137 -3 244z
M335 169v15l-10 -5l-1 -130l7 -4zM124 375l-5 -4q-38 -86 -56.5 -160.5t-31.5 -176.5q9 17 15 39.5t13 59t13 61.5q26 109 52 181zM46 200l-31 -122l3 -38zM433 795q0 -18 -9 -28t-22 -10q-19 0 -35 13q-22 22 -22 36q0 28 31 44q25 2 41 -15t16 -40zM294 800q0 -43 -41 -43
q-15 0 -30.5 22t-15.5 38q0 30 46 30q6 0 18.5 -6t18.5 -12q4 -6 4 -29zM287 803q-5 21 -20 30.5t-32 1.5q28 -1 52 -32zM282 787q-5 23 -23.5 35t-38.5 5q23 -4 35 -12t27 -28zM421 775q8 21 -3 42t-30 20q28 -13 33 -62z" />
    <glyph glyph-name="Aring" unicode="&#xc5;" horiz-adv-x="463" 
d="M487 253q0 -18 -48.5 -36.5t-50.5 -23.5q-7 -37 -8 -73q-1 -11 -2 -38.5t-2 -40.5q0 -68 -26 -68q-3 0 -9.5 2.5t-8.5 2.5q-5 0 -5.5 7.5t-0.5 20t-3 20.5q-8 -33 -15 -41l-5 3q9 108 9 128l1 57q-9 -1 -11 -4q0 -6 0.5 -25t-0.5 -27q-2 -28 -0.5 -46.5t-0.5 -39
t-10 -38.5l-5 5q5 138 5 168q-1 0 -2 1t-5 1q-8 0 -80 -17q-5 -2 -17 -7.5t-22 -9t-15 -3.5q-3 0 -15.5 3t-17.5 3q-12 0 -14 -16.5t-3.5 -51t-12.5 -63.5q-20 -10 -29 -10q-17 0 -35.5 17.5t-18.5 30.5q0 107 90 333.5t154 306.5q5 6 15 26q5 1 15.5 4.5t18.5 6t11 2.5
q53 0 79 -62q1 -6 5 -35t8.5 -77.5t4.5 -82.5q0 -4 -7.5 -86t-7.5 -86q0 -5 4 -9t8 -4t15 1t14 1q56 0 56 -30zM327 629q31 -102 23 -204q15 29 9 100.5t-32 103.5zM253 636q-23 -6 -70.5 -111.5t-55.5 -137.5q-1 -3 27.5 54t60.5 121.5t38 73.5zM318 620l-6 -19
q0 -2 3 -14.5t7.5 -29.5t5.5 -26q7 -64 2 -134q15 27 10.5 105.5t-22.5 117.5zM307 567q-2 12 -9 24q-6 -12 -31.5 -56t-39.5 -71t-21 -46q-9 -25 -26.5 -69.5t-29.5 -75.5t-12 -33q0 -12 19 -12q11 0 29.5 3.5t37 8.5t35 9.5t27.5 8.5l12 3q9 25 12 62q13 137 -3 244z
M335 169v15l-10 -5l-1 -130l7 -4zM124 375l-5 -4q-38 -86 -56.5 -160.5t-31.5 -176.5q9 17 15 39.5t13 59t13 61.5q26 109 52 181zM46 200l-31 -122l3 -38zM401 778q0 -32 -25 -52t-47 -20q-35 0 -59 19q-7 6 -16 27t-9 33q0 22 23.5 54t36.5 32q1 -3 7 -3q2 0 6.5 6t13.5 6
q4 0 12 -5t11 -6q46 -26 46 -91zM344 803q0 5 -1.5 10t-1.5 7q-8 -4 -22 -24t-14 -29q0 -5 1 -6t2 -1q13 -4 24.5 13.5t11.5 29.5zM362 829q12 -19 12 -43.5t-8 -43.5q17 20 17.5 43.5t-21.5 43.5zM348 830q27 -52 -21 -109q70 54 21 109z" />
    <glyph glyph-name="AE" unicode="&#xc6;" horiz-adv-x="769" 
d="M851 637q0 -54 -40 -54q-2 0 -25 6t-34 7q-22 3 -110 3q-155 0 -204 6q-12 -16 -20 -34.5t-13 -44t-7 -38t-4 -47t-3 -40.5q1 -2 5 -4q21 0 55.5 -1.5t60.5 -3.5t28 -2q52 0 134 13q9 2 24.5 6.5t27.5 8t15 3.5t9.5 -3.5t10.5 -3.5v-37q0 -6 -9 -12q-4 -17 -16 -29
t-31.5 -18.5t-35 -10t-39 -6.5t-30.5 -4q-45 -6 -187 -6q-4 0 -6 3t-6 3q-20 0 -20 -48q0 -4 2.5 -10t2.5 -9q2 -7 2 -15.5t-1 -20.5t-1 -19q0 -25 15 -50q11 -23 39.5 -41t47.5 -18q37 0 70 18t69.5 49.5t49.5 40.5q2 2 8 7t10.5 8t7.5 3q12 0 12 -18q0 -22 -19 -65
q-9 -21 -52 -64.5t-68 -51.5q-2 -1 -8.5 -5.5t-9.5 -5.5q-27 -6 -57 -6q-3 0 -12 2.5t-21.5 5.5t-18.5 4q-2 1 -5 3.5t-5 3.5q-17 8 -33.5 22.5t-27 27.5t-29.5 39q-9 -4 -8.5 -29.5t-0.5 -48t-14 -22.5h-12q-6 0 -22.5 8t-22.5 17q-11 13 -6 74q3 74 4 86q0 2 -4 8
q-12 -1 -37 -7.5t-35 -8.5q-8 -2 -30.5 -11.5t-25.5 -9.5t-16 3.5t-16 3.5q-5 0 -8 -5.5t-4 -11.5t-1.5 -13t-0.5 -8q-7 -39 -12 -94q-14 -9 -30 -9q-6 0 -25.5 13t-20.5 18q-1 3 -1 25q0 56 13 108q25 109 97 292q63 161 126 249l3 9q4 0 18 6.5t19 6.5q16 0 34 -12t22 -22
q6 0 16 3t13 3q11 1 32 -2t32 -2q5 0 19 3t17 3h21q4 0 10 -2.5t8 -2.5q27 -3 166 -3q27 -1 80.5 1t78.5 2q10 -4 18 -29.5t8 -35.5zM288 455q0 46 -10 136q-7 10 -11 10q-26 -52 -37 -73q-33 -67 -37 -76q-17 -44 -43.5 -121.5t-26.5 -83.5q0 -10 18 -10q14 0 69 15t62 19
q1 10 8.5 88.5t7.5 95.5zM475 43q-42 22 -70 53.5t-39.5 71t-15.5 76.5t3.5 88t14.5 86.5t20 90.5t19 83q-26 -54 -45 -133.5t-24 -168t29 -158.5t108 -89zM443 30q-40 15 -67.5 60t-38 102.5t-9.5 118.5t13 112q8 58 20 96t36 92l-11 -4q-27 -63 -39 -104.5t-15.5 -65
t-11.5 -96.5q-7 -137 18 -209.5t105 -101.5zM299 641q4 -8 12.5 -21.5t11.5 -20.5t6 -24t3 -41q11 40 4 60.5t-37 46.5zM247 642q-23 -6 -70.5 -114.5t-56.5 -140.5q-1 -3 27.5 54t61 123.5t38.5 77.5zM289 633q11 -24 19.5 -68.5t6.5 -66.5q19 86 -26 135zM112 371
q-38 -86 -56.5 -160.5t-31.5 -176.5q9 17 15 39.5t13 59t13 61.5q26 109 52 181zM8 78l3 -38l28 160z" />
    <glyph glyph-name="Ccedilla" unicode="&#xc7;" horiz-adv-x="435" 
d="M421 617q0 -38 -20 -79t-50 -49q-3 0 -3 7q0 2 14 19q32 46 42 95h-7q-27 -80 -59 -115q-10 0 -10 7q0 3 4.5 9t11 13.5t8.5 11.5q19 30 34 75q-1 1 -3.5 1.5t-3.5 2.5q-6 -9 -17.5 -37t-25.5 -48.5t-34 -25.5q-7 10 -7 18q0 4 17.5 39t17.5 38v41q-5 0 -5 1
q-18 0 -64 -56.5t-60 -82.5q-35 -70 -54 -112.5t-38 -105.5t-19 -111q0 -50 21 -83q3 -5 36 -26h31q37 0 72 16t79 43t78 41q11 -6 11 -17q0 -13 -22 -43t-37 -45q-10 -10 -39.5 -28.5t-49.5 -23.5l-4 -1q-3 -1 -4 -2q-8 -2 -23 -5t-25 -5.5t-13 -2.5q-11 0 -49 9t-58 21
q-13 7 -41 40t-35 51q-12 25 -16 45q-3 21 -3 43q0 54 28.5 145t71.5 179.5t101.5 153t110.5 64.5q4 0 38.5 -20t37.5 -25q28 -44 30 -50q4 -14 4 -30zM285 672q-21 -11 -60.5 -65t-50.5 -82l23 31q72 101 88 116zM284 693q-31 -15 -50 -37q-84 -109 -137.5 -237.5
t-53.5 -237.5q0 -122 88 -151q-22 12 -37 30t-22.5 33t-11.5 37.5t-4.5 34.5t-0.5 32q0 85 42 196q3 8 8.5 26t8.5 24q32 65 84.5 143.5t85.5 106.5zM145 35q-25 16 -40.5 36t-21 40.5t-8 43t-1 43.5t-0.5 42q-10 -22 -10 -57q0 -116 81 -148zM290 -85q0 -27 -10 -40
q-11 -11 -29 -22t-29 -11q-42 0 -42 33q0 11 13 24q5 -6 15 -6q7 0 26 19q-8 8 -14 8q-4 0 -18 -1.5t-18 -1.5q-18 0 -31 19.5t-13 31.5q0 28 23 56q4 4 8.5 13.5t8.5 12.5q11 8 20 8q15 0 24.5 -19t9.5 -29q0 -3 -3 -8.5t-7.5 -12t-5.5 -9.5q22 0 47 -22t25 -43zM273 -82
q-11 25 -26 32.5t-42 0.5q41 -2 68 -33zM267 -107q-3 32 -32 45t-56 -4q31 5 55 -6.5t33 -34.5z" />
    <glyph glyph-name="Egrave" unicode="&#xc8;" horiz-adv-x="489" 
d="M565 647q-7 -5 -29 -5q-5 0 -110.5 11.5t-108.5 11.5q-2 0 -14.5 0.5t-17.5 0t-14.5 -3.5t-15.5 -9q8 0 27 3t22 3q2 0 13.5 -2t28.5 -4.5t28 -3.5q60 -9 186 -17q-14 -14 -33 -14q-3 0 -109 13.5t-111 13.5q-8 0 -34.5 -5t-29.5 -8q10 0 32 3.5t24 3.5q3 0 46.5 -5
t105.5 -12t97 -10q0 -6 6 -6q-11 -11 -24 -11q-3 0 -17 4.5t-20 5.5q-51 7 -145 7h-14q-13 1 -27 1.5t-31.5 0t-27.5 -2.5q-10 -1 -29 -20.5t-33 -39.5q-15 -15 -27 -37q-45 -85 -45 -99q0 -11 13 -11q14 0 115.5 17t116.5 23q7 2 25 11t22 9q9 0 22 -13q0 -2 0.5 -16t0 -20
t-2.5 -17.5t-8 -18.5t-15 -11q-35 -19 -81 -30t-121.5 -21.5t-93.5 -13.5q-8 -1 -14 -4.5t-9.5 -9.5t-6 -11t-3.5 -14.5t-1 -13.5v-14v-10q0 -49 4 -59q1 -4 7.5 -12t7.5 -12q9 -24 39.5 -42.5t50.5 -18.5q31 0 56.5 14t42.5 33t47 49t60 51q5 -3 11 -10t6 -13
q0 -3 -4 -12.5t-5 -12.5q-1 -7 -0.5 -12.5t0 -12.5t-3.5 -12q-79 -149 -184 -149q-27 0 -60 11t-51 27q-37 34 -59.5 75t-29 79t-8 80t2.5 77q0 6 -4.5 18.5t-4.5 15.5q0 2 5.5 8.5t12.5 15.5t10 16q5 11 15.5 45t16.5 49q6 16 19 43.5t22.5 47.5t9.5 23q0 2 -4.5 16
t-10.5 31.5t-8 26.5q10 12 25 14q16 2 42 2.5t46.5 0t39.5 -0.5l19 -1q110 0 149 -2q6 0 18.5 -2t15.5 -2t41 5t41 5q18 0 28.5 -11.5t13 -24t4.5 -36.5zM169 44q-111 35 -111 180q0 3 1.5 23.5t1.5 28.5q2 52 17.5 100.5t51.5 127.5t48 108h-7q-6 0 -34 -57t-57 -143.5
t-31 -146.5v-9q0 -30 1 -49.5t7 -51.5t22 -57t42 -41q12 -8 27 -11.5t21 -1.5zM138 37q-32 9 -56.5 43.5t-35 69.5t-12.5 65q-5 77 34 208q9 29 22.5 61t32.5 71.5t27 58.5l-11 -4q-103 -192 -113 -353q-2 -30 1.5 -60.5t14.5 -64.5t35.5 -59.5t60.5 -35.5zM353 774
q0 -8 -5 -19.5t-14 -11.5q-28 0 -99 67.5t-77 89.5q19 -11 66 -58.5t72 -62.5q1 -2 4 1q-28 20 -71.5 62.5t-62.5 70.5q0 2 2 4.5t4 1.5q17 -14 69.5 -65t86.5 -75q2 4 -34.5 37t-73.5 68t-37 45q0 7 9.5 10.5t17.5 3.5q12 0 22.5 -10t24 -29.5t18.5 -25.5q12 -15 35 -41.5
t30 -34.5q13 -17 13 -28z" />
    <glyph glyph-name="Eacute" unicode="&#xc9;" horiz-adv-x="489" 
d="M565 647q-7 -5 -29 -5q-5 0 -110.5 11.5t-108.5 11.5q-2 0 -14.5 0.5t-17.5 0t-14.5 -3.5t-15.5 -9q8 0 27 3t22 3q2 0 13.5 -2t28.5 -4.5t28 -3.5q60 -9 186 -17q-14 -14 -33 -14q-3 0 -109 13.5t-111 13.5q-8 0 -34.5 -5t-29.5 -8q10 0 32 3.5t24 3.5q3 0 46.5 -5
t105.5 -12t97 -10q0 -6 6 -6q-11 -11 -24 -11q-3 0 -17 4.5t-20 5.5q-51 7 -145 7h-14q-13 1 -27 1.5t-31.5 0t-27.5 -2.5q-10 -1 -29 -20.5t-33 -39.5q-15 -15 -27 -37q-45 -85 -45 -99q0 -11 13 -11q14 0 115.5 17t116.5 23q7 2 25 11t22 9q9 0 22 -13q0 -2 0.5 -16t0 -20
t-2.5 -17.5t-8 -18.5t-15 -11q-35 -19 -81 -30t-121.5 -21.5t-93.5 -13.5q-8 -1 -14 -4.5t-9.5 -9.5t-6 -11t-3.5 -14.5t-1 -13.5v-14v-10q0 -49 4 -59q1 -4 7.5 -12t7.5 -12q9 -24 39.5 -42.5t50.5 -18.5q31 0 56.5 14t42.5 33t47 49t60 51q5 -3 11 -10t6 -13
q0 -3 -4 -12.5t-5 -12.5q-1 -7 -0.5 -12.5t0 -12.5t-3.5 -12q-79 -149 -184 -149q-27 0 -60 11t-51 27q-37 34 -59.5 75t-29 79t-8 80t2.5 77q0 6 -4.5 18.5t-4.5 15.5q0 2 5.5 8.5t12.5 15.5t10 16q5 11 15.5 45t16.5 49q6 16 19 43.5t22.5 47.5t9.5 23q0 2 -4.5 16
t-10.5 31.5t-8 26.5q10 12 25 14q16 2 42 2.5t46.5 0t39.5 -0.5l19 -1q110 0 149 -2q6 0 18.5 -2t15.5 -2t41 5t41 5q18 0 28.5 -11.5t13 -24t4.5 -36.5zM169 44q-111 35 -111 180q0 3 1.5 23.5t1.5 28.5q2 52 17.5 100.5t51.5 127.5t48 108h-7q-6 0 -34 -57t-57 -143.5
t-31 -146.5v-9q0 -30 1 -49.5t7 -51.5t22 -57t42 -41q12 -8 27 -11.5t21 -1.5zM138 37q-32 9 -56.5 43.5t-35 69.5t-12.5 65q-5 77 34 208q9 29 22.5 61t32.5 71.5t27 58.5l-11 -4q-103 -192 -113 -353q-2 -30 1.5 -60.5t14.5 -64.5t35.5 -59.5t60.5 -35.5zM508 934
q0 -3 -23.5 -15t-22.5 -20q23 8 44 24q1 -3 -1.5 -11.5t-5.5 -11.5q-10 -11 -73.5 -58t-85.5 -88q-4 -6 -15 -6q-12 0 -29 18q3 5 23.5 24.5t24.5 24.5q-4 -2 -14.5 -10t-22.5 -18.5t-16 -13.5q-9 3 -7 14q73 50 97 81q-7 -5 -43.5 -33.5t-55.5 -40.5q-2 28 81.5 92
t107.5 63l27 -1q-5 -4 -11.5 -8.5t-10.5 -6.5t-7 -5.5t-3 -6.5l37 20q5 0 5 -7z" />
    <glyph glyph-name="Ecircumflex" unicode="&#xca;" horiz-adv-x="489" 
d="M565 647q-7 -5 -29 -5q-5 0 -110.5 11.5t-108.5 11.5q-2 0 -14.5 0.5t-17.5 0t-14.5 -3.5t-15.5 -9q8 0 27 3t22 3q2 0 13.5 -2t28.5 -4.5t28 -3.5q60 -9 186 -17q-14 -14 -33 -14q-3 0 -109 13.5t-111 13.5q-8 0 -34.5 -5t-29.5 -8q10 0 32 3.5t24 3.5q3 0 46.5 -5
t105.5 -12t97 -10q0 -6 6 -6q-11 -11 -24 -11q-3 0 -17 4.5t-20 5.5q-51 7 -145 7h-14q-13 1 -27 1.5t-31.5 0t-27.5 -2.5q-10 -1 -29 -20.5t-33 -39.5q-15 -15 -27 -37q-45 -85 -45 -99q0 -11 13 -11q14 0 115.5 17t116.5 23q7 2 25 11t22 9q9 0 22 -13q0 -2 0.5 -16t0 -20
t-2.5 -17.5t-8 -18.5t-15 -11q-35 -19 -81 -30t-121.5 -21.5t-93.5 -13.5q-8 -1 -14 -4.5t-9.5 -9.5t-6 -11t-3.5 -14.5t-1 -13.5v-14v-10q0 -49 4 -59q1 -4 7.5 -12t7.5 -12q9 -24 39.5 -42.5t50.5 -18.5q31 0 56.5 14t42.5 33t47 49t60 51q5 -3 11 -10t6 -13
q0 -3 -4 -12.5t-5 -12.5q-1 -7 -0.5 -12.5t0 -12.5t-3.5 -12q-79 -149 -184 -149q-27 0 -60 11t-51 27q-37 34 -59.5 75t-29 79t-8 80t2.5 77q0 6 -4.5 18.5t-4.5 15.5q0 2 5.5 8.5t12.5 15.5t10 16q5 11 15.5 45t16.5 49q6 16 19 43.5t22.5 47.5t9.5 23q0 2 -4.5 16
t-10.5 31.5t-8 26.5q10 12 25 14q16 2 42 2.5t46.5 0t39.5 -0.5l19 -1q110 0 149 -2q6 0 18.5 -2t15.5 -2t41 5t41 5q18 0 28.5 -11.5t13 -24t4.5 -36.5zM169 44q-111 35 -111 180q0 3 1.5 23.5t1.5 28.5q2 52 17.5 100.5t51.5 127.5t48 108h-7q-6 0 -34 -57t-57 -143.5
t-31 -146.5v-9q0 -30 1 -49.5t7 -51.5t22 -57t42 -41q12 -8 27 -11.5t21 -1.5zM138 37q-32 9 -56.5 43.5t-35 69.5t-12.5 65q-5 77 34 208q9 29 22.5 61t32.5 71.5t27 58.5l-11 -4q-103 -192 -113 -353q-2 -30 1.5 -60.5t14.5 -64.5t35.5 -59.5t60.5 -35.5zM441 791
q0 -10 -10 -20q-15 26 -25 76t-21 73q0 -4 -2 -4q0 -23 37 -149h-10q-12 19 -21.5 65t-16.5 64q-4 -3 -4 -8q0 -14 25 -111q-11 22 -38 96q-32 -36 -46 -55q-1 -2 -8 -12t-12.5 -18t-13.5 -17.5t-16 -15t-14 -5.5q-10 0 -25.5 15t-15.5 20q0 12 37 49q8 9 36 47.5t51.5 63.5
t39.5 25q14 0 34.5 -13t22.5 -27q2 -10 5 -84q1 -8 6 -30t5 -25z" />
    <glyph glyph-name="Edieresis" unicode="&#xcb;" horiz-adv-x="489" 
d="M565 647q-7 -5 -29 -5q-5 0 -110.5 11.5t-108.5 11.5q-2 0 -14.5 0.5t-17.5 0t-14.5 -3.5t-15.5 -9q8 0 27 3t22 3q2 0 13.5 -2t28.5 -4.5t28 -3.5q60 -9 186 -17q-14 -14 -33 -14q-3 0 -109 13.5t-111 13.5q-8 0 -34.5 -5t-29.5 -8q10 0 32 3.5t24 3.5q3 0 46.5 -5
t105.5 -12t97 -10q0 -6 6 -6q-11 -11 -24 -11q-3 0 -17 4.5t-20 5.5q-51 7 -145 7h-14q-13 1 -27 1.5t-31.5 0t-27.5 -2.5q-10 -1 -29 -20.5t-33 -39.5q-15 -15 -27 -37q-45 -85 -45 -99q0 -11 13 -11q14 0 115.5 17t116.5 23q7 2 25 11t22 9q9 0 22 -13q0 -2 0.5 -16t0 -20
t-2.5 -17.5t-8 -18.5t-15 -11q-35 -19 -81 -30t-121.5 -21.5t-93.5 -13.5q-8 -1 -14 -4.5t-9.5 -9.5t-6 -11t-3.5 -14.5t-1 -13.5v-14v-10q0 -49 4 -59q1 -4 7.5 -12t7.5 -12q9 -24 39.5 -42.5t50.5 -18.5q31 0 56.5 14t42.5 33t47 49t60 51q5 -3 11 -10t6 -13
q0 -3 -4 -12.5t-5 -12.5q-1 -7 -0.5 -12.5t0 -12.5t-3.5 -12q-79 -149 -184 -149q-27 0 -60 11t-51 27q-37 34 -59.5 75t-29 79t-8 80t2.5 77q0 6 -4.5 18.5t-4.5 15.5q0 2 5.5 8.5t12.5 15.5t10 16q5 11 15.5 45t16.5 49q6 16 19 43.5t22.5 47.5t9.5 23q0 2 -4.5 16
t-10.5 31.5t-8 26.5q10 12 25 14q16 2 42 2.5t46.5 0t39.5 -0.5l19 -1q110 0 149 -2q6 0 18.5 -2t15.5 -2t41 5t41 5q18 0 28.5 -11.5t13 -24t4.5 -36.5zM169 44q-111 35 -111 180q0 3 1.5 23.5t1.5 28.5q2 52 17.5 100.5t51.5 127.5t48 108h-7q-6 0 -34 -57t-57 -143.5
t-31 -146.5v-9q0 -30 1 -49.5t7 -51.5t22 -57t42 -41q12 -8 27 -11.5t21 -1.5zM138 37q-32 9 -56.5 43.5t-35 69.5t-12.5 65q-5 77 34 208q9 29 22.5 61t32.5 71.5t27 58.5l-11 -4q-103 -192 -113 -353q-2 -30 1.5 -60.5t14.5 -64.5t35.5 -59.5t60.5 -35.5zM431 794
q0 -18 -9 -28t-22 -10q-19 0 -35 13q-22 22 -22 36q0 28 31 44q25 2 41 -15t16 -40zM292 799q0 -43 -41 -43q-15 0 -30.5 22t-15.5 38q0 30 46 30q6 0 18.5 -6t18.5 -12q4 -6 4 -29zM285 802q-5 21 -20 30.5t-32 1.5q28 -1 52 -32zM280 786q-5 23 -23.5 35t-38.5 5
q23 -4 35 -12t27 -28zM419 774q8 21 -3 42t-30 20q28 -13 33 -62z" />
    <glyph glyph-name="Igrave" unicode="&#xcc;" horiz-adv-x="467" 
d="M465 636q0 -8 -7 -22t-13 -14q-3 0 -24 7.5t-31 8.5q-22 5 -58 5q-24 0 -34 -4q-10 -2 -14 -12q-84 -222 -95 -458q-2 -32 -11 -67q5 -4 13.5 -6.5t21.5 -3t22.5 -1t24 0t18.5 0.5h65q6 1 18.5 6.5t15.5 5.5q16 0 16 -22q0 -76 -229 -76q-90 0 -101 2q-15 1 -37 19
q-1 11 -4 16q-13 15 -18 26t-5.5 22.5t-2.5 16.5q13 10 32 10q2 0 9.5 -1t17.5 -2t16 -1q7 -1 20 -5t17 -5q3 1 5 4q-4 33 0 105q3 68 6 92q4 60 13 117q3 23 13.5 61t19 66.5t8.5 30.5v29q-2 1 -6 1q-2 0 -12 -7t-26 -7q-15 0 -27 16l30 9q-9 3 -35 -2q-2 2 -3.5 6t-2.5 5
q63 17 133 27.5t111 4.5q17 -4 27 1v2q-66 6 -70 6q-54 -1 -117 -14t-90 -16q-6 8 -9 13.5t-4.5 12t-2 9t0 11t0.5 11.5q16 13 38 23q21 8 40 11.5t40.5 5t28.5 2.5q1 0 6 3t9 3t15 -3t15 -3q3 0 12.5 1t13.5 1q18 0 57.5 -8.5t79.5 -29t40 -46.5zM255 605
q-28 -57 -52 -168.5t-36 -204.5q-3 -26 -5 -77t-3 -72q4 18 34 258q8 60 30.5 134.5t31.5 129.5zM228 603q-45 -109 -65 -237q-29 -202 -19 -282q2 34 5 67t5.5 58t7 56.5t7 49.5t8.5 50.5t9 44.5l10 48l9 44l11 50zM319 800q0 -8 -5 -19.5t-14 -11.5q-28 0 -99 67.5
t-77 89.5q19 -11 66 -58.5t72 -62.5q1 -2 4 1q-28 20 -71.5 62.5t-62.5 70.5q0 2 2 4.5t4 1.5q17 -14 69.5 -65t86.5 -75q2 4 -34.5 37t-73.5 68t-37 45q0 7 9.5 10.5t17.5 3.5q12 0 22.5 -10t24 -29.5t18.5 -25.5q12 -15 35 -41.5t30 -34.5q13 -17 13 -28z" />
    <glyph glyph-name="Iacute" unicode="&#xcd;" horiz-adv-x="467" 
d="M465 636q0 -8 -7 -22t-13 -14q-3 0 -24 7.5t-31 8.5q-22 5 -58 5q-24 0 -34 -4q-10 -2 -14 -12q-84 -222 -95 -458q-2 -32 -11 -67q5 -4 13.5 -6.5t21.5 -3t22.5 -1t24 0t18.5 0.5h65q6 1 18.5 6.5t15.5 5.5q16 0 16 -22q0 -76 -229 -76q-90 0 -101 2q-15 1 -37 19
q-1 11 -4 16q-13 15 -18 26t-5.5 22.5t-2.5 16.5q13 10 32 10q2 0 9.5 -1t17.5 -2t16 -1q7 -1 20 -5t17 -5q3 1 5 4q-4 33 0 105q3 68 6 92q4 60 13 117q3 23 13.5 61t19 66.5t8.5 30.5v29q-2 1 -6 1q-2 0 -12 -7t-26 -7q-15 0 -27 16l30 9q-9 3 -35 -2q-2 2 -3.5 6t-2.5 5
q63 17 133 27.5t111 4.5q17 -4 27 1v2q-66 6 -70 6q-54 -1 -117 -14t-90 -16q-6 8 -9 13.5t-4.5 12t-2 9t0 11t0.5 11.5q16 13 38 23q21 8 40 11.5t40.5 5t28.5 2.5q1 0 6 3t9 3t15 -3t15 -3q3 0 12.5 1t13.5 1q18 0 57.5 -8.5t79.5 -29t40 -46.5zM255 605
q-28 -57 -52 -168.5t-36 -204.5q-3 -26 -5 -77t-3 -72q4 18 34 258q8 60 30.5 134.5t31.5 129.5zM228 603q-45 -109 -65 -237q-29 -202 -19 -282q2 34 5 67t5.5 58t7 56.5t7 49.5t8.5 50.5t9 44.5l10 48l9 44l11 50zM449 958q0 -3 -23.5 -15t-22.5 -20q23 8 44 24
q1 -3 -1.5 -11.5t-5.5 -11.5q-10 -11 -73.5 -58t-85.5 -88q-4 -6 -15 -6q-12 0 -29 18q3 5 23.5 24.5t24.5 24.5q-4 -2 -14.5 -10t-22.5 -18.5t-16 -13.5q-9 3 -7 14q73 50 97 81q-7 -5 -43.5 -33.5t-55.5 -40.5q-2 28 81.5 92t107.5 63l27 -1q-5 -4 -11.5 -8.5t-10.5 -6.5
t-7 -5.5t-3 -6.5l37 20q5 0 5 -7z" />
    <glyph glyph-name="Icircumflex" unicode="&#xce;" horiz-adv-x="467" 
d="M465 636q0 -8 -7 -22t-13 -14q-3 0 -24 7.5t-31 8.5q-22 5 -58 5q-24 0 -34 -4q-10 -2 -14 -12q-84 -222 -95 -458q-2 -32 -11 -67q5 -4 13.5 -6.5t21.5 -3t22.5 -1t24 0t18.5 0.5h65q6 1 18.5 6.5t15.5 5.5q16 0 16 -22q0 -76 -229 -76q-90 0 -101 2q-15 1 -37 19
q-1 11 -4 16q-13 15 -18 26t-5.5 22.5t-2.5 16.5q13 10 32 10q2 0 9.5 -1t17.5 -2t16 -1q7 -1 20 -5t17 -5q3 1 5 4q-4 33 0 105q3 68 6 92q4 60 13 117q3 23 13.5 61t19 66.5t8.5 30.5v29q-2 1 -6 1q-2 0 -12 -7t-26 -7q-15 0 -27 16l30 9q-9 3 -35 -2q-2 2 -3.5 6t-2.5 5
q63 17 133 27.5t111 4.5q17 -4 27 1v2q-66 6 -70 6q-54 -1 -117 -14t-90 -16q-6 8 -9 13.5t-4.5 12t-2 9t0 11t0.5 11.5q16 13 38 23q21 8 40 11.5t40.5 5t28.5 2.5q1 0 6 3t9 3t15 -3t15 -3q3 0 12.5 1t13.5 1q18 0 57.5 -8.5t79.5 -29t40 -46.5zM255 605
q-28 -57 -52 -168.5t-36 -204.5q-3 -26 -5 -77t-3 -72q4 18 34 258q8 60 30.5 134.5t31.5 129.5zM228 603q-45 -109 -65 -237q-29 -202 -19 -282q2 34 5 67t5.5 58t7 56.5t7 49.5t8.5 50.5t9 44.5l10 48l9 44l11 50zM390 802q0 -10 -10 -20q-15 26 -25 76t-21 73q0 -4 -2 -4
q0 -23 37 -149h-10q-12 19 -21.5 65t-16.5 64q-4 -3 -4 -8q0 -14 25 -111q-11 22 -38 96q-32 -36 -46 -55q-1 -2 -8 -12t-12.5 -18t-13.5 -17.5t-16 -15t-14 -5.5q-10 0 -25.5 15t-15.5 20q0 12 37 49q8 9 36 47.5t51.5 63.5t39.5 25q14 0 34.5 -13t22.5 -27q2 -10 5 -84
q1 -8 6 -30t5 -25z" />
    <glyph glyph-name="Idieresis" unicode="&#xcf;" horiz-adv-x="467" 
d="M465 636q0 -8 -7 -22t-13 -14q-3 0 -24 7.5t-31 8.5q-22 5 -58 5q-24 0 -34 -4q-10 -2 -14 -12q-84 -222 -95 -458q-2 -32 -11 -67q5 -4 13.5 -6.5t21.5 -3t22.5 -1t24 0t18.5 0.5h65q6 1 18.5 6.5t15.5 5.5q16 0 16 -22q0 -76 -229 -76q-90 0 -101 2q-15 1 -37 19
q-1 11 -4 16q-13 15 -18 26t-5.5 22.5t-2.5 16.5q13 10 32 10q2 0 9.5 -1t17.5 -2t16 -1q7 -1 20 -5t17 -5q3 1 5 4q-4 33 0 105q3 68 6 92q4 60 13 117q3 23 13.5 61t19 66.5t8.5 30.5v29q-2 1 -6 1q-2 0 -12 -7t-26 -7q-15 0 -27 16l30 9q-9 3 -35 -2q-2 2 -3.5 6t-2.5 5
q63 17 133 27.5t111 4.5q17 -4 27 1v2q-66 6 -70 6q-54 -1 -117 -14t-90 -16q-6 8 -9 13.5t-4.5 12t-2 9t0 11t0.5 11.5q16 13 38 23q21 8 40 11.5t40.5 5t28.5 2.5q1 0 6 3t9 3t15 -3t15 -3q3 0 12.5 1t13.5 1q18 0 57.5 -8.5t79.5 -29t40 -46.5zM255 605
q-28 -57 -52 -168.5t-36 -204.5q-3 -26 -5 -77t-3 -72q4 18 34 258q8 60 30.5 134.5t31.5 129.5zM228 603q-45 -109 -65 -237q-29 -202 -19 -282q2 34 5 67t5.5 58t7 56.5t7 49.5t8.5 50.5t9 44.5l10 48l9 44l11 50zM379 814q0 -18 -9 -28t-22 -10q-19 0 -35 13
q-22 22 -22 36q0 28 31 44q25 2 41 -15t16 -40zM240 819q0 -43 -41 -43q-16 0 -31 22t-15 38q0 30 46 30q6 0 18.5 -6t18.5 -12q4 -6 4 -29zM233 822q-5 21 -20 30.5t-32 1.5q28 -1 52 -32zM228 806q-5 23 -23.5 35t-38.5 5q23 -4 35 -12t27 -28zM367 794q8 21 -3 42t-30 20
q28 -13 33 -62z" />
    <glyph glyph-name="Eth" unicode="&#xd0;" horiz-adv-x="446" 
d="M460 440q0 -52 -28 -116q-34 -80 -103 -160q-6 -6 -32 -28q-14 -11 -51.5 -45t-59 -52t-53.5 -35t-58 -17q-23 0 -40.5 20.5t-24.5 46.5q-1 4 2.5 15t3.5 15q-2 6 -8 19.5t-10 23t-4 12.5t4 14t4 15q1 11 1.5 32t1.5 32q1 7 5 45t7 57q4 32 15 85.5t19.5 92.5t8.5 41
q0 3 -4 7.5t-10.5 10.5t-9.5 9q-7 9 -14 26.5t-7 23.5q0 16 9 23t30 12.5t32 10.5q3 1 5 5.5t4 12t3 10.5t6 11.5t7 12.5q6 23 20 39.5t33 16.5q11 0 34.5 -20.5t23.5 -36.5q0 -7 -1.5 -10.5t-7.5 -11t-11 -14.5q0 -5 5 -6q121 -18 187 -84.5t66 -160.5zM386 474q0 15 -2 26
t-8 24.5t-20 25t-35 20.5q-59 26 -94 26q-3 0 -12.5 -1t-14.5 -1q-28 2 -36 -5q-12 -6 -12 -14q-5 -19 -15 -57.5t-15 -60.5t-12 -58.5t-11 -73.5q-2 -18 -8 -52.5t-9.5 -61.5t-3.5 -47q0 -61 14 -75q88 57 162.5 135.5t104.5 157.5q2 6 8 20t9.5 23t6.5 22.5t3 26.5z
M396 539q-5 9 -12 16.5t-12.5 13t-13 11t-12.5 8.5t-13 7t-11 5t-9.5 4t-7.5 3q-45 20 -130 20q-19 0 -43.5 -7.5t-29.5 -8.5q42 7 67 7q150 0 227 -79zM435 496q-12 46 -40.5 78t-67 47.5t-75.5 22t-77 6.5q-59 0 -92 -19h13q4 0 9.5 3t6.5 3q11 0 37.5 1t27.5 1
q27 0 72 -8.5t66 -16.5q42 -16 77 -49.5t43 -68.5zM131 590q-11 -8 -16.5 -26.5t-9 -44t-5.5 -33.5q3 10 11.5 34.5t14 43.5t5.5 26zM91 457q-14 -26 -26.5 -133t-12.5 -161q0 -47 9 -92q1 1 3 2.5t4.5 2.5t3.5 2q-9 26 -9 64t5.5 94.5t5.5 61.5q4 106 17 159zM52 70
q-10 18 -10 102q0 1 4 62t4 84q-17 -85 -19 -156q0 -48 9 -96q8 0 12 4zM237 371q2 -17 -10 -31l-3 -2q-3 -2 -6.5 -4.5t-5.5 -2.5q-92 -18 -129 -18q-3 0 -44 -3t-43 -3q-6 0 -20.5 8.5t-14.5 10.5q-7 11 -7 37q0 30 21 30q3 0 19.5 -3t20.5 -3q6 0 81.5 1t80.5 1
q40 0 60 -18zM215 353l3 7q-44 0 -113 -3t-90 -3q-10 -5 -12 -8q29 1 55 2l39 2h23h14l8 1q13 1 38.5 1t34.5 1zM101 338l109 5q-42 -14 -162 -15q-54 0 -51 5z" />
    <glyph glyph-name="Ntilde" unicode="&#xd1;" horiz-adv-x="526" 
d="M503 421q0 89 -21 236q-1 7 -15 23t-23 15h-11l3 -22q0 -4 7.5 -40t9.5 -49q20 -167 5 -249q-6 198 -12 241q-3 19 -11.5 62t-10.5 61q-4 -4 -11 -4v-23q0 -4 10 -44.5t12 -53.5q10 -70 10 -154q0 -40 -6.5 -100t-14.5 -87q11 130 11 177q0 101 -6 150q-3 26 -16 77
t-13 53q-2 -2 -5.5 -3.5t-5 -2.5t-2.5 -3.5t-1 -7.5q0 -4 6.5 -20.5t7.5 -22.5q3 -15 3.5 -46t1.5 -36q5 -83 5 -101q0 -72 -2 -84q-3 -28 -8 -64.5t-13.5 -83t-21 -77.5t-26.5 -31q-6 0 -17.5 20t-13.5 26q-6 16 -11 36t-10 47.5t-7.5 42t-7.5 49.5t-6 41q-40 238 -42 253
l-6 41q-3 17 -28.5 32.5t-40.5 15.5q-7 0 -17 -4t-11 -9q-9 -24 -14 -67t-6 -50q-4 -21 -16.5 -71t-16.5 -70q-5 -25 -50 -252q-19 -103 -19 -120q0 -16 5 -22q8 -14 33.5 -32t31.5 -18h33q6 13 6.5 25.5t-1.5 29t-2 25.5q0 18 4 44q14 110 49 275q4 6 6 6q11 -27 20 -73.5
t17.5 -87.5t23.5 -84t44.5 -77t73.5 -53q39 -16 53 -16q10 0 19.5 6.5t16.5 17t13 24.5t10.5 28t8.5 29t6 25.5t4 19.5l1 9q16 64 19 91q9 86 9 161zM395 25q-51 14 -67 25q-41 30 -78 154q-6 17 -11 36q8 -12 21 -48t25.5 -65.5t41.5 -59.5t68 -42zM411 41q-31 -7 -65.5 26
t-54 78t-15.5 73q12 -40 23.5 -67.5t41 -62t70.5 -47.5zM152 487q-68 -318 -76 -474q-6 6 -6 18q-2 84 29.5 256.5t52.5 199.5zM98 341q-36 -184 -43 -308q-2 5 -5 6q0 4 1.5 29.5t2.5 40t3.5 42.5t6 49t8 47t11.5 49.5t15 44.5zM437 822q0 49 -40 57l-12 -32
q-3 -11 -17.5 -22t-23.5 -11q-2 0 -13.5 15t-30 29.5t-38.5 14.5q-28 0 -66 -21.5t-38 -54.5q0 -27 21 -48q8 -10 18 -10q11 0 13 10q1 2 4 11t7 14q4 7 22 17.5t28 10.5h8q7 0 19 -16t29 -31.5t35 -15.5q17 0 45 23.5t30 37.5v22zM370 794q-14 -8 -31 1.5t-31.5 23
t-37.5 16t-49 -20.5q20 27 41.5 29.5t37 -10t36 -26.5t34.5 -13zM382 786q-14 -14 -25 -14q-15 -1 -32 10.5t-29 23t-34 10.5t-49 -23q19 26 39.5 30t35.5 -6t35.5 -23t34.5 -14q9 -1 24 6z" />
    <glyph glyph-name="Ograve" unicode="&#xd2;" 
d="M497 378q0 -54 -7 -77q-17 -56 -46 -100q-1 -2 -9.5 -15.5t-11.5 -17.5l-11 -17l-14 -19l-13 -16l-16 -18l-17 -17q-53 -46 -132 -81q-13 -6 -67 -6q-3 0 -15.5 5t-20.5 6q-24 1 -58 30.5t-42 55.5q-19 56 -19 101q0 94 37 240q1 5 13 32t15 42q3 13 -5.5 40.5t5.5 41.5
q14 25 47.5 58.5t62.5 50.5q4 2 13.5 13.5t14.5 15.5q27 21 38 27q24 10 37 10q11 0 34.5 -16.5t22.5 -30.5q-1 -3 -2 -12t-3 -14q0 -8 9 -13q79 -55 119.5 -138.5t40.5 -160.5zM415 401q0 23 -6.5 55t-20 69.5t-41 63.5t-64.5 26q-31 0 -62 -28.5t-47 -68.5q-6 -15 -31 -67
t-30 -71q-34 -126 -34 -209q0 -109 59 -109q78 0 168.5 105t101.5 200q1 6 4 18.5t3 15.5zM429 528l2 8q-9 40 -43.5 78t-71.5 38q24 -3 65 -47.5t48 -76.5zM424 455q3 35 -11 76t-47.5 74t-78.5 35q56 -16 92.5 -71.5t44.5 -113.5zM224 709q-117 -116 -169 -290t1 -301
q-21 106 -14 177t44 171q18 51 41.5 95.5t39.5 68t57 79.5zM192 638q-54 -67 -94.5 -179t-45 -217.5t41.5 -170.5q-39 71 -29.5 175.5t43.5 205t84 186.5zM363 822q0 -8 -5 -19.5t-14 -11.5q-28 0 -99 67.5t-77 89.5q19 -11 66 -58.5t72 -62.5q1 -2 4 1q-28 20 -71.5 62.5
t-62.5 70.5q0 2 2 4.5t4 1.5q17 -14 69.5 -65t86.5 -75q2 4 -34.5 37t-73.5 68t-37 45q0 7 9.5 10.5t17.5 3.5q12 0 22.5 -10t24 -29.5t18.5 -25.5q12 -15 35 -41.5t30 -34.5q13 -17 13 -28z" />
    <glyph glyph-name="Oacute" unicode="&#xd3;" 
d="M497 378q0 -54 -7 -77q-17 -56 -46 -100q-1 -2 -9.5 -15.5t-11.5 -17.5l-11 -17l-14 -19l-13 -16l-16 -18l-17 -17q-53 -46 -132 -81q-13 -6 -67 -6q-3 0 -15.5 5t-20.5 6q-24 1 -58 30.5t-42 55.5q-19 56 -19 101q0 94 37 240q1 5 13 32t15 42q3 13 -5.5 40.5t5.5 41.5
q14 25 47.5 58.5t62.5 50.5q4 2 13.5 13.5t14.5 15.5q27 21 38 27q24 10 37 10q11 0 34.5 -16.5t22.5 -30.5q-1 -3 -2 -12t-3 -14q0 -8 9 -13q79 -55 119.5 -138.5t40.5 -160.5zM415 401q0 23 -6.5 55t-20 69.5t-41 63.5t-64.5 26q-31 0 -62 -28.5t-47 -68.5q-6 -15 -31 -67
t-30 -71q-34 -126 -34 -209q0 -109 59 -109q78 0 168.5 105t101.5 200q1 6 4 18.5t3 15.5zM429 528l2 8q-9 40 -43.5 78t-71.5 38q24 -3 65 -47.5t48 -76.5zM424 455q3 35 -11 76t-47.5 74t-78.5 35q56 -16 92.5 -71.5t44.5 -113.5zM224 709q-117 -116 -169 -290t1 -301
q-21 106 -14 177t44 171q18 51 41.5 95.5t39.5 68t57 79.5zM192 638q-54 -67 -94.5 -179t-45 -217.5t41.5 -170.5q-39 71 -29.5 175.5t43.5 205t84 186.5zM457 990q0 -3 -23.5 -15t-22.5 -20q23 8 44 24q1 -3 -1.5 -11.5t-5.5 -11.5q-10 -11 -73.5 -58t-85.5 -88
q-4 -6 -15 -6q-12 0 -29 18q3 5 23.5 24.5t24.5 24.5q-4 -2 -14.5 -10t-22.5 -18.5t-16 -13.5q-9 3 -7 14q73 50 97 81q-7 -5 -43.5 -33.5t-55.5 -40.5q-2 28 81.5 92t107.5 63l27 -1q-5 -4 -11.5 -8.5t-10.5 -6.5t-7 -5.5t-3 -6.5l37 20q5 0 5 -7z" />
    <glyph glyph-name="Ocircumflex" unicode="&#xd4;" 
d="M497 378q0 -54 -7 -77q-17 -56 -46 -100q-1 -2 -9.5 -15.5t-11.5 -17.5l-11 -17l-14 -19l-13 -16l-16 -18l-17 -17q-53 -46 -132 -81q-13 -6 -67 -6q-3 0 -15.5 5t-20.5 6q-24 1 -58 30.5t-42 55.5q-19 56 -19 101q0 94 37 240q1 5 13 32t15 42q3 13 -5.5 40.5t5.5 41.5
q14 25 47.5 58.5t62.5 50.5q4 2 13.5 13.5t14.5 15.5q27 21 38 27q24 10 37 10q11 0 34.5 -16.5t22.5 -30.5q-1 -3 -2 -12t-3 -14q0 -8 9 -13q79 -55 119.5 -138.5t40.5 -160.5zM415 401q0 23 -6.5 55t-20 69.5t-41 63.5t-64.5 26q-31 0 -62 -28.5t-47 -68.5q-6 -15 -31 -67
t-30 -71q-34 -126 -34 -209q0 -109 59 -109q78 0 168.5 105t101.5 200q1 6 4 18.5t3 15.5zM429 528l2 8q-9 40 -43.5 78t-71.5 38q24 -3 65 -47.5t48 -76.5zM424 455q3 35 -11 76t-47.5 74t-78.5 35q56 -16 92.5 -71.5t44.5 -113.5zM224 709q-117 -116 -169 -290t1 -301
q-21 106 -14 177t44 171q18 51 41.5 95.5t39.5 68t57 79.5zM192 638q-54 -67 -94.5 -179t-45 -217.5t41.5 -170.5q-39 71 -29.5 175.5t43.5 205t84 186.5zM396 825q0 -10 -10 -20q-15 26 -25 76t-21 73q0 -4 -2 -4q0 -23 37 -149h-10q-12 19 -21.5 65t-16.5 64q-4 -3 -4 -8
q0 -14 25 -111q-11 22 -38 96q-32 -36 -46 -55q-1 -2 -8 -12t-12.5 -18t-13.5 -17.5t-16 -15t-14 -5.5q-10 0 -25.5 15t-15.5 20q0 12 37 49q8 9 36 47.5t51.5 63.5t39.5 25q14 0 34.5 -13t22.5 -27q2 -10 5 -84q1 -8 6 -30t5 -25z" />
    <glyph glyph-name="Otilde" unicode="&#xd5;" 
d="M497 378q0 77 -40.5 160.5t-119.5 138.5q-9 5 -9 13q2 5 3 14t2 12q1 14 -22.5 30.5t-34.5 16.5q-13 0 -37 -10q-11 -6 -38 -27q-5 -4 -14.5 -15.5t-13.5 -13.5q-29 -17 -62.5 -50.5t-47.5 -58.5q-14 -14 -5.5 -41.5t5.5 -40.5q-3 -15 -15 -42t-13 -32q-37 -146 -37 -240
q0 -45 19 -101q8 -26 42 -55.5t58 -30.5q8 -1 20.5 -6t15.5 -5q54 0 67 6q79 35 132 81q9 8 17 16.5t16 18.5t13.5 16.5t13.5 18.5l11 17l11 18l10 15q29 44 46 100q7 23 7 77zM415 401q0 -3 -3 -15.5t-4 -18.5q-11 -95 -101.5 -200t-168.5 -105q-59 0 -59 109q0 83 34 209
q5 19 30 71t31 67q16 40 47 68.5t62 28.5q37 0 64.5 -26t41 -63.5t20 -69.5t6.5 -55zM431 536l-2 -8q-7 32 -48 76.5t-65 47.5q37 0 71.5 -38t43.5 -78zM424 455q-8 58 -44.5 113.5t-92.5 71.5q45 -2 78.5 -35t47.5 -74t11 -76zM224 709q-41 -56 -57 -79.5t-39.5 -68
t-41.5 -95.5q-37 -100 -44 -171t14 -177q-53 127 -1 301t169 290zM192 638q-50 -86 -84 -186.5t-43.5 -205t29.5 -175.5q-46 65 -41.5 170.5t45 217.5t94.5 179zM426 869q0 49 -40 57q-3 -5 -5.5 -11t-4 -12.5t-2.5 -8.5q-3 -11 -17.5 -22t-23.5 -11q-2 0 -13.5 14.5
t-30 29.5t-38.5 15q-28 0 -66 -21.5t-38 -54.5q0 -27 21 -48q8 -10 18 -10t13 10q1 2 4 11t7 14q4 7 22 17.5t28 10.5h8q7 0 19 -15.5t29 -31.5t35 -16q17 0 45 23.5t30 37.5v22zM359 841q-14 -8 -31 1.5t-31.5 23t-37.5 16t-49 -20.5q20 27 41.5 29.5t37 -10t36 -26.5
t34.5 -13zM371 833q-14 -14 -25 -14q-15 -1 -32 10.5t-29 23t-34 10.5t-49 -23q19 26 39.5 30t35.5 -6t35.5 -23t34.5 -14q9 -1 24 6z" />
    <glyph glyph-name="Odieresis" unicode="&#xd6;" 
d="M497 378q0 -54 -7 -77q-17 -56 -46 -100q-1 -2 -9.5 -15.5t-11.5 -17.5l-11 -17l-14 -19l-13 -16l-16 -18l-17 -17q-53 -46 -132 -81q-13 -6 -67 -6q-3 0 -15.5 5t-20.5 6q-24 1 -58 30.5t-42 55.5q-19 56 -19 101q0 94 37 240q1 5 13 32t15 42q3 13 -5.5 40.5t5.5 41.5
q14 25 47.5 58.5t62.5 50.5q4 2 13.5 13.5t14.5 15.5q27 21 38 27q24 10 37 10q11 0 34.5 -16.5t22.5 -30.5q-1 -3 -2 -12t-3 -14q0 -8 9 -13q79 -55 119.5 -138.5t40.5 -160.5zM415 401q0 23 -6.5 55t-20 69.5t-41 63.5t-64.5 26q-31 0 -62 -28.5t-47 -68.5q-6 -15 -31 -67
t-30 -71q-34 -126 -34 -209q0 -109 59 -109q78 0 168.5 105t101.5 200q1 6 4 18.5t3 15.5zM429 528l2 8q-9 40 -43.5 78t-71.5 38q24 -3 65 -47.5t48 -76.5zM424 455q3 35 -11 76t-47.5 74t-78.5 35q56 -16 92.5 -71.5t44.5 -113.5zM224 709q-117 -116 -169 -290t1 -301
q-21 106 -14 177t44 171q18 51 41.5 95.5t39.5 68t57 79.5zM192 638q-54 -67 -94.5 -179t-45 -217.5t41.5 -170.5q-39 71 -29.5 175.5t43.5 205t84 186.5zM400 833q0 -18 -9 -28t-22 -10q-19 0 -35 13q-22 22 -22 36q0 28 31 44q25 2 41 -15t16 -40zM261 838q0 -43 -41 -43
q-16 0 -31 22t-15 38q0 30 46 30q6 0 18.5 -6t18.5 -12q4 -6 4 -29zM254 841q-5 21 -20 30.5t-32 1.5q28 -1 52 -32zM249 825q-5 23 -23.5 35t-38.5 5q23 -4 35 -12t27 -28zM388 813q8 21 -3 42t-30 20q28 -13 33 -62z" />
    <glyph glyph-name="multiply" unicode="&#xd7;" horiz-adv-x="478" 
d="M432 86q-12 6 -32.5 34t-53.5 75.5t-62 82.5l-6 -4q37 -38 110 -151q5 -7 20 -25t18 -22q-2 0 -3 -2t-6 -2q-4 0 -24 23q-11 12 -32 47.5t-39 50.5q8 -12 23.5 -38.5t29.5 -46.5t33 -38q-2 0 -9 -1t-11.5 -0.5t-8.5 4.5q-19 19 -62 82t-63 87q-11 -13 -43.5 -49
t-57.5 -66t-42 -56q-5 -8 -24 -8h-4l-3 1h-2l-2 2l-4 4l-4 5l-8 6q1 5 23 29.5t21 32.5l-53 -53l-7 7q12 16 92.5 99t113.5 128q4 5 21 24.5t25 29.5q4 4 1 15q-7 -6 -21 -23.5t-33.5 -42.5t-29.5 -37q-65 -81 -173 -181q-10 17 -10 25q0 3 29 34.5t75 80t66 71.5
q-15 21 -43.5 51t-45 52.5t-16.5 42.5q0 16 15.5 23.5t29.5 7.5q6 0 29.5 -27.5t49 -60t27.5 -35.5q46 42 113 144q23 1 45 -27t22 -47q0 -13 -61.5 -79t-61.5 -72q0 -15 28.5 -48t58.5 -61.5t31 -30.5q13 -21 13 -38zM318 198q-10 20 -27.5 41.5t-28.5 22.5
q10 -10 29.5 -34t26.5 -30zM294 356q-139 -161 -152 -176q34 22 80.5 78t71.5 98z" />
    <glyph glyph-name="Oslash" unicode="&#xd8;" 
d="M447 681q0 -9 -12 -39q-6 -14 -21 -39l-20 -37q-9 -18 -70 -153q-51 -114 -72 -153q-7 -14 -24 -53t-19 -44q-39 -76 -53 -108l-12 -36q1 -13 -5.5 -34t-19.5 -26q-25 0 -43.5 12t-18.5 35q0 3 9.5 25.5t24 55.5t21.5 51q33 72 54 120l72 155l77 165q55 117 63 144
q2 3 12.5 8t15.5 5q19 0 32.5 -20.5t8.5 -33.5zM134 30q33 99 102 253.5t83 164.5q-19 -43 -81.5 -187t-103.5 -231zM154 144q13 7 17 20q109 233 111 238q13 29 26 64q-18 -26 -53 -99q-4 -8 -44.5 -96t-56.5 -127zM497 378q0 -54 -7 -77q-17 -56 -46 -100
q-1 -2 -9.5 -15.5t-11.5 -17.5l-11 -17l-14 -19l-13 -16l-16 -18l-17 -17q-53 -46 -132 -81q-13 -6 -67 -6q-3 0 -15.5 5t-20.5 6q-24 1 -58 30.5t-42 55.5q-19 56 -19 101q0 94 37 240q1 5 13 32t15 42q3 13 -5.5 40.5t5.5 41.5q14 25 47.5 58.5t62.5 50.5q4 2 13.5 13.5
t14.5 15.5q27 21 38 27q24 10 37 10q11 0 34.5 -16.5t22.5 -30.5q-1 -3 -2 -12t-3 -14q0 -8 9 -13q79 -55 119.5 -138.5t40.5 -160.5zM415 401q0 23 -6.5 55t-20 69.5t-41 63.5t-64.5 26q-31 0 -62 -28.5t-47 -68.5q-6 -15 -31 -67t-30 -71q-34 -126 -34 -209
q0 -109 59 -109q78 0 168.5 105t101.5 200q1 6 4 18.5t3 15.5zM429 528l2 8q-9 40 -43.5 78t-71.5 38q24 -3 65 -47.5t48 -76.5zM424 455q3 35 -11 76t-47.5 74t-78.5 35q56 -16 92.5 -71.5t44.5 -113.5zM224 709q-117 -116 -169 -290t1 -301q-21 106 -14 177t44 171
q18 51 41.5 95.5t39.5 68t57 79.5zM192 638q-54 -67 -94.5 -179t-45 -217.5t41.5 -170.5q-39 71 -29.5 175.5t43.5 205t84 186.5z" />
    <glyph glyph-name="Ugrave" unicode="&#xd9;" horiz-adv-x="548" 
d="M626 115q-1 -4 -4.5 -9t-4.5 -8q-1 -4 1 -14t-1 -14q-1 -2 -9 -13.5t-13 -19t-12.5 -17t-14 -15.5t-11.5 -7q-11 -3 -26 -3q-21 0 -85 15q-9 9 -12 10q-58 37 -80 107t-19 137q0 1 -1 3t-2.5 4.5t-2.5 5.5q-1 0 -6 -5q-40 -80 -88 -160q-3 -5 -13.5 -25.5t-18 -32.5
t-19.5 -27.5t-26.5 -23.5t-30.5 -8q-8 0 -16.5 5t-15.5 6q-29 3 -48.5 22t-27.5 48.5t-11 55.5t-2 54q2 45 27 204q30 167 90 343q2 3 8 9q24 8 38 8q8 0 29.5 -21.5t26.5 -31.5q6 -32 5 -41q0 -6 -3 -11t-6 -7.5t-8 -5.5t-6 -4q-4 -4 -6.5 -9t-5 -13t-4.5 -12
q-17 -35 -27 -78q-19 -61 -32 -124q-10 -48 -23 -128t-13 -88q0 -1 1 -32t-1 -48l8 -5q7 3 12 14q18 26 39 64.5t44 85.5t32 64q18 27 24 42q8 17 32.5 72t39 88.5t34 83t31.5 88.5q2 0 11 4.5t14 4.5q28 0 59 -35q11 -19 11 -48q0 -3 -7.5 -38.5t-17.5 -83.5t-14 -74
l-8 -57l-7 -63l-5 -52l-3 -25q0 -4 2 -8t2 -6q-3 -11 1 -42q1 -4 3 -20.5t5 -23.5q10 -33 41 -56q9 -3 11 -3q4 0 4 1t3 1t4 -3t4 -3q11 0 59.5 33t49.5 33q12 0 12 -14zM408 515q-20 -54 -20.5 -195t10.5 -159q1 -3 1.5 26.5t1 76t1 96t2 94t4.5 61.5zM384 585
q-23 -56 -81.5 -177.5t-78.5 -177.5q122 216 160 355zM406 62q-12 29 -19.5 63t-10.5 79.5t-3.5 69.5t0 79t0.5 61q-16 -91 -10.5 -184.5t43.5 -167.5zM174 620q-41 -95 -74 -241t-27 -222q6 72 39 220.5t62 242.5zM158 637q-67 -183 -84 -251q-47 -184 2 -324
q-10 44 -11.5 95t1.5 90.5t16 101.5t21 93t28.5 101.5t26.5 93.5zM335 777q0 -8 -5 -19.5t-14 -11.5q-28 0 -99 67.5t-77 89.5q19 -11 66 -58.5t72 -62.5q1 -2 4 1q-28 20 -71.5 62.5t-62.5 70.5q0 2 2 4.5t4 1.5q17 -14 69.5 -65t86.5 -75q2 4 -34.5 37t-73.5 68t-37 45
q0 7 9.5 10.5t17.5 3.5q12 0 22.5 -10t24 -29.5t18.5 -25.5q12 -15 35 -41.5t30 -34.5q13 -17 13 -28z" />
    <glyph glyph-name="Uacute" unicode="&#xda;" horiz-adv-x="548" 
d="M626 115q-1 -4 -4.5 -9t-4.5 -8q-1 -4 1 -14t-1 -14q-1 -2 -9 -13.5t-13 -19t-12.5 -17t-14 -15.5t-11.5 -7q-11 -3 -26 -3q-21 0 -85 15q-9 9 -12 10q-58 37 -80 107t-19 137q0 1 -1 3t-2.5 4.5t-2.5 5.5q-1 0 -6 -5q-40 -80 -88 -160q-3 -5 -13.5 -25.5t-18 -32.5
t-19.5 -27.5t-26.5 -23.5t-30.5 -8q-8 0 -16.5 5t-15.5 6q-29 3 -48.5 22t-27.5 48.5t-11 55.5t-2 54q2 45 27 204q30 167 90 343q2 3 8 9q24 8 38 8q8 0 29.5 -21.5t26.5 -31.5q6 -32 5 -41q0 -6 -3 -11t-6 -7.5t-8 -5.5t-6 -4q-4 -4 -6.5 -9t-5 -13t-4.5 -12
q-17 -35 -27 -78q-19 -61 -32 -124q-10 -48 -23 -128t-13 -88q0 -1 1 -32t-1 -48l8 -5q7 3 12 14q18 26 39 64.5t44 85.5t32 64q18 27 24 42q8 17 32.5 72t39 88.5t34 83t31.5 88.5q2 0 11 4.5t14 4.5q28 0 59 -35q11 -19 11 -48q0 -3 -7.5 -38.5t-17.5 -83.5t-14 -74
l-8 -57l-7 -63l-5 -52l-3 -25q0 -4 2 -8t2 -6q-3 -11 1 -42q1 -4 3 -20.5t5 -23.5q10 -33 41 -56q9 -3 11 -3q4 0 4 1t3 1t4 -3t4 -3q11 0 59.5 33t49.5 33q12 0 12 -14zM408 515q-20 -54 -20.5 -195t10.5 -159q1 -3 1.5 26.5t1 76t1 96t2 94t4.5 61.5zM384 585
q-23 -56 -81.5 -177.5t-78.5 -177.5q122 216 160 355zM406 62q-12 29 -19.5 63t-10.5 79.5t-3.5 69.5t0 79t0.5 61q-16 -91 -10.5 -184.5t43.5 -167.5zM174 620q-41 -95 -74 -241t-27 -222q6 72 39 220.5t62 242.5zM158 637q-67 -183 -84 -251q-47 -184 2 -324
q-10 44 -11.5 95t1.5 90.5t16 101.5t21 93t28.5 101.5t26.5 93.5zM484 935q0 -3 -23.5 -15t-22.5 -20q23 8 44 24q1 -3 -1.5 -11.5t-5.5 -11.5q-10 -11 -73.5 -58t-85.5 -88q-4 -6 -15 -6q-12 0 -29 18q3 5 23.5 24.5t24.5 24.5q-4 -2 -14.5 -10t-22.5 -18.5t-16 -13.5
q-9 3 -7 14q73 50 97 81q-7 -5 -43.5 -33.5t-55.5 -40.5q-2 28 81.5 92t107.5 63l27 -1q-5 -4 -11.5 -8.5t-10.5 -6.5t-7 -5.5t-3 -6.5l37 20q5 0 5 -7z" />
    <glyph glyph-name="Ucircumflex" unicode="&#xdb;" horiz-adv-x="548" 
d="M626 115q-1 -4 -4.5 -9t-4.5 -8q-1 -4 1 -14t-1 -14q-1 -2 -9 -13.5t-13 -19t-12.5 -17t-14 -15.5t-11.5 -7q-11 -3 -26 -3q-21 0 -85 15q-9 9 -12 10q-58 37 -80 107t-19 137q0 1 -1 3t-2.5 4.5t-2.5 5.5q-1 0 -6 -5q-40 -80 -88 -160q-3 -5 -13.5 -25.5t-18 -32.5
t-19.5 -27.5t-26.5 -23.5t-30.5 -8q-8 0 -16.5 5t-15.5 6q-29 3 -48.5 22t-27.5 48.5t-11 55.5t-2 54q2 45 27 204q30 167 90 343q2 3 8 9q24 8 38 8q8 0 29.5 -21.5t26.5 -31.5q6 -32 5 -41q0 -6 -3 -11t-6 -7.5t-8 -5.5t-6 -4q-4 -4 -6.5 -9t-5 -13t-4.5 -12
q-17 -35 -27 -78q-19 -61 -32 -124q-10 -48 -23 -128t-13 -88q0 -1 1 -32t-1 -48l8 -5q7 3 12 14q18 26 39 64.5t44 85.5t32 64q18 27 24 42q8 17 32.5 72t39 88.5t34 83t31.5 88.5q2 0 11 4.5t14 4.5q28 0 59 -35q11 -19 11 -48q0 -3 -7.5 -38.5t-17.5 -83.5t-14 -74
l-8 -57l-7 -63l-5 -52l-3 -25q0 -4 2 -8t2 -6q-3 -11 1 -42q1 -4 3 -20.5t5 -23.5q10 -33 41 -56q9 -3 11 -3q4 0 4 1t3 1t4 -3t4 -3q11 0 59.5 33t49.5 33q12 0 12 -14zM408 515q-20 -54 -20.5 -195t10.5 -159q1 -3 1.5 26.5t1 76t1 96t2 94t4.5 61.5zM384 585
q-23 -56 -81.5 -177.5t-78.5 -177.5q122 216 160 355zM406 62q-12 29 -19.5 63t-10.5 79.5t-3.5 69.5t0 79t0.5 61q-16 -91 -10.5 -184.5t43.5 -167.5zM174 620q-41 -95 -74 -241t-27 -222q6 72 39 220.5t62 242.5zM158 637q-67 -183 -84 -251q-47 -184 2 -324
q-10 44 -11.5 95t1.5 90.5t16 101.5t21 93t28.5 101.5t26.5 93.5zM427 815q0 -10 -10 -20q-15 26 -25 76t-21 73q0 -4 -2 -4q0 -23 37 -149h-10q-12 19 -21.5 65t-16.5 64q-4 -3 -4 -8q0 -14 25 -111q-11 22 -38 96q-32 -36 -46 -55q-1 -2 -8 -12t-12.5 -18t-13.5 -17.5
t-16 -15t-14 -5.5q-10 0 -25.5 15t-15.5 20q0 12 37 49q8 9 36 47.5t51.5 63.5t39.5 25q14 0 34.5 -13t22.5 -27q2 -10 5 -84q1 -8 6 -30t5 -25z" />
    <glyph glyph-name="Udieresis" unicode="&#xdc;" horiz-adv-x="548" 
d="M626 115q-1 -4 -4.5 -9t-4.5 -8q-1 -4 1 -14t-1 -14q-1 -2 -9 -13.5t-13 -19t-12.5 -17t-14 -15.5t-11.5 -7q-11 -3 -26 -3q-21 0 -85 15q-9 9 -12 10q-58 37 -80 107t-19 137q0 1 -1 3t-2.5 4.5t-2.5 5.5q-1 0 -6 -5q-40 -80 -88 -160q-3 -5 -13.5 -25.5t-18 -32.5
t-19.5 -27.5t-26.5 -23.5t-30.5 -8q-8 0 -16.5 5t-15.5 6q-29 3 -48.5 22t-27.5 48.5t-11 55.5t-2 54q2 45 27 204q30 167 90 343l8 9q24 8 38 8q8 0 29.5 -21.5t26.5 -31.5q6 -32 5 -41q0 -6 -3 -11t-6 -7.5t-8 -5.5t-6 -4q-4 -4 -6.5 -9t-5 -13t-4.5 -12q-17 -35 -27 -78
q-19 -61 -32 -124q-10 -48 -23 -128t-13 -88q0 -1 1 -32t-1 -48l8 -5q7 3 12 14q18 26 39 64.5t44 85.5t32 64q18 27 24 42q8 17 32.5 72t39 88.5t34 83t31.5 88.5q2 0 11 4.5t14 4.5q28 0 59 -35q11 -19 11 -48q0 -3 -7.5 -38.5t-17.5 -83.5t-14 -74l-8 -57l-7 -63l-5 -52
l-3 -25q0 -4 2 -8t2 -6q-3 -11 1 -42q1 -4 3 -20.5t5 -23.5q10 -33 41 -56q9 -3 11 -3q4 0 4 1t3 1t4 -3t4 -3q11 0 59.5 33t49.5 33q12 0 12 -14zM408 515q-20 -54 -20.5 -195t10.5 -159q1 -3 1.5 26.5t1 76t1 96t2 94t4.5 61.5zM384 585q-23 -56 -81.5 -177.5
t-78.5 -177.5q122 216 160 355zM406 62q-12 29 -19.5 63t-10.5 79.5t-3.5 69.5t0 79t0.5 61q-16 -91 -10.5 -184.5t43.5 -167.5zM174 620q-41 -95 -74 -241t-27 -222q6 72 39 220.5t62 242.5zM158 637q-67 -183 -84 -251q-47 -184 2 -324q-10 44 -11.5 95t1.5 90.5t16 101.5
t21 93t28.5 101.5t26.5 93.5zM424 811q0 -18 -9 -28t-22 -10q-19 0 -35 13q-22 22 -22 36q0 28 31 44q25 2 41 -15t16 -40zM285 816q0 -43 -41 -43q-16 0 -31 22t-15 38q0 30 46 30q6 0 18.5 -6t18.5 -12q4 -6 4 -29zM278 819q-5 21 -20 30.5t-32 1.5q28 -1 52 -32zM273 803
q-5 23 -23.5 35t-38.5 5q23 -4 35 -12t27 -28zM412 791q8 21 -3 42t-30 20q28 -13 33 -62z" />
    <glyph glyph-name="Yacute" unicode="&#xdd;" horiz-adv-x="506" 
d="M488 626q0 -6 -27 -141q-17 -91 -27 -132l-19 -94q-13 -53 -21 -101q-14 -84 -16 -100t0 -58q0 -2 1.5 -14t2 -24.5t-0.5 -26.5t-6 -22.5t-15 -8.5q-4 0 -13.5 4t-12.5 5q3 21 34 220t41 318q-6 1 -10.5 -9t-7 -29.5t-4.5 -39.5t-4.5 -47t-4.5 -45q-6 -41 -15.5 -114.5
t-18 -134t-17.5 -113.5q-10 6 -16.5 14.5t-9.5 16.5t-5 19.5t-2 18.5t0.5 17.5t0.5 12.5q0 37 6.5 90t12.5 85t20 100.5t16 80.5q3 2 -1 8q-23 -24 -60.5 -69.5t-58.5 -68t-54 -42.5t-67 -20q-53 0 -83 39t-30 82q0 89 90 359q1 4 1 13t1 14q2 11 8 21q12 12 31 12
q27 0 49 -23.5t22 -48.5q0 -22 -7 -30q-29 -46 -58 -135q-15 -39 -26 -93q-18 -81 -14 -112l1 -2q2 -3 3.5 -4t5.5 -1q11 0 39 27t43 46q7 9 37 47.5t40 51.5t33.5 44.5t35 49.5t26.5 43.5t25 47.5q11 22 16 74q1 0 14.5 4.5t17.5 4.5q26 0 44.5 -31.5t13.5 -55.5zM445 661
q0 3 -1.5 3.5t-4 -0.5t-5.5 0q-5 -45 -63 -144q74 95 74 141zM423 663q-2 0 -14 -12q-6 -26 -23 -60.5t-44 -79t-27 -45.5q22 15 59 81.5t49 115.5zM155 657q-45 -63 -87 -272q11 38 62 187q28 85 25 85zM381 433q-52 -296 -58 -438q0 -5 14 85t28.5 200.5t15.5 152.5z
M139 673q0 3 -1.5 3.5t-3 -0.5t-3.5 1q-48 -99 -74.5 -223.5t0.5 -192.5q-8 33 -4.5 78.5t9.5 80t18 77.5t22 71t21.5 60t15.5 45zM481 923q0 -3 -23.5 -15t-22.5 -20q23 8 44 24q1 -3 -1.5 -11.5t-5.5 -11.5q-10 -11 -73.5 -58t-85.5 -88q-4 -6 -15 -6q-12 0 -29 18
q3 5 23.5 24.5t24.5 24.5q-4 -2 -14.5 -10t-22.5 -18.5t-16 -13.5q-9 3 -7 14q73 50 97 81q-7 -5 -43.5 -33.5t-55.5 -40.5q-2 28 81.5 92t107.5 63l27 -1q-5 -4 -11.5 -8.5t-10.5 -6.5t-7 -5.5t-3 -6.5l37 20q5 0 5 -7z" />
    <glyph glyph-name="germandbls" unicode="&#xdf;" horiz-adv-x="465" 
d="M450 229q0 -29 -19.5 -75.5t-39.5 -76.5q-17 -22 -57 -57t-55 -35q-22 0 -53.5 24t-31.5 45q0 11 18 25.5t26 15.5q6 2 24.5 3.5t24.5 3.5q5 3 11 10.5t13.5 18.5t9.5 14q44 59 44 109q0 19 -3 23q-2 3 -5.5 6t-8.5 7t-8 6q-2 2 -28.5 9.5t-35.5 7.5q-2 0 -19 -8.5
t-27 -8.5q-16 0 -40.5 29t-24.5 42q0 2 14.5 16t34.5 33.5t30 31.5q4 4 13 20t13 22q3 5 17.5 27t19 31t10.5 26t6 33q0 19 -15 30t-29 11q-6 0 -11.5 -2.5t-9.5 -5t-9.5 -8.5t-7.5 -9t-7.5 -10.5t-6.5 -8.5q-64 -96 -97 -266q-1 -8 -4 -18.5t-6.5 -24t-5.5 -20.5
q-6 -35 -12.5 -91.5t-9.5 -96t-3 -45.5q0 -35 2 -52q1 -1 4 -6t4 -8q4 -24 4 -33t-10 -13.5t-15 -4.5q-8 0 -27 9.5t-24 15.5q0 2 -5.5 8.5t-6.5 10.5q-10 27 -10 65q0 33 10 122t14 114q3 15 13 59t15 70q2 5 10.5 25.5t11.5 31.5q1 4 4.5 21.5t5.5 23.5q25 83 52 131
q13 28 37 59t43 36q1 0 13 5t16 5q8 0 11 -5q23 0 38 -9q110 -57 110 -150q0 -16 -7.5 -37.5t-20 -44t-23 -39t-23.5 -35t-14 -19.5q-4 -4 -4 -14q53 -22 93 -64t40 -91zM305 685q-30 11 -66.5 -18.5t-42.5 -46.5q1 0 21 17t29.5 24t27 15.5t31.5 8.5zM412 288
q-9 34 -54.5 60t-83.5 17q77 -11 138 -77zM414 234q-5 40 -34 68t-61.5 39t-60.5 9q42 -8 89 -38t67 -78zM284 704q-57 -6 -103.5 -63.5t-73.5 -138t-45 -172t-24 -163.5t-3 -114q3 20 9 75t10.5 86.5t12.5 86.5t17 90.5t22.5 83.5t30.5 80t38 64.5t49 53t60 31.5zM180 601
q-25 -29 -52 -100.5t-39 -123.5q-25 -113 -44 -348q6 36 20 141.5t23 155t33 129.5t59 146z" />
    <glyph glyph-name="agrave" unicode="&#xe0;" horiz-adv-x="409" 
d="M474 104q0 -8 -36 -44q-23 -23 -59.5 -42t-68.5 -19q-40 0 -56 9q-13 10 -21 21.5t-10.5 18t-6.5 26t-6 27.5q-7 -7 -19.5 -28.5t-20.5 -30.5q-6 -9 -40 -40q-18 -9 -29 -9h-35q-6 0 -23.5 9t-25.5 18q-6 9 -11 27t-5 25q0 61 69 199.5t106 171.5q12 7 27 7q12 0 14 -1
q10 -8 30.5 -20.5t23.5 -12.5q4 0 6 2t6 2q19 0 39.5 -18.5t20.5 -40.5q0 -6 -3.5 -20t-7.5 -27l-10 -26l-4 -14q-23 -106 -23 -147q0 -2 -0.5 -11.5t0 -14t1.5 -13t4 -13t9 -8.5t15 -5q37 0 73 16q40 17 78 43q0 -6 -1 -17zM247 361v10q-4 0 -5 1l-2 2q-76 -64 -134 -267
q-5 -5 -5 -13v-14q12 9 23.5 21t20 21.5t19 27.5t15 26t14.5 31t12 28t12 31.5t11 27.5q19 63 19 67zM201 390q-31 -8 -76.5 -98t-40.5 -129q6 40 42 109t75 118zM303 38q-58 41 -58 94q0 4 1 15t1 16q-14 -26 -14 -34q0 -25 21 -56.5t49 -34.5zM225 391l-14 -4
q-57 -63 -93.5 -154t-29.5 -164q0 70 40.5 163t96.5 159zM285 23q-26 14 -42.5 45t-16.5 57q0 -1 -4 -7.5t-3 -10.5q3 -31 22.5 -56t43.5 -28zM296 509q0 -8 -5 -19.5t-14 -11.5q-28 0 -99 67.5t-77 89.5q19 -11 66 -58.5t72 -62.5q1 -2 4 1q-28 20 -71.5 62.5t-62.5 70.5
q0 2 2 4.5t4 1.5q17 -14 69.5 -65t86.5 -75q2 4 -34.5 37t-73.5 68t-37 45q0 7 9.5 10.5t17.5 3.5q12 0 22.5 -10t24 -29.5t18.5 -25.5q12 -15 35 -41.5t30 -34.5q13 -17 13 -28z" />
    <glyph glyph-name="aacute" unicode="&#xe1;" horiz-adv-x="409" 
d="M474 104q0 -8 -36 -44q-23 -23 -59.5 -42t-68.5 -19q-40 0 -56 9q-13 10 -21 21.5t-10.5 18t-6.5 26t-6 27.5q-7 -7 -19.5 -28.5t-20.5 -30.5q-6 -9 -40 -40q-18 -9 -29 -9h-35q-6 0 -23.5 9t-25.5 18q-6 9 -11 27t-5 25q0 61 69 199.5t106 171.5q12 7 27 7q12 0 14 -1
q10 -8 30.5 -20.5t23.5 -12.5q4 0 6 2t6 2q19 0 39.5 -18.5t20.5 -40.5q0 -6 -3.5 -20t-7.5 -27l-10 -26l-4 -14q-23 -106 -23 -147q0 -2 -0.5 -11.5t0 -14t1.5 -13t4 -13t9 -8.5t15 -5q37 0 73 16q40 17 78 43q0 -6 -1 -17zM247 361v10q-4 0 -5 1l-2 2q-76 -64 -134 -267
q-5 -5 -5 -13v-14q12 9 23.5 21t20 21.5t19 27.5t15 26t14.5 31t12 28t12 31.5t11 27.5q19 63 19 67zM201 390q-31 -8 -76.5 -98t-40.5 -129q6 40 42 109t75 118zM303 38q-58 41 -58 94q0 4 1 15t1 16q-14 -26 -14 -34q0 -25 21 -56.5t49 -34.5zM225 391l-14 -4
q-57 -63 -93.5 -154t-29.5 -164q0 70 40.5 163t96.5 159zM285 23q-26 14 -42.5 45t-16.5 57q0 -1 -4 -7.5t-3 -10.5q3 -31 22.5 -56t43.5 -28zM462 658q0 -3 -23.5 -15t-22.5 -20q23 8 44 24q1 -3 -1.5 -11.5t-5.5 -11.5q-10 -11 -73.5 -58t-85.5 -88q-4 -6 -15 -6
q-12 0 -29 18q3 5 23.5 24.5t24.5 24.5q-4 -2 -14.5 -10t-22.5 -18.5t-16 -13.5q-9 3 -7 14q73 50 97 81q-7 -5 -43.5 -33.5t-55.5 -40.5q-2 28 81.5 92t107.5 63l27 -1q-5 -4 -11.5 -8.5t-10.5 -6.5t-7 -5.5t-3 -6.5l37 20q5 0 5 -7z" />
    <glyph glyph-name="acircumflex" unicode="&#xe2;" horiz-adv-x="409" 
d="M474 104q0 -8 -36 -44q-23 -23 -59.5 -42t-68.5 -19q-40 0 -56 9q-13 10 -21 21.5t-10.5 18t-6.5 26t-6 27.5q-7 -7 -19.5 -28.5t-20.5 -30.5q-6 -9 -40 -40q-18 -9 -29 -9h-35q-6 0 -23.5 9t-25.5 18q-6 9 -11 27t-5 25q0 61 69 199.5t106 171.5q12 7 27 7q12 0 14 -1
q10 -8 30.5 -20.5t23.5 -12.5q4 0 6 2t6 2q19 0 39.5 -18.5t20.5 -40.5q0 -6 -3.5 -20t-7.5 -27l-10 -26l-4 -14q-23 -106 -23 -147q0 -2 -0.5 -11.5t0 -14t1.5 -13t4 -13t9 -8.5t15 -5q37 0 73 16q40 17 78 43q0 -6 -1 -17zM247 361v10q-4 0 -5 1l-2 2q-76 -64 -134 -267
q-5 -5 -5 -13v-14q12 9 23.5 21t20 21.5t19 27.5t15 26t14.5 31t12 28t12 31.5t11 27.5q19 63 19 67zM201 390q-31 -8 -76.5 -98t-40.5 -129q6 40 42 109t75 118zM303 38q-58 41 -58 94q0 4 1 15t1 16q-14 -26 -14 -34q0 -25 21 -56.5t49 -34.5zM225 391l-14 -4
q-57 -63 -93.5 -154t-29.5 -164q0 70 40.5 163t96.5 159zM285 23q-26 14 -42.5 45t-16.5 57q0 -1 -4 -7.5t-3 -10.5q3 -31 22.5 -56t43.5 -28zM350 518q0 -10 -10 -20q-15 26 -25 76t-21 73q0 -4 -2 -4q0 -23 37 -149h-10q-12 19 -21.5 65t-16.5 64q-4 -3 -4 -8
q0 -14 25 -111q-11 22 -38 96q-32 -36 -46 -55q-1 -2 -8 -12t-12.5 -18t-13.5 -17.5t-16 -15t-14 -5.5q-10 0 -25.5 15t-15.5 20q0 12 37 49q8 9 36 47.5t51.5 63.5t39.5 25q14 0 34.5 -13t22.5 -27q2 -10 5 -84q1 -8 6 -30t5 -25z" />
    <glyph glyph-name="atilde" unicode="&#xe3;" horiz-adv-x="409" 
d="M474 104q1 11 1 17q-38 -26 -78 -43q-36 -16 -73 -16q-9 1 -15 5t-9 8.5t-4 13t-1.5 13t0 14t0.5 11.5q0 41 23 147q0 1 4 14l10 26l8 27l3 20q0 22 -20.5 40.5t-39.5 18.5q-4 0 -6 -2t-6 -2q-3 0 -23.5 12.5t-30.5 20.5q-2 1 -14 1q-15 0 -27 -7q-37 -33 -106 -171.5
t-69 -199.5q0 -7 5 -25t11 -27q8 -9 25.5 -18t23.5 -9h35q11 0 29 9q34 31 40 40q8 9 20.5 30.5t19.5 28.5q2 -9 5 -23t5 -21t6 -16.5t10.5 -17t17.5 -15.5q16 -9 56 -9q32 0 68.5 19t59.5 42q36 36 36 44zM247 361q0 -4 -19 -67q-2 -5 -9.5 -25t-10.5 -27t-10.5 -25.5
t-12.5 -27t-13 -24.5t-15 -25.5t-16 -21.5t-19 -21t-21 -17v14q0 8 5 13q58 203 134 267l2 -2q1 -1 5 -1v-10zM201 390q-39 -49 -75 -118t-42 -109q-5 39 40.5 129t76.5 98zM303 38q-28 3 -49 34.5t-21 56.5q0 8 14 34q0 -5 -1 -16t-1 -15q0 -53 58 -94zM225 391
q-56 -66 -96.5 -159t-40.5 -163q-7 73 29.5 164t93.5 154zM285 23q-24 3 -43.5 28t-22.5 56q-1 4 3 10.5t4 7.5q0 -26 16.5 -57t42.5 -45zM389 566q0 49 -40 57q-3 -5 -5.5 -11t-4 -12.5t-2.5 -8.5q-3 -11 -17.5 -22t-23.5 -11q-2 0 -13.5 15t-30 29.5t-38.5 14.5
q-28 0 -66 -21.5t-38 -54.5q0 -27 21 -48q8 -10 18 -10q11 0 13 10q1 2 4 11t7 14q4 7 22 17.5t28 10.5h8q7 0 19 -16t29 -31.5t35 -15.5q17 0 45 23.5t30 37.5v22zM322 538q-14 -8 -31 1.5t-31.5 23t-37.5 16t-49 -20.5q20 27 41.5 29.5t37 -10t36 -26.5t34.5 -13zM334 530
q-14 -14 -25 -14q-15 -1 -32 10.5t-29 23t-34 10.5t-49 -23q19 26 39.5 30t35.5 -6t35.5 -23t34.5 -14q9 -1 24 6z" />
    <glyph glyph-name="adieresis" unicode="&#xe4;" horiz-adv-x="409" 
d="M474 104q0 -8 -36 -44q-23 -23 -59.5 -42t-68.5 -19q-40 0 -56 9q-13 10 -21 21.5t-10.5 18t-6.5 26t-6 27.5q-7 -7 -19.5 -28.5t-20.5 -30.5q-6 -9 -40 -40q-18 -9 -29 -9h-35q-6 0 -23.5 9t-25.5 18q-6 9 -11 27t-5 25q0 61 69 199.5t106 171.5q12 7 27 7q12 0 14 -1
q10 -8 30.5 -20.5t23.5 -12.5q4 0 6 2t6 2q19 0 39.5 -18.5t20.5 -40.5q0 -6 -3.5 -20t-7.5 -27l-10 -26l-4 -14q-23 -106 -23 -147q0 -2 -0.5 -11.5t0 -14t1.5 -13t4 -13t9 -8.5t15 -5q37 0 73 16q40 17 78 43q0 -6 -1 -17zM247 361v10q-4 0 -5 1l-2 2q-76 -64 -134 -267
q-5 -5 -5 -13v-14q12 9 23.5 21t20 21.5t19 27.5t15 26t14.5 31t12 28t12 31.5t11 27.5q19 63 19 67zM201 390q-31 -8 -76.5 -98t-40.5 -129q6 40 42 109t75 118zM303 38q-58 41 -58 94q0 4 1 15t1 16q-14 -26 -14 -34q0 -25 21 -56.5t49 -34.5zM225 391l-14 -4
q-57 -63 -93.5 -154t-29.5 -164q0 70 40.5 163t96.5 159zM285 23q-26 14 -42.5 45t-16.5 57q0 -1 -4 -7.5t-3 -10.5q3 -31 22.5 -56t43.5 -28zM358 532q0 -18 -9 -28t-22 -10q-19 0 -35 13q-22 22 -22 36q0 28 31 44q25 2 41 -15t16 -40zM219 537q0 -43 -41 -43
q-16 0 -31 22t-15 38q0 30 46 30q6 0 18.5 -6t18.5 -12q4 -6 4 -29zM212 540q-5 21 -20 30.5t-32 1.5q28 -1 52 -32zM207 524q-5 23 -23.5 35t-38.5 5q23 -4 35 -12t27 -28zM346 512q8 21 -3 42t-30 20q28 -13 33 -62z" />
    <glyph glyph-name="aring" unicode="&#xe5;" horiz-adv-x="409" 
d="M474 104q0 -8 -36 -44q-23 -23 -59.5 -42t-68.5 -19q-40 0 -56 9q-13 10 -21 21.5t-10.5 18t-6.5 26t-6 27.5q-7 -7 -19.5 -28.5t-20.5 -30.5q-6 -9 -40 -40q-18 -9 -29 -9h-35q-6 0 -23.5 9t-25.5 18q-6 9 -11 27t-5 25q0 61 69 199.5t106 171.5q12 7 27 7q12 0 14 -1
q10 -8 30.5 -20.5t23.5 -12.5q4 0 6 2t6 2q19 0 39.5 -18.5t20.5 -40.5q0 -6 -3.5 -20t-7.5 -27l-10 -26l-4 -14q-23 -106 -23 -147q0 -2 -0.5 -11.5t0 -14t1.5 -13t4 -13t9 -8.5t15 -5q37 0 73 16q40 17 78 43q0 -6 -1 -17zM247 361v10q-4 0 -5 1l-2 2q-76 -64 -134 -267
q-5 -5 -5 -13v-14q12 9 23.5 21t20 21.5t19 27.5t15 26t14.5 31t12 28t12 31.5t11 27.5q19 63 19 67zM201 390q-31 -8 -76.5 -98t-40.5 -129q6 40 42 109t75 118zM303 38q-58 41 -58 94q0 4 1 15t1 16q-14 -26 -14 -34q0 -25 21 -56.5t49 -34.5zM225 391l-14 -4
q-57 -63 -93.5 -154t-29.5 -164q0 70 40.5 163t96.5 159zM285 23q-26 14 -42.5 45t-16.5 57q0 -1 -4 -7.5t-3 -10.5q3 -31 22.5 -56t43.5 -28zM330 554q0 -32 -25 -52t-47 -20q-35 0 -59 19q-7 6 -16 27t-9 33q0 22 23.5 54t36.5 32q2 -3 7 -3q2 0 6.5 6t13.5 6q4 0 12 -5
t11 -6q46 -26 46 -91zM273 579q0 5 -1.5 10t-1.5 7q-8 -4 -22 -24t-14 -29q0 -5 1 -6t2 -1q13 -4 24.5 13.5t11.5 29.5zM291 605q13 -19 13 -43.5t-9 -43.5q17 20 17.5 43.5t-21.5 43.5zM277 606q27 -52 -21 -109q70 54 21 109z" />
    <glyph glyph-name="ae" unicode="&#xe6;" horiz-adv-x="521" 
d="M557 131q0 -8 -22 -28t-48 -41t-27 -22q-14 -13 -27 -19.5t-27.5 -11t-21.5 -7.5q-8 -3 -35 -3q-47 0 -85.5 30t-42.5 81q-9 -9 -27.5 -33t-23.5 -30q-20 -23 -42 -39q-18 -9 -27 -9h-36q-5 0 -23 9q-17 9 -25 18q-17 18 -17 52q0 61 69 199.5t106 171.5q14 7 27 7
q11 0 14 -1q43 -33 55 -33q5 4 12 4q16 0 31 -12.5t18 -21.5q13 17 36 35.5t36 18.5q4 0 16 -4.5t16 -5.5q31 -13 46 -39t15 -53q0 -17 -17.5 -51.5t-34 -60t-19.5 -28.5q-12 -12 -33.5 -39t-39.5 -42.5t-41 -22.5q-5 -2 -11 -6q7 -25 15 -33t26 -8q30 0 75 21.5t78.5 43.5
t36.5 22h18q1 -1 3 -1.5t3 -2t1 -5.5zM415 352v14q-67 -61 -92 -156q11 7 51.5 64t40.5 78zM246 367v10q-4 0 -5 1l-2 2q-15 -11 -29 -29t-23.5 -33t-21.5 -40.5t-16 -36t-14 -37.5l-10 -26q-9 -17 -17 -44.5t-8 -33.5v-14q19 14 35.5 32.5t30.5 44.5t22 42t22 50.5t18 44.5
q2 7 6.5 23.5t8 28.5t3.5 15zM200 388q-31 -8 -77 -98.5t-41 -129.5q6 40 42 109t76 119zM325 37q-30 17 -49.5 47t-19.5 55q0 4 1 15t1 16q-14 -26 -14 -34q0 -27 24 -62.5t57 -36.5zM225 390q-14 -4 -16 -6q-57 -63 -93.5 -154t-29.5 -164q0 70 40.5 163t98.5 161zM296 30
q-26 14 -42.5 45t-16.5 57q0 -1 -4 -7.5t-3 -10.5q3 -31 22.5 -56t43.5 -28zM445 386q4 -36 -8.5 -81t-41.5 -73q34 17 51 66t-1 88zM431 378q0 -1 -1.5 -19.5t-3 -26.5t-5.5 -25t-12 -31t-19 -28q30 16 42.5 59t-1.5 71z" />
    <glyph glyph-name="ccedilla" unicode="&#xe7;" horiz-adv-x="321" 
d="M364 134q-16 -27 -37.5 -49.5t-33.5 -31.5t-46.5 -30t-42.5 -26q-5 -3 -25.5 -8t-26.5 -5q-3 0 -34 2t-35 2q-10 0 -29.5 14.5t-27.5 22.5q-7 13 -16 44t-9 49q0 51 23 129.5t67 144.5t91 66q26 0 61.5 -16.5t53.5 -40.5q11 -17 11 -50q0 -3 -13.5 -32t-18.5 -30
q-7 -3 -25 -15t-22 -12q-10 0 -21.5 15.5t-11.5 23.5q0 3 4 13l8 26l7 25l-6 6q-42 -20 -78.5 -110t-36.5 -149q0 -9 2.5 -23t11 -28.5t20.5 -10.5q3 0 5.5 -2.5t6.5 -2.5q23 0 75.5 21.5t78.5 36.5q57 31 58 32q3 2 6 0.5t6 -1.5zM259 341q2 29 -14 49q0 -2 -1.5 -3
t-3.5 -1l-2 -1q11 -11 12.5 -36t-5.5 -43q13 19 14 35zM239 342q2 22 -8 41q-1 0 -5 -2t-6 -2q5 -5 7.5 -12t3 -12.5t-1 -15t-2.5 -13.5t-4 -15t-4 -13q17 22 20 44zM123 316q-36 -60 -51 -109.5t-5 -99.5t50 -95q-33 44 -39 96.5t6 98.5t39 109zM256 389q7 -8 9.5 -17.5
t2 -16t-3.5 -18t-3 -14.5q14 13 14 39t-19 27zM82 288q-39 -77 -45 -109q-12 -68 41 -143q-14 26 -21 50.5t-9.5 41t1.5 40.5t7 35.5t12.5 41.5t13.5 43zM249 -106q0 -27 -10 -40q-11 -11 -29 -22t-29 -11q-42 0 -42 33q0 11 13 24q4 -6 15 -6q7 0 26 19q-8 8 -14 8
q-4 0 -18 -1.5t-18 -1.5q-18 0 -31 19.5t-13 31.5q0 28 23 56q4 4 8.5 13.5t8.5 12.5q11 8 20 8q15 0 24.5 -19t9.5 -29q0 -3 -3 -8.5t-7.5 -12t-5.5 -9.5q22 0 47 -22t25 -43zM232 -103q-11 25 -26 32.5t-42 0.5q41 -2 68 -33zM226 -128q-3 32 -32 45t-56 -4q31 5 55 -6.5
t33 -34.5z" />
    <glyph glyph-name="egrave" unicode="&#xe8;" horiz-adv-x="331" 
d="M372 167q2 -11 -11 -26q-49 -63 -111.5 -108t-111.5 -45q-68 0 -103 42t-35 103q0 57 35 139.5t78 131.5q2 3 7.5 11.5t12 16t14.5 13.5q9 7 25 15.5t21 8.5q3 0 7.5 -1.5t10 -4t8.5 -3.5q34 -8 52.5 -36.5t18.5 -59.5q0 -50 -80 -154.5t-126 -111.5q9 -29 17 -35.5
t26 -6.5q36 0 88.5 28t94 55.5t49.5 27.5h13zM215 391q-12 -69 -8 -66l1 2q0 1 3 7t4 10t2.5 11.5t1 16.5t-3.5 19zM244 402q3 -34 -10.5 -76t-42.5 -71q33 17 51 65.5t2 81.5zM229 398q0 -2 -1 -13.5t-2 -16.5t-2.5 -17t-4.5 -20t-7.5 -19t-11 -21t-14.5 -20q29 16 42 57.5
t1 69.5zM201 381q-25 -16 -55.5 -67.5t-40.5 -92.5q31 16 67 63.5t29 96.5zM119 6q-28 9 -48.5 27t-30.5 39.5t-14 41.5t-4 41q0 52 29 121q-37 -66 -37 -131q0 -49 24.5 -90t80.5 -49zM148 11q-56 19 -87 72.5t-21 98.5q-6 -12 -6 -39q0 -51 28.5 -88t85.5 -44zM257 528
q0 -8 -5 -19.5t-14 -11.5q-28 0 -99 67.5t-77 89.5q19 -11 66 -58.5t72 -62.5q1 -2 4 1q-28 20 -71.5 62.5t-62.5 70.5q0 2 2 4.5t4 1.5q17 -14 69.5 -65t86.5 -75q2 4 -34.5 37t-73.5 68t-37 45q0 7 9.5 10.5t17.5 3.5q12 0 22.5 -10t24 -29.5t18.5 -25.5q12 -15 35 -41.5
t30 -34.5q13 -17 13 -28z" />
    <glyph glyph-name="eacute" unicode="&#xe9;" horiz-adv-x="331" 
d="M372 167q2 -11 -11 -26q-49 -63 -111.5 -108t-111.5 -45q-68 0 -103 42t-35 103q0 57 35 139.5t78 131.5q2 3 7.5 11.5t12 16t14.5 13.5q9 7 25 15.5t21 8.5q3 0 7.5 -1.5t10 -4t8.5 -3.5q34 -8 52.5 -36.5t18.5 -59.5q0 -50 -80 -154.5t-126 -111.5q9 -29 17 -35.5
t26 -6.5q36 0 88.5 28t94 55.5t49.5 27.5h13zM215 391q-12 -69 -8 -66l1 2q0 1 3 7t4 10t2.5 11.5t1 16.5t-3.5 19zM244 402q3 -34 -10.5 -76t-42.5 -71q33 17 51 65.5t2 81.5zM229 398q0 -2 -1 -13.5t-2 -16.5t-2.5 -17t-4.5 -20t-7.5 -19t-11 -21t-14.5 -20q29 16 42 57.5
t1 69.5zM201 381q-25 -16 -55.5 -67.5t-40.5 -92.5q31 16 67 63.5t29 96.5zM119 6q-28 9 -48.5 27t-30.5 39.5t-14 41.5t-4 41q0 52 29 121q-37 -66 -37 -131q0 -49 24.5 -90t80.5 -49zM148 11q-56 19 -87 72.5t-21 98.5q-6 -12 -6 -39q0 -51 28.5 -88t85.5 -44zM405 689
q0 -3 -23.5 -15t-22.5 -20q23 8 44 24q1 -3 -1.5 -11.5t-5.5 -11.5q-10 -11 -73.5 -58t-85.5 -88q-4 -6 -15 -6q-12 0 -29 18q3 5 23.5 24.5t24.5 24.5q-4 -2 -14.5 -10t-22.5 -18.5t-16 -13.5q-9 3 -7 14q73 50 97 81q-7 -5 -43.5 -33.5t-55.5 -40.5q-2 28 81.5 92
t107.5 63l27 -1q-5 -4 -11.5 -8.5t-10.5 -6.5t-7 -5.5t-3 -6.5l37 20q5 0 5 -7z" />
    <glyph glyph-name="ecircumflex" unicode="&#xea;" horiz-adv-x="331" 
d="M372 167q2 -11 -11 -26q-49 -63 -111.5 -108t-111.5 -45q-68 0 -103 42t-35 103q0 57 35 139.5t78 131.5q2 3 7.5 11.5t12 16t14.5 13.5q9 7 25 15.5t21 8.5q3 0 7.5 -1.5t10 -4t8.5 -3.5q34 -8 52.5 -36.5t18.5 -59.5q0 -50 -80 -154.5t-126 -111.5q9 -29 17 -35.5
t26 -6.5q36 0 88.5 28t94 55.5t49.5 27.5h13zM215 391q-12 -69 -8 -66l1 2q0 1 3 7t4 10t2.5 11.5t1 16.5t-3.5 19zM244 402q3 -34 -10.5 -76t-42.5 -71q33 17 51 65.5t2 81.5zM229 398q0 -2 -1 -13.5t-2 -16.5t-2.5 -17t-4.5 -20t-7.5 -19t-11 -21t-14.5 -20q29 16 42 57.5
t1 69.5zM201 381q-25 -16 -55.5 -67.5t-40.5 -92.5q31 16 67 63.5t29 96.5zM119 6q-28 9 -48.5 27t-30.5 39.5t-14 41.5t-4 41q0 52 29 121q-37 -66 -37 -131q0 -49 24.5 -90t80.5 -49zM148 11q-56 19 -87 72.5t-21 98.5q-6 -12 -6 -39q0 -51 28.5 -88t85.5 -44zM312 517
q0 -10 -10 -20q-15 26 -25 76t-21 73q0 -4 -2 -4q0 -23 37 -149h-10q-12 19 -21.5 65t-16.5 64q-4 -3 -4 -8q0 -14 25 -111q-11 22 -38 96q-32 -36 -46 -55q-1 -2 -8 -12t-12.5 -18t-13.5 -17.5t-16 -15t-14 -5.5q-10 0 -25.5 15t-15.5 20q0 12 37 49q8 9 36 47.5t51.5 63.5
t39.5 25q14 0 34.5 -13t22.5 -27q2 -10 5 -84q1 -8 6 -30t5 -25z" />
    </font>
</defs>
</svg>
