<?xml version="1.0" standalone="no"?>
<!DOCTYPE svg PUBLIC "-//W3C//DTD SVG 20010904//EN"
 "http://www.w3.org/TR/2001/REC-SVG-20010904/DTD/svg10.dtd">
<svg version="1.0" xmlns="http://www.w3.org/2000/svg"
 width="1500.000000pt" height="1500.000000pt" viewBox="0 0 1500.000000 1500.000000"
 preserveAspectRatio="xMidYMid meet">
<metadata>
Created by potrace 1.11, written by Peter Selinger 2001-2013
</metadata>
<g transform="translate(0.000000,1500.000000) scale(0.100000,-0.100000)"
fill="#000000" stroke="none">
<path d="M7465 14750 c-32 -12 -39 -27 -80 -150 -62 -192 -154 -416 -245 -594
-108 -216 -101 -202 -185 -331 -458 -698 -1090 -947 -1802 -709 -56 19 -136
49 -177 68 -102 47 -128 49 -165 14 -23 -21 -23 -24 -17 -142 4 -67 8 -137 10
-156 2 -19 7 -87 11 -150 3 -63 8 -133 10 -155 2 -22 6 -87 10 -145 3 -58 8
-121 10 -140 2 -19 7 -82 10 -140 3 -58 8 -125 10 -150 2 -25 6 -85 10 -135 3
-49 7 -117 10 -150 8 -114 15 -210 20 -305 3 -52 8 -120 10 -150 3 -30 7 -82
9 -115 3 -33 8 -105 11 -160 3 -55 8 -120 10 -145 2 -25 7 -90 10 -145 4 -55
8 -116 10 -135 2 -19 6 -87 10 -150 4 -63 8 -131 10 -150 2 -19 6 -82 10 -140
3 -58 8 -125 10 -150 3 -25 7 -87 10 -138 2 -52 7 -115 10 -140 2 -26 7 -94
11 -152 9 -152 11 -185 18 -285 4 -49 9 -117 11 -150 12 -191 16 -245 20 -290
2 -27 7 -99 11 -160 3 -60 8 -113 11 -117 2 -5 2 -8 -1 -8 -3 0 -47 55 -98
123 -52 67 -130 169 -174 227 -44 58 -129 170 -189 250 -61 80 -114 150 -120
157 -5 6 -68 88 -140 183 -71 95 -164 216 -205 270 -41 54 -131 173 -200 264
-132 175 -155 194 -209 175 -32 -11 -37 -19 -87 -148 -204 -526 -596 -858
-1119 -950 -89 -15 -146 -18 -295 -15 -102 2 -198 5 -215 8 -16 3 -46 7 -65
10 -41 6 -136 23 -165 30 -324 76 -572 166 -913 333 -160 79 -176 82 -222 45
-37 -30 -29 -66 52 -233 103 -210 236 -537 263 -649 2 -8 17 -67 34 -130 93
-348 108 -655 46 -947 -22 -107 -78 -265 -115 -328 -10 -16 -30 -52 -45 -79
-65 -120 -206 -277 -348 -389 -119 -94 -340 -213 -483 -261 -66 -22 -94 -48
-94 -89 0 -37 19 -62 75 -103 22 -16 42 -31 45 -34 3 -3 32 -25 65 -50 33 -25
66 -50 75 -57 8 -6 35 -27 60 -45 100 -75 215 -163 220 -168 3 -3 59 -46 125
-95 66 -50 122 -92 125 -95 3 -3 52 -41 110 -84 58 -44 159 -121 225 -171 66
-50 197 -149 290 -220 94 -71 172 -132 175 -135 3 -3 39 -30 80 -60 41 -30 82
-61 90 -67 8 -7 89 -69 180 -137 91 -69 176 -134 190 -145 14 -11 52 -40 85
-65 33 -25 65 -49 70 -54 6 -4 114 -86 240 -182 127 -96 277 -211 335 -255 58
-44 171 -129 250 -190 80 -60 296 -224 480 -365 184 -140 389 -296 455 -345
66 -50 126 -96 134 -103 8 -7 24 -20 37 -29 13 -8 24 -18 24 -22 0 -10 -22
-32 -603 -606 -518 -511 -547 -542 -547 -575 0 -19 7 -44 16 -55 15 -20 28
-20 1049 -23 l1035 -2 2 -447 3 -446 27 -20 c25 -19 33 -19 105 -9 43 6 87 13
98 16 11 2 48 7 82 11 35 4 75 8 90 10 172 23 534 23 674 0 13 -2 42 -6 64
-10 194 -29 388 -90 570 -179 190 -94 313 -180 484 -339 72 -67 75 -69 117
-64 38 4 55 15 135 91 249 234 596 412 919 472 14 2 34 6 46 9 12 3 39 7 60
10 21 4 50 8 64 11 123 22 534 22 670 0 14 -2 52 -7 85 -11 32 -4 66 -8 75
-10 8 -1 55 -8 103 -15 83 -13 89 -12 115 7 l27 20 3 447 2 446 1028 0 1029 0
21 23 c14 15 22 36 22 58 0 32 -23 57 -322 352 -517 510 -828 821 -828 828 0
4 21 23 48 42 26 19 139 105 252 191 113 86 293 222 400 304 107 81 202 153
210 159 17 14 292 224 328 251 30 22 224 169 237 179 6 5 134 103 285 218 151
115 320 243 375 285 55 42 271 206 480 365 209 159 416 316 460 350 44 34 157
119 250 190 94 71 213 161 265 201 52 40 115 88 140 107 207 154 478 364 492
381 22 27 22 75 0 101 -9 11 -57 35 -107 54 -542 203 -898 615 -979 1131 -26
164 -22 427 9 605 60 345 163 645 362 1051 35 73 65 141 68 152 6 31 -30 79
-64 87 -26 5 -57 -6 -186 -69 -205 -100 -400 -182 -565 -236 -88 -29 -268 -82
-293 -85 -12 -2 -67 -12 -122 -24 -146 -29 -230 -36 -425 -35 -188 1 -287 14
-440 61 -77 23 -232 88 -270 113 -8 5 -28 17 -44 26 -64 36 -171 121 -250 200
-76 76 -186 214 -186 233 0 6 -4 11 -10 11 -5 0 -10 5 -10 12 0 6 -6 19 -14
27 -35 40 -166 323 -166 357 0 19 -41 65 -66 74 -39 15 -76 -6 -125 -73 -26
-34 -85 -111 -131 -172 -46 -60 -227 -299 -403 -530 -176 -231 -343 -451 -373
-490 -29 -38 -105 -139 -169 -223 -63 -84 -120 -155 -126 -159 -5 -3 -8 -2 -4
3 3 5 8 61 12 124 11 186 22 345 30 440 2 25 6 92 10 150 7 112 9 144 20 285
7 101 11 158 20 290 3 50 7 117 10 150 8 109 19 262 30 435 3 41 7 102 10 135
2 33 7 98 10 145 3 47 8 112 10 145 2 33 7 103 10 155 3 52 8 115 10 139 3 24
7 89 10 145 3 56 7 126 10 156 9 116 15 198 20 275 2 44 7 112 10 150 3 39 7
102 10 140 3 39 7 99 10 135 2 36 7 106 10 155 6 112 14 224 20 290 3 28 7 93
10 145 3 53 7 114 10 135 2 22 6 99 10 170 7 130 7 130 -18 154 -34 31 -70 30
-147 -6 -123 -58 -272 -109 -370 -128 -12 -2 -29 -6 -38 -9 -17 -5 -92 -15
-162 -22 -353 -36 -709 74 -1000 310 -290 235 -544 610 -740 1091 -54 133
-140 378 -140 401 0 6 -13 26 -29 43 -29 31 -57 37 -96 21z"/>
</g>
</svg>
